<?xml version="1.0" encoding="UTF-8"?>
<svg id="_레이어_2" data-name="레이어 2" xmlns="http://www.w3.org/2000/svg" xmlns:xlink="http://www.w3.org/1999/xlink" viewBox="0 0 943.14 541.29">
  <defs>
    <style>
      .cls-1 {
        fill: url(#linear-gradient-15);
      }

      .cls-2 {
        fill: url(#linear-gradient-13);
      }

      .cls-3 {
        fill: url(#linear-gradient-28);
      }

      .cls-4 {
        fill: url(#linear-gradient-2);
      }

      .cls-5 {
        mask: url(#mask-1);
      }

      .cls-6 {
        fill: url(#linear-gradient-25);
      }

      .cls-7 {
        fill: url(#linear-gradient-10);
      }

      .cls-8 {
        fill: url(#linear-gradient-12);
      }

      .cls-9 {
        fill: url(#linear-gradient-27);
      }

      .cls-10 {
        fill: url(#linear-gradient-32);
        opacity: .2;
      }

      .cls-11 {
        mask: url(#mask);
      }

      .cls-12 {
        fill: #131313;
      }

      .cls-13 {
        fill: url(#linear-gradient-26);
      }

      .cls-14 {
        fill: none;
      }

      .cls-15 {
        fill: url(#linear-gradient-4);
      }

      .cls-16 {
        fill: url(#linear-gradient-30);
      }

      .cls-17 {
        fill: url(#linear-gradient-3);
      }

      .cls-18 {
        fill: url(#linear-gradient-5);
      }

      .cls-19 {
        fill: url(#linear-gradient-22);
      }

      .cls-20 {
        fill: url(#linear-gradient-24);
      }

      .cls-21 {
        fill: url(#linear-gradient-31);
        mix-blend-mode: multiply;
      }

      .cls-22 {
        fill: url(#linear-gradient-8);
      }

      .cls-23 {
        fill: #212121;
      }

      .cls-24 {
        fill: url(#linear-gradient-14);
      }

      .cls-25 {
        fill: url(#linear-gradient-29);
      }

      .cls-26 {
        fill: url(#linear-gradient-20);
      }

      .cls-27 {
        fill: url(#linear-gradient-17);
      }

      .cls-28 {
        fill: url(#linear-gradient-7);
      }

      .cls-29 {
        fill: url(#linear-gradient-9);
      }

      .cls-30 {
        fill: url(#linear-gradient-11);
      }

      .cls-31 {
        fill: url(#linear-gradient-19);
      }

      .cls-32 {
        fill: url(#linear-gradient-6);
      }

      .cls-33 {
        fill: url(#linear-gradient-21);
      }

      .cls-34 {
        fill: url(#linear-gradient-16);
      }

      .cls-35 {
        fill: url(#linear-gradient);
      }

      .cls-36 {
        fill: url(#linear-gradient-23);
      }

      .cls-37 {
        fill: url(#linear-gradient-18);
      }

      .cls-38 {
        filter: url(#luminosity-noclip);
      }
    </style>
    <linearGradient id="linear-gradient" x1="471.57" y1="541.29" x2="471.57" y2="525.68" gradientUnits="userSpaceOnUse">
      <stop offset="0" stop-color="#575554"/>
      <stop offset=".46" stop-color="#575554"/>
      <stop offset="1" stop-color="#131313"/>
    </linearGradient>
    <linearGradient id="linear-gradient-2" x1="-5371.04" y1="525.68" x2="-5333.93" y2="525.68" gradientTransform="translate(-5352.48) rotate(-180) scale(1 -1)" gradientUnits="userSpaceOnUse">
      <stop offset="0" stop-color="#767676"/>
      <stop offset="0" stop-color="#6e6e6e"/>
      <stop offset="0" stop-color="#575757"/>
      <stop offset="0" stop-color="#494949"/>
      <stop offset="0" stop-color="#454545"/>
      <stop offset=".01" stop-color="#484848"/>
      <stop offset=".02" stop-color="#525252"/>
      <stop offset=".02" stop-color="#5d5d5d"/>
      <stop offset=".03" stop-color="#7c7c7c"/>
      <stop offset=".4" stop-color="#838383"/>
      <stop offset=".41" stop-color="#838383"/>
      <stop offset=".94" stop-color="#6a6a6a"/>
      <stop offset=".96" stop-color="#474747"/>
      <stop offset=".97" stop-color="#383838"/>
      <stop offset=".98" stop-color="#3c3c3c"/>
      <stop offset=".99" stop-color="#4b4b4b"/>
      <stop offset=".99" stop-color="#636363"/>
      <stop offset="1" stop-color="#7c7c7c"/>
    </linearGradient>
    <linearGradient id="linear-gradient-3" x1="-5745.05" y1="525.27" x2="-5352.48" y2="525.27" xlink:href="#linear-gradient-2"/>
    <linearGradient id="linear-gradient-4" x1="196.29" y1="541.29" x2="196.29" y2="525.68" xlink:href="#linear-gradient"/>
    <linearGradient id="linear-gradient-5" x1="-5745.05" y1="526.52" x2="-5352.48" y2="526.52" xlink:href="#linear-gradient-2"/>
    <linearGradient id="linear-gradient-6" x1="550.51" y1="525.27" x2="943.09" y2="525.27" gradientUnits="userSpaceOnUse">
      <stop offset="0" stop-color="#505050"/>
      <stop offset="0" stop-color="#484848"/>
      <stop offset="0" stop-color="#313131"/>
      <stop offset="0" stop-color="#232323"/>
      <stop offset="0" stop-color="#1f1f1f"/>
      <stop offset=".01" stop-color="#222"/>
      <stop offset=".02" stop-color="#2c2c2c"/>
      <stop offset=".02" stop-color="#373737"/>
      <stop offset=".03" stop-color="#565656"/>
      <stop offset=".4" stop-color="#5e5e5e"/>
      <stop offset=".41" stop-color="#5e5e5e"/>
      <stop offset=".94" stop-color="#444"/>
      <stop offset=".96" stop-color="#212121"/>
      <stop offset=".97" stop-color="#121212"/>
      <stop offset=".98" stop-color="#161616"/>
      <stop offset=".99" stop-color="#252525"/>
      <stop offset=".99" stop-color="#3d3d3d"/>
      <stop offset="1" stop-color="#565656"/>
    </linearGradient>
    <linearGradient id="linear-gradient-7" x1="746.8" y1="541.29" x2="746.8" y2="525.68" xlink:href="#linear-gradient"/>
    <linearGradient id="linear-gradient-8" x1="550.51" y1="526.52" x2="943.09" y2="526.52" xlink:href="#linear-gradient-6"/>
    <linearGradient id="linear-gradient-9" x1="471.54" y1="541.29" x2="471.54" y2="525.68" xlink:href="#linear-gradient"/>
    <linearGradient id="linear-gradient-10" x1="392.58" y1="527.18" x2="550.51" y2="527.18" gradientUnits="userSpaceOnUse">
      <stop offset="0" stop-color="#565656"/>
      <stop offset=".06" stop-color="#444"/>
      <stop offset=".51" stop-color="#565656"/>
      <stop offset=".94" stop-color="#444"/>
      <stop offset="1" stop-color="#565656"/>
    </linearGradient>
    <linearGradient id="linear-gradient-11" x1="-5745.05" y1="519.67" x2="-5352.48" y2="519.67" gradientTransform="translate(-5352.48) rotate(-180) scale(1 -1)" gradientUnits="userSpaceOnUse">
      <stop offset="0" stop-color="#a7a7a7"/>
      <stop offset="0" stop-color="#8e8e8e"/>
      <stop offset="0" stop-color="#6e6e6e"/>
      <stop offset="0" stop-color="#575757"/>
      <stop offset="0" stop-color="#494949"/>
      <stop offset="0" stop-color="#454545"/>
      <stop offset=".01" stop-color="#484848"/>
      <stop offset=".01" stop-color="#525252"/>
      <stop offset=".02" stop-color="#636363"/>
      <stop offset=".02" stop-color="#757575"/>
      <stop offset=".03" stop-color="#6b6968"/>
      <stop offset=".4" stop-color="#6b6968"/>
      <stop offset=".41" stop-color="#6b6968"/>
      <stop offset=".94" stop-color="#8d8d8d"/>
      <stop offset=".95" stop-color="#636363"/>
      <stop offset=".97" stop-color="#3a3a3a"/>
      <stop offset=".97" stop-color="#2b2b2b"/>
      <stop offset=".98" stop-color="#2f2f2f"/>
      <stop offset=".99" stop-color="#3e3d3d"/>
      <stop offset=".99" stop-color="#565454"/>
      <stop offset="1" stop-color="#6b6968"/>
    </linearGradient>
    <linearGradient id="linear-gradient-12" x1="-5745.05" y1="522.88" x2="-5352.48" y2="522.88" xlink:href="#linear-gradient-2"/>
    <linearGradient id="linear-gradient-13" y1="522.88" y2="522.88" xlink:href="#linear-gradient-11"/>
    <linearGradient id="linear-gradient-14" x1="390.54" y1="541.29" x2="390.54" y2="525.68" xlink:href="#linear-gradient"/>
    <linearGradient id="linear-gradient-15" x1="-5745.05" y1="526.11" x2="-5352.48" y2="526.11" xlink:href="#linear-gradient-2"/>
    <linearGradient id="linear-gradient-16" y1="526.11" x2="-5352.48" y2="526.11" xlink:href="#linear-gradient-11"/>
    <linearGradient id="linear-gradient-17" x1="471.59" y1="518" x2="471.59" y2="3.36" gradientUnits="userSpaceOnUse">
      <stop offset="0" stop-color="#504e4e"/>
      <stop offset=".09" stop-color="#575555"/>
      <stop offset=".24" stop-color="#6d6b6b"/>
      <stop offset=".42" stop-color="#908d8d"/>
      <stop offset=".45" stop-color="#979494"/>
      <stop offset="1" stop-color="#7b7878"/>
    </linearGradient>
    <linearGradient id="linear-gradient-18" x1="471.57" y1="26.86" x2="471.57" y2="0" gradientUnits="userSpaceOnUse">
      <stop offset="0" stop-color="#1a1a1a"/>
      <stop offset=".28" stop-color="#1c1c1c"/>
      <stop offset=".45" stop-color="#242424"/>
      <stop offset=".59" stop-color="#333"/>
      <stop offset=".71" stop-color="#474747"/>
      <stop offset=".82" stop-color="#616161"/>
      <stop offset=".92" stop-color="#818181"/>
      <stop offset="1" stop-color="#9f9f9f"/>
    </linearGradient>
    <linearGradient id="linear-gradient-19" x1="550.51" y1="519.67" x2="943.09" y2="519.67" gradientUnits="userSpaceOnUse">
      <stop offset="0" stop-color="#818181"/>
      <stop offset="0" stop-color="#696969"/>
      <stop offset="0" stop-color="#494949"/>
      <stop offset="0" stop-color="#323232"/>
      <stop offset="0" stop-color="#242424"/>
      <stop offset="0" stop-color="#202020"/>
      <stop offset=".01" stop-color="#232323"/>
      <stop offset=".01" stop-color="#2d2d2d"/>
      <stop offset=".02" stop-color="#3e3e3e"/>
      <stop offset=".02" stop-color="#4f4f4f"/>
      <stop offset=".03" stop-color="#6b6968"/>
      <stop offset=".4" stop-color="#6b6968"/>
      <stop offset=".41" stop-color="#6b6968"/>
      <stop offset=".94" stop-color="#686868"/>
      <stop offset=".95" stop-color="#4b4b4b"/>
      <stop offset=".96" stop-color="#222"/>
      <stop offset=".97" stop-color="#131313"/>
      <stop offset=".98" stop-color="#171717"/>
      <stop offset=".98" stop-color="#262625"/>
      <stop offset=".99" stop-color="#3e3d3c"/>
      <stop offset="1" stop-color="#5f5d5d"/>
      <stop offset="1" stop-color="#6b6968"/>
    </linearGradient>
    <linearGradient id="linear-gradient-20" x1="550.51" y1="522.88" x2="943.09" y2="522.88" xlink:href="#linear-gradient-6"/>
    <linearGradient id="linear-gradient-21" y1="522.88" y2="522.88" xlink:href="#linear-gradient-19"/>
    <linearGradient id="linear-gradient-22" x1="552.54" y1="541.29" x2="552.54" y2="525.68" xlink:href="#linear-gradient"/>
    <linearGradient id="linear-gradient-23" x1="550.51" y1="526.11" x2="943.09" y2="526.11" xlink:href="#linear-gradient-6"/>
    <linearGradient id="linear-gradient-24" y1="526.11" x2="943.09" y2="526.11" xlink:href="#linear-gradient-19"/>
    <linearGradient id="linear-gradient-25" x1="392.58" y1="519.67" x2="550.51" y2="519.67" gradientUnits="userSpaceOnUse">
      <stop offset="0" stop-color="#838180"/>
      <stop offset=".06" stop-color="#6b6968"/>
      <stop offset=".51" stop-color="#838180"/>
      <stop offset=".94" stop-color="#6b6968"/>
      <stop offset="1" stop-color="#838180"/>
    </linearGradient>
    <linearGradient id="linear-gradient-26" y1="522.88" y2="522.88" xlink:href="#linear-gradient-10"/>
    <linearGradient id="linear-gradient-27" y1="522.88" y2="522.88" xlink:href="#linear-gradient-25"/>
    <linearGradient id="linear-gradient-28" x1="471.54" y1="541.29" x2="471.54" y2="525.68" xlink:href="#linear-gradient"/>
    <linearGradient id="linear-gradient-29" y1="526.34" y2="526.34" xlink:href="#linear-gradient-10"/>
    <linearGradient id="linear-gradient-30" y1="526.34" y2="526.34" xlink:href="#linear-gradient-25"/>
    <filter id="luminosity-noclip" x="231.29" y="0" width="625.89" height="519.26" color-interpolation-filters="sRGB" filterUnits="userSpaceOnUse">
      <feFlood flood-color="#fff" result="bg"/>
      <feBlend in="SourceGraphic" in2="bg"/>
    </filter>
    <filter id="luminosity-noclip-2" x="231.29" y="-8451.11" width="625.89" height="32766" color-interpolation-filters="sRGB" filterUnits="userSpaceOnUse">
      <feFlood flood-color="#fff" result="bg"/>
      <feBlend in="SourceGraphic" in2="bg"/>
    </filter>
    <mask id="mask-1" x="231.29" y="-8451.11" width="625.89" height="32766" maskUnits="userSpaceOnUse"/>
    <linearGradient id="linear-gradient-31" x1="544.23" y1="519.26" x2="544.23" y2="0" gradientUnits="userSpaceOnUse">
      <stop offset=".2" stop-color="#000"/>
      <stop offset=".5" stop-color="#010101"/>
      <stop offset=".6" stop-color="#080808"/>
      <stop offset=".68" stop-color="#141414"/>
      <stop offset=".74" stop-color="#252525"/>
      <stop offset=".8" stop-color="#3b3b3b"/>
      <stop offset=".84" stop-color="#565656"/>
      <stop offset=".89" stop-color="#777"/>
      <stop offset=".93" stop-color="#9c9c9c"/>
      <stop offset=".96" stop-color="#c7c7c7"/>
      <stop offset=".99" stop-color="#f5f5f5"/>
      <stop offset="1" stop-color="#fff"/>
    </linearGradient>
    <mask id="mask" x="231.29" y="0" width="625.89" height="519.26" maskUnits="userSpaceOnUse">
      <g class="cls-38">
        <g class="cls-5">
          <path class="cls-21" d="M833.68,0h-83.13L231.29,519.26h622.48s3.4,0,3.4,0V23.5C857.17,10.52,846.65,0,833.68,0ZM847.82,9.24s.04.04.06.06c.03.03.06.06.09.1l-.15-.15Z"/>
        </g>
      </g>
    </mask>
    <linearGradient id="linear-gradient-32" x1="544.23" y1="519.26" x2="544.23" y2="0" gradientUnits="userSpaceOnUse">
      <stop offset=".2" stop-color="#fff"/>
      <stop offset=".89" stop-color="#fff"/>
      <stop offset="1" stop-color="#fff"/>
    </linearGradient>
  </defs>
  <g id="object">
    <g>
      <path class="cls-14" d="M92.92,12.12c.16-.24.35-.46.52-.69-.17.23-.35.46-.52.69Z"/>
      <path class="cls-14" d="M91.86,13.82c.13-.23.28-.46.42-.68-.14.23-.29.45-.42.68Z"/>
      <path class="cls-14" d="M101.2,5.18s0,0,0,0c-.44.2-.86.41-1.28.64.52-.28,1.06-.54,1.61-.78-.11.05-.22.09-.33.14Z"/>
      <path class="cls-14" d="M90.98,15.62c.08-.19.19-.38.27-.57-.09.19-.19.37-.27.57Z"/>
      <path class="cls-14" d="M846.08,7.7h0c-.22-.17-.45-.32-.67-.48.33.24.67.48.99.74-.11-.09-.21-.17-.31-.26Z"/>
      <path class="cls-14" d="M849.45,11.1c.25.31.49.63.72.96-.23-.33-.47-.64-.72-.96Z"/>
      <path class="cls-14" d="M851.5,14.26c.18.35.35.7.51,1.06-.16-.36-.33-.71-.51-1.06Z"/>
      <path class="cls-14" d="M852.29,15.97c.15.37.28.74.41,1.12-.13-.38-.26-.75-.41-1.12Z"/>
      <path class="cls-14" d="M850.55,12.63c.21.33.42.66.61,1-.19-.34-.4-.67-.61-1Z"/>
      <path class="cls-14" d="M90,18.48c-.08.32-.16.64-.22.97h0c.13-.64.3-1.27.49-1.89-.1.3-.18.61-.26.92Z"/>
      <path class="cls-14" d="M835.93,3.54c.56.06,1.12.15,1.66.25-.55-.11-1.1-.19-1.66-.25Z"/>
      <path class="cls-14" d="M103.69,4.26c.31-.09.64-.17.96-.25-.32.08-.64.15-.96.25Z"/>
      <path class="cls-14" d="M105.57,3.79c.33-.06.66-.1.99-.15-.33.05-.67.09-.99.15Z"/>
      <path class="cls-14" d="M98.64,6.58c-.06.04-.12.09-.18.13.46-.3.93-.59,1.41-.86-.42.23-.83.47-1.23.73Z"/>
      <path class="cls-14" d="M839.76,4.35c.53.17,1.05.36,1.56.57-.51-.21-1.03-.4-1.56-.57Z"/>
      <path class="cls-14" d="M102.1,4.8s0,0,0,0c-.1.04-.21.09-.31.13.35-.14.71-.27,1.06-.39-.25.09-.51.16-.75.26Z"/>
      <path class="cls-14" d="M96.8,7.91c.16-.13.32-.24.48-.36-.16.12-.33.24-.48.36Z"/>
      <path class="cls-14" d="M837.99,3.88c.47.1.94.22,1.41.36-.46-.14-.93-.26-1.41-.36Z"/>
      <path class="cls-14" d="M95.26,9.3c-.12.12-.23.23-.34.34-.22.23-.44.47-.65.71-.05.06-.1.13-.15.19.36-.43.74-.85,1.13-1.25,0,0,0,0,0,0Z"/>
      <path class="cls-14" d="M107.5,3.51c.41-.04.83-.05,1.25-.06-.42.01-.84.02-1.25.06Z"/>
      <path class="cls-14" d="M89.6,20.44c-.03.21-.05.43-.07.65.07-.55.14-1.1.25-1.63-.07.33-.13.65-.18.98Z"/>
      <path class="cls-14" d="M833.79,3.41c.56,0,1.12.04,1.67.08-.55-.05-1.11-.08-1.67-.08Z"/>
      <path class="cls-14" d="M844.5,6.58c-.41-.26-.83-.51-1.25-.74-.5-.27-1.02-.52-1.55-.75,1.05.46,2.06,1.01,3.01,1.64-.07-.05-.14-.1-.21-.15Z"/>
      <path class="cls-14" d="M89.37,23.45c0-.6.04-1.2.09-1.79-.05.59-.09,1.18-.09,1.79Z"/>
      <path class="cls-14" d="M849.04,10.58c-.06-.07-.11-.15-.18-.22-.21-.24-.42-.48-.65-.71-.11-.12-.22-.23-.34-.34-.34-.34-.69-.67-1.06-.99t0,0c-.1-.09-.21-.17-.31-.26.92.76,1.76,1.61,2.53,2.53Z"/>
      <polygon class="cls-14" points="853.77 519.26 853.77 519.26 89.37 519.26 89.37 519.26 392.58 519.26 550.51 519.26 853.77 519.26"/>
      <path class="cls-14" d="M853.77,501.5h0V23.5c0-.67-.04-1.32-.1-1.97.06.65.1,1.31.1,1.98v478Z"/>
      <path class="cls-14" d="M853.38,19.61c.09.45.15.91.21,1.38-.06-.46-.12-.92-.21-1.38Z"/>
      <path class="cls-14" d="M852.92,17.75c.12.4.22.8.31,1.2-.09-.4-.19-.81-.31-1.2Z"/>
      <path class="cls-35" d="M943.09,525.68h0s-380.17,0-380.17,0c-3.75,0-7.46.53-11.11,1.4-.43.1-.86.2-1.3.28-1.62.3-3.27.46-4.92.46h-148.09c-1.65,0-3.3-.16-4.92-.46-.44-.08-.87-.17-1.3-.28-3.65-.87-7.36-1.4-11.11-1.4H0c33.16,10.35,67.69,15.61,102.43,15.61h738.27c34.74,0,69.27-5.26,102.43-15.61h-.05Z"/>
      <polygon class="cls-4" points="0 525.68 0 525.68 0 525.68 0 525.68"/>
      <path class="cls-17" d="M380.17,524.87H0v.81h388.51c-2.75-.51-5.54-.81-8.34-.81Z"/>
      <path class="cls-15" d="M391.28,527.08c.43.1.86.2,1.3.28v-.81c-.44-.08-.87-.17-1.3-.28-.92-.22-1.84-.42-2.77-.59H0s0,0,0,0h380.17c3.75,0,7.46.53,11.11,1.4Z"/>
      <path class="cls-18" d="M391.28,527.08c.43.1.86.2,1.3.28v-.81c-.44-.08-.87-.17-1.3-.28-.92-.22-1.84-.42-2.77-.59H0s0,0,0,0h380.17c3.75,0,7.46.53,11.11,1.4Z"/>
      <path class="cls-32" d="M554.58,525.68h388.51v-.81h-380.17c-2.8,0-5.59.3-8.34.81Z"/>
      <path class="cls-28" d="M551.81,526.27c-.43.1-.86.2-1.3.28v.81c.44-.08.87-.17,1.3-.28,3.65-.87,7.36-1.4,11.11-1.4h380.17s-388.51,0-388.51,0c-.93.17-1.85.37-2.77.59Z"/>
      <path class="cls-22" d="M551.81,526.27c-.43.1-.86.2-1.3.28v.81c.44-.08.87-.17,1.3-.28,3.65-.87,7.36-1.4,11.11-1.4h380.17s-388.51,0-388.51,0c-.93.17-1.85.37-2.77.59Z"/>
      <path class="cls-29" d="M545.59,527h-148.09c-1.65,0-3.3-.16-4.92-.46v.81c1.62.3,3.27.46,4.92.46h148.09c1.65,0,3.3-.16,4.92-.46v-.81c-1.62.3-3.27.46-4.92.46Z"/>
      <path class="cls-7" d="M545.59,527h-148.09c-1.65,0-3.3-.16-4.92-.46v.81c1.62.3,3.27.46,4.92.46h148.09c1.65,0,3.3-.16,4.92-.46v-.81c-1.62.3-3.27.46-4.92.46Z"/>
      <polygon class="cls-30" points="392.58 519.26 89.37 519.26 89.37 519.26 86.01 519.26 86.01 519.26 0 519.26 0 520.07 392.58 520.07 392.58 519.26"/>
      <path class="cls-8" d="M388.51,525.68h4.07v-5.6H0v4.79h380.17c2.8,0,5.59.3,8.34.81Z"/>
      <path class="cls-2" d="M388.51,525.68h4.07v-5.6H0v4.79h380.17c2.8,0,5.59.3,8.34.81Z"/>
      <path class="cls-24" d="M388.51,525.68c.93.17,1.85.37,2.77.59.43.1.86.2,1.3.28v-.87h-4.07Z"/>
      <path class="cls-1" d="M388.51,525.68c.93.17,1.85.37,2.77.59.43.1.86.2,1.3.28v-.87h-4.07Z"/>
      <path class="cls-34" d="M388.51,525.68c.93.17,1.85.37,2.77.59.43.1.86.2,1.3.28v-.87h-4.07Z"/>
      <path class="cls-27" d="M89.37,501.51h0V23.5s0-.03,0-.05c0-.6.04-1.2.09-1.79.02-.19.04-.38.07-.57.03-.22.04-.43.07-.65.05-.33.11-.66.18-.98,0,0,0,0,0,0h0c.07-.32.14-.65.22-.97.08-.31.17-.62.26-.92.21-.66.45-1.31.72-1.94.08-.19.19-.38.27-.57.19-.42.39-.83.61-1.23.13-.23.28-.46.42-.68.21-.34.41-.69.64-1.01.16-.24.35-.46.52-.69.23-.3.45-.6.69-.88.05-.06.09-.13.15-.19.21-.24.42-.48.65-.71.11-.12.22-.23.34-.34,0,0,0,0,0,0,.49-.49,1.01-.95,1.54-1.38.16-.13.32-.24.48-.36.38-.29.77-.58,1.17-.84.06-.04.12-.09.18-.13.4-.26.81-.5,1.23-.73.02,0,.03-.02.05-.03.42-.23.84-.44,1.28-.64,0,0,0,0,0,0,.11-.05.22-.09.33-.14.09-.04.17-.07.26-.11.1-.04.21-.09.31-.13,0,0,0,0,0,0,.24-.1.5-.17.75-.26.28-.1.55-.2.83-.29.32-.09.64-.17.96-.25.31-.08.61-.16.92-.22.33-.06.66-.1.99-.15.31-.05.62-.1.94-.13.41-.04.83-.05,1.25-.06.24,0,.47-.04.71-.04h724.21s.07,0,.11,0c.56,0,1.12.04,1.67.08.16.01.32.03.47.05.56.06,1.12.15,1.66.25.13.03.26.06.39.09.48.1.94.22,1.41.36.12.04.24.07.36.11.53.17,1.05.36,1.56.57.13.05.26.11.38.16.53.23,1.05.47,1.55.75.42.23.84.48,1.25.74.07.05.14.1.21.15.24.16.46.32.69.49.22.16.45.31.67.48h0c.11.09.21.18.31.26.04.03.08.06.11.1.1.09.21.17.31.26t0,0c.36.32.72.64,1.06.99.12.12.23.23.34.34.22.23.44.47.65.71.06.07.12.15.18.22.14.17.28.35.41.52.25.31.49.63.72.96.13.19.26.38.38.58.21.33.42.66.61,1,.12.21.23.41.34.62.18.35.35.7.51,1.06.1.22.19.43.28.65.15.37.28.74.41,1.12.08.22.15.44.22.67.12.4.22.8.31,1.2.05.22.11.43.15.65.09.45.15.91.21,1.38.02.18.06.36.07.54.06.65.1,1.31.1,1.97v494.51h3.4V25.38c-.76-12.29-10.97-22.02-23.45-22.02H109.51c-12.98,0-23.5,10.52-23.5,23.5v491.14h3.36v-16.5Z"/>
      <path class="cls-37" d="M109.51,3.36h724.21c12.48,0,22.69,9.73,23.45,22.02v-1.88c0-12.98-10.52-23.5-23.5-23.5H109.46c-12.98,0-23.5,10.52-23.5,23.5l.05,3.36c0-12.98,10.52-23.5,23.5-23.5Z"/>
      <polygon class="cls-23" points="853.77 501.5 853.77 501.51 89.37 501.51 89.37 518 853.77 518 853.77 501.5 853.77 501.5"/>
      <path d="M89.37,501.5h764.4V23.5c0-.67-.04-1.32-.1-1.98-.02-.18-.05-.36-.07-.54-.06-.46-.12-.92-.21-1.38-.04-.22-.1-.43-.15-.65-.09-.4-.19-.81-.31-1.2-.07-.23-.15-.45-.22-.67-.13-.38-.26-.75-.41-1.12-.09-.22-.19-.44-.28-.65-.16-.36-.33-.71-.51-1.06-.11-.21-.22-.42-.34-.62-.19-.34-.4-.67-.61-1-.13-.19-.25-.39-.38-.58-.23-.33-.47-.64-.72-.96-.14-.17-.27-.35-.41-.52-.77-.91-1.62-1.76-2.53-2.53-.04-.03-.08-.06-.11-.1-.32-.26-.65-.5-.99-.74-.23-.17-.45-.33-.69-.49-.95-.63-1.96-1.18-3.01-1.64-.13-.06-.25-.11-.38-.16-.51-.21-1.03-.4-1.56-.57-.12-.04-.24-.07-.36-.11-.46-.14-.93-.26-1.41-.36-.13-.03-.26-.06-.39-.09-.55-.11-1.1-.19-1.66-.25-.16-.02-.32-.03-.47-.05-.55-.05-1.11-.08-1.67-.08-.04,0-.07,0-.11,0H109.46c-.24,0-.47.03-.71.03-.42.01-.84.02-1.25.06-.32.03-.63.09-.94.13-.33.05-.67.09-.99.15-.31.06-.61.15-.92.22-.32.08-.65.15-.96.25-.28.08-.56.19-.83.29-.36.12-.72.25-1.06.39-.09.04-.17.07-.26.11-.55.24-1.09.49-1.61.78,0,0-.02,0-.02.01,0,0-.02,0-.02.01-.48.26-.95.56-1.41.86-.4.26-.79.55-1.17.84-.16.12-.33.24-.48.36-.54.44-1.05.9-1.54,1.38-.4.4-.77.82-1.13,1.25-.24.29-.47.59-.69.88-.17.23-.36.46-.52.69-.23.33-.43.67-.64,1.01-.14.23-.29.45-.42.68-.22.4-.42.82-.61,1.23-.09.19-.19.37-.27.57-.27.62-.5,1.26-.71,1.91,0,.01,0,.02,0,.03-.19.62-.36,1.25-.49,1.89,0,0,0,0,0,0-.11.54-.18,1.08-.25,1.63-.02.19-.05.38-.07.57-.05.59-.09,1.18-.09,1.79,0,.02,0,.03,0,.05v478.01ZM105.18,32.69h732.77v459.68H105.18V32.69Z"/>
      <path d="M97.29,7.55c.38-.29.77-.58,1.17-.84-.4.26-.79.55-1.17.84Z"/>
      <path d="M89.46,21.66c.02-.19.04-.38.07-.57-.02.19-.05.38-.07.57Z"/>
      <path d="M95.26,9.3c.49-.49,1.01-.95,1.54-1.38-.54.44-1.05.9-1.54,1.38Z"/>
      <path d="M89.78,19.46s0,0,0,0c0,0,0,0,0,0Z"/>
      <path d="M91.26,15.05c.19-.42.39-.83.61-1.23-.22.4-.42.82-.61,1.23Z"/>
      <path d="M92.28,13.14c.21-.34.41-.69.64-1.01-.23.33-.43.67-.64,1.01Z"/>
      <path d="M93.44,11.43c.23-.3.45-.6.69-.88-.24.29-.47.59-.69.88Z"/>
      <path d="M853.23,18.96c.05.22.11.43.15.65-.04-.22-.1-.43-.15-.65Z"/>
      <path d="M853.59,20.98c.02.18.06.36.07.54-.02-.18-.05-.36-.07-.54Z"/>
      <path d="M852.01,15.31c.1.22.19.43.28.65-.09-.22-.19-.44-.28-.65Z"/>
      <path d="M852.7,17.08c.08.22.15.44.22.67-.07-.23-.15-.45-.22-.67Z"/>
      <path d="M850.17,12.05c.13.19.26.38.38.58-.13-.19-.25-.39-.38-.58Z"/>
      <path d="M851.16,13.64c.12.2.23.41.34.62-.11-.21-.22-.42-.34-.62Z"/>
      <path d="M101.53,5.04c.09-.04.17-.07.26-.11-.09.04-.17.07-.26.11Z"/>
      <path d="M849.04,10.58c.14.17.28.35.41.52-.14-.17-.27-.35-.41-.52Z"/>
      <path d="M90.98,15.62c-.27.63-.51,1.28-.72,1.94,0-.01,0-.02,0-.03.2-.65.44-1.29.71-1.91Z"/>
      <path d="M89.37,23.5s0-.03,0-.05c0,.02,0,.03,0,.05v478.01h0V23.5Z"/>
      <path d="M99.92,5.82s-.03.02-.05.03c0,0,.02,0,.02-.01,0,0,.02,0,.02-.01Z"/>
      <path d="M833.68,3.41s.07,0,.11,0c-.04,0-.07,0-.11,0H109.46c-.24,0-.47.03-.71.04.24,0,.47-.03.71-.03h724.21Z"/>
      <path d="M846.39,7.96s.08.06.11.1c-.04-.03-.08-.06-.11-.1Z"/>
      <path d="M106.56,3.64c.31-.05.62-.1.94-.13-.32.03-.63.09-.94.13Z"/>
      <path d="M835.46,3.5c.16.01.32.03.47.05-.16-.02-.31-.03-.47-.05Z"/>
      <path d="M104.65,4.01c.31-.08.61-.16.92-.22-.31.06-.61.15-.92.22Z"/>
      <path d="M102.85,4.55c.28-.1.55-.2.83-.29-.28.09-.56.19-.83.29Z"/>
      <path d="M841.32,4.92c.13.05.26.11.38.16-.13-.06-.25-.11-.38-.16Z"/>
      <path d="M839.39,4.25c.12.04.24.07.36.11-.12-.04-.24-.07-.36-.11Z"/>
      <path d="M837.6,3.8c.13.03.26.06.39.09-.13-.03-.26-.06-.39-.09Z"/>
      <path d="M844.71,6.73c.23.16.46.32.69.49-.23-.17-.45-.33-.69-.49Z"/>
      <rect x="89.37" y="501.5" width="764.4" height="0"/>
      <polygon class="cls-31" points="853.77 519.26 853.77 519.26 550.51 519.26 550.51 520.07 943.09 520.07 943.09 519.26 857.17 519.26 857.17 519.26 853.77 519.26"/>
      <path class="cls-26" d="M550.51,525.68h4.07c2.75-.51,5.54-.81,8.34-.81h380.17v-4.79h-392.58v5.6Z"/>
      <path class="cls-33" d="M550.51,525.68h4.07c2.75-.51,5.54-.81,8.34-.81h380.17v-4.79h-392.58v5.6Z"/>
      <path class="cls-19" d="M551.81,526.27c.92-.22,1.84-.42,2.77-.59h-4.07v.87c.44-.08.87-.17,1.3-.28Z"/>
      <path class="cls-36" d="M551.81,526.27c.92-.22,1.84-.42,2.77-.59h-4.07v.87c.44-.08.87-.17,1.3-.28Z"/>
      <path class="cls-20" d="M551.81,526.27c.92-.22,1.84-.42,2.77-.59h-4.07v.87c.44-.08.87-.17,1.3-.28Z"/>
      <rect class="cls-6" x="392.58" y="519.26" width="157.93" height=".81"/>
      <polygon class="cls-13" points="550.51 525.68 550.51 520.07 392.58 520.07 392.58 525.68 471.57 525.68 550.51 525.68"/>
      <polygon class="cls-9" points="550.51 525.68 550.51 520.07 392.58 520.07 392.58 525.68 471.57 525.68 550.51 525.68"/>
      <path class="cls-3" d="M545.59,527c1.65,0,3.3-.16,4.92-.46v-.87h-157.93v.87c1.62.3,3.27.46,4.92.46h148.09Z"/>
      <path class="cls-25" d="M545.59,527c1.65,0,3.3-.16,4.92-.46v-.87h-157.93v.87c1.62.3,3.27.46,4.92.46h148.09Z"/>
      <path class="cls-16" d="M545.59,527c1.65,0,3.3-.16,4.92-.46v-.87h-157.93v.87c1.62.3,3.27.46,4.92.46h148.09Z"/>
      <polygon class="cls-12" points="89.37 519.26 853.77 519.26 853.77 519.26 857.17 519.26 857.17 518 853.77 518 89.37 518 86.01 518 86.01 519.26 89.37 519.26 89.37 519.26"/>
      <rect class="cls-12" x="86.01" y="519.26" width="3.36" height="0"/>
      <rect class="cls-12" x="853.77" y="519.26" width="3.4" height="0"/>
      <g class="cls-11">
        <path class="cls-10" d="M833.68,0h-83.13L231.29,519.26h622.48s3.4,0,3.4,0V23.5C857.17,10.52,846.65,0,833.68,0ZM847.82,9.24s.04.04.06.06c.03.03.06.06.09.1l-.15-.15Z"/>
      </g>
    </g>
  </g>
</svg>