<svg width="109" height="123" viewBox="0 0 109 123" fill="none" xmlns="http://www.w3.org/2000/svg">
<mask id="path-1-outside-1_312_20" maskUnits="userSpaceOnUse" x="-0.459473" y="0.40564" width="109" height="123" fill="black">
<rect fill="white" x="-0.459473" y="0.40564" width="109" height="123"/>
<path d="M10.7959 75.681C15.1759 73.5786 20.716 74.138 23.5411 75.8929C25.0461 76.8279 29.3492 82.4532 36.7667 92.5082C37.319 93.2579 37.8137 93.9278 38.2286 94.4877C38.5536 94.9277 38.9789 95.141 39.5264 95.141H49.8487C51.5837 95.141 53.094 95.7834 54.1465 96.9359C55.199 95.7835 56.7085 95.1411 58.4434 95.141H68.7666C69.3139 95.1409 69.7386 94.9275 70.0635 94.4877C70.4785 93.9277 70.974 93.2581 71.5264 92.5082C78.9413 82.4533 83.246 76.828 84.751 75.8929C87.5785 74.1379 93.1186 73.5785 97.4961 75.681C99.8686 76.8211 102.817 79.181 103.392 83.9584L107.741 120.146C107.794 120.568 107.658 120.995 107.376 121.318C107.091 121.638 106.686 121.823 106.259 121.826L91.4063 121.909H21.9258L2.03325 121.826C1.60591 121.823 1.19847 121.638 0.916065 121.318C0.633795 120.998 0.500935 120.571 0.550831 120.146L4.90142 83.9584C5.47639 79.1811 8.42351 76.8211 10.7959 75.681ZM23.4385 112.045V118.906H89.8985V112.045H23.4385ZM21.9542 78.4379C19.8592 77.1354 15.3962 76.8036 12.0987 78.3861C9.6313 79.5686 8.21383 81.5659 7.88384 84.3158L3.73638 118.83L20.4385 118.901V111.761C18.9086 111.161 17.8215 109.671 17.8213 107.931C17.8213 105.661 19.6686 103.813 21.9385 103.813H25.8682L16.9913 93.3656C16.4563 92.7331 16.5316 91.7854 17.1641 91.2504C17.7966 90.7158 18.7435 90.7934 19.2784 91.4232L29.8057 103.813H49.8741C51.2186 103.81 51.8984 103.133 52.2334 102.561C52.5034 102.099 52.6409 101.546 52.6485 100.994V100.968C52.651 100.413 52.5209 99.8603 52.2559 99.3978C51.7834 98.5781 50.9534 98.1429 49.8536 98.1429H39.5313C38.0338 98.1429 36.7158 97.4808 35.8233 96.2758C35.4058 95.7133 34.9115 95.0404 34.3565 94.2904C31.0716 89.8381 23.3821 79.4137 21.9542 78.4379ZM96.1983 78.3861C92.9008 76.8012 88.436 77.1358 86.336 78.4408C84.913 79.4142 77.2238 89.8362 73.9415 94.2885C73.3865 95.0383 72.8911 95.7104 72.4737 96.2728C71.5813 97.4777 70.2665 98.1409 68.7666 98.141H58.4434C57.3435 98.1411 56.511 98.5759 56.0411 99.3959C55.7762 99.8582 55.6461 100.41 55.6485 100.965V100.991C55.656 101.543 55.7936 102.096 56.0635 102.558C56.3985 103.13 57.0789 103.808 58.4239 103.811H78.4913L89.0186 91.4203C89.5561 90.7879 90.5014 90.711 91.1338 91.2484C91.7661 91.7859 91.8431 92.7302 91.3057 93.3627L82.4288 103.811H91.3985C93.6685 103.811 95.5166 105.658 95.5166 107.928C95.5166 109.668 94.4285 111.156 92.8985 111.758V118.898L104.564 118.833L100.414 84.3158C100.084 81.5658 98.6633 79.5711 96.1983 78.3861ZM21.9385 106.811C21.3236 106.811 20.8214 107.313 20.8213 107.928C20.8213 108.543 21.3211 109.045 21.9385 109.045H91.3985C92.0135 109.045 92.5166 108.543 92.5166 107.928C92.5166 107.313 92.016 106.811 91.3985 106.811H21.9385ZM19.3184 49.0404C26.1584 49.0404 31.7237 54.6057 31.7237 61.4457C31.7237 68.2857 26.1584 73.851 19.3184 73.851C12.4785 73.8508 6.91413 68.2856 6.91411 61.4457C6.91411 54.6058 12.4785 49.0406 19.3184 49.0404ZM88.9786 49.0385C95.8184 49.0385 101.384 54.6029 101.384 61.4427C101.384 68.2827 95.8186 73.848 88.9786 73.848C82.1386 73.848 76.5733 68.2827 76.5733 61.4427C76.5735 54.603 82.1387 49.0385 88.9786 49.0385ZM88.9786 52.0404C83.7936 52.0405 79.5733 56.2607 79.5733 61.4457C79.5733 66.6306 83.7936 70.8509 88.9786 70.851C94.1636 70.851 98.3838 66.6307 98.3838 61.4457C98.3838 56.2607 94.1661 52.0404 88.9786 52.0404ZM19.3184 52.0385C14.1337 52.0386 9.91432 56.258 9.91411 61.4427C9.91411 66.6277 14.131 70.8479 19.3184 70.848C24.5034 70.848 28.7237 66.6277 28.7237 61.4427C28.7235 56.2579 24.5033 52.0385 19.3184 52.0385ZM51.9385 1.40564C53.341 1.40564 54.7262 1.78562 55.9336 2.4906C57.1111 1.80313 58.4786 1.40567 59.9385 1.40564H93.6182C97.9907 1.40564 101.546 4.94572 101.546 9.29822V30.681C101.546 35.0334 97.9881 38.5736 93.6182 38.5736H92.9034V44.723C92.9034 45.713 92.3111 46.6003 91.3936 46.9828C91.0862 47.1103 90.7663 47.1732 90.4463 47.1732C89.8164 47.1732 89.1985 46.931 88.7286 46.4711L80.6661 38.5707H59.9366C58.4766 38.5707 57.1057 38.1732 55.9307 37.4857C54.7234 38.1905 53.3388 38.5706 51.9366 38.5707H31.2061L23.1436 46.4681C22.6761 46.9281 22.0558 47.1703 21.4258 47.1703C21.1059 47.1702 20.786 47.1083 20.4786 46.9808C19.5612 46.6009 18.969 45.7134 18.9688 44.7211V38.5707H18.254C13.884 38.5707 10.3287 35.0306 10.3262 30.6781V9.29822C10.3262 4.94572 13.884 1.40564 18.254 1.40564H51.9385ZM18.2559 4.40564C15.5385 4.40579 13.3292 6.60081 13.3292 9.29822H13.3311V30.6781C13.3311 33.3756 15.5413 35.5707 18.2588 35.5707H20.4737C21.3012 35.5707 21.9737 36.2432 21.9737 37.0707V43.4203L29.5489 35.9984C29.8289 35.7259 30.2062 35.5707 30.5987 35.5707H51.9415C52.4913 35.5706 53.0235 35.4804 53.5284 35.308C52.5785 34.0055 52.0167 32.408 52.0167 30.6781V9.29822C52.0167 7.57084 52.5785 5.97078 53.5284 4.66833C53.0235 4.49591 52.4888 4.40567 51.9415 4.40564H18.2559ZM59.9385 4.40564C57.2211 4.40573 55.0108 6.60077 55.0108 9.29822V30.6781C55.0108 33.3755 57.2211 35.5706 59.9385 35.5707H81.2813C81.6738 35.5707 82.0511 35.7234 82.3311 35.9984L89.9082 43.4203V37.0707C89.9082 36.2433 90.5809 35.5709 91.4082 35.5707H93.6241C96.3414 35.5705 98.5508 33.3755 98.5508 30.6781V9.29822C98.5508 6.60085 96.3414 4.40585 93.6241 4.40564H59.9385ZM91.5635 25.9906C92.391 25.9906 93.0635 26.6631 93.0635 27.4906C93.0635 28.3181 92.391 28.9906 91.5635 28.9906H61.9991C61.1716 28.9906 60.4991 28.3181 60.4991 27.4906C60.4991 26.6631 61.1716 25.9906 61.9991 25.9906H91.5635ZM24.9336 19.8685C25.7611 19.8685 26.4336 20.541 26.4336 21.3685V26.601C26.4335 27.4283 25.761 28.101 24.9336 28.101H19.4883C18.6586 28.1008 17.9885 27.4282 17.9883 26.601V21.3685C17.9883 20.5411 18.661 19.8687 19.4883 19.8685H24.9336ZM35.8965 19.8685C36.7239 19.8687 37.3965 20.5386 37.3965 21.3685V26.601C37.3964 27.4282 36.7238 28.1008 35.8965 28.101H30.4512C29.6238 28.101 28.9514 27.4283 28.9512 26.601V21.3685C28.9512 20.541 29.6237 19.8685 30.4512 19.8685H35.8965ZM46.8584 19.8685C47.6884 19.8685 48.3584 20.5385 48.3584 21.3685V26.601C48.3583 27.4283 47.6858 28.101 46.8584 28.101H41.4141C40.5867 28.101 39.9143 27.4283 39.9141 26.601V21.3685C39.9141 20.541 40.5866 19.8685 41.4141 19.8685H46.8584ZM20.9883 22.8685V25.101H23.4336V22.8685H20.9883ZM31.9512 22.8685V25.101H34.3965V22.8685H31.9512ZM42.9141 22.8685V25.101H45.3584V22.8685H42.9141ZM91.5635 18.5961C92.391 18.5961 93.0635 19.2686 93.0635 20.0961C93.0633 20.9234 92.3909 21.5961 91.5635 21.5961H61.9991C61.1717 21.5961 60.4993 20.9234 60.4991 20.0961C60.4991 19.2686 61.1716 18.5961 61.9991 18.5961H91.5635ZM46.8584 8.68591C47.6859 8.68591 48.3584 9.35841 48.3584 10.1859V14.8783C48.3584 15.7057 47.6859 16.3783 46.8584 16.3783H19.7862C18.9587 16.3783 18.2863 15.7082 18.2862 14.8783V10.1859C18.2862 9.35841 18.9587 8.68591 19.7862 8.68591H46.8584ZM91.5635 11.2006C92.391 11.2006 93.0635 11.8731 93.0635 12.7006C93.0635 13.5281 92.391 14.2006 91.5635 14.2006H61.9991C61.1716 14.2006 60.4991 13.5281 60.4991 12.7006C60.4991 11.8731 61.1716 11.2006 61.9991 11.2006H91.5635ZM21.2862 11.6859V13.3783H45.3584V11.6859H21.2862Z"/>
</mask>
<path d="M10.7959 75.681C15.1759 73.5786 20.716 74.138 23.5411 75.8929C25.0461 76.8279 29.3492 82.4532 36.7667 92.5082C37.319 93.2579 37.8137 93.9278 38.2286 94.4877C38.5536 94.9277 38.9789 95.141 39.5264 95.141H49.8487C51.5837 95.141 53.094 95.7834 54.1465 96.9359C55.199 95.7835 56.7085 95.1411 58.4434 95.141H68.7666C69.3139 95.1409 69.7386 94.9275 70.0635 94.4877C70.4785 93.9277 70.974 93.2581 71.5264 92.5082C78.9413 82.4533 83.246 76.828 84.751 75.8929C87.5785 74.1379 93.1186 73.5785 97.4961 75.681C99.8686 76.8211 102.817 79.181 103.392 83.9584L107.741 120.146C107.794 120.568 107.658 120.995 107.376 121.318C107.091 121.638 106.686 121.823 106.259 121.826L91.4063 121.909H21.9258L2.03325 121.826C1.60591 121.823 1.19847 121.638 0.916065 121.318C0.633795 120.998 0.500935 120.571 0.550831 120.146L4.90142 83.9584C5.47639 79.1811 8.42351 76.8211 10.7959 75.681ZM23.4385 112.045V118.906H89.8985V112.045H23.4385ZM21.9542 78.4379C19.8592 77.1354 15.3962 76.8036 12.0987 78.3861C9.6313 79.5686 8.21383 81.5659 7.88384 84.3158L3.73638 118.83L20.4385 118.901V111.761C18.9086 111.161 17.8215 109.671 17.8213 107.931C17.8213 105.661 19.6686 103.813 21.9385 103.813H25.8682L16.9913 93.3656C16.4563 92.7331 16.5316 91.7854 17.1641 91.2504C17.7966 90.7158 18.7435 90.7934 19.2784 91.4232L29.8057 103.813H49.8741C51.2186 103.81 51.8984 103.133 52.2334 102.561C52.5034 102.099 52.6409 101.546 52.6485 100.994V100.968C52.651 100.413 52.5209 99.8603 52.2559 99.3978C51.7834 98.5781 50.9534 98.1429 49.8536 98.1429H39.5313C38.0338 98.1429 36.7158 97.4808 35.8233 96.2758C35.4058 95.7133 34.9115 95.0404 34.3565 94.2904C31.0716 89.8381 23.3821 79.4137 21.9542 78.4379ZM96.1983 78.3861C92.9008 76.8012 88.436 77.1358 86.336 78.4408C84.913 79.4142 77.2238 89.8362 73.9415 94.2885C73.3865 95.0383 72.8911 95.7104 72.4737 96.2728C71.5813 97.4777 70.2665 98.1409 68.7666 98.141H58.4434C57.3435 98.1411 56.511 98.5759 56.0411 99.3959C55.7762 99.8582 55.6461 100.41 55.6485 100.965V100.991C55.656 101.543 55.7936 102.096 56.0635 102.558C56.3985 103.13 57.0789 103.808 58.4239 103.811H78.4913L89.0186 91.4203C89.5561 90.7879 90.5014 90.711 91.1338 91.2484C91.7661 91.7859 91.8431 92.7302 91.3057 93.3627L82.4288 103.811H91.3985C93.6685 103.811 95.5166 105.658 95.5166 107.928C95.5166 109.668 94.4285 111.156 92.8985 111.758V118.898L104.564 118.833L100.414 84.3158C100.084 81.5658 98.6633 79.5711 96.1983 78.3861ZM21.9385 106.811C21.3236 106.811 20.8214 107.313 20.8213 107.928C20.8213 108.543 21.3211 109.045 21.9385 109.045H91.3985C92.0135 109.045 92.5166 108.543 92.5166 107.928C92.5166 107.313 92.016 106.811 91.3985 106.811H21.9385ZM19.3184 49.0404C26.1584 49.0404 31.7237 54.6057 31.7237 61.4457C31.7237 68.2857 26.1584 73.851 19.3184 73.851C12.4785 73.8508 6.91413 68.2856 6.91411 61.4457C6.91411 54.6058 12.4785 49.0406 19.3184 49.0404ZM88.9786 49.0385C95.8184 49.0385 101.384 54.6029 101.384 61.4427C101.384 68.2827 95.8186 73.848 88.9786 73.848C82.1386 73.848 76.5733 68.2827 76.5733 61.4427C76.5735 54.603 82.1387 49.0385 88.9786 49.0385ZM88.9786 52.0404C83.7936 52.0405 79.5733 56.2607 79.5733 61.4457C79.5733 66.6306 83.7936 70.8509 88.9786 70.851C94.1636 70.851 98.3838 66.6307 98.3838 61.4457C98.3838 56.2607 94.1661 52.0404 88.9786 52.0404ZM19.3184 52.0385C14.1337 52.0386 9.91432 56.258 9.91411 61.4427C9.91411 66.6277 14.131 70.8479 19.3184 70.848C24.5034 70.848 28.7237 66.6277 28.7237 61.4427C28.7235 56.2579 24.5033 52.0385 19.3184 52.0385ZM51.9385 1.40564C53.341 1.40564 54.7262 1.78562 55.9336 2.4906C57.1111 1.80313 58.4786 1.40567 59.9385 1.40564H93.6182C97.9907 1.40564 101.546 4.94572 101.546 9.29822V30.681C101.546 35.0334 97.9881 38.5736 93.6182 38.5736H92.9034V44.723C92.9034 45.713 92.3111 46.6003 91.3936 46.9828C91.0862 47.1103 90.7663 47.1732 90.4463 47.1732C89.8164 47.1732 89.1985 46.931 88.7286 46.4711L80.6661 38.5707H59.9366C58.4766 38.5707 57.1057 38.1732 55.9307 37.4857C54.7234 38.1905 53.3388 38.5706 51.9366 38.5707H31.2061L23.1436 46.4681C22.6761 46.9281 22.0558 47.1703 21.4258 47.1703C21.1059 47.1702 20.786 47.1083 20.4786 46.9808C19.5612 46.6009 18.969 45.7134 18.9688 44.7211V38.5707H18.254C13.884 38.5707 10.3287 35.0306 10.3262 30.6781V9.29822C10.3262 4.94572 13.884 1.40564 18.254 1.40564H51.9385ZM18.2559 4.40564C15.5385 4.40579 13.3292 6.60081 13.3292 9.29822H13.3311V30.6781C13.3311 33.3756 15.5413 35.5707 18.2588 35.5707H20.4737C21.3012 35.5707 21.9737 36.2432 21.9737 37.0707V43.4203L29.5489 35.9984C29.8289 35.7259 30.2062 35.5707 30.5987 35.5707H51.9415C52.4913 35.5706 53.0235 35.4804 53.5284 35.308C52.5785 34.0055 52.0167 32.408 52.0167 30.6781V9.29822C52.0167 7.57084 52.5785 5.97078 53.5284 4.66833C53.0235 4.49591 52.4888 4.40567 51.9415 4.40564H18.2559ZM59.9385 4.40564C57.2211 4.40573 55.0108 6.60077 55.0108 9.29822V30.6781C55.0108 33.3755 57.2211 35.5706 59.9385 35.5707H81.2813C81.6738 35.5707 82.0511 35.7234 82.3311 35.9984L89.9082 43.4203V37.0707C89.9082 36.2433 90.5809 35.5709 91.4082 35.5707H93.6241C96.3414 35.5705 98.5508 33.3755 98.5508 30.6781V9.29822C98.5508 6.60085 96.3414 4.40585 93.6241 4.40564H59.9385ZM91.5635 25.9906C92.391 25.9906 93.0635 26.6631 93.0635 27.4906C93.0635 28.3181 92.391 28.9906 91.5635 28.9906H61.9991C61.1716 28.9906 60.4991 28.3181 60.4991 27.4906C60.4991 26.6631 61.1716 25.9906 61.9991 25.9906H91.5635ZM24.9336 19.8685C25.7611 19.8685 26.4336 20.541 26.4336 21.3685V26.601C26.4335 27.4283 25.761 28.101 24.9336 28.101H19.4883C18.6586 28.1008 17.9885 27.4282 17.9883 26.601V21.3685C17.9883 20.5411 18.661 19.8687 19.4883 19.8685H24.9336ZM35.8965 19.8685C36.7239 19.8687 37.3965 20.5386 37.3965 21.3685V26.601C37.3964 27.4282 36.7238 28.1008 35.8965 28.101H30.4512C29.6238 28.101 28.9514 27.4283 28.9512 26.601V21.3685C28.9512 20.541 29.6237 19.8685 30.4512 19.8685H35.8965ZM46.8584 19.8685C47.6884 19.8685 48.3584 20.5385 48.3584 21.3685V26.601C48.3583 27.4283 47.6858 28.101 46.8584 28.101H41.4141C40.5867 28.101 39.9143 27.4283 39.9141 26.601V21.3685C39.9141 20.541 40.5866 19.8685 41.4141 19.8685H46.8584ZM20.9883 22.8685V25.101H23.4336V22.8685H20.9883ZM31.9512 22.8685V25.101H34.3965V22.8685H31.9512ZM42.9141 22.8685V25.101H45.3584V22.8685H42.9141ZM91.5635 18.5961C92.391 18.5961 93.0635 19.2686 93.0635 20.0961C93.0633 20.9234 92.3909 21.5961 91.5635 21.5961H61.9991C61.1717 21.5961 60.4993 20.9234 60.4991 20.0961C60.4991 19.2686 61.1716 18.5961 61.9991 18.5961H91.5635ZM46.8584 8.68591C47.6859 8.68591 48.3584 9.35841 48.3584 10.1859V14.8783C48.3584 15.7057 47.6859 16.3783 46.8584 16.3783H19.7862C18.9587 16.3783 18.2863 15.7082 18.2862 14.8783V10.1859C18.2862 9.35841 18.9587 8.68591 19.7862 8.68591H46.8584ZM91.5635 11.2006C92.391 11.2006 93.0635 11.8731 93.0635 12.7006C93.0635 13.5281 92.391 14.2006 91.5635 14.2006H61.9991C61.1716 14.2006 60.4991 13.5281 60.4991 12.7006C60.4991 11.8731 61.1716 11.2006 61.9991 11.2006H91.5635ZM21.2862 11.6859V13.3783H45.3584V11.6859H21.2862Z" fill="black"/>
<path d="M10.7959 75.681L10.5796 75.2303L10.5794 75.2304L10.7959 75.681ZM23.5411 75.8929L23.8049 75.4682L23.8049 75.4682L23.5411 75.8929ZM36.7667 92.5082L37.1692 92.2116L37.169 92.2114L36.7667 92.5082ZM38.2286 94.4877L38.6307 94.1906L38.6303 94.19L38.2286 94.4877ZM54.1465 96.9359L53.7773 97.2731L54.1465 97.6774L54.5157 97.2731L54.1465 96.9359ZM58.4434 95.141V94.641H58.4434L58.4434 95.141ZM68.7666 95.141V95.641H68.7668L68.7666 95.141ZM70.0635 94.4877L69.6618 94.19L69.6613 94.1906L70.0635 94.4877ZM71.5264 92.5082L71.124 92.2114L71.1239 92.2116L71.5264 92.5082ZM84.751 75.8929L84.4873 75.4681L84.4872 75.4682L84.751 75.8929ZM97.4961 75.681L97.7127 75.2304L97.7126 75.2303L97.4961 75.681ZM103.392 83.9584L103.888 83.8987L103.888 83.8986L103.392 83.9584ZM107.741 120.146L107.245 120.206L107.245 120.207L107.741 120.146ZM107.376 121.318L107.749 121.65L107.752 121.647L107.376 121.318ZM106.259 121.826L106.262 122.326H106.262L106.259 121.826ZM91.4063 121.909V122.409L91.4091 122.409L91.4063 121.909ZM21.9258 121.909L21.9237 122.409H21.9258V121.909ZM2.03325 121.826L2.03018 122.326H2.03117L2.03325 121.826ZM0.916065 121.318L0.541149 121.649L0.541232 121.649L0.916065 121.318ZM0.550831 120.146L0.0544037 120.086L0.0542449 120.088L0.550831 120.146ZM4.90142 83.9584L4.405 83.8986L4.40499 83.8987L4.90142 83.9584ZM23.4385 112.045V111.545H22.9385V112.045H23.4385ZM23.4385 118.906H22.9385V119.406H23.4385V118.906ZM89.8985 118.906V119.406H90.3985V118.906H89.8985ZM89.8985 112.045H90.3985V111.545H89.8985V112.045ZM21.9542 78.4379L22.2362 78.025L22.2273 78.0189L22.2181 78.0132L21.9542 78.4379ZM12.0987 78.3861L12.3148 78.837L12.315 78.8369L12.0987 78.3861ZM7.88384 84.3158L8.38027 84.3755L8.38028 84.3754L7.88384 84.3158ZM3.73638 118.83L3.23995 118.771L3.17298 119.328L3.73427 119.33L3.73638 118.83ZM20.4385 118.901L20.4364 119.401L20.9385 119.403V118.901H20.4385ZM20.4385 111.761H20.9385V111.42L20.6211 111.296L20.4385 111.761ZM17.8213 107.931H17.3213V107.931L17.8213 107.931ZM21.9385 103.813V103.313H21.9385L21.9385 103.813ZM25.8682 103.813V104.313H26.9492L26.2492 103.489L25.8682 103.813ZM16.9913 93.3656L16.6095 93.6885L16.6102 93.6894L16.9913 93.3656ZM17.1641 91.2504L16.8413 90.8685L16.8412 90.8686L17.1641 91.2504ZM19.2784 91.4232L18.8973 91.7469L18.8973 91.747L19.2784 91.4232ZM29.8057 103.813L29.4247 104.137L29.5744 104.313H29.8057V103.813ZM49.8741 103.813V104.313H49.875L49.8741 103.813ZM52.2334 102.561L52.665 102.813L52.6653 102.813L52.2334 102.561ZM52.6485 100.994L53.1485 101V100.994H52.6485ZM52.6485 100.968L52.1485 100.966V100.968H52.6485ZM52.2559 99.3978L52.6897 99.1493L52.6891 99.1481L52.2559 99.3978ZM35.8233 96.2758L36.2251 95.9782L36.2248 95.9778L35.8233 96.2758ZM34.3565 94.2904L33.9541 94.5872L33.9546 94.5878L34.3565 94.2904ZM96.1983 78.3861L96.4149 77.9355L96.4149 77.9355L96.1983 78.3861ZM86.336 78.4408L86.0721 78.0161L86.0628 78.0219L86.0537 78.0281L86.336 78.4408ZM73.9415 94.2885L74.3434 94.5859L74.3439 94.5852L73.9415 94.2885ZM72.4737 96.2728L72.0722 95.9748L72.0719 95.9752L72.4737 96.2728ZM68.7666 98.141V98.641H68.7667L68.7666 98.141ZM58.4434 98.141V97.641H58.4434L58.4434 98.141ZM56.0411 99.3959L55.6073 99.1472L55.6072 99.1473L56.0411 99.3959ZM55.6485 100.965H56.1485L56.1485 100.963L55.6485 100.965ZM55.6485 100.991H55.1484L55.1485 100.997L55.6485 100.991ZM56.0635 102.558L55.6317 102.81L55.632 102.811L56.0635 102.558ZM58.4239 103.811L58.4229 104.311H58.4239V103.811ZM78.4913 103.811V104.311H78.7225L78.8723 104.135L78.4913 103.811ZM89.0186 91.4203L88.6376 91.0965L88.6376 91.0965L89.0186 91.4203ZM91.1338 91.2484L91.4577 90.8675L91.4576 90.8674L91.1338 91.2484ZM91.3057 93.3627L90.9247 93.0389L90.9247 93.0389L91.3057 93.3627ZM82.4288 103.811L82.0477 103.487L81.3479 104.311H82.4288V103.811ZM95.5166 107.928H96.0166V107.928L95.5166 107.928ZM92.8985 111.758L92.7153 111.293L92.3985 111.418V111.758H92.8985ZM92.8985 118.898H92.3985V119.401L92.9013 119.398L92.8985 118.898ZM104.564 118.833L104.566 119.333L105.127 119.33L105.06 118.774L104.564 118.833ZM100.414 84.3158L99.9177 84.3754L99.9177 84.3755L100.414 84.3158ZM21.9385 106.811V106.311H21.9385L21.9385 106.811ZM20.8213 107.928L20.3213 107.928V107.928H20.8213ZM21.9385 109.045L21.9385 109.545H21.9385V109.045ZM92.5166 107.928H93.0166V107.928L92.5166 107.928ZM19.3184 49.0404V48.5404H19.3184L19.3184 49.0404ZM31.7237 61.4457H32.2237H31.7237ZM19.3184 73.851L19.3184 74.351H19.3184V73.851ZM6.91411 61.4457H6.41411H6.91411ZM88.9786 49.0385V48.5385V49.0385ZM101.384 61.4427H101.884V61.4427L101.384 61.4427ZM88.9786 73.848V74.348V73.848ZM76.5733 61.4427L76.0733 61.4427V61.4427H76.5733ZM88.9786 52.0404V51.5404V52.0404ZM79.5733 61.4457H79.0733V61.4457L79.5733 61.4457ZM88.9786 70.851V71.351V70.851ZM98.3838 61.4457L98.8838 61.4457V61.4457H98.3838ZM19.3184 52.0385V51.5385H19.3184L19.3184 52.0385ZM9.91411 61.4427L9.41411 61.4427V61.4427H9.91411ZM19.3184 70.848L19.3184 71.348H19.3184V70.848ZM28.7237 61.4427H29.2237V61.4427L28.7237 61.4427ZM55.9336 2.4906L55.6815 2.92239L55.9336 3.06958L56.1857 2.92239L55.9336 2.4906ZM59.9385 1.40564V0.90564H59.9385L59.9385 1.40564ZM101.546 30.681L102.046 30.6811V30.681H101.546ZM92.9034 38.5736V38.0736H92.4034V38.5736H92.9034ZM91.3936 46.9828L91.5851 47.4447L91.586 47.4443L91.3936 46.9828ZM90.4463 47.1732V47.6732H90.4464L90.4463 47.1732ZM88.7286 46.4711L88.3786 46.8282L88.3789 46.8284L88.7286 46.4711ZM80.6661 38.5707L81.016 38.2136L80.8702 38.0707H80.6661V38.5707ZM55.9307 37.4857L56.1832 37.0542L55.931 36.9066L55.6786 37.0539L55.9307 37.4857ZM51.9366 38.5707V39.0707H51.9366L51.9366 38.5707ZM31.2061 38.5707V38.0707H31.002L30.8562 38.2135L31.2061 38.5707ZM23.1436 46.4681L22.7937 46.1109L22.7929 46.1117L23.1436 46.4681ZM21.4258 47.1703L21.4258 47.6703H21.4258V47.1703ZM20.4786 46.9808L20.6701 46.519L20.6699 46.5189L20.4786 46.9808ZM18.9688 44.7211H18.4688V44.7212L18.9688 44.7211ZM18.9688 38.5707H19.4688V38.0707H18.9688V38.5707ZM10.3262 30.6781H9.82622V30.6784L10.3262 30.6781ZM18.2559 4.40564V3.90564H18.2559L18.2559 4.40564ZM13.3292 9.29822H12.8292V9.79822H13.3292V9.29822ZM13.3311 9.29822H13.8311V8.79822H13.3311V9.29822ZM21.9737 43.4203H21.4737V44.6102L22.3236 43.7774L21.9737 43.4203ZM29.5489 35.9984L29.2002 35.6401L29.199 35.6413L29.5489 35.9984ZM30.5987 35.5707V35.0707V35.5707ZM51.9415 35.5707V36.0707H51.9415L51.9415 35.5707ZM53.5284 35.308L53.69 35.7812L54.3323 35.5618L53.9323 35.0134L53.5284 35.308ZM53.5284 4.66833L53.9323 4.96296L54.3323 4.41455L53.69 4.19517L53.5284 4.66833ZM51.9415 4.40564L51.9415 3.90564H51.9415V4.40564ZM59.9385 4.40564V3.90564H59.9385L59.9385 4.40564ZM59.9385 35.5707L59.9385 36.0707H59.9385V35.5707ZM81.2813 35.5707L81.2813 35.0707H81.2813V35.5707ZM82.3311 35.9984L81.9808 36.3551L81.9812 36.3556L82.3311 35.9984ZM89.9082 43.4203L89.5584 43.7775L90.4082 44.6099V43.4203H89.9082ZM91.4082 35.5707V35.0707H91.4081L91.4082 35.5707ZM93.6241 35.5707V36.0707H93.6241L93.6241 35.5707ZM93.6241 4.40564L93.6241 3.90564H93.6241V4.40564ZM93.0635 27.4906H93.5635V27.4906L93.0635 27.4906ZM60.4991 27.4906L59.9991 27.4906V27.4906H60.4991ZM26.4336 26.601L26.9336 26.6011V26.601H26.4336ZM19.4883 28.101L19.4882 28.601H19.4883V28.101ZM17.9883 26.601H17.4883V26.6011L17.9883 26.601ZM19.4883 19.8685V19.3685H19.4882L19.4883 19.8685ZM35.8965 19.8685L35.8966 19.3685H35.8965V19.8685ZM37.3965 26.601L37.8965 26.6011V26.601H37.3965ZM35.8965 28.101V28.601H35.8966L35.8965 28.101ZM28.9512 26.601H28.4512V26.6011L28.9512 26.601ZM48.3584 26.601L48.8584 26.6011V26.601H48.3584ZM39.9141 26.601H39.4141V26.6011L39.9141 26.601ZM20.9883 22.8685V22.3685H20.4883V22.8685H20.9883ZM20.9883 25.101H20.4883V25.601H20.9883V25.101ZM23.4336 25.101V25.601H23.9336V25.101H23.4336ZM23.4336 22.8685H23.9336V22.3685H23.4336V22.8685ZM31.9512 22.8685V22.3685H31.4512V22.8685H31.9512ZM31.9512 25.101H31.4512V25.601H31.9512V25.101ZM34.3965 25.101V25.601H34.8965V25.101H34.3965ZM34.3965 22.8685H34.8965V22.3685H34.3965V22.8685ZM42.9141 22.8685V22.3685H42.4141V22.8685H42.9141ZM42.9141 25.101H42.4141V25.601H42.9141V25.101ZM45.3584 25.101V25.601H45.8584V25.101H45.3584ZM45.3584 22.8685H45.8584V22.3685H45.3584V22.8685ZM93.0635 20.0961L93.5635 20.0962V20.0961H93.0635ZM60.4991 20.0961H59.9991V20.0962L60.4991 20.0961ZM48.3584 14.8783L48.8584 14.8783V14.8783H48.3584ZM19.7862 16.3783V16.8783V16.3783ZM18.2862 14.8783H17.7862V14.8783L18.2862 14.8783ZM19.7862 8.68591V8.18591V8.68591ZM93.0635 12.7006H93.5635V12.7005L93.0635 12.7006ZM60.4991 12.7006L59.9991 12.7005V12.7006H60.4991ZM21.2862 11.6859V11.1859H20.7862V11.6859H21.2862ZM21.2862 13.3783H20.7862V13.8783H21.2862V13.3783ZM45.3584 13.3783V13.8783H45.8584V13.3783H45.3584ZM45.3584 11.6859H45.8584V11.1859H45.3584V11.6859ZM10.7959 75.681L11.0123 76.1318C13.1155 75.1222 15.5112 74.7464 17.7305 74.84C19.9558 74.9339 21.9569 75.4975 23.2772 76.3177L23.5411 75.8929L23.8049 75.4682C22.3002 74.5335 20.1187 73.9399 17.7727 73.8409C15.4206 73.7417 12.8564 74.1374 10.5796 75.2303L10.7959 75.681ZM23.5411 75.8929L23.2772 76.3177C23.5851 76.509 24.0934 76.9842 24.827 77.8032C25.5476 78.6076 26.4509 79.7032 27.544 81.0901C29.7295 83.8631 32.6553 87.7772 36.3643 92.805L36.7667 92.5082L37.169 92.2114C33.4605 87.1842 30.526 83.2582 28.3294 80.4711C27.2313 79.0779 26.3131 77.9634 25.5718 77.1359C24.8435 76.3229 24.2495 75.7444 23.8049 75.4682L23.5411 75.8929ZM36.7667 92.5082L36.3641 92.8047C36.9166 93.5547 37.4116 94.225 37.8269 94.7854L38.2286 94.4877L38.6303 94.19C38.2157 93.6306 37.7213 92.9611 37.1692 92.2116L36.7667 92.5082ZM38.2286 94.4877L37.8264 94.7847C38.2462 95.3532 38.8212 95.641 39.5264 95.641V95.141V94.641C39.1366 94.641 38.8609 94.5022 38.6307 94.1906L38.2286 94.4877ZM39.5264 95.141V95.641H49.8487V95.141V94.641H39.5264V95.141ZM49.8487 95.141V95.641C51.4566 95.641 52.8282 96.2338 53.7773 97.2731L54.1465 96.9359L54.5157 96.5987C53.3598 95.333 51.7108 94.641 49.8487 94.641V95.141ZM54.1465 96.9359L54.5157 97.2731C55.4648 96.2338 56.8357 95.6411 58.4434 95.641L58.4434 95.141L58.4434 94.641C56.5814 94.6411 54.9331 95.3331 53.7773 96.5987L54.1465 96.9359ZM58.4434 95.141V95.641H68.7666V95.141V94.641H58.4434V95.141ZM68.7666 95.141L68.7668 95.641C69.4719 95.6408 70.0461 95.3528 70.4657 94.7847L70.0635 94.4877L69.6613 94.1906C69.4311 94.5023 69.156 94.6409 68.7665 94.641L68.7666 95.141ZM70.0635 94.4877L70.4652 94.7854C70.8804 94.2252 71.3762 93.5551 71.929 92.8047L71.5264 92.5082L71.1239 92.2116C70.5718 92.961 70.0766 93.6302 69.6618 94.19L70.0635 94.4877ZM71.5264 92.5082L71.9288 92.8049C75.6365 87.7772 78.562 83.8631 80.7476 81.0901C81.8407 79.7033 82.7441 78.6077 83.4649 77.8032C84.1986 76.9843 84.7069 76.509 85.0149 76.3176L84.751 75.8929L84.4872 75.4682C84.0426 75.7444 83.4485 76.3229 82.7201 77.1359C81.9787 77.9634 81.0603 79.0779 79.9622 80.4711C77.7655 83.2582 74.8313 87.1843 71.124 92.2114L71.5264 92.5082ZM84.751 75.8929L85.0147 76.3178C86.3363 75.4974 88.3382 74.9338 90.5634 74.84C92.7827 74.7464 95.1778 75.1222 97.2797 76.1317L97.4961 75.681L97.7126 75.2303C95.437 74.1373 92.8733 73.7417 90.5213 73.8409C88.1752 73.9398 85.9932 74.5334 84.4873 75.4681L84.751 75.8929ZM97.4961 75.681L97.2796 76.1317C99.5509 77.2231 102.347 79.4612 102.895 84.0181L103.392 83.9584L103.888 83.8986C103.287 78.9007 100.186 76.419 97.7127 75.2304L97.4961 75.681ZM103.392 83.9584L102.895 84.018L107.245 120.206L107.741 120.146L108.238 120.086L103.888 83.8987L103.392 83.9584ZM107.741 120.146L107.245 120.207C107.279 120.484 107.191 120.77 107 120.988L107.376 121.318L107.752 121.647C108.126 121.221 108.308 120.652 108.237 120.084L107.741 120.146ZM107.376 121.318L107.003 120.985C106.811 121.201 106.54 121.324 106.256 121.326L106.259 121.826L106.262 122.326C106.833 122.322 107.372 122.074 107.749 121.65L107.376 121.318ZM106.259 121.826L106.256 121.326L91.4035 121.409L91.4063 121.909L91.4091 122.409L106.262 122.326L106.259 121.826ZM91.4063 121.909V121.409H21.9258V121.909V122.409H91.4063V121.909ZM21.9258 121.909L21.9279 121.409L2.03534 121.326L2.03325 121.826L2.03117 122.326L21.9237 122.409L21.9258 121.909ZM2.03325 121.826L2.03632 121.326C1.7512 121.324 1.47902 121.2 1.2909 120.987L0.916065 121.318L0.541232 121.649C0.917922 122.075 1.46062 122.322 2.03018 122.326L2.03325 121.826ZM0.916065 121.318L1.29098 120.987C1.10323 120.774 1.014 120.489 1.04742 120.204L0.550831 120.146L0.0542449 120.088C-0.0121356 120.653 0.16436 121.222 0.541149 121.649L0.916065 121.318ZM0.550831 120.146L1.04726 120.206L5.39784 84.0181L4.90142 83.9584L4.40499 83.8987L0.0544055 120.086L0.550831 120.146ZM4.90142 83.9584L5.39783 84.0181C5.94628 79.4612 8.74133 77.2231 11.0125 76.1317L10.7959 75.681L10.5794 75.2304C8.10568 76.4191 5.0065 78.901 4.405 83.8986L4.90142 83.9584ZM23.4385 112.045H22.9385V118.906H23.4385H23.9385V112.045H23.4385ZM23.4385 118.906V119.406H89.8985V118.906V118.406H23.4385V118.906ZM89.8985 118.906H90.3985V112.045H89.8985H89.3985V118.906H89.8985ZM89.8985 112.045V111.545H23.4385V112.045V112.545H89.8985V112.045ZM21.9542 78.4379L22.2181 78.0132C21.0694 77.299 19.3328 76.8796 17.4907 76.8303C15.6399 76.7807 13.6176 77.1026 11.8823 77.9353L12.0987 78.3861L12.315 78.8369C13.8773 78.0872 15.7352 77.7836 17.464 77.8299C19.2015 77.8765 20.7439 78.2742 21.6902 78.8625L21.9542 78.4379ZM12.0987 78.3861L11.8826 77.9352C9.25832 79.1929 7.73741 81.3394 7.3874 84.2562L7.88384 84.3158L8.38028 84.3754C8.69025 81.7923 10.0043 79.9443 12.3148 78.837L12.0987 78.3861ZM7.88384 84.3158L7.38741 84.2561L3.23995 118.771L3.73638 118.83L4.23281 118.89L8.38027 84.3755L7.88384 84.3158ZM3.73638 118.83L3.73427 119.33L20.4364 119.401L20.4385 118.901L20.4406 118.401L3.73848 118.33L3.73638 118.83ZM20.4385 118.901H20.9385V111.761H20.4385H19.9385V118.901H20.4385ZM20.4385 111.761L20.6211 111.296C19.2754 110.768 18.3215 109.457 18.3213 107.931L17.8213 107.931L17.3213 107.931C17.3215 109.884 18.5419 111.554 20.256 112.227L20.4385 111.761ZM17.8213 107.931H18.3213C18.3213 105.937 19.9449 104.313 21.9385 104.313L21.9385 103.813L21.9385 103.313C19.3923 103.313 17.3213 105.385 17.3213 107.931H17.8213ZM21.9385 103.813V104.313H25.8682V103.813V103.313H21.9385V103.813ZM25.8682 103.813L26.2492 103.489L17.3723 93.0418L16.9913 93.3656L16.6102 93.6894L25.4872 104.137L25.8682 103.813ZM16.9913 93.3656L17.373 93.0427C17.0148 92.6193 17.0671 91.9873 17.487 91.6321L17.1641 91.2504L16.8412 90.8686C15.9961 91.5835 15.8977 92.8469 16.6095 93.6885L16.9913 93.3656ZM17.1641 91.2504L17.4869 91.6322C17.9094 91.2751 18.5413 91.3278 18.8973 91.7469L19.2784 91.4232L19.6595 91.0995C18.9456 90.2591 17.6838 90.1564 16.8413 90.8685L17.1641 91.2504ZM19.2784 91.4232L18.8973 91.747L29.4247 104.137L29.8057 103.813L30.1867 103.489L19.6594 91.0995L19.2784 91.4232ZM29.8057 103.813V104.313H49.8741V103.813V103.313H29.8057V103.813ZM49.8741 103.813L49.875 104.313C51.4292 104.31 52.2581 103.509 52.665 102.813L52.2334 102.561L51.8019 102.308C51.5387 102.758 51.0079 103.311 49.8731 103.313L49.8741 103.813ZM52.2334 102.561L52.6653 102.813C52.9841 102.267 53.1399 101.628 53.1484 101L52.6485 100.994L52.1485 100.987C52.142 101.464 52.0227 101.93 51.8016 102.309L52.2334 102.561ZM52.6485 100.994H53.1485V100.968H52.6485H52.1485V100.994H52.6485ZM52.6485 100.968L53.1485 100.97C53.1513 100.339 53.004 99.6977 52.6897 99.1493L52.2559 99.3978L51.8221 99.6464C52.0378 100.023 52.1507 100.487 52.1485 100.966L52.6485 100.968ZM52.2559 99.3978L52.6891 99.1481C52.1117 98.1464 51.0985 97.6429 49.8536 97.6429V98.1429V98.6429C50.8083 98.6429 51.4551 99.0097 51.8227 99.6475L52.2559 99.3978ZM49.8536 98.1429V97.6429H39.5313V98.1429V98.6429H49.8536V98.1429ZM39.5313 98.1429V97.6429C38.1919 97.6429 37.0231 97.0556 36.2251 95.9782L35.8233 96.2758L35.4215 96.5733C36.4085 97.9059 37.8757 98.6429 39.5313 98.6429V98.1429ZM35.8233 96.2758L36.2248 95.9778C35.807 95.4149 35.3154 94.7457 34.7584 93.993L34.3565 94.2904L33.9546 94.5878C34.5075 95.335 35.0046 96.0117 35.4218 96.5738L35.8233 96.2758ZM34.3565 94.2904L34.7588 93.9936C33.1168 91.7679 30.3707 88.0453 27.8562 84.7567C26.5992 83.1128 25.3974 81.5738 24.4188 80.3829C23.9298 79.7879 23.4933 79.2758 23.1316 78.8795C22.7818 78.4962 22.4694 78.1843 22.2362 78.025L21.9542 78.4379L21.6721 78.8507C21.7959 78.9353 22.0362 79.1627 22.393 79.5536C22.738 79.9316 23.1622 80.4288 23.6462 81.0178C24.6137 82.1952 25.8073 83.7234 27.0618 85.3641C29.5703 88.6448 32.3113 92.3606 33.9541 94.5872L34.3565 94.2904ZM96.1983 78.3861L96.4149 77.9355C94.6795 77.1013 92.6565 76.7796 90.8045 76.8299C88.9611 76.88 87.2231 77.3008 86.0721 78.0161L86.336 78.4408L86.5999 78.8655C87.5489 78.2758 89.0932 77.8768 90.8316 77.8296C92.5615 77.7825 94.4196 78.086 95.9817 78.8368L96.1983 78.3861ZM86.336 78.4408L86.0537 78.0281C85.8212 78.1871 85.5093 78.4987 85.1601 78.8816C84.7989 79.2776 84.3628 79.7894 83.8742 80.3841C82.8964 81.5744 81.6952 83.1129 80.4388 84.7563C77.9252 88.044 75.1799 91.766 73.539 93.9918L73.9415 94.2885L74.3439 94.5852C75.9854 92.3586 78.7258 88.6434 81.2332 85.3637C82.4872 83.7234 83.6802 82.1957 84.6469 81.0189C85.1306 80.4302 85.5543 79.9333 85.8989 79.5556C86.2553 79.1648 86.495 78.9378 86.6183 78.8535L86.336 78.4408ZM73.9415 94.2885L73.5395 93.991C72.9837 94.7421 72.4895 95.4126 72.0722 95.9748L72.4737 96.2728L72.8752 96.5708C73.2928 96.0081 73.7894 95.3345 74.3434 94.5859L73.9415 94.2885ZM72.4737 96.2728L72.0719 95.9752C71.2737 97.0529 70.1078 97.6409 68.7666 97.641L68.7666 98.141L68.7667 98.641C70.4251 98.6408 71.8889 97.9025 72.8755 96.5704L72.4737 96.2728ZM68.7666 98.141V97.641H58.4434V98.141V98.641H68.7666V98.141ZM58.4434 98.141L58.4434 97.641C57.1994 97.6411 56.1825 98.1437 55.6073 99.1472L56.0411 99.3959L56.4749 99.6445C56.8396 99.0082 57.4877 98.6411 58.4434 98.641L58.4434 98.141ZM56.0411 99.3959L55.6072 99.1473C55.2932 99.6955 55.1457 100.336 55.1485 100.967L55.6485 100.965L56.1485 100.963C56.1464 100.485 56.2592 100.021 56.4749 99.6444L56.0411 99.3959ZM55.6485 100.965H55.1485V100.991H55.6485H56.1485V100.965H55.6485ZM55.6485 100.991L55.1485 100.997C55.1571 101.625 55.3129 102.264 55.6317 102.81L56.0635 102.558L56.4953 102.306C56.2743 101.927 56.1549 101.461 56.1484 100.984L55.6485 100.991ZM56.0635 102.558L55.632 102.811C56.0387 103.506 56.8681 104.308 58.4229 104.311L58.4239 103.811L58.4248 103.311C57.2897 103.309 56.7583 102.755 56.4951 102.305L56.0635 102.558ZM58.4239 103.811V104.311H78.4913V103.811V103.311H58.4239V103.811ZM78.4913 103.811L78.8723 104.135L89.3996 91.744L89.0186 91.4203L88.6376 91.0965L78.1102 103.487L78.4913 103.811ZM89.0186 91.4203L89.3996 91.7441C89.7584 91.322 90.3881 91.2709 90.8101 91.6294L91.1338 91.2484L91.4576 90.8674C90.6146 90.151 89.3539 90.2539 88.6376 91.0965L89.0186 91.4203ZM91.1338 91.2484L90.81 91.6294C91.2321 91.9882 91.2832 92.6171 90.9247 93.0389L91.3057 93.3627L91.6867 93.6864C92.4031 92.8434 92.3001 91.5837 91.4577 90.8675L91.1338 91.2484ZM91.3057 93.3627L90.9247 93.0389L82.0477 103.487L82.4288 103.811L82.8098 104.135L91.6868 93.6864L91.3057 93.3627ZM82.4288 103.811V104.311H91.3985V103.811V103.311H82.4288V103.811ZM91.3985 103.811V104.311C93.3925 104.311 95.0166 105.934 95.0166 107.928L95.5166 107.928L96.0166 107.928C96.0166 105.382 93.9445 103.311 91.3985 103.311V103.811ZM95.5166 107.928H95.0166C95.0166 109.454 94.0624 110.762 92.7153 111.293L92.8985 111.758L93.0817 112.223C94.7946 111.549 96.0166 109.882 96.0166 107.928H95.5166ZM92.8985 111.758H92.3985V118.898H92.8985H93.3985V111.758H92.8985ZM92.8985 118.898L92.9013 119.398L104.566 119.333L104.564 118.833L104.561 118.333L92.8957 118.398L92.8985 118.898ZM104.564 118.833L105.06 118.774L100.911 84.2561L100.414 84.3158L99.9177 84.3755L104.067 118.893L104.564 118.833ZM100.414 84.3158L100.911 84.2562C100.56 81.3387 99.0358 79.1954 96.4149 77.9355L96.1983 78.3861L95.9817 78.8367C98.2908 79.9468 99.6078 81.7929 99.9177 84.3754L100.414 84.3158ZM21.9385 106.811L21.9385 106.311C21.0475 106.311 20.3214 107.037 20.3213 107.928L20.8213 107.928L21.3213 107.928C21.3214 107.589 21.5997 107.311 21.9386 107.311L21.9385 106.811ZM20.8213 107.928H20.3213C20.3213 108.819 21.0443 109.545 21.9385 109.545L21.9385 109.045L21.9386 108.545C21.5979 108.545 21.3213 108.268 21.3213 107.928H20.8213ZM21.9385 109.045V109.545H91.3985V109.045V108.545H21.9385V109.045ZM91.3985 109.045V109.545C92.2891 109.545 93.0166 108.82 93.0166 107.928H92.5166H92.0166C92.0166 108.266 91.7379 108.545 91.3985 108.545V109.045ZM92.5166 107.928L93.0166 107.928C93.0166 107.037 92.2923 106.311 91.3985 106.311V106.811V107.311C91.7397 107.311 92.0166 107.589 92.0166 107.928L92.5166 107.928ZM91.3985 106.811V106.311H21.9385V106.811V107.311H91.3985V106.811ZM19.3184 49.0404V49.5404C25.8823 49.5404 31.2237 54.8818 31.2237 61.4457H31.7237H32.2237C32.2237 54.3295 26.4346 48.5404 19.3184 48.5404V49.0404ZM31.7237 61.4457H31.2237C31.2237 68.0095 25.8823 73.351 19.3184 73.351V73.851V74.351C26.4345 74.351 32.2237 68.5618 32.2237 61.4457H31.7237ZM19.3184 73.851L19.3184 73.351C12.7547 73.3508 7.41413 68.0095 7.41411 61.4457H6.91411H6.41411C6.41413 68.5617 12.2024 74.3508 19.3184 74.351L19.3184 73.851ZM6.91411 61.4457H7.41411C7.41411 54.8819 12.7547 49.5406 19.3184 49.5404L19.3184 49.0404L19.3184 48.5404C12.2023 48.5406 6.41411 54.3297 6.41411 61.4457H6.91411ZM88.9786 49.0385V49.5385C95.5423 49.5385 100.884 54.8791 100.884 61.4428L101.384 61.4427L101.884 61.4427C101.884 54.3267 96.0945 48.5385 88.9786 48.5385V49.0385ZM101.384 61.4427H100.884C100.884 68.0066 95.5424 73.348 88.9786 73.348V73.848V74.348C96.0947 74.348 101.884 68.5589 101.884 61.4427H101.384ZM88.9786 73.848L88.9786 73.348C82.4148 73.348 77.0733 68.0066 77.0733 61.4427H76.5733H76.0733C76.0733 68.5589 81.8625 74.348 88.9786 74.348V73.848ZM76.5733 61.4427L77.0733 61.4428C77.0735 54.8792 82.4148 49.5385 88.9786 49.5385L88.9786 49.0385V48.5385C81.8626 48.5385 76.0735 54.3268 76.0733 61.4427L76.5733 61.4427ZM88.9786 52.0404V51.5404C83.5175 51.5405 79.0733 55.9846 79.0733 61.4457H79.5733H80.0733C80.0733 56.5369 84.0698 52.5405 88.9786 52.5404L88.9786 52.0404ZM79.5733 61.4457L79.0733 61.4457C79.0733 66.9068 83.5175 71.3509 88.9786 71.351V70.851L88.9786 70.351C84.0698 70.3509 80.0733 66.3545 80.0733 61.4457L79.5733 61.4457ZM88.9786 70.851V71.351C94.4397 71.351 98.8838 66.9068 98.8838 61.4457L98.3838 61.4457L97.8838 61.4457C97.8838 66.3545 93.8874 70.351 88.9786 70.351V70.851ZM98.3838 61.4457H98.8838C98.8838 55.9846 94.4423 51.5404 88.9786 51.5404V52.0404V52.5404C93.8898 52.5404 97.8838 56.5367 97.8838 61.4457H98.3838ZM19.3184 52.0385L19.3184 51.5385C13.8575 51.5386 9.41433 55.9819 9.41411 61.4427L9.91411 61.4427L10.4141 61.4428C10.4143 56.5342 14.4098 52.5386 19.3184 52.5385L19.3184 52.0385ZM9.91411 61.4427H9.41411C9.41411 66.9037 13.8547 71.3479 19.3184 71.348L19.3184 70.848L19.3184 70.348C14.4073 70.3479 10.4141 66.3517 10.4141 61.4427H9.91411ZM19.3184 70.848V71.348C24.7796 71.348 29.2237 66.9039 29.2237 61.4427H28.7237H28.2237C28.2237 66.3516 24.2273 70.348 19.3184 70.348V70.848ZM28.7237 61.4427L29.2237 61.4427C29.2235 55.9817 24.7794 51.5385 19.3184 51.5385V52.0385V52.5385C24.2272 52.5385 28.2235 56.5341 28.2237 61.4428L28.7237 61.4427ZM51.9385 1.40564V1.90564C53.2513 1.90564 54.5496 2.26152 55.6815 2.92239L55.9336 2.4906L56.1857 2.05881C54.9027 1.30972 53.4307 0.90564 51.9385 0.90564V1.40564ZM55.9336 2.4906L56.1857 2.92239C57.2897 2.27783 58.5706 1.90567 59.9385 1.90564L59.9385 1.40564L59.9385 0.90564C58.3866 0.905671 56.9325 1.32842 55.6815 2.05881L55.9336 2.4906ZM59.9385 1.40564V1.90564H93.6182V1.40564V0.90564H59.9385V1.40564ZM93.6182 1.40564V1.90564C97.7166 1.90564 101.046 5.22393 101.046 9.29822H101.546H102.046C102.046 4.66751 98.2648 0.90564 93.6182 0.90564V1.40564ZM101.546 9.29822H101.046V30.681H101.546H102.046V9.29822H101.546ZM101.546 30.681L101.046 30.681C101.046 34.7551 97.7141 38.0736 93.6182 38.0736V38.5736V39.0736C98.2621 39.0736 102.046 35.3116 102.046 30.6811L101.546 30.681ZM93.6182 38.5736V38.0736H92.9034V38.5736V39.0736H93.6182V38.5736ZM92.9034 38.5736H92.4034V44.723H92.9034H93.4034V38.5736H92.9034ZM92.9034 44.723H92.4034C92.4034 45.5104 91.9331 46.2161 91.2012 46.5213L91.3936 46.9828L91.586 47.4443C92.689 46.9844 93.4034 45.9156 93.4034 44.723H92.9034ZM91.3936 46.9828L91.2021 46.5209C90.9548 46.6234 90.7 46.6732 90.4463 46.6732L90.4463 47.1732L90.4464 47.6732C90.8326 47.6732 91.2175 47.5971 91.5851 47.4447L91.3936 46.9828ZM90.4463 47.1732V46.6732C89.9449 46.6732 89.4533 46.4806 89.0783 46.1137L88.7286 46.4711L88.3789 46.8284C88.9438 47.3813 89.6879 47.6732 90.4463 47.6732V47.1732ZM88.7286 46.4711L89.0785 46.1139L81.016 38.2136L80.6661 38.5707L80.3161 38.9278L88.3786 46.8282L88.7286 46.4711ZM80.6661 38.5707V38.0707H59.9366V38.5707V39.0707H80.6661V38.5707ZM59.9366 38.5707V38.0707C58.5683 38.0707 57.2842 37.6984 56.1832 37.0542L55.9307 37.4857L55.6782 37.9173C56.9272 38.6481 58.3849 39.0707 59.9366 39.0707V38.5707ZM55.9307 37.4857L55.6786 37.0539C54.5468 37.7146 53.249 38.0706 51.9365 38.0707L51.9366 38.5707L51.9366 39.0707C53.4286 39.0706 54.9 38.6664 56.1828 37.9175L55.9307 37.4857ZM51.9366 38.5707V38.0707H31.2061V38.5707V39.0707H51.9366V38.5707ZM31.2061 38.5707L30.8562 38.2135L22.7937 46.111L23.1436 46.4681L23.4935 46.8253L31.556 38.9279L31.2061 38.5707ZM23.1436 46.4681L22.7929 46.1117C22.4214 46.4773 21.9281 46.6703 21.4258 46.6703V47.1703V47.6703C22.1835 47.6703 22.9308 47.3789 23.4943 46.8245L23.1436 46.4681ZM21.4258 47.1703L21.4259 46.6703C21.1712 46.6702 20.9163 46.6211 20.6701 46.519L20.4786 46.9808L20.2871 47.4427C20.6556 47.5955 21.0407 47.6702 21.4258 47.6703L21.4258 47.1703ZM20.4786 46.9808L20.6699 46.5189C19.9396 46.2164 19.4689 45.5113 19.4688 44.721L18.9688 44.7211L18.4688 44.7212C18.469 45.9154 19.1828 46.9854 20.2872 47.4428L20.4786 46.9808ZM18.9688 44.7211H19.4688V38.5707H18.9688H18.4688V44.7211H18.9688ZM18.9688 38.5707V38.0707H18.254V38.5707V39.0707H18.9688V38.5707ZM18.254 38.5707V38.0707C14.1582 38.0707 10.8286 34.7525 10.8262 30.6778L10.3262 30.6781L9.82622 30.6784C9.82888 35.3087 13.6097 39.0707 18.254 39.0707V38.5707ZM10.3262 30.6781H10.8262V9.29822H10.3262H9.82622V30.6781H10.3262ZM10.3262 9.29822H10.8262C10.8262 5.22403 14.1579 1.90564 18.254 1.90564V1.40564V0.90564C13.61 0.90564 9.82622 4.66741 9.82622 9.29822H10.3262ZM18.254 1.40564V1.90564H51.9385V1.40564V0.90564H18.254V1.40564ZM18.2559 4.40564L18.2559 3.90564C15.2656 3.9058 12.8292 6.32144 12.8292 9.29822H13.3292H13.8292C13.8292 6.88018 15.8114 4.90577 18.2559 4.90564L18.2559 4.40564ZM13.3292 9.29822V9.79822H13.3311V9.29822V8.79822H13.3292V9.29822ZM13.3311 9.29822H12.8311V30.6781H13.3311H13.8311V9.29822H13.3311ZM13.3311 30.6781H12.8311C12.8311 33.6551 15.2685 36.0707 18.2588 36.0707V35.5707V35.0707C15.8141 35.0707 13.8311 33.0961 13.8311 30.6781H13.3311ZM18.2588 35.5707V36.0707H20.4737V35.5707V35.0707H18.2588V35.5707ZM20.4737 35.5707V36.0707C21.025 36.0707 21.4737 36.5193 21.4737 37.0707H21.9737H22.4737C22.4737 35.967 21.5773 35.0707 20.4737 35.0707V35.5707ZM21.9737 37.0707H21.4737V43.4203H21.9737H22.4737V37.0707H21.9737ZM21.9737 43.4203L22.3236 43.7774L29.8988 36.3556L29.5489 35.9984L29.199 35.6413L21.6238 43.0631L21.9737 43.4203ZM29.5489 35.9984L29.8976 36.3567C30.0852 36.1741 30.3378 36.0707 30.5987 36.0707V35.5707V35.0707C30.0746 35.0707 29.5725 35.2777 29.2002 35.6401L29.5489 35.9984ZM30.5987 35.5707V36.0707H51.9415V35.5707V35.0707H30.5987V35.5707ZM51.9415 35.5707L51.9415 36.0707C52.5466 36.0706 53.1334 35.9712 53.69 35.7812L53.5284 35.308L53.3668 34.8348C52.9137 34.9896 52.436 35.0707 51.9414 35.0707L51.9415 35.5707ZM53.5284 35.308L53.9323 35.0134C53.0422 33.7928 52.5167 32.2977 52.5167 30.6781H52.0167H51.5167C51.5167 32.5183 52.1148 34.2182 53.1244 35.6026L53.5284 35.308ZM52.0167 30.6781H52.5167V9.29822H52.0167H51.5167V30.6781H52.0167ZM52.0167 9.29822H52.5167C52.5167 7.68108 53.0423 6.18342 53.9323 4.96296L53.5284 4.66833L53.1244 4.37371C52.1147 5.75815 51.5167 7.46061 51.5167 9.29822H52.0167ZM53.5284 4.66833L53.69 4.19517C53.1333 4.00504 52.5439 3.90567 51.9415 3.90564L51.9415 4.40564L51.9414 4.90564C52.4336 4.90567 52.9138 4.98679 53.3668 5.1415L53.5284 4.66833ZM51.9415 4.40564V3.90564H18.2559V4.40564V4.90564H51.9415V4.40564ZM59.9385 4.40564L59.9385 3.90564C56.9483 3.90574 54.5108 6.32128 54.5108 9.29822H55.0108H55.5108C55.5108 6.88026 57.4939 4.90572 59.9385 4.90564L59.9385 4.40564ZM55.0108 9.29822H54.5108V30.6781H55.0108H55.5108V9.29822H55.0108ZM55.0108 30.6781H54.5108C54.5108 33.655 56.9483 36.0706 59.9385 36.0707L59.9385 35.5707L59.9385 35.0707C57.4939 35.0706 55.5108 33.0961 55.5108 30.6781H55.0108ZM59.9385 35.5707V36.0707H81.2813V35.5707V35.0707H59.9385V35.5707ZM81.2813 35.5707L81.2813 36.0707C81.5441 36.0707 81.7953 36.173 81.9808 36.3551L82.3311 35.9984L82.6815 35.6417C82.307 35.2739 81.8034 35.0707 81.2813 35.0707L81.2813 35.5707ZM82.3311 35.9984L81.9812 36.3556L89.5584 43.7775L89.9082 43.4203L90.2581 43.0631L82.681 35.6412L82.3311 35.9984ZM89.9082 43.4203H90.4082V37.0707H89.9082H89.4082V43.4203H89.9082ZM89.9082 37.0707H90.4082C90.4082 36.5196 90.857 36.0708 91.4084 36.0707L91.4082 35.5707L91.4081 35.0707C90.3049 35.071 89.4082 35.967 89.4082 37.0707H89.9082ZM91.4082 35.5707V36.0707H93.6241V35.5707V35.0707H91.4082V35.5707ZM93.6241 35.5707L93.6241 36.0707C96.6143 36.0704 99.0508 33.6549 99.0508 30.6781H98.5508H98.0508C98.0508 33.0961 96.0685 35.0705 93.624 35.0707L93.6241 35.5707ZM98.5508 30.6781H99.0508V9.29822H98.5508H98.0508V30.6781H98.5508ZM98.5508 9.29822H99.0508C99.0508 6.32147 96.6143 3.90587 93.6241 3.90564L93.6241 4.40564L93.624 4.90564C96.0685 4.90583 98.0508 6.88023 98.0508 9.29822H98.5508ZM93.6241 4.40564V3.90564H59.9385V4.40564V4.90564H93.6241V4.40564ZM91.5635 25.9906V26.4906C92.1149 26.4906 92.5635 26.9393 92.5635 27.4906L93.0635 27.4906L93.5635 27.4906C93.5635 26.387 92.6672 25.4906 91.5635 25.4906V25.9906ZM93.0635 27.4906H92.5635C92.5635 28.042 92.1149 28.4906 91.5635 28.4906V28.9906V29.4906C92.6672 29.4906 93.5635 28.5942 93.5635 27.4906H93.0635ZM91.5635 28.9906V28.4906H61.9991V28.9906V29.4906H91.5635V28.9906ZM61.9991 28.9906V28.4906C61.4477 28.4906 60.9991 28.042 60.9991 27.4906H60.4991H59.9991C59.9991 28.5942 60.8954 29.4906 61.9991 29.4906V28.9906ZM60.4991 27.4906L60.9991 27.4906C60.9991 26.9393 61.4477 26.4906 61.9991 26.4906V25.9906V25.4906C60.8954 25.4906 59.9991 26.387 59.9991 27.4906L60.4991 27.4906ZM61.9991 25.9906V26.4906H91.5635V25.9906V25.4906H61.9991V25.9906ZM24.9336 19.8685V20.3685C25.485 20.3685 25.9336 20.8172 25.9336 21.3685H26.4336H26.9336C26.9336 20.2649 26.0373 19.3685 24.9336 19.3685V19.8685ZM26.4336 21.3685H25.9336V26.601H26.4336H26.9336V21.3685H26.4336ZM26.4336 26.601L25.9336 26.6008C25.9335 27.1522 25.4848 27.601 24.9336 27.601V28.101V28.601C26.0373 28.601 26.9334 27.7044 26.9336 26.6011L26.4336 26.601ZM24.9336 28.101V27.601H19.4883V28.101V28.601H24.9336V28.101ZM19.4883 28.101L19.4884 27.601C18.9353 27.6008 18.4884 27.1526 18.4883 26.6009L17.9883 26.601L17.4883 26.6011C17.4886 27.7038 18.3819 28.6007 19.4882 28.601L19.4883 28.101ZM17.9883 26.601H18.4883V21.3685H17.9883H17.4883V26.601H17.9883ZM17.9883 21.3685H18.4883C18.4883 20.8174 18.937 20.3687 19.4884 20.3685L19.4883 19.8685L19.4882 19.3685C18.3849 19.3688 17.4883 20.2649 17.4883 21.3685H17.9883ZM19.4883 19.8685V20.3685H24.9336V19.8685V19.3685H19.4883V19.8685ZM35.8965 19.8685L35.8964 20.3685C36.4484 20.3687 36.8965 20.8154 36.8965 21.3685H37.3965H37.8965C37.8965 20.2618 36.9994 19.3688 35.8966 19.3685L35.8965 19.8685ZM37.3965 21.3685H36.8965V26.601H37.3965H37.8965V21.3685H37.3965ZM37.3965 26.601L36.8965 26.6008C36.8964 27.152 36.4476 27.6008 35.8964 27.601L35.8965 28.101L35.8966 28.601C36.9999 28.6007 37.8963 27.7044 37.8965 26.6011L37.3965 26.601ZM35.8965 28.101V27.601H30.4512V28.101V28.601H35.8965V28.101ZM30.4512 28.101V27.601C29.9001 27.601 29.4513 27.1522 29.4512 26.6008L28.9512 26.601L28.4512 26.6011C28.4514 27.7044 29.3476 28.601 30.4512 28.601V28.101ZM28.9512 26.601H29.4512V21.3685H28.9512H28.4512V26.601H28.9512ZM28.9512 21.3685H29.4512C29.4512 20.8172 29.8999 20.3685 30.4512 20.3685V19.8685V19.3685C29.3476 19.3685 28.4512 20.2649 28.4512 21.3685H28.9512ZM30.4512 19.8685V20.3685H35.8965V19.8685V19.3685H30.4512V19.8685ZM46.8584 19.8685V20.3685C47.4123 20.3685 47.8584 20.8147 47.8584 21.3685H48.3584H48.8584C48.8584 20.2624 47.9646 19.3685 46.8584 19.3685V19.8685ZM48.3584 21.3685H47.8584V26.601H48.3584H48.8584V21.3685H48.3584ZM48.3584 26.601L47.8584 26.6008C47.8583 27.1522 47.4096 27.601 46.8584 27.601V28.101V28.601C47.9621 28.601 48.8582 27.7044 48.8584 26.6011L48.3584 26.601ZM46.8584 28.101V27.601H41.4141V28.101V28.601H46.8584V28.101ZM41.4141 28.101V27.601C40.863 27.601 40.4142 27.1522 40.4141 26.6008L39.9141 26.601L39.4141 26.6011C39.4143 27.7044 40.3105 28.601 41.4141 28.601V28.101ZM39.9141 26.601H40.4141V21.3685H39.9141H39.4141V26.601H39.9141ZM39.9141 21.3685H40.4141C40.4141 20.8172 40.8628 20.3685 41.4141 20.3685V19.8685V19.3685C40.3105 19.3685 39.4141 20.2649 39.4141 21.3685H39.9141ZM41.4141 19.8685V20.3685H46.8584V19.8685V19.3685H41.4141V19.8685ZM20.9883 22.8685H20.4883V25.101H20.9883H21.4883V22.8685H20.9883ZM20.9883 25.101V25.601H23.4336V25.101V24.601H20.9883V25.101ZM23.4336 25.101H23.9336V22.8685H23.4336H22.9336V25.101H23.4336ZM23.4336 22.8685V22.3685H20.9883V22.8685V23.3685H23.4336V22.8685ZM31.9512 22.8685H31.4512V25.101H31.9512H32.4512V22.8685H31.9512ZM31.9512 25.101V25.601H34.3965V25.101V24.601H31.9512V25.101ZM34.3965 25.101H34.8965V22.8685H34.3965H33.8965V25.101H34.3965ZM34.3965 22.8685V22.3685H31.9512V22.8685V23.3685H34.3965V22.8685ZM42.9141 22.8685H42.4141V25.101H42.9141H43.4141V22.8685H42.9141ZM42.9141 25.101V25.601H45.3584V25.101V24.601H42.9141V25.101ZM45.3584 25.101H45.8584V22.8685H45.3584H44.8584V25.101H45.3584ZM45.3584 22.8685V22.3685H42.9141V22.8685V23.3685H45.3584V22.8685ZM91.5635 18.5961V19.0961C92.1149 19.0961 92.5635 19.5447 92.5635 20.0961H93.0635H93.5635C93.5635 18.9924 92.6672 18.0961 91.5635 18.0961V18.5961ZM93.0635 20.0961L92.5635 20.0959C92.5634 20.6473 92.1146 21.0961 91.5635 21.0961V21.5961V22.0961C92.6672 22.0961 93.5632 21.1994 93.5635 20.0962L93.0635 20.0961ZM91.5635 21.5961V21.0961H61.9991V21.5961V22.0961H91.5635V21.5961ZM61.9991 21.5961V21.0961C61.448 21.0961 60.9992 20.6473 60.9991 20.0959L60.4991 20.0961L59.9991 20.0962C59.9994 21.1994 60.8954 22.0961 61.9991 22.0961V21.5961ZM60.4991 20.0961H60.9991C60.9991 19.5447 61.4477 19.0961 61.9991 19.0961V18.5961V18.0961C60.8954 18.0961 59.9991 18.9924 59.9991 20.0961H60.4991ZM61.9991 18.5961V19.0961H91.5635V18.5961V18.0961H61.9991V18.5961ZM46.8584 8.68591V9.18591C47.4098 9.18591 47.8584 9.63456 47.8584 10.1859H48.3584H48.8584C48.8584 9.08227 47.9621 8.18591 46.8584 8.18591V8.68591ZM48.3584 10.1859H47.8584V14.8783H48.3584H48.8584V10.1859H48.3584ZM48.3584 14.8783L47.8584 14.8782C47.8584 15.4296 47.4097 15.8783 46.8584 15.8783V16.3783V16.8783C47.9621 16.8783 48.8583 15.9818 48.8584 14.8783L48.3584 14.8783ZM46.8584 16.3783V15.8783H19.7862V16.3783V16.8783H46.8584V16.3783ZM19.7862 16.3783V15.8783C19.2344 15.8783 18.7862 15.4316 18.7862 14.8782L18.2862 14.8783L17.7862 14.8783C17.7863 15.9849 18.6831 16.8783 19.7862 16.8783V16.3783ZM18.2862 14.8783H18.7862V10.1859H18.2862H17.7862V14.8783H18.2862ZM18.2862 10.1859H18.7862C18.7862 9.63456 19.2348 9.18591 19.7862 9.18591V8.68591V8.18591C18.6825 8.18591 17.7862 9.08227 17.7862 10.1859H18.2862ZM19.7862 8.68591V9.18591H46.8584V8.68591V8.18591H19.7862V8.68591ZM91.5635 11.2006V11.7006C92.1148 11.7006 92.5635 12.1492 92.5635 12.7006L93.0635 12.7006L93.5635 12.7005C93.5635 11.597 92.6672 10.7006 91.5635 10.7006V11.2006ZM93.0635 12.7006H92.5635C92.5635 13.2519 92.1149 13.7006 91.5635 13.7006V14.2006V14.7006C92.6672 14.7006 93.5635 13.8042 93.5635 12.7006H93.0635ZM91.5635 14.2006V13.7006H61.9991V14.2006V14.7006H91.5635V14.2006ZM61.9991 14.2006V13.7006C61.4477 13.7006 60.9991 13.2519 60.9991 12.7006H60.4991H59.9991C59.9991 13.8042 60.8954 14.7006 61.9991 14.7006V14.2006ZM60.4991 12.7006L60.9991 12.7006C60.9991 12.1492 61.4478 11.7006 61.9991 11.7006V11.2006V10.7006C60.8954 10.7006 59.9991 11.597 59.9991 12.7005L60.4991 12.7006ZM61.9991 11.2006V11.7006H91.5635V11.2006V10.7006H61.9991V11.2006ZM21.2862 11.6859H20.7862V13.3783H21.2862H21.7862V11.6859H21.2862ZM21.2862 13.3783V13.8783H45.3584V13.3783V12.8783H21.2862V13.3783ZM45.3584 13.3783H45.8584V11.6859H45.3584H44.8584V13.3783H45.3584ZM45.3584 11.6859V11.1859H21.2862V11.6859V12.1859H45.3584V11.6859Z" fill="black" mask="url(#path-1-outside-1_312_20)"/>
</svg>
