<svg width="128" height="141" viewBox="0 0 128 141" fill="none" xmlns="http://www.w3.org/2000/svg">
<path d="M66.0971 62.7404C41.0201 55.5096 36.8258 41.2142 39.9028 27.2144C31.6976 31.522 15.0819 44.8328 21.4818 54.4328C29.4818 66.4328 58.7125 75.5096 78.4047 88.8942C98.0972 102.279 83.0202 118.432 75.0201 123.971C81.6663 125.202 100.057 120.906 107.134 117.522C108.569 111.368 108.005 95.2939 104.559 88.8942C100.251 80.8942 91.1741 69.9712 66.0971 62.7404Z" fill="url(#paint0_linear_428_78)"/>
<path d="M0.000183105 69.1503C4.76954 -5.00412 74.8718 -4.69571 106.461 5.15038V22.9958C33.0771 -0.234905 18.4617 53.6119 18.4617 72.2273C19.2309 135.15 80 127.817 106.461 115.304V133.765C97.1077 138.689 74.6155 140.534 58.4616 139.92C39.3848 138.278 0.154073 127.151 0.000183105 69.1503Z" fill="#DE6F35"/>
<path d="M128 14.7506L106.461 5.15527V133.763L128 124.168V14.7506Z" fill="#EABB37"/>
<defs>
<linearGradient id="paint0_linear_428_78" x1="20.0477" y1="29.335" x2="107.87" y2="122.066" gradientUnits="userSpaceOnUse">
<stop stop-color="#670108"/>
<stop offset="0.572115" stop-color="#AC1E23"/>
<stop offset="1" stop-color="#670108"/>
</linearGradient>
</defs>
</svg>
