<svg width="128" height="129" viewBox="0 0 128 129" fill="none" xmlns="http://www.w3.org/2000/svg">
<path d="M109.504 3.8313C113.735 -0.400147 120.596 -0.400147 124.827 3.8313C129.057 8.06178 129.058 14.9222 124.827 19.1536L120.596 23.384C124.98 25.5686 127.994 30.0936 128 35.3235V99.3235C127.991 106.684 122.026 112.648 114.667 112.656H85.333V123.323H93.333V128.656H34.667V123.323H42.667V112.656H13.333C5.97363 112.648 0.00878905 106.684 0 99.3235V35.3235C0.00902142 27.9633 5.97378 21.9983 13.333 21.9895H18.667V27.3235H13.333C8.91518 27.3235 5.33324 30.9047 5.33301 35.3235V99.3235C5.33301 103.741 8.91504 107.323 13.333 107.323H114.667C119.085 107.323 122.667 103.741 122.667 99.3235V35.3235C122.667 31.519 120.011 28.3382 116.453 27.5266L82.4717 61.5081C82.0783 61.9014 81.5743 62.1562 81.0332 62.2483L81.0342 62.2542L67.1143 64.6194C66.9668 64.6438 66.8164 64.6555 66.667 64.6565C65.8809 64.6565 65.1348 64.3108 64.6289 63.7102C64.1222 63.1096 63.9053 62.3166 64.0371 61.5422L66.4023 47.6223L66.4072 47.6233C66.4964 47.0968 66.7432 46.592 67.1494 46.1858L109.504 3.8313ZM48 123.323H80V112.656H48V123.323ZM28.3125 11.5266C29.3094 11.1146 30.4561 11.3423 31.2188 12.1047L41.1035 21.9895H80V27.3235H46.4375L63.2188 44.1047L59.4482 47.8752L32 20.427V80.6565H92.2295L80.7812 69.2083L84.5518 65.4377L100.552 81.4377C101.314 82.2003 101.542 83.347 101.13 84.344C100.717 85.3401 99.7451 85.9895 98.667 85.9895H29.333C27.8604 85.9895 26.667 84.7961 26.667 83.3235V13.9895C26.6672 12.9116 27.3165 11.9396 28.3125 11.5266ZM45.333 67.3235H61.333V72.6565H42.667C41.1943 72.6565 40 71.4631 40 69.9895V45.9895H45.333V67.3235ZM69.9277 58.7288L75.0498 57.8567L70.7988 53.6057L69.9277 58.7288ZM72.7998 48.0706L80.5869 55.8577L117.248 19.1965L115.24 17.1887L82.4707 49.9583L78.7002 46.1868L111.469 13.4172L109.47 11.4182L72.7998 48.0706ZM121.066 7.60181C118.89 5.52466 115.465 5.52466 113.288 7.60181L113.241 7.64673L121.02 15.425L121.066 15.3801C123.214 13.2317 123.214 9.75026 121.066 7.60181Z" fill="black"/>
</svg>
