<svg width="130" height="130" viewBox="0 0 130 130" fill="none" xmlns="http://www.w3.org/2000/svg">
<mask id="path-1-outside-1_303_1081" maskUnits="userSpaceOnUse" x="0.489258" y="-0.256958" width="130" height="130" fill="black">
<rect fill="white" x="0.489258" y="-0.256958" width="130" height="130"/>
<path d="M75.8066 1.2489C81.2016 3.48242 81.2105 3.48869 86.6064 5.72156L87.8291 6.22742L87.7617 7.54968L87.4141 14.3466C88.4319 15.3644 89.2562 16.1897 90.0811 17.0145C90.9056 17.8391 91.7307 18.6632 92.748 19.6805L99.5439 19.3339L100.865 19.2665L101.371 20.4882C102.489 23.1845 103.049 24.5366 103.609 25.8885C104.169 27.2403 104.729 28.5921 105.847 31.288L106.354 32.5106L105.371 33.3983L100.319 37.9589V45.5028L105.37 50.0624L106.353 50.9481L105.847 52.1708C105.406 53.2367 105.05 54.0922 104.748 54.8212H113.266L113.815 55.37L128.815 70.37L129.364 70.9198V128.571H116.239V124.821H125.614V73.5712H110.614V58.5712H87.3916L91.6904 62.87L92.2393 63.4198V121.071H79.3643V124.821H112.489V128.571H75.6143V121.071H55.2393V128.571H1.48926V54.8212H12.1621V58.5712H5.23926V105.773L16.1904 93.3241L17.4482 91.8944L18.8584 93.1737L22.9971 96.9305L31.2324 87.2772L32.6123 85.6591L34.0449 87.2313L38.4893 92.1093V58.5712H15.9111V54.8212H25.9805C25.6784 54.0922 25.3228 53.2367 24.8818 52.1708L24.376 50.9481L25.3584 50.0624L30.4092 45.5028V37.9589L25.3574 33.3983L24.375 32.5106L24.8818 31.288C25.9992 28.5921 26.5592 27.2403 27.1191 25.8885C27.6792 24.5366 28.2399 23.1845 29.3574 20.4882L29.8633 19.2665L31.1846 19.3339L37.9795 19.6805C38.9971 18.663 39.8228 17.8392 40.6475 17.0145C41.4721 16.1898 42.2959 15.3641 43.3135 14.3466L42.9668 7.54968L42.8994 6.22742L44.1221 5.72156C49.518 3.48868 49.5269 3.48243 54.9219 1.2489L56.1445 0.743042L57.0312 1.72449L61.5918 6.77625H69.1367L73.6973 1.72449L74.584 0.743042L75.8066 1.2489ZM24.5947 100.836L15.1055 111.961L12.252 109.527L20.5615 99.785L17.7471 97.2303L5.23926 111.451V124.821H51.4893V121.071H38.4893V97.6786L32.7041 91.328L24.5947 100.836ZM42.2393 117.321H88.4893V66.0712H73.4893V51.0712H42.2393V117.321ZM99.7217 82.6298L116.817 93.8798L119.198 95.4462L116.817 97.0126L99.7217 108.263L96.8164 110.175V80.7177L99.7217 82.6298ZM82.7393 99.7548L82.7305 100.108C82.5465 103.741 79.5427 106.63 75.8643 106.63C72.0673 106.63 68.9893 103.552 68.9893 99.7548C68.9893 95.9579 72.0673 92.8798 75.8643 92.8798C76.9897 92.8798 78.0516 93.1513 78.9893 93.6307V87.8778H60.2393V99.7548L60.2305 100.108C60.0465 103.741 57.0427 106.63 53.3643 106.63C49.5673 106.63 46.4893 103.552 46.4893 99.7548C46.4893 95.9579 49.5673 92.8798 53.3643 92.8798C54.4897 92.8798 55.5516 93.1513 56.4893 93.6307V72.7626H82.7393V99.7548ZM100.566 103.218L112.375 95.4462L100.566 87.6737V103.218ZM53.3643 96.6298C51.6384 96.6298 50.2393 98.0289 50.2393 99.7548C50.2393 101.481 51.6384 102.88 53.3643 102.88C55.0901 102.88 56.4893 101.481 56.4893 99.7548C56.4892 98.0289 55.0901 96.6298 53.3643 96.6298ZM75.8643 96.6298C74.1384 96.6298 72.7393 98.0289 72.7393 99.7548C72.7393 101.481 74.1384 102.88 75.8643 102.88C77.5901 102.88 78.9893 101.481 78.9893 99.7548C78.9892 98.0289 77.5901 96.6298 75.8643 96.6298ZM60.2393 84.1278H78.9893V76.5126H60.2393V84.1278ZM19.0371 66.8212C22.834 66.8212 25.9121 69.8992 25.9121 73.6962C25.9121 77.4931 22.8341 80.5712 19.0371 80.5712C15.2402 80.5712 12.1621 77.4931 12.1621 73.6962C12.1621 69.8992 15.2402 66.8212 19.0371 66.8212ZM19.0371 70.5712C17.3112 70.5712 15.9121 71.9703 15.9121 73.6962C15.9121 75.4221 17.3112 76.8212 19.0371 76.8212C20.763 76.8212 22.1621 75.4221 22.1621 73.6962C22.1621 71.9703 20.763 70.5712 19.0371 70.5712ZM114.364 69.8212H122.962L114.364 61.2235V69.8212ZM77.2393 62.3212H85.8369L77.2393 53.7235V62.3212ZM71.3613 9.90808L70.8027 10.5262H59.9258L59.3672 9.90808L55.1338 5.2196C51.3031 6.80581 50.6131 7.09282 46.7793 8.67957L47.1016 14.9882L47.1445 15.8202L39.4531 23.5116L38.6211 23.4686L32.3145 23.1464C31.5202 25.0628 31.0522 26.1937 30.584 27.3241C30.1158 28.4544 29.6467 29.5846 28.8525 31.5009L33.541 35.7343L34.1592 36.2928V47.1698L33.541 47.7284L28.8525 51.9579C29.3483 53.1556 29.7176 54.0462 30.0391 54.8212H38.4893V47.3212H48.1201C47.5494 45.5597 47.2393 43.6811 47.2393 41.7313C47.2393 31.7208 55.3537 23.6063 65.3643 23.6063C75.3748 23.6063 83.4893 31.7208 83.4893 41.7313C83.4892 45.4085 82.3904 48.8317 80.5088 51.6884L83.6416 54.8212H100.688C101.01 54.0461 101.379 53.1556 101.875 51.9579L97.1875 47.7284L96.5693 47.1698V36.2928L97.1875 35.7343L101.875 31.5009C101.081 29.5848 100.613 28.4544 100.145 27.3241C99.6762 26.1936 99.2074 25.0631 98.4131 23.1464L92.1074 23.4686L91.2754 23.5116L83.584 15.8202L83.627 14.9882L83.9482 8.67957C80.1149 7.09301 79.4249 6.806 75.5938 5.2196L71.3613 9.90808ZM65.3643 27.3563C57.4248 27.3563 50.9893 33.7919 50.9893 41.7313C50.9893 43.7176 51.3927 45.6046 52.1182 47.3212H76.1406L76.6904 47.87L77.7852 48.9647C79.0254 46.8405 79.7392 44.3713 79.7393 41.7313C79.7393 33.7919 73.3037 27.3563 65.3643 27.3563ZM63.4893 19.0692H59.7393V15.3192H63.4893V19.0692ZM70.9893 19.0692H67.2393V15.3192H70.9893V19.0692Z"/>
</mask>
<path d="M75.8066 1.2489C81.2016 3.48242 81.2105 3.48869 86.6064 5.72156L87.8291 6.22742L87.7617 7.54968L87.4141 14.3466C88.4319 15.3644 89.2562 16.1897 90.0811 17.0145C90.9056 17.8391 91.7307 18.6632 92.748 19.6805L99.5439 19.3339L100.865 19.2665L101.371 20.4882C102.489 23.1845 103.049 24.5366 103.609 25.8885C104.169 27.2403 104.729 28.5921 105.847 31.288L106.354 32.5106L105.371 33.3983L100.319 37.9589V45.5028L105.37 50.0624L106.353 50.9481L105.847 52.1708C105.406 53.2367 105.05 54.0922 104.748 54.8212H113.266L113.815 55.37L128.815 70.37L129.364 70.9198V128.571H116.239V124.821H125.614V73.5712H110.614V58.5712H87.3916L91.6904 62.87L92.2393 63.4198V121.071H79.3643V124.821H112.489V128.571H75.6143V121.071H55.2393V128.571H1.48926V54.8212H12.1621V58.5712H5.23926V105.773L16.1904 93.3241L17.4482 91.8944L18.8584 93.1737L22.9971 96.9305L31.2324 87.2772L32.6123 85.6591L34.0449 87.2313L38.4893 92.1093V58.5712H15.9111V54.8212H25.9805C25.6784 54.0922 25.3228 53.2367 24.8818 52.1708L24.376 50.9481L25.3584 50.0624L30.4092 45.5028V37.9589L25.3574 33.3983L24.375 32.5106L24.8818 31.288C25.9992 28.5921 26.5592 27.2403 27.1191 25.8885C27.6792 24.5366 28.2399 23.1845 29.3574 20.4882L29.8633 19.2665L31.1846 19.3339L37.9795 19.6805C38.9971 18.663 39.8228 17.8392 40.6475 17.0145C41.4721 16.1898 42.2959 15.3641 43.3135 14.3466L42.9668 7.54968L42.8994 6.22742L44.1221 5.72156C49.518 3.48868 49.5269 3.48243 54.9219 1.2489L56.1445 0.743042L57.0312 1.72449L61.5918 6.77625H69.1367L73.6973 1.72449L74.584 0.743042L75.8066 1.2489ZM24.5947 100.836L15.1055 111.961L12.252 109.527L20.5615 99.785L17.7471 97.2303L5.23926 111.451V124.821H51.4893V121.071H38.4893V97.6786L32.7041 91.328L24.5947 100.836ZM42.2393 117.321H88.4893V66.0712H73.4893V51.0712H42.2393V117.321ZM99.7217 82.6298L116.817 93.8798L119.198 95.4462L116.817 97.0126L99.7217 108.263L96.8164 110.175V80.7177L99.7217 82.6298ZM82.7393 99.7548L82.7305 100.108C82.5465 103.741 79.5427 106.63 75.8643 106.63C72.0673 106.63 68.9893 103.552 68.9893 99.7548C68.9893 95.9579 72.0673 92.8798 75.8643 92.8798C76.9897 92.8798 78.0516 93.1513 78.9893 93.6307V87.8778H60.2393V99.7548L60.2305 100.108C60.0465 103.741 57.0427 106.63 53.3643 106.63C49.5673 106.63 46.4893 103.552 46.4893 99.7548C46.4893 95.9579 49.5673 92.8798 53.3643 92.8798C54.4897 92.8798 55.5516 93.1513 56.4893 93.6307V72.7626H82.7393V99.7548ZM100.566 103.218L112.375 95.4462L100.566 87.6737V103.218ZM53.3643 96.6298C51.6384 96.6298 50.2393 98.0289 50.2393 99.7548C50.2393 101.481 51.6384 102.88 53.3643 102.88C55.0901 102.88 56.4893 101.481 56.4893 99.7548C56.4892 98.0289 55.0901 96.6298 53.3643 96.6298ZM75.8643 96.6298C74.1384 96.6298 72.7393 98.0289 72.7393 99.7548C72.7393 101.481 74.1384 102.88 75.8643 102.88C77.5901 102.88 78.9893 101.481 78.9893 99.7548C78.9892 98.0289 77.5901 96.6298 75.8643 96.6298ZM60.2393 84.1278H78.9893V76.5126H60.2393V84.1278ZM19.0371 66.8212C22.834 66.8212 25.9121 69.8992 25.9121 73.6962C25.9121 77.4931 22.8341 80.5712 19.0371 80.5712C15.2402 80.5712 12.1621 77.4931 12.1621 73.6962C12.1621 69.8992 15.2402 66.8212 19.0371 66.8212ZM19.0371 70.5712C17.3112 70.5712 15.9121 71.9703 15.9121 73.6962C15.9121 75.4221 17.3112 76.8212 19.0371 76.8212C20.763 76.8212 22.1621 75.4221 22.1621 73.6962C22.1621 71.9703 20.763 70.5712 19.0371 70.5712ZM114.364 69.8212H122.962L114.364 61.2235V69.8212ZM77.2393 62.3212H85.8369L77.2393 53.7235V62.3212ZM71.3613 9.90808L70.8027 10.5262H59.9258L59.3672 9.90808L55.1338 5.2196C51.3031 6.80581 50.6131 7.09282 46.7793 8.67957L47.1016 14.9882L47.1445 15.8202L39.4531 23.5116L38.6211 23.4686L32.3145 23.1464C31.5202 25.0628 31.0522 26.1937 30.584 27.3241C30.1158 28.4544 29.6467 29.5846 28.8525 31.5009L33.541 35.7343L34.1592 36.2928V47.1698L33.541 47.7284L28.8525 51.9579C29.3483 53.1556 29.7176 54.0462 30.0391 54.8212H38.4893V47.3212H48.1201C47.5494 45.5597 47.2393 43.6811 47.2393 41.7313C47.2393 31.7208 55.3537 23.6063 65.3643 23.6063C75.3748 23.6063 83.4893 31.7208 83.4893 41.7313C83.4892 45.4085 82.3904 48.8317 80.5088 51.6884L83.6416 54.8212H100.688C101.01 54.0461 101.379 53.1556 101.875 51.9579L97.1875 47.7284L96.5693 47.1698V36.2928L97.1875 35.7343L101.875 31.5009C101.081 29.5848 100.613 28.4544 100.145 27.3241C99.6762 26.1936 99.2074 25.0631 98.4131 23.1464L92.1074 23.4686L91.2754 23.5116L83.584 15.8202L83.627 14.9882L83.9482 8.67957C80.1149 7.09301 79.4249 6.806 75.5938 5.2196L71.3613 9.90808ZM65.3643 27.3563C57.4248 27.3563 50.9893 33.7919 50.9893 41.7313C50.9893 43.7176 51.3927 45.6046 52.1182 47.3212H76.1406L76.6904 47.87L77.7852 48.9647C79.0254 46.8405 79.7392 44.3713 79.7393 41.7313C79.7393 33.7919 73.3037 27.3563 65.3643 27.3563ZM63.4893 19.0692H59.7393V15.3192H63.4893V19.0692ZM70.9893 19.0692H67.2393V15.3192H70.9893V19.0692Z" fill="white"/>
<path d="M75.8066 1.2489L75.9979 0.786927L75.9978 0.786884L75.8066 1.2489ZM86.6064 5.72156L86.4153 6.18356L86.4153 6.18358L86.6064 5.72156ZM87.8291 6.22742L88.3285 6.25286L88.3464 5.90035L88.0203 5.7654L87.8291 6.22742ZM87.7617 7.54968L88.2611 7.57522L88.2611 7.57513L87.7617 7.54968ZM87.4141 14.3466L86.9147 14.321L86.9034 14.543L87.0605 14.7001L87.4141 14.3466ZM90.0811 17.0145L89.7275 17.3681L90.0811 17.0145ZM92.748 19.6805L92.3945 20.0341L92.5516 20.1912L92.7735 20.1799L92.748 19.6805ZM99.5439 19.3339L99.5185 18.8345H99.5185L99.5439 19.3339ZM100.865 19.2665L101.327 19.0752L101.192 18.7492L100.84 18.7671L100.865 19.2665ZM101.371 20.4882L100.909 20.6794L100.909 20.6796L101.371 20.4882ZM103.609 25.8885L103.147 26.0799L103.609 25.8885ZM105.847 31.288L105.385 31.4794L105.385 31.4794L105.847 31.288ZM106.354 32.5106L106.689 32.8816L106.951 32.6451L106.815 32.3192L106.354 32.5106ZM105.371 33.3983L105.706 33.7695L105.706 33.7693L105.371 33.3983ZM100.319 37.9589L99.9843 37.5877L99.8193 37.7366V37.9589H100.319ZM100.319 45.5028H99.8193V45.725L99.9843 45.8739L100.319 45.5028ZM105.37 50.0624L105.035 50.4335L105.035 50.4337L105.37 50.0624ZM106.353 50.9481L106.815 51.1393L106.95 50.8131L106.687 50.5768L106.353 50.9481ZM105.847 52.1708L105.385 51.9796L105.385 51.9796L105.847 52.1708ZM104.748 54.8212L104.286 54.6298L104 55.3212H104.748V54.8212ZM113.266 54.8212L113.619 54.4673L113.472 54.3212H113.266V54.8212ZM113.815 55.37L114.169 55.0164L114.169 55.0161L113.815 55.37ZM128.815 70.37L129.169 70.0168L129.169 70.0164L128.815 70.37ZM129.364 70.9198H129.864V70.713L129.718 70.5666L129.364 70.9198ZM129.364 128.571V129.071H129.864V128.571H129.364ZM116.239 128.571H115.739V129.071H116.239V128.571ZM116.239 124.821V124.321H115.739V124.821H116.239ZM125.614 124.821V125.321H126.114V124.821H125.614ZM125.614 73.5712H126.114V73.0712H125.614V73.5712ZM110.614 73.5712H110.114V74.0712H110.614V73.5712ZM110.614 58.5712H111.114V58.0712H110.614V58.5712ZM87.3916 58.5712V58.0712H86.1845L87.038 58.9247L87.3916 58.5712ZM91.6904 62.87L92.0443 62.5168L92.044 62.5164L91.6904 62.87ZM92.2393 63.4198H92.7393V63.213L92.5931 63.0666L92.2393 63.4198ZM92.2393 121.071V121.571H92.7393V121.071H92.2393ZM79.3643 121.071V120.571H78.8643V121.071H79.3643ZM79.3643 124.821H78.8643V125.321H79.3643V124.821ZM112.489 124.821H112.989V124.321H112.489V124.821ZM112.489 128.571V129.071H112.989V128.571H112.489ZM75.6143 128.571H75.1143V129.071H75.6143V128.571ZM75.6143 121.071H76.1143V120.571H75.6143V121.071ZM55.2393 121.071V120.571H54.7393V121.071H55.2393ZM55.2393 128.571V129.071H55.7393V128.571H55.2393ZM1.48926 128.571H0.989258V129.071H1.48926V128.571ZM1.48926 54.8212V54.3212H0.989258V54.8212H1.48926ZM12.1621 54.8212H12.6621V54.3212H12.1621V54.8212ZM12.1621 58.5712V59.0712H12.6621V58.5712H12.1621ZM5.23926 58.5712V58.0712H4.73926V58.5712H5.23926ZM5.23926 105.773H4.73926V107.099L5.61468 106.104L5.23926 105.773ZM16.1904 93.3241L15.815 92.9938L15.815 92.9939L16.1904 93.3241ZM17.4482 91.8944L17.7842 91.5241L17.4082 91.183L17.0728 91.5641L17.4482 91.8944ZM18.8584 93.1737L19.1945 92.8035L19.1944 92.8034L18.8584 93.1737ZM22.9971 96.9305L22.661 97.3008L23.0428 97.6473L23.3775 97.2551L22.9971 96.9305ZM31.2324 87.2772L31.6128 87.6017L31.6129 87.6017L31.2324 87.2772ZM32.6123 85.6591L32.9819 85.3223L32.5999 84.903L32.2319 85.3346L32.6123 85.6591ZM34.0449 87.2313L34.4145 86.8946L34.4145 86.8946L34.0449 87.2313ZM38.4893 92.1093L38.1197 92.446L38.9893 93.4004V92.1093H38.4893ZM38.4893 58.5712H38.9893V58.0712H38.4893V58.5712ZM15.9111 58.5712H15.4111V59.0712H15.9111V58.5712ZM15.9111 54.8212V54.3212H15.4111V54.8212H15.9111ZM25.9805 54.8212V55.3212H26.7289L26.4424 54.6298L25.9805 54.8212ZM24.8818 52.1708L25.3439 51.9796L25.3439 51.9796L24.8818 52.1708ZM24.376 50.9481L24.0412 50.5768L23.779 50.8131L23.914 51.1393L24.376 50.9481ZM25.3584 50.0624L25.6932 50.4337L25.6934 50.4335L25.3584 50.0624ZM30.4092 45.5028L30.7442 45.8739L30.9092 45.725V45.5028H30.4092ZM30.4092 37.9589H30.9092V37.7366L30.7442 37.5877L30.4092 37.9589ZM25.3574 33.3983L25.0222 33.7693L25.0224 33.7695L25.3574 33.3983ZM24.375 32.5106L23.9131 32.3192L23.778 32.6451L24.0398 32.8816L24.375 32.5106ZM24.8818 31.288L25.3437 31.4794L25.3437 31.4794L24.8818 31.288ZM27.1191 25.8885L27.5811 26.0799L27.1191 25.8885ZM29.3574 20.4882L29.8193 20.6796L29.8194 20.6794L29.3574 20.4882ZM29.8633 19.2665L29.8887 18.7671L29.5363 18.7492L29.4013 19.0752L29.8633 19.2665ZM31.1846 19.3339L31.21 18.8345L31.21 18.8345L31.1846 19.3339ZM37.9795 19.6805L37.954 20.1799L38.1759 20.1912L38.333 20.0341L37.9795 19.6805ZM40.6475 17.0145L41.001 17.3681L40.6475 17.0145ZM43.3135 14.3466L43.667 14.7001L43.8241 14.543L43.8128 14.3211L43.3135 14.3466ZM42.9668 7.54968L42.4674 7.57513V7.57515L42.9668 7.54968ZM42.8994 6.22742L42.7083 5.7654L42.3821 5.90035L42.4001 6.25286L42.8994 6.22742ZM44.1221 5.72156L44.3132 6.18358L44.3133 6.18356L44.1221 5.72156ZM54.9219 1.2489L54.7307 0.786884L54.7306 0.786927L54.9219 1.2489ZM56.1445 0.743042L56.5155 0.407846L56.2792 0.146231L55.9534 0.281025L56.1445 0.743042ZM57.0312 1.72449L57.4024 1.38944L57.4023 1.38929L57.0312 1.72449ZM61.5918 6.77625L61.2207 7.11129L61.3696 7.27625H61.5918V6.77625ZM69.1367 6.77625V7.27625H69.3589L69.5079 7.11129L69.1367 6.77625ZM73.6973 1.72449L73.3263 1.38929L73.3261 1.38944L73.6973 1.72449ZM74.584 0.743042L74.7751 0.281025L74.4493 0.146231L74.213 0.407846L74.584 0.743042ZM24.5947 100.836L24.9751 101.16L24.9751 101.16L24.5947 100.836ZM15.1055 111.961L14.781 112.341L15.1614 112.666L15.4859 112.285L15.1055 111.961ZM12.252 109.527L11.8715 109.203L11.547 109.583L11.9275 109.908L12.252 109.527ZM20.5615 99.785L20.9419 100.11L21.2566 99.7407L20.8976 99.4148L20.5615 99.785ZM17.7471 97.2303L18.0831 96.8601L17.7071 96.5188L17.3716 96.9001L17.7471 97.2303ZM5.23926 111.451L4.86382 111.121L4.73926 111.262V111.451H5.23926ZM5.23926 124.821H4.73926V125.321H5.23926V124.821ZM51.4893 124.821V125.321H51.9893V124.821H51.4893ZM51.4893 121.071H51.9893V120.571H51.4893V121.071ZM38.4893 121.071H37.9893V121.571H38.4893V121.071ZM38.4893 97.6786H38.9893V97.485L38.8589 97.3419L38.4893 97.6786ZM32.7041 91.328L33.0737 90.9913L32.6918 90.572L32.3237 91.0035L32.7041 91.328ZM42.2393 117.321H41.7393V117.821H42.2393V117.321ZM88.4893 117.321V117.821H88.9893V117.321H88.4893ZM88.4893 66.0712H88.9893V65.5712H88.4893V66.0712ZM73.4893 66.0712H72.9893V66.5712H73.4893V66.0712ZM73.4893 51.0712H73.9893V50.5712H73.4893V51.0712ZM42.2393 51.0712V50.5712H41.7393V51.0712H42.2393ZM99.7217 82.6298L99.4468 83.0474L99.4468 83.0474L99.7217 82.6298ZM116.817 93.8798L116.543 94.2974L116.543 94.2975L116.817 93.8798ZM119.198 95.4462L119.473 95.8639L120.108 95.4462L119.473 95.0285L119.198 95.4462ZM116.817 97.0126L116.543 96.5949L116.543 96.5949L116.817 97.0126ZM99.7217 108.263L99.4468 107.845L99.4468 107.845L99.7217 108.263ZM96.8164 110.175H96.3164V111.102L97.0913 110.592L96.8164 110.175ZM96.8164 80.7177L97.0913 80.3L96.3164 79.79V80.7177H96.8164ZM82.7393 99.7548L83.2393 99.7672V99.7548H82.7393ZM82.7305 100.108L83.23 100.134L83.2303 100.121L82.7305 100.108ZM75.8643 106.63V107.13V106.63ZM68.9893 99.7548L68.4893 99.7548V99.7548H68.9893ZM75.8643 92.8798V92.3798V92.8798ZM78.9893 93.6307L78.7616 94.0759L79.4893 94.448V93.6307H78.9893ZM78.9893 87.8778H79.4893V87.3778H78.9893V87.8778ZM60.2393 87.8778V87.3778H59.7393V87.8778H60.2393ZM60.2393 99.7548L60.7393 99.7672V99.7548H60.2393ZM60.2305 100.108L60.73 100.134L60.7303 100.121L60.2305 100.108ZM53.3643 106.63V107.13V106.63ZM46.4893 99.7548L45.9893 99.7548V99.7548H46.4893ZM53.3643 92.8798V92.3798V92.8798ZM56.4893 93.6307L56.2616 94.0759L56.9893 94.448V93.6307H56.4893ZM56.4893 72.7626V72.2626H55.9893V72.7626H56.4893ZM82.7393 72.7626H83.2393V72.2626H82.7393V72.7626ZM100.566 103.218H100.066V104.145L100.841 103.635L100.566 103.218ZM112.375 95.4462L112.65 95.8638L113.284 95.4462L112.65 95.0285L112.375 95.4462ZM100.566 87.6737L100.841 87.2561L100.066 86.746V87.6737H100.566ZM53.3643 96.6298V96.1298V96.6298ZM50.2393 99.7548L49.7393 99.7547V99.7548H50.2393ZM53.3643 102.88V103.38V102.88ZM56.4893 99.7548H56.9893V99.7547L56.4893 99.7548ZM75.8643 96.6298V96.1298V96.6298ZM72.7393 99.7548L72.2393 99.7547V99.7548H72.7393ZM75.8643 102.88V103.38V102.88ZM78.9893 99.7548H79.4893V99.7547L78.9893 99.7548ZM60.2393 84.1278H59.7393V84.6278H60.2393V84.1278ZM78.9893 84.1278V84.6278H79.4893V84.1278H78.9893ZM78.9893 76.5126H79.4893V76.0126H78.9893V76.5126ZM60.2393 76.5126V76.0126H59.7393V76.5126H60.2393ZM19.0371 66.8212V66.3212V66.8212ZM25.9121 73.6962H26.4121V73.6962L25.9121 73.6962ZM19.0371 80.5712V81.0712V80.5712ZM12.1621 73.6962L11.6621 73.6962V73.6962H12.1621ZM19.0371 70.5712L19.0371 70.0712H19.0371V70.5712ZM15.9121 73.6962L15.4121 73.6962V73.6962H15.9121ZM19.0371 76.8212V77.3212H19.0371L19.0371 76.8212ZM22.1621 73.6962H22.6621V73.6962L22.1621 73.6962ZM114.364 69.8212H113.864V70.3212H114.364V69.8212ZM122.962 69.8212V70.3212H124.169L123.315 69.4676L122.962 69.8212ZM114.364 61.2235L114.718 60.87L113.864 60.0164V61.2235H114.364ZM77.2393 62.3212H76.7393V62.8212H77.2393V62.3212ZM85.8369 62.3212V62.8212H87.044L86.1905 61.9676L85.8369 62.3212ZM77.2393 53.7235L77.5928 53.37L76.7393 52.5164V53.7235H77.2393ZM71.3613 9.90808L71.7323 10.2433L71.7325 10.2431L71.3613 9.90808ZM70.8027 10.5262V11.0262H71.0248L71.1737 10.8615L70.8027 10.5262ZM59.9258 10.5262L59.5548 10.8615L59.7037 11.0262H59.9258V10.5262ZM59.3672 9.90808L58.9961 10.2432L58.9962 10.2433L59.3672 9.90808ZM55.1338 5.2196L55.5049 4.88452L55.2685 4.62267L54.9425 4.75764L55.1338 5.2196ZM46.7793 8.67957L46.5881 8.21757L46.2619 8.35256L46.2799 8.70507L46.7793 8.67957ZM47.1016 14.9882L46.6022 15.0137L46.6022 15.0139L47.1016 14.9882ZM47.1445 15.8202L47.4981 16.1737L47.6553 16.0165L47.6439 15.7944L47.1445 15.8202ZM39.4531 23.5116L39.4273 24.0109L39.6494 24.0224L39.8067 23.8652L39.4531 23.5116ZM38.6211 23.4686L38.6469 22.9693L38.6466 22.9693L38.6211 23.4686ZM32.3145 23.1464L32.34 22.647L31.9876 22.629L31.8525 22.9549L32.3145 23.1464ZM30.584 27.3241L31.0459 27.5154L30.584 27.3241ZM28.8525 31.5009L28.3906 31.3094L28.2555 31.6355L28.5175 31.872L28.8525 31.5009ZM33.541 35.7343L33.8762 35.3633L33.8761 35.3631L33.541 35.7343ZM34.1592 36.2928H34.6592V36.0708L34.4944 35.9219L34.1592 36.2928ZM34.1592 47.1698L34.4944 47.5408L34.6592 47.3919V47.1698H34.1592ZM33.541 47.7284L33.8759 48.0997L33.8762 48.0994L33.541 47.7284ZM28.8525 51.9579L28.5176 51.5866L28.2556 51.823L28.3906 52.1491L28.8525 51.9579ZM30.0391 54.8212L29.5772 55.0127L29.7051 55.3212H30.0391V54.8212ZM38.4893 54.8212V55.3212H38.9893V54.8212H38.4893ZM38.4893 47.3212V46.8212H37.9893V47.3212H38.4893ZM48.1201 47.3212V47.8212H48.8077L48.5958 47.167L48.1201 47.3212ZM47.2393 41.7313H46.7393V41.7313L47.2393 41.7313ZM65.3643 23.6063V23.1063V23.6063ZM83.4893 41.7313L83.9893 41.7313V41.7313H83.4893ZM80.5088 51.6884L80.0912 51.4133L79.867 51.7537L80.1552 52.0419L80.5088 51.6884ZM83.6416 54.8212L83.288 55.1747L83.4345 55.3212H83.6416V54.8212ZM100.688 54.8212V55.3212H101.023L101.15 55.0126L100.688 54.8212ZM101.875 51.9579L102.337 52.1491L102.472 51.8231L102.21 51.5867L101.875 51.9579ZM97.1875 47.7284L96.8523 48.0994L96.8525 48.0996L97.1875 47.7284ZM96.5693 47.1698H96.0693V47.3919L96.2341 47.5408L96.5693 47.1698ZM96.5693 36.2928L96.2341 35.9219L96.0693 36.0708V36.2928H96.5693ZM97.1875 35.7343L96.8524 35.3632L96.8523 35.3633L97.1875 35.7343ZM101.875 31.5009L102.21 31.8719L102.472 31.6354L102.337 31.3094L101.875 31.5009ZM100.145 27.3241L100.606 27.1327L100.145 27.3241ZM98.4131 23.1464L98.875 22.9549L98.7399 22.629L98.3876 22.647L98.4131 23.1464ZM92.1074 23.4686L92.0819 22.9693L92.0816 22.9693L92.1074 23.4686ZM91.2754 23.5116L90.9218 23.8652L91.0791 24.0224L91.3012 24.0109L91.2754 23.5116ZM83.584 15.8202L83.0846 15.7944L83.0732 16.0165L83.2304 16.1737L83.584 15.8202ZM83.627 14.9882L84.1263 15.0139L84.1263 15.0136L83.627 14.9882ZM83.9482 8.67957L84.4476 8.705L84.4655 8.35254L84.1395 8.21757L83.9482 8.67957ZM75.5938 5.2196L75.785 4.75764L75.459 4.62265L75.2226 4.88456L75.5938 5.2196ZM65.3643 27.3563V26.8563V27.3563ZM50.9893 41.7313H50.4893V41.7313L50.9893 41.7313ZM52.1182 47.3212L51.6576 47.5158L51.7866 47.8212H52.1182V47.3212ZM76.1406 47.3212L76.4939 46.9673L76.3475 46.8212H76.1406V47.3212ZM76.6904 47.87L77.044 47.5164L77.0437 47.5161L76.6904 47.87ZM77.7852 48.9647L77.4316 49.3183L77.8901 49.7767L78.2169 49.2168L77.7852 48.9647ZM79.7393 41.7313L80.2393 41.7313V41.7313H79.7393ZM63.4893 19.0692V19.5692H63.9893V19.0692H63.4893ZM59.7393 19.0692H59.2393V19.5692H59.7393V19.0692ZM59.7393 15.3192V14.8192H59.2393V15.3192H59.7393ZM63.4893 15.3192H63.9893V14.8192H63.4893V15.3192ZM70.9893 19.0692V19.5692H71.4893V19.0692H70.9893ZM67.2393 19.0692H66.7393V19.5692H67.2393V19.0692ZM67.2393 15.3192V14.8192H66.7393V15.3192H67.2393ZM70.9893 15.3192H71.4893V14.8192H70.9893V15.3192ZM75.8066 1.2489L75.6154 1.71088C81.0095 3.94405 81.0197 3.95083 86.4153 6.18356L86.6064 5.72156L86.7976 5.25955C81.4014 3.02654 81.3937 3.0208 75.9979 0.786927L75.8066 1.2489ZM86.6064 5.72156L86.4153 6.18358L87.6379 6.68943L87.8291 6.22742L88.0203 5.7654L86.7976 5.25954L86.6064 5.72156ZM87.8291 6.22742L87.3298 6.20197L87.2624 7.52424L87.7617 7.54968L88.2611 7.57513L88.3285 6.25286L87.8291 6.22742ZM87.7617 7.54968L87.2624 7.52414L86.9147 14.321L87.4141 14.3466L87.9134 14.3721L88.2611 7.57522L87.7617 7.54968ZM87.4141 14.3466L87.0605 14.7001C87.5694 15.209 88.0299 15.6697 88.4663 16.1064C88.9027 16.543 89.315 16.9556 89.7275 17.3681L90.0811 17.0145L90.4346 16.661C90.0223 16.2486 89.61 15.8361 89.1736 15.3995C88.7372 14.9628 88.2766 14.502 87.7676 13.993L87.4141 14.3466ZM90.0811 17.0145L89.7275 17.3681C90.1398 17.7804 90.5523 18.1926 90.9888 18.6289C91.4253 19.0651 91.8859 19.5255 92.3945 20.0341L92.748 19.6805L93.1016 19.327C92.5929 18.8183 92.1322 18.3578 91.6957 17.9216C91.2592 17.4853 90.8468 17.0732 90.4346 16.661L90.0811 17.0145ZM92.748 19.6805L92.7735 20.1799L99.5694 19.8332L99.5439 19.3339L99.5185 18.8345L92.7226 19.1812L92.748 19.6805ZM99.5439 19.3339L99.5694 19.8332L100.891 19.7658L100.865 19.2665L100.84 18.7671L99.5185 18.8345L99.5439 19.3339ZM100.865 19.2665L100.403 19.4578L100.909 20.6794L101.371 20.4882L101.833 20.2969L101.327 19.0752L100.865 19.2665ZM101.371 20.4882L100.909 20.6796C102.027 23.376 102.587 24.7281 103.147 26.0799L103.609 25.8885L104.071 25.6972C103.511 24.3452 102.95 22.9929 101.833 20.2967L101.371 20.4882ZM103.609 25.8885L103.147 26.0799C103.707 27.4317 104.267 28.7835 105.385 31.4794L105.847 31.288L106.309 31.0965C105.191 28.4007 104.631 27.0489 104.071 25.6972L103.609 25.8885ZM105.847 31.288L105.385 31.4794L105.892 32.7021L106.354 32.5106L106.815 32.3192L106.309 31.0965L105.847 31.288ZM106.354 32.5106L106.018 32.1396L105.036 33.0273L105.371 33.3983L105.706 33.7693L106.689 32.8816L106.354 32.5106ZM105.371 33.3983L105.036 33.0272L99.9843 37.5877L100.319 37.9589L100.654 38.33L105.706 33.7695L105.371 33.3983ZM100.319 37.9589H99.8193V45.5028H100.319H100.819V37.9589H100.319ZM100.319 45.5028L99.9843 45.8739L105.035 50.4335L105.37 50.0624L105.705 49.6912L100.654 45.1317L100.319 45.5028ZM105.37 50.0624L105.035 50.4337L106.018 51.3195L106.353 50.9481L106.687 50.5768L105.705 49.691L105.37 50.0624ZM106.353 50.9481L105.891 50.757L105.385 51.9796L105.847 52.1708L106.309 52.3619L106.815 51.1393L106.353 50.9481ZM105.847 52.1708L105.385 51.9796C104.944 53.0455 104.589 53.9001 104.286 54.6298L104.748 54.8212L105.21 55.0126C105.512 54.2844 105.868 53.4278 106.309 52.3619L105.847 52.1708ZM104.748 54.8212V55.3212H113.266V54.8212V54.3212H104.748V54.8212ZM113.266 54.8212L112.912 55.175L113.462 55.7239L113.815 55.37L114.169 55.0161L113.619 54.4673L113.266 54.8212ZM113.815 55.37L113.462 55.7235L128.462 70.7235L128.815 70.37L129.169 70.0164L114.169 55.0164L113.815 55.37ZM128.815 70.37L128.462 70.7232L129.01 71.273L129.364 70.9198L129.718 70.5666L129.169 70.0168L128.815 70.37ZM129.364 70.9198H128.864V128.571H129.364H129.864V70.9198H129.364ZM129.364 128.571V128.071H116.239V128.571V129.071H129.364V128.571ZM116.239 128.571H116.739V124.821H116.239H115.739V128.571H116.239ZM116.239 124.821V125.321H125.614V124.821V124.321H116.239V124.821ZM125.614 124.821H126.114V73.5712H125.614H125.114V124.821H125.614ZM125.614 73.5712V73.0712H110.614V73.5712V74.0712H125.614V73.5712ZM110.614 73.5712H111.114V58.5712H110.614H110.114V73.5712H110.614ZM110.614 58.5712V58.0712H87.3916V58.5712V59.0712H110.614V58.5712ZM87.3916 58.5712L87.038 58.9247L91.3369 63.2235L91.6904 62.87L92.044 62.5164L87.7452 58.2176L87.3916 58.5712ZM91.6904 62.87L91.3366 63.2232L91.8854 63.773L92.2393 63.4198L92.5931 63.0666L92.0443 62.5168L91.6904 62.87ZM92.2393 63.4198H91.7393V121.071H92.2393H92.7393V63.4198H92.2393ZM92.2393 121.071V120.571H79.3643V121.071V121.571H92.2393V121.071ZM79.3643 121.071H78.8643V124.821H79.3643H79.8643V121.071H79.3643ZM79.3643 124.821V125.321H112.489V124.821V124.321H79.3643V124.821ZM112.489 124.821H111.989V128.571H112.489H112.989V124.821H112.489ZM112.489 128.571V128.071H75.6143V128.571V129.071H112.489V128.571ZM75.6143 128.571H76.1143V121.071H75.6143H75.1143V128.571H75.6143ZM75.6143 121.071V120.571H55.2393V121.071V121.571H75.6143V121.071ZM55.2393 121.071H54.7393V128.571H55.2393H55.7393V121.071H55.2393ZM55.2393 128.571V128.071H1.48926V128.571V129.071H55.2393V128.571ZM1.48926 128.571H1.98926V54.8212H1.48926H0.989258V128.571H1.48926ZM1.48926 54.8212V55.3212H12.1621V54.8212V54.3212H1.48926V54.8212ZM12.1621 54.8212H11.6621V58.5712H12.1621H12.6621V54.8212H12.1621ZM12.1621 58.5712V58.0712H5.23926V58.5712V59.0712H12.1621V58.5712ZM5.23926 58.5712H4.73926V105.773H5.23926H5.73926V58.5712H5.23926ZM5.23926 105.773L5.61468 106.104L16.5658 93.6543L16.1904 93.3241L15.815 92.9939L4.86384 105.443L5.23926 105.773ZM16.1904 93.3241L16.5658 93.6544L17.8236 92.2247L17.4482 91.8944L17.0728 91.5641L15.815 92.9938L16.1904 93.3241ZM17.4482 91.8944L17.1123 92.2647L18.5224 93.544L18.8584 93.1737L19.1944 92.8034L17.7842 91.5241L17.4482 91.8944ZM18.8584 93.1737L18.5223 93.5439L22.661 97.3008L22.9971 96.9305L23.3331 96.5603L19.1945 92.8035L18.8584 93.1737ZM22.9971 96.9305L23.3775 97.2551L31.6128 87.6017L31.2324 87.2772L30.852 86.9527L22.6167 96.606L22.9971 96.9305ZM31.2324 87.2772L31.6129 87.6017L32.9928 85.9835L32.6123 85.6591L32.2319 85.3346L30.852 86.9528L31.2324 87.2772ZM32.6123 85.6591L32.2427 85.9958L33.6753 87.5681L34.0449 87.2313L34.4145 86.8946L32.9819 85.3223L32.6123 85.6591ZM34.0449 87.2313L33.6753 87.5681L38.1197 92.446L38.4893 92.1093L38.8589 91.7725L34.4145 86.8946L34.0449 87.2313ZM38.4893 92.1093H38.9893V58.5712H38.4893H37.9893V92.1093H38.4893ZM38.4893 58.5712V58.0712H15.9111V58.5712V59.0712H38.4893V58.5712ZM15.9111 58.5712H16.4111V54.8212H15.9111H15.4111V58.5712H15.9111ZM15.9111 54.8212V55.3212H25.9805V54.8212V54.3212H15.9111V54.8212ZM25.9805 54.8212L26.4424 54.6298C26.14 53.9001 25.7848 53.0455 25.3439 51.9796L24.8818 52.1708L24.4198 52.3619C24.8608 53.4278 25.2168 54.2844 25.5186 55.0126L25.9805 54.8212ZM24.8818 52.1708L25.3439 51.9796L24.838 50.757L24.376 50.9481L23.914 51.1393L24.4198 52.3619L24.8818 52.1708ZM24.376 50.9481L24.7108 51.3195L25.6932 50.4337L25.3584 50.0624L25.0236 49.691L24.0412 50.5768L24.376 50.9481ZM25.3584 50.0624L25.6934 50.4335L30.7442 45.8739L30.4092 45.5028L30.0741 45.1317L25.0234 49.6912L25.3584 50.0624ZM30.4092 45.5028H30.9092V37.9589H30.4092H29.9092V45.5028H30.4092ZM30.4092 37.9589L30.7442 37.5877L25.6925 33.0272L25.3574 33.3983L25.0224 33.7695L30.0741 38.33L30.4092 37.9589ZM25.3574 33.3983L25.6926 33.0273L24.7102 32.1396L24.375 32.5106L24.0398 32.8816L25.0222 33.7693L25.3574 33.3983ZM24.375 32.5106L24.8369 32.7021L25.3437 31.4794L24.8818 31.288L24.4199 31.0965L23.9131 32.3192L24.375 32.5106ZM24.8818 31.288L25.3437 31.4794C26.4611 28.7835 27.0211 27.4317 27.5811 26.0799L27.1191 25.8885L26.6572 25.6972C26.0973 27.0489 25.5373 28.4007 24.4199 31.0965L24.8818 31.288ZM27.1191 25.8885L27.5811 26.0799C28.1411 24.7281 28.7017 23.376 29.8193 20.6796L29.3574 20.4882L28.8955 20.2967C27.778 22.9929 27.2172 24.3452 26.6572 25.6972L27.1191 25.8885ZM29.3574 20.4882L29.8194 20.6794L30.3252 19.4578L29.8633 19.2665L29.4013 19.0752L28.8955 20.2969L29.3574 20.4882ZM29.8633 19.2665L29.8378 19.7658L31.1591 19.8332L31.1846 19.3339L31.21 18.8345L29.8887 18.7671L29.8633 19.2665ZM31.1846 19.3339L31.1591 19.8332L37.954 20.1799L37.9795 19.6805L38.005 19.1812L31.21 18.8345L31.1846 19.3339ZM37.9795 19.6805L38.333 20.0341C38.8417 19.5254 39.3025 19.0652 39.7392 18.6289C40.1759 18.1928 40.5886 17.7805 41.001 17.3681L40.6475 17.0145L40.2939 16.661C39.8817 17.0732 39.4692 17.4852 39.0325 17.9214C38.5958 18.3577 38.1348 18.8181 37.6259 19.327L37.9795 19.6805ZM40.6475 17.0145L41.001 17.3681C41.4135 16.9556 41.8257 16.5429 42.2619 16.1062C42.6981 15.6695 43.1583 15.2088 43.667 14.7001L43.3135 14.3466L42.9599 13.993C42.451 14.5019 41.9906 14.9628 41.5544 15.3995C41.1181 15.8363 40.7061 16.2488 40.2939 16.661L40.6475 17.0145ZM43.3135 14.3466L43.8128 14.3211L43.4661 7.52421L42.9668 7.54968L42.4674 7.57515L42.8141 14.372L43.3135 14.3466ZM42.9668 7.54968L43.4661 7.52424L43.3988 6.20197L42.8994 6.22742L42.4001 6.25286L42.4674 7.57513L42.9668 7.54968ZM42.8994 6.22742L43.0906 6.68943L44.3132 6.18358L44.1221 5.72156L43.9309 5.25954L42.7083 5.7654L42.8994 6.22742ZM44.1221 5.72156L44.3133 6.18356C49.7088 3.95083 49.719 3.94406 55.1131 1.71088L54.9219 1.2489L54.7306 0.786927C49.3348 3.0208 49.3271 3.02654 43.9309 5.25955L44.1221 5.72156ZM54.9219 1.2489L55.113 1.71092L56.3357 1.20506L56.1445 0.743042L55.9534 0.281025L54.7307 0.786884L54.9219 1.2489ZM56.1445 0.743042L55.7735 1.07824L56.6602 2.05968L57.0312 1.72449L57.4023 1.38929L56.5155 0.407846L56.1445 0.743042ZM57.0312 1.72449L56.6601 2.05954L61.2207 7.11129L61.5918 6.77625L61.9629 6.4412L57.4024 1.38944L57.0312 1.72449ZM61.5918 6.77625V7.27625H69.1367V6.77625V6.27625H61.5918V6.77625ZM69.1367 6.77625L69.5079 7.11129L74.0684 2.05954L73.6973 1.72449L73.3261 1.38944L68.7656 6.4412L69.1367 6.77625ZM73.6973 1.72449L74.0683 2.05968L74.955 1.07824L74.584 0.743042L74.213 0.407846L73.3263 1.38929L73.6973 1.72449ZM74.584 0.743042L74.3928 1.20506L75.6155 1.71092L75.8066 1.2489L75.9978 0.786884L74.7751 0.281025L74.584 0.743042ZM24.5947 100.836L24.2143 100.511L14.7251 111.636L15.1055 111.961L15.4859 112.285L24.9751 101.16L24.5947 100.836ZM15.1055 111.961L15.4299 111.58L12.5764 109.147L12.252 109.527L11.9275 109.908L14.781 112.341L15.1055 111.961ZM12.252 109.527L12.6324 109.852L20.9419 100.11L20.5615 99.785L20.1811 99.4606L11.8715 109.203L12.252 109.527ZM20.5615 99.785L20.8976 99.4148L18.0831 96.8601L17.7471 97.2303L17.411 97.6006L20.2255 100.155L20.5615 99.785ZM17.7471 97.2303L17.3716 96.9001L4.86382 111.121L5.23926 111.451L5.6147 111.781L18.1225 97.5606L17.7471 97.2303ZM5.23926 111.451H4.73926V124.821H5.23926H5.73926V111.451H5.23926ZM5.23926 124.821V125.321H51.4893V124.821V124.321H5.23926V124.821ZM51.4893 124.821H51.9893V121.071H51.4893H50.9893V124.821H51.4893ZM51.4893 121.071V120.571H38.4893V121.071V121.571H51.4893V121.071ZM38.4893 121.071H38.9893V97.6786H38.4893H37.9893V121.071H38.4893ZM38.4893 97.6786L38.8589 97.3419L33.0737 90.9913L32.7041 91.328L32.3345 91.6647L38.1196 98.0153L38.4893 97.6786ZM32.7041 91.328L32.3237 91.0035L24.2143 100.511L24.5947 100.836L24.9751 101.16L33.0845 91.6525L32.7041 91.328ZM42.2393 117.321V117.821H88.4893V117.321V116.821H42.2393V117.321ZM88.4893 117.321H88.9893V66.0712H88.4893H87.9893V117.321H88.4893ZM88.4893 66.0712V65.5712H73.4893V66.0712V66.5712H88.4893V66.0712ZM73.4893 66.0712H73.9893V51.0712H73.4893H72.9893V66.0712H73.4893ZM73.4893 51.0712V50.5712H42.2393V51.0712V51.5712H73.4893V51.0712ZM42.2393 51.0712H41.7393V117.321H42.2393H42.7393V51.0712H42.2393ZM99.7217 82.6298L99.4468 83.0474L116.543 94.2974L116.817 93.8798L117.092 93.4621L99.9965 82.2121L99.7217 82.6298ZM116.817 93.8798L116.543 94.2975L118.923 95.8639L119.198 95.4462L119.473 95.0285L117.092 93.4621L116.817 93.8798ZM119.198 95.4462L118.923 95.0285L116.543 96.5949L116.817 97.0126L117.092 97.4303L119.473 95.8639L119.198 95.4462ZM116.817 97.0126L116.543 96.5949L99.4468 107.845L99.7217 108.263L99.9965 108.68L117.092 97.4303L116.817 97.0126ZM99.7217 108.263L99.4468 107.845L96.5415 109.757L96.8164 110.175L97.0913 110.592L99.9966 108.68L99.7217 108.263ZM96.8164 110.175H97.3164V80.7177H96.8164H96.3164V110.175H96.8164ZM96.8164 80.7177L96.5415 81.1353L99.4468 83.0474L99.7217 82.6298L99.9966 82.2121L97.0913 80.3L96.8164 80.7177ZM82.7393 99.7548L82.2394 99.7423L82.2306 100.096L82.7305 100.108L83.2303 100.121L83.2391 99.7672L82.7393 99.7548ZM82.7305 100.108L82.2311 100.083C82.0606 103.451 79.275 106.13 75.8643 106.13V106.63V107.13C79.8103 107.13 83.0325 104.031 83.2298 100.134L82.7305 100.108ZM75.8643 106.63V106.13C72.3434 106.13 69.4893 103.276 69.4893 99.7548H68.9893H68.4893C68.4893 103.828 71.7912 107.13 75.8643 107.13V106.63ZM68.9893 99.7548L69.4893 99.7548C69.4893 96.234 72.3435 93.3798 75.8643 93.3798V92.8798V92.3798C71.7912 92.3798 68.4893 95.6817 68.4893 99.7548L68.9893 99.7548ZM75.8643 92.8798V93.3798C76.9084 93.3798 77.8924 93.6315 78.7616 94.0759L78.9893 93.6307L79.2169 93.1856C78.2107 92.6711 77.0711 92.3798 75.8643 92.3798V92.8798ZM78.9893 93.6307H79.4893V87.8778H78.9893H78.4893V93.6307H78.9893ZM78.9893 87.8778V87.3778H60.2393V87.8778V88.3778H78.9893V87.8778ZM60.2393 87.8778H59.7393V99.7548H60.2393H60.7393V87.8778H60.2393ZM60.2393 99.7548L59.7394 99.7423L59.7306 100.096L60.2305 100.108L60.7303 100.121L60.7391 99.7672L60.2393 99.7548ZM60.2305 100.108L59.7311 100.083C59.5606 103.451 56.775 106.13 53.3643 106.13V106.63V107.13C57.3103 107.13 60.5325 104.031 60.7298 100.134L60.2305 100.108ZM53.3643 106.63V106.13C49.8434 106.13 46.9893 103.276 46.9893 99.7548H46.4893H45.9893C45.9893 103.828 49.2912 107.13 53.3643 107.13V106.63ZM46.4893 99.7548L46.9893 99.7548C46.9893 96.234 49.8435 93.3798 53.3643 93.3798V92.8798V92.3798C49.2912 92.3798 45.9893 95.6817 45.9893 99.7548L46.4893 99.7548ZM53.3643 92.8798V93.3798C54.4084 93.3798 55.3924 93.6315 56.2616 94.0759L56.4893 93.6307L56.7169 93.1856C55.7107 92.6711 54.5711 92.3798 53.3643 92.3798V92.8798ZM56.4893 93.6307H56.9893V72.7626H56.4893H55.9893V93.6307H56.4893ZM56.4893 72.7626V73.2626H82.7393V72.7626V72.2626H56.4893V72.7626ZM82.7393 72.7626H82.2393V99.7548H82.7393H83.2393V72.7626H82.7393ZM100.566 103.218L100.841 103.635L112.65 95.8638L112.375 95.4462L112.1 95.0285L100.292 102.8L100.566 103.218ZM112.375 95.4462L112.65 95.0285L100.841 87.2561L100.566 87.6737L100.292 88.0914L112.1 95.8638L112.375 95.4462ZM100.566 87.6737H100.066V103.218H100.566H101.066V87.6737H100.566ZM53.3643 96.6298V96.1298C51.3622 96.1298 49.7393 97.7528 49.7393 99.7547L50.2393 99.7548L50.7393 99.7548C50.7393 98.3051 51.9146 97.1298 53.3643 97.1298V96.6298ZM50.2393 99.7548H49.7393C49.7393 101.757 51.3622 103.38 53.3643 103.38V102.88V102.38C51.9145 102.38 50.7393 101.205 50.7393 99.7548H50.2393ZM53.3643 102.88V103.38C55.3663 103.38 56.9893 101.757 56.9893 99.7548H56.4893H55.9893C55.9893 101.205 54.814 102.38 53.3643 102.38V102.88ZM56.4893 99.7548L56.9893 99.7547C56.9892 97.7528 55.3663 96.1298 53.3643 96.1298V96.6298V97.1298C54.8139 97.1298 55.9892 98.3051 55.9893 99.7548L56.4893 99.7548ZM75.8643 96.6298V96.1298C73.8623 96.1298 72.2393 97.7528 72.2393 99.7547L72.7393 99.7548L73.2393 99.7548C73.2393 98.3051 74.4146 97.1298 75.8643 97.1298V96.6298ZM72.7393 99.7548H72.2393C72.2393 101.757 73.8622 103.38 75.8643 103.38V102.88V102.38C74.4145 102.38 73.2393 101.205 73.2393 99.7548H72.7393ZM75.8643 102.88V103.38C77.8663 103.38 79.4893 101.757 79.4893 99.7548H78.9893H78.4893C78.4893 101.205 77.314 102.38 75.8643 102.38V102.88ZM78.9893 99.7548L79.4893 99.7547C79.4892 97.7528 77.8663 96.1298 75.8643 96.1298V96.6298V97.1298C77.3139 97.1298 78.4892 98.3051 78.4893 99.7548L78.9893 99.7548ZM60.2393 84.1278V84.6278H78.9893V84.1278V83.6278H60.2393V84.1278ZM78.9893 84.1278H79.4893V76.5126H78.9893H78.4893V84.1278H78.9893ZM78.9893 76.5126V76.0126H60.2393V76.5126V77.0126H78.9893V76.5126ZM60.2393 76.5126H59.7393V84.1278H60.2393H60.7393V76.5126H60.2393ZM19.0371 66.8212V67.3212C22.5579 67.3212 25.4121 70.1754 25.4121 73.6962L25.9121 73.6962L26.4121 73.6962C26.4121 69.6231 23.1102 66.3212 19.0371 66.3212V66.8212ZM25.9121 73.6962H25.4121C25.4121 77.217 22.5579 80.0712 19.0371 80.0712V80.5712V81.0712C23.1102 81.0712 26.4121 77.7693 26.4121 73.6962H25.9121ZM19.0371 80.5712V80.0712C15.5163 80.0712 12.6621 77.217 12.6621 73.6962H12.1621H11.6621C11.6621 77.7693 14.964 81.0712 19.0371 81.0712V80.5712ZM12.1621 73.6962L12.6621 73.6962C12.6621 70.1754 15.5163 67.3212 19.0371 67.3212V66.8212V66.3212C14.964 66.3212 11.6621 69.6231 11.6621 73.6962L12.1621 73.6962ZM19.0371 70.5712V70.0712C17.0351 70.0712 15.4122 71.6942 15.4121 73.6962L15.9121 73.6962L16.4121 73.6962C16.4121 72.2464 17.5874 71.0712 19.0371 71.0712V70.5712ZM15.9121 73.6962H15.4121C15.4121 75.6982 17.0351 77.3212 19.0371 77.3212V76.8212V76.3212C17.5874 76.3212 16.4121 75.1459 16.4121 73.6962H15.9121ZM19.0371 76.8212L19.0371 77.3212C21.0391 77.3212 22.6621 75.6982 22.6621 73.6962H22.1621H21.6621C21.6621 75.1459 20.4869 76.3212 19.0371 76.3212L19.0371 76.8212ZM22.1621 73.6962L22.6621 73.6962C22.6621 71.6942 21.0391 70.0712 19.0371 70.0712L19.0371 70.5712L19.0371 71.0712C20.4868 71.0712 21.6621 72.2464 21.6621 73.6962L22.1621 73.6962ZM114.364 69.8212V70.3212H122.962V69.8212V69.3212H114.364V69.8212ZM122.962 69.8212L123.315 69.4676L114.718 60.87L114.364 61.2235L114.011 61.5771L122.608 70.1747L122.962 69.8212ZM114.364 61.2235H113.864V69.8212H114.364H114.864V61.2235H114.364ZM77.2393 62.3212V62.8212H85.8369V62.3212V61.8212H77.2393V62.3212ZM85.8369 62.3212L86.1905 61.9676L77.5928 53.37L77.2393 53.7235L76.8857 54.0771L85.4834 62.6747L85.8369 62.3212ZM77.2393 53.7235H76.7393V62.3212H77.2393H77.7393V53.7235H77.2393ZM71.3613 9.90808L70.9903 9.57285L70.4318 10.191L70.8027 10.5262L71.1737 10.8615L71.7323 10.2433L71.3613 9.90808ZM70.8027 10.5262V10.0262H59.9258V10.5262V11.0262H70.8027V10.5262ZM59.9258 10.5262L60.2968 10.191L59.7382 9.57285L59.3672 9.90808L58.9962 10.2433L59.5548 10.8615L59.9258 10.5262ZM59.3672 9.90808L59.7383 9.573L55.5049 4.88452L55.1338 5.2196L54.7627 5.55469L58.9961 10.2432L59.3672 9.90808ZM55.1338 5.2196L54.9425 4.75764C51.1114 6.34401 50.4219 6.63079 46.5881 8.21757L46.7793 8.67957L46.9705 9.14156C50.8042 7.55484 51.4947 7.26762 55.3251 5.68157L55.1338 5.2196ZM46.7793 8.67957L46.2799 8.70507L46.6022 15.0137L47.1016 14.9882L47.6009 14.9627L47.2786 8.65406L46.7793 8.67957ZM47.1016 14.9882L46.6022 15.0139L46.6452 15.846L47.1445 15.8202L47.6439 15.7944L47.6009 14.9624L47.1016 14.9882ZM47.1445 15.8202L46.791 15.4666L39.0996 23.158L39.4531 23.5116L39.8067 23.8652L47.4981 16.1737L47.1445 15.8202ZM39.4531 23.5116L39.4789 23.0123L38.6469 22.9693L38.6211 23.4686L38.5953 23.968L39.4273 24.0109L39.4531 23.5116ZM38.6211 23.4686L38.6466 22.9693L32.34 22.647L32.3145 23.1464L32.2889 23.6457L38.5956 23.968L38.6211 23.4686ZM32.3145 23.1464L31.8525 22.9549C31.0583 24.8714 30.5902 26.0025 30.122 27.1327L30.584 27.3241L31.0459 27.5154C31.5143 26.3848 31.9821 25.2543 32.7764 23.3378L32.3145 23.1464ZM30.584 27.3241L30.122 27.1327C29.6538 28.2632 29.1849 29.3928 28.3906 31.3094L28.8525 31.5009L29.3144 31.6923C30.1084 29.7765 30.5777 28.6457 31.0459 27.5154L30.584 27.3241ZM28.8525 31.5009L28.5175 31.872L33.2059 36.1054L33.541 35.7343L33.8761 35.3631L29.1876 31.1297L28.8525 31.5009ZM33.541 35.7343L33.2058 36.1052L33.824 36.6638L34.1592 36.2928L34.4944 35.9219L33.8762 35.3633L33.541 35.7343ZM34.1592 36.2928H33.6592V47.1698H34.1592H34.6592V36.2928H34.1592ZM34.1592 47.1698L33.824 46.7988L33.2058 47.3574L33.541 47.7284L33.8762 48.0994L34.4944 47.5408L34.1592 47.1698ZM33.541 47.7284L33.2061 47.3571L28.5176 51.5866L28.8525 51.9579L29.1875 52.3291L33.8759 48.0997L33.541 47.7284ZM28.8525 51.9579L28.3906 52.1491C28.8864 53.347 29.2558 54.2377 29.5772 55.0127L30.0391 54.8212L30.5009 54.6296C30.1795 53.8546 29.8102 52.9642 29.3145 51.7667L28.8525 51.9579ZM30.0391 54.8212V55.3212H38.4893V54.8212V54.3212H30.0391V54.8212ZM38.4893 54.8212H38.9893V47.3212H38.4893H37.9893V54.8212H38.4893ZM38.4893 47.3212V47.8212H48.1201V47.3212V46.8212H38.4893V47.3212ZM48.1201 47.3212L48.5958 47.167C48.0408 45.4544 47.7393 43.6278 47.7393 41.7313L47.2393 41.7313L46.7393 41.7313C46.7393 43.7345 47.0579 45.6649 47.6445 47.4753L48.1201 47.3212ZM47.2393 41.7313H47.7393C47.7393 31.9969 55.6299 24.1063 65.3643 24.1063V23.6063V23.1063C55.0776 23.1063 46.7393 31.4446 46.7393 41.7313H47.2393ZM65.3643 23.6063V24.1063C75.0986 24.1063 82.9893 31.9969 82.9893 41.7313H83.4893H83.9893C83.9893 31.4446 75.6509 23.1063 65.3643 23.1063V23.6063ZM83.4893 41.7313L82.9893 41.7313C82.9892 45.3074 81.9209 48.6356 80.0912 51.4133L80.5088 51.6884L80.9263 51.9634C82.86 49.0279 83.9892 45.5095 83.9893 41.7313L83.4893 41.7313ZM80.5088 51.6884L80.1552 52.0419L83.288 55.1747L83.6416 54.8212L83.9952 54.4676L80.8623 51.3348L80.5088 51.6884ZM83.6416 54.8212V55.3212H100.688V54.8212V54.3212H83.6416V54.8212ZM100.688 54.8212L101.15 55.0126C101.471 54.2378 101.841 53.3469 102.337 52.1491L101.875 51.9579L101.413 51.7667C100.917 52.9643 100.548 53.8543 100.227 54.6298L100.688 54.8212ZM101.875 51.9579L102.21 51.5867L97.5225 47.3572L97.1875 47.7284L96.8525 48.0996L101.54 52.3291L101.875 51.9579ZM97.1875 47.7284L97.5227 47.3574L96.9046 46.7988L96.5693 47.1698L96.2341 47.5408L96.8523 48.0994L97.1875 47.7284ZM96.5693 47.1698H97.0693V36.2928H96.5693H96.0693V47.1698H96.5693ZM96.5693 36.2928L96.9046 36.6638L97.5227 36.1052L97.1875 35.7343L96.8523 35.3633L96.2341 35.9219L96.5693 36.2928ZM97.1875 35.7343L97.5226 36.1053L102.21 31.8719L101.875 31.5009L101.54 31.1298L96.8524 35.3632L97.1875 35.7343ZM101.875 31.5009L102.337 31.3094C101.543 29.3935 101.075 28.263 100.606 27.1327L100.145 27.3241L99.6826 27.5154C100.151 28.6457 100.619 29.7762 101.413 31.6923L101.875 31.5009ZM100.145 27.3241L100.606 27.1327C100.138 26.0022 99.6693 24.8715 98.875 22.9549L98.4131 23.1464L97.9512 23.3378C98.7456 25.2546 99.2143 26.385 99.6826 27.5154L100.145 27.3241ZM98.4131 23.1464L98.3876 22.647L92.0819 22.9693L92.1074 23.4686L92.1329 23.968L98.4386 23.6457L98.4131 23.1464ZM92.1074 23.4686L92.0816 22.9693L91.2496 23.0123L91.2754 23.5116L91.3012 24.0109L92.1332 23.968L92.1074 23.4686ZM91.2754 23.5116L91.6289 23.158L83.9375 15.4666L83.584 15.8202L83.2304 16.1737L90.9218 23.8652L91.2754 23.5116ZM83.584 15.8202L84.0833 15.846L84.1263 15.0139L83.627 14.9882L83.1276 14.9624L83.0846 15.7944L83.584 15.8202ZM83.627 14.9882L84.1263 15.0136L84.4476 8.705L83.9482 8.67957L83.4489 8.65413L83.1276 14.9627L83.627 14.9882ZM83.9482 8.67957L84.1395 8.21757C80.3061 6.63098 79.6166 6.34419 75.785 4.75764L75.5938 5.2196L75.4025 5.68157C79.2332 7.2678 79.9238 7.55503 83.757 9.14156L83.9482 8.67957ZM75.5938 5.2196L75.2226 4.88456L70.9902 9.57304L71.3613 9.90808L71.7325 10.2431L75.9649 5.55465L75.5938 5.2196ZM65.3643 27.3563V26.8563C57.1486 26.8563 50.4893 33.5157 50.4893 41.7313H50.9893H51.4893C51.4893 34.068 57.7009 27.8563 65.3643 27.8563V27.3563ZM50.9893 41.7313L50.4893 41.7313C50.4893 43.786 50.9068 45.739 51.6576 47.5158L52.1182 47.3212L52.5787 47.1265C51.8787 45.4701 51.4893 43.6493 51.4893 41.7313L50.9893 41.7313ZM52.1182 47.3212V47.8212H76.1406V47.3212V46.8212H52.1182V47.3212ZM76.1406 47.3212L75.7874 47.675L76.3372 48.2239L76.6904 47.87L77.0437 47.5161L76.4939 46.9673L76.1406 47.3212ZM76.6904 47.87L76.3369 48.2235L77.4316 49.3183L77.7852 48.9647L78.1387 48.6112L77.044 47.5164L76.6904 47.87ZM77.7852 48.9647L78.2169 49.2168C79.5004 47.0186 80.2392 44.4627 80.2393 41.7313L79.7393 41.7313L79.2393 41.7313C79.2392 44.2799 78.5504 46.6625 77.3534 48.7126L77.7852 48.9647ZM79.7393 41.7313H80.2393C80.2393 33.5157 73.5799 26.8563 65.3643 26.8563V27.3563V27.8563C73.0276 27.8563 79.2393 34.068 79.2393 41.7313H79.7393ZM63.4893 19.0692V18.5692H59.7393V19.0692V19.5692H63.4893V19.0692ZM59.7393 19.0692H60.2393V15.3192H59.7393H59.2393V19.0692H59.7393ZM59.7393 15.3192V15.8192H63.4893V15.3192V14.8192H59.7393V15.3192ZM63.4893 15.3192H62.9893V19.0692H63.4893H63.9893V15.3192H63.4893ZM70.9893 19.0692V18.5692H67.2393V19.0692V19.5692H70.9893V19.0692ZM67.2393 19.0692H67.7393V15.3192H67.2393H66.7393V19.0692H67.2393ZM67.2393 15.3192V15.8192H70.9893V15.3192V14.8192H67.2393V15.3192ZM70.9893 15.3192H70.4893V19.0692H70.9893H71.4893V15.3192H70.9893Z" fill="white" mask="url(#path-1-outside-1_303_1081)"/>
</svg>
