<svg width="165" height="165" viewBox="0 0 165 165" fill="none" xmlns="http://www.w3.org/2000/svg">
<path d="M69.2754 69.6823V98.779H95.727V69.6823C95.727 68.7644 95.5736 67.8862 95.354 67.0371H69.651C69.4288 67.8862 69.2754 68.7644 69.2754 69.6823Z" fill="#F0BC5E"/>
<path d="M124.824 119.94V143.747H151.276V119.94C151.276 119.022 151.122 118.144 150.903 117.295H125.2C124.978 118.144 124.824 119.022 124.824 119.94Z" fill="#F0BC5E"/>
<path d="M13.7285 24.7145V48.5209H40.1801V24.7145C40.1801 23.7966 40.0267 22.9184 39.8072 22.0693H14.1015C13.8819 22.9184 13.7285 23.7966 13.7285 24.7145Z" fill="#F0BC5E"/>
<path d="M108.953 76.4435V64.3921C108.953 54.1844 100.645 45.876 90.4372 45.876H74.5662C64.3585 45.876 56.0501 54.1844 56.0501 64.3921V76.4435C52.9023 78.2792 50.7598 81.6544 50.7598 85.5534C50.7598 88.471 53.1325 90.8437 56.0501 90.8437V101.424C56.0501 111.632 64.3585 119.94 74.5662 119.94H90.4372C100.645 119.94 108.953 111.632 108.953 101.424V90.8437C111.871 90.8437 114.244 88.471 114.244 85.5534C114.244 81.6544 112.101 78.2792 108.953 76.4435ZM61.3404 64.3921C61.3404 57.0994 67.2735 51.1663 74.5662 51.1663H90.4372C97.7299 51.1663 103.663 57.0994 103.663 64.3921V74.9727H98.3727V69.6824C98.3727 62.3897 92.4396 56.4566 85.1469 56.4566H79.8565C72.5638 56.4566 66.6307 62.3897 66.6307 69.6824V74.9727H61.3404V64.3921ZM93.0823 69.6824V101.424C93.0823 102.884 91.8973 104.07 90.4372 104.07H74.5662C73.1061 104.07 71.9211 102.884 71.9211 101.424V69.6824C71.9211 65.3073 75.4814 61.7469 79.8565 61.7469H85.1469C89.522 61.7469 93.0823 65.3073 93.0823 69.6824ZM61.3404 80.2631H66.6307V85.5534H56.0501C56.0501 82.6358 58.4228 80.2631 61.3404 80.2631ZM103.663 101.424C103.663 108.717 97.7299 114.65 90.4372 114.65H74.5662C67.2735 114.65 61.3404 108.717 61.3404 101.424V90.8437H66.6307V101.424C66.6307 105.799 70.1911 109.36 74.5662 109.36H90.4372C94.8123 109.36 98.3727 105.799 98.3727 101.424V90.8437H103.663V101.424ZM98.3727 85.5534V80.2631H103.663C106.581 80.2631 108.953 82.6358 108.953 85.5534H98.3727Z" fill="black"/>
<path d="M140.696 106.715H135.405C128.113 106.715 122.18 112.648 122.18 119.941V146.392C122.18 150.767 125.74 154.328 130.115 154.328H145.986C150.361 154.328 153.922 150.767 153.922 146.392V119.941C153.922 112.648 147.989 106.715 140.696 106.715ZM148.631 146.392C148.631 147.852 147.446 149.037 145.986 149.037H130.115C128.655 149.037 127.47 147.852 127.47 146.392V119.941C127.47 115.566 131.03 112.005 135.405 112.005H140.696C145.071 112.005 148.631 115.566 148.631 119.941V146.392Z" fill="black"/>
<path d="M34.8885 59.1017C39.2636 59.1017 42.824 55.5413 42.824 51.1662V24.7146C42.824 17.4219 36.8909 11.4888 29.5982 11.4888H24.3078C17.0151 11.4888 11.082 17.4219 11.082 24.7146V51.1662C11.082 55.5413 14.6424 59.1017 19.0175 59.1017H34.8885ZM16.3724 51.1662V24.7146C16.3724 20.3395 19.9327 16.7791 24.3078 16.7791H29.5982C33.9733 16.7791 37.5336 20.3395 37.5336 24.7146V51.1662C37.5336 52.6263 36.3486 53.8114 34.8885 53.8114H19.0175C17.5574 53.8114 16.3724 52.6263 16.3724 51.1662Z" fill="black"/>
<path d="M152.419 97.3111C153.398 92.5578 153.921 87.7277 153.921 82.9082C153.921 43.527 121.883 11.4888 82.502 11.4888C72.4636 11.4888 62.4569 13.6394 53.3205 17.7288C52.4582 8.31201 44.5254 0.908203 34.889 0.908203H19.0181C8.8104 0.908203 0.501953 9.21665 0.501953 19.4243V51.1663C0.501953 59.1097 5.54363 65.8839 12.585 68.5053C11.6063 73.2587 11.0826 78.0887 11.0826 82.9082C11.0826 122.289 43.1208 154.328 82.502 154.328C92.5403 154.328 102.547 152.177 111.683 148.088C112.546 157.504 120.479 164.908 130.115 164.908H145.986C156.194 164.908 164.502 156.6 164.502 146.392V114.65C164.502 106.707 159.46 99.9325 152.419 97.3111ZM148.631 82.9082C148.631 87.3547 148.147 91.8118 147.25 96.1975C146.83 96.1684 146.412 96.134 145.986 96.134H136.437C137.495 91.8118 138.05 87.3812 138.05 82.9082C138.05 61.3819 125.645 41.9452 106.298 32.7586C106.298 32.7216 106.308 32.6872 106.308 32.6501C106.308 28.275 102.748 24.7147 98.3729 24.7147C95.6405 24.7147 93.2254 26.1034 91.7971 28.2116C88.7207 27.6905 85.61 27.3598 82.502 27.3598C72.1276 27.3598 62.1686 30.2298 53.4052 35.6683V23.5587C62.5125 19.0778 72.2863 16.7792 82.502 16.7792C118.966 16.7792 148.631 46.4447 148.631 82.9082ZM111.599 114.65V123.776C103.026 129.902 93.0033 133.166 82.502 133.166C71.7494 133.166 61.256 129.646 52.646 123.273C53.1221 122.255 53.4052 121.133 53.4052 119.94C53.4052 115.565 49.8448 112.005 45.4697 112.005C44.2767 112.005 43.1552 112.288 42.1368 112.764C35.7646 104.154 32.2439 93.6608 32.2439 82.9082C32.2439 78.422 32.8734 73.9861 34.0452 69.6824H34.889C45.0967 69.6824 53.4052 61.3739 53.4052 51.1663V42.0405C61.9781 35.9143 72.0007 32.6501 82.502 32.6501C85.1789 32.6501 87.8558 32.9305 90.5089 33.3564C90.8739 37.3982 94.2385 40.5856 98.3729 40.5856C100.812 40.5856 102.968 39.4561 104.425 37.7236C121.703 46.1061 132.76 63.58 132.76 82.9082C132.76 87.3944 132.13 91.8303 130.959 96.134H130.115C119.907 96.134 111.599 104.442 111.599 114.65ZM45.4697 117.295C46.9298 117.295 48.1149 118.48 48.1149 119.94C48.1149 121.401 46.9298 122.586 45.4697 122.586C44.0096 122.586 42.8245 121.401 42.8245 119.94C42.8245 118.48 44.0096 117.295 45.4697 117.295ZM95.7278 32.6501C95.7278 31.19 96.9128 30.005 98.3729 30.005C99.8331 30.005 101.018 31.19 101.018 32.6501C101.018 34.1103 99.8331 35.2953 98.3729 35.2953C96.9128 35.2953 95.7278 34.1103 95.7278 32.6501ZM5.79228 51.1663V19.4243C5.79228 12.1316 11.7254 6.19853 19.0181 6.19853H34.889C42.1818 6.19853 48.1149 12.1316 48.1149 19.4243V51.1663C48.1149 58.459 42.1818 64.3921 34.889 64.3921H19.0181C11.7254 64.3921 5.79228 58.459 5.79228 51.1663ZM16.3729 82.9082C16.3729 78.4617 16.857 74.0046 17.7537 69.6189C18.1743 69.648 18.5922 69.6824 19.0181 69.6824H28.5671C27.5091 74.0046 26.9536 78.4352 26.9536 82.9082C26.9536 95.0469 31.0112 106.887 38.3436 116.515C37.841 117.555 37.5342 118.708 37.5342 119.94C37.5342 124.316 41.0946 127.876 45.4697 127.876C46.7023 127.876 47.8556 127.569 48.8952 127.067C58.5236 134.399 70.3633 138.457 82.502 138.457C92.8763 138.457 102.835 135.587 111.599 130.148V142.258C102.491 146.739 92.7176 149.037 82.502 149.037C46.0384 149.037 16.3729 119.372 16.3729 82.9082ZM159.212 146.392C159.212 153.685 153.279 159.618 145.986 159.618H130.115C122.822 159.618 116.889 153.685 116.889 146.392V114.65C116.889 107.357 122.822 101.424 130.115 101.424H145.986C153.279 101.424 159.212 107.357 159.212 114.65V146.392Z" fill="black"/>
</svg>
