<svg width="129" height="129" viewBox="0 0 129 129" fill="none" xmlns="http://www.w3.org/2000/svg">
<path d="M69.9677 120.292L66.1155 120.304L66.1271 124.062L69.9794 124.05L69.9677 120.292Z" fill="black"/>
<path d="M77.6728 120.269L73.8206 120.281L73.8322 124.039L77.6845 124.027L77.6728 120.269Z" fill="black"/>
<path d="M93.0827 120.219L89.2305 120.231L89.2421 123.989L93.0944 123.977L93.0827 120.219Z" fill="black"/>
<path d="M85.3803 120.244L81.5278 120.256L81.5395 124.014L85.392 124.002L85.3803 120.244Z" fill="black"/>
<path d="M100.787 120.197L96.9351 120.209L96.9467 123.967L100.799 123.955L100.787 120.197Z" fill="black"/>
<path d="M108.493 120.171L104.641 120.183L104.652 123.941L108.505 123.929L108.493 120.171Z" fill="black"/>
<path d="M39.1474 120.389L35.2949 120.401L35.3069 124.159L39.1594 124.147L39.1474 120.389Z" fill="black"/>
<path d="M46.8518 120.361L42.9993 120.374L43.0113 124.132L46.8638 124.119L46.8518 120.361Z" fill="black"/>
<path d="M31.4431 120.409L27.5906 120.421L27.6026 124.179L31.4551 124.167L31.4431 120.409Z" fill="black"/>
<path d="M62.2622 120.314L58.4097 120.326L58.4217 124.084L62.2742 124.072L62.2622 120.314Z" fill="black"/>
<path d="M23.7409 120.439L19.8887 120.451L19.9003 124.209L23.7526 124.197L23.7409 120.439Z" fill="black"/>
<path d="M54.5581 120.337L50.7056 120.349L50.7176 124.107L54.5701 124.095L54.5581 120.337Z" fill="black"/>
<path d="M16.0333 120.461L13.3921 120.469C12.7338 118.117 10.7586 116.31 8.3141 115.897L8.3041 112.781L4.5461 112.793L4.5576 116.404C2.38235 117.422 0.87085 119.63 0.87085 122.185C0.87085 125.703 3.73235 128.564 7.2496 128.564C10.0526 128.564 12.4376 126.746 13.2911 124.228L16.0453 124.219L16.0333 120.461ZM7.24935 124.806C5.8041 124.806 4.6286 123.63 4.6286 122.185C4.6286 120.74 5.80435 119.564 7.24935 119.564C8.69435 119.564 9.8701 120.74 9.8701 122.185C9.87035 123.63 8.6946 124.806 7.24935 124.806Z" fill="black"/>
<path d="M8.23114 89.6701L4.47314 89.6821L4.48547 93.5346L8.24347 93.5226L8.23114 89.6701Z" fill="black"/>
<path d="M8.25336 97.3727L4.49536 97.3848L4.50769 101.237L8.26569 101.225L8.25336 97.3727Z" fill="black"/>
<path d="M8.27875 105.081L4.52075 105.093L4.53308 108.945L8.29108 108.933L8.27875 105.081Z" fill="black"/>
<path d="M8.00898 20.321L4.25098 20.333L4.26331 24.1858L8.02131 24.1737L8.00898 20.321Z" fill="black"/>
<path d="M8.206 81.9648L4.448 81.9768L4.46033 85.8291L8.21833 85.817L8.206 81.9648Z" fill="black"/>
<path d="M8.15839 66.5547L4.40039 66.5668L4.41272 70.4193L8.17072 70.4072L8.15839 66.5547Z" fill="black"/>
<path d="M8.18329 74.2595L4.42529 74.2715L4.43762 78.124L8.19562 78.112L8.18329 74.2595Z" fill="black"/>
<path d="M8.08295 43.4387L4.32495 43.4507L4.33728 47.3032L8.09528 47.2912L8.08295 43.4387Z" fill="black"/>
<path d="M8.133 58.8494L4.375 58.8615L4.38733 62.714L8.14533 62.7019L8.133 58.8494Z" fill="black"/>
<path d="M8.1081 51.144L4.3501 51.156L4.36243 55.0085L8.12043 54.9965L8.1081 51.144Z" fill="black"/>
<path d="M8.05976 35.729L4.30176 35.7406L4.3137 39.5928L8.0717 39.5812L8.05976 35.729Z" fill="black"/>
<path d="M8.0351 28.0285L4.2771 28.0405L4.28943 31.893L8.04743 31.881L8.0351 28.0285Z" fill="black"/>
<path d="M128.129 6.94247C128.129 3.42522 125.267 0.563721 121.75 0.563721C119.035 0.563721 116.712 2.26997 115.793 4.66647L111.977 4.67847L111.989 8.43647L115.547 8.42522C116.058 10.5635 117.648 12.286 119.708 12.9842L119.718 16.1167L123.476 16.1047L123.467 13.085C126.152 12.3332 128.129 9.86497 128.129 6.94247ZM121.75 9.56322C120.305 9.56322 119.129 8.38747 119.129 6.94247C119.129 5.49747 120.305 4.32172 121.75 4.32172C123.195 4.32172 124.371 5.49747 124.371 6.94247C124.371 8.38747 123.195 9.56322 121.75 9.56322Z" fill="black"/>
<path d="M69.5986 4.81325L65.7458 4.8252L65.7575 8.5832L69.6103 8.57125L69.5986 4.81325Z" fill="black"/>
<path d="M100.419 4.71511L96.5664 4.72705L96.5781 8.48505L100.43 8.47311L100.419 4.71511Z" fill="black"/>
<path d="M61.8972 4.8363L58.0447 4.84863L58.0567 8.60663L61.9092 8.5943L61.8972 4.8363Z" fill="black"/>
<path d="M108.123 4.69216L104.271 4.7041L104.282 8.4621L108.135 8.45016L108.123 4.69216Z" fill="black"/>
<path d="M54.1923 4.86121L50.3398 4.87354L50.3519 8.63154L54.2044 8.61921L54.1923 4.86121Z" fill="black"/>
<path d="M85.0073 4.76565L81.155 4.77759L81.1667 8.53559L85.0189 8.52365L85.0073 4.76565Z" fill="black"/>
<path d="M92.7143 4.74025L88.8618 4.7522L88.8735 8.5102L92.726 8.49825L92.7143 4.74025Z" fill="black"/>
<path d="M77.3027 4.78811L73.4504 4.80005L73.4621 8.55805L77.3143 8.54611L77.3027 4.78811Z" fill="black"/>
<path d="M31.0764 4.93689L27.2239 4.94922L27.2359 8.70722L31.0884 8.69489L31.0764 4.93689Z" fill="black"/>
<path d="M38.7795 4.91115L34.9272 4.9231L34.9389 8.6811L38.7911 8.66915L38.7795 4.91115Z" fill="black"/>
<path d="M46.4863 4.8866L42.6338 4.89893L42.6458 8.65693L46.4983 8.6446L46.4863 4.8866Z" fill="black"/>
<path d="M23.3715 4.95876L19.5193 4.9707L19.5309 8.7287L23.3832 8.71676L23.3715 4.95876Z" fill="black"/>
<path d="M123.759 104.713L120.001 104.725L120.013 108.578L123.771 108.566L123.759 104.713Z" fill="black"/>
<path d="M123.565 43.0746L119.807 43.0867L119.819 46.9392L123.577 46.9271L123.565 43.0746Z" fill="black"/>
<path d="M123.615 58.4833L119.857 58.4954L119.87 62.3479L123.628 62.3358L123.615 58.4833Z" fill="black"/>
<path d="M123.635 66.1896L119.877 66.2017L119.89 70.0542L123.648 70.0421L123.635 66.1896Z" fill="black"/>
<path d="M123.51 27.6621L119.752 27.6737L119.764 31.5262L123.522 31.5146L123.51 27.6621Z" fill="black"/>
<path d="M123.486 19.9567L119.728 19.9688L119.74 23.8212L123.498 23.8092L123.486 19.9567Z" fill="black"/>
<path d="M123.54 35.3683L119.782 35.3804L119.794 39.2329L123.552 39.2208L123.54 35.3683Z" fill="black"/>
<path d="M123.588 50.7779L119.83 50.7899L119.842 54.6424L123.6 54.6304L123.588 50.7779Z" fill="black"/>
<path d="M123.729 97.0026L119.971 97.0143L119.983 100.867L123.741 100.855L123.729 97.0026Z" fill="black"/>
<path d="M123.711 89.3025L119.953 89.3146L119.965 93.1671L123.723 93.1551L123.711 89.3025Z" fill="black"/>
<path d="M123.663 73.895L119.905 73.907L119.918 77.7597L123.676 77.7477L123.663 73.895Z" fill="black"/>
<path d="M123.686 81.5986L119.928 81.6106L119.94 85.4631L123.698 85.4511L123.686 81.5986Z" fill="black"/>
<path d="M123.793 116.144L123.781 112.415L120.023 112.427L120.035 116.043C118.004 116.611 116.38 118.16 115.708 120.145L112.343 120.156L112.355 123.914L115.609 123.903C116.361 126.589 118.828 128.564 121.75 128.564C125.268 128.564 128.129 125.703 128.129 122.185C128.129 119.382 126.311 116.998 123.793 116.144ZM121.75 124.806C120.305 124.806 119.129 123.63 119.129 122.185C119.129 120.74 120.305 119.564 121.75 119.564C123.195 119.564 124.371 120.74 124.371 122.185C124.371 123.63 123.195 124.806 121.75 124.806Z" fill="black"/>
<path d="M15.6673 4.9836L13.3221 4.9911C12.4956 2.4256 10.0863 0.563599 7.2496 0.563599C3.73235 0.563599 0.87085 3.4251 0.87085 6.94235C0.87085 9.4226 2.2946 11.5751 4.3666 12.6298L4.22885 12.6303L4.2411 16.4826L7.9991 16.4706L7.98885 13.2771C10.5504 12.9801 12.6528 11.1603 13.3663 8.74885L15.6791 8.7416L15.6673 4.9836ZM7.24985 9.5631C5.80485 9.5631 4.62885 8.3876 4.62885 6.94235C4.62885 5.4971 5.8046 4.3216 7.2496 4.3216C8.6946 4.3216 9.8706 5.49735 9.8706 6.94235C9.8706 8.3876 8.69485 9.5631 7.24985 9.5631Z" fill="black"/>
<path d="M106.473 103.749C104.443 101.72 102.369 99.645 100.387 97.662C108.369 88.9245 113.246 77.3033 113.246 64.5638C113.246 51.569 108.171 39.7388 99.9022 30.945C102.091 28.757 104.318 26.53 106.473 24.375V30.2155H110.231V17.9585H97.974V21.7165H103.817C101.656 23.878 99.4225 26.1115 97.2272 28.3058C88.4897 20.323 76.8685 15.4468 64.129 15.4468C51.3895 15.4468 39.7682 20.323 31.0307 28.3055C28.8005 26.0763 26.6005 23.8768 24.4407 21.7165H30.2837V17.9585H18.0267V30.2155H21.7847V24.3748C23.9382 26.5288 26.132 28.7223 28.3555 30.9448C20.0865 39.7388 15.0117 51.569 15.0117 64.5638C15.0117 77.3033 19.888 88.9248 27.8707 97.662C25.8497 99.684 23.8097 101.724 21.7847 103.749V97.906H18.0267V110.163H30.2835V106.405H24.443C26.462 104.387 28.495 102.353 30.51 100.337C39.3037 108.606 51.1342 113.681 64.1287 113.681C77.1232 113.681 88.9537 108.606 97.7475 100.337C99.7242 102.315 101.791 104.382 103.814 106.405H97.9737V110.163H110.231V97.906H106.473V103.749H106.473ZM64.1287 109.923C39.1177 109.923 18.7697 89.5748 18.7697 64.5638C18.7697 39.5528 39.1177 19.2048 64.1287 19.2048C89.1397 19.2048 109.488 39.5528 109.488 64.5638C109.488 89.5748 89.14 109.923 64.1287 109.923Z" fill="url(#paint0_linear_392_55)"/>
<path d="M64.1287 35.0034C54.7772 35.0034 47.1694 42.6112 47.1694 51.9627C47.1694 61.3139 54.7772 68.9219 64.1287 68.9219C73.4802 68.9219 81.0879 61.3139 81.0879 51.9627C81.0879 42.6112 73.4802 35.0034 64.1287 35.0034ZM64.1287 38.7612C70.8364 38.7612 76.3879 43.7912 77.2187 50.2769C66.0552 50.9914 57.5699 43.4602 57.4832 43.3822L54.9544 46.1619C55.0464 46.2457 55.5922 46.7329 56.5199 47.4244C55.2632 48.3004 53.4287 49.2974 51.1084 49.7939C52.1467 43.5432 57.5882 38.7612 64.1287 38.7612ZM64.1287 65.1639C57.4142 65.1639 51.8587 60.1242 51.0362 53.6294C55.1744 52.9509 58.1969 50.9652 59.8462 49.6102C63.5362 51.7494 69.0727 54.0889 75.6509 54.0889C76.1489 54.0889 76.6547 54.0714 77.1647 54.0437C76.1637 60.3372 70.6999 65.1639 64.1287 65.1639Z" fill="black"/>
<path d="M76.5994 69.1076L75.6224 68.5798L74.6886 69.1816C71.5416 71.2101 67.8901 72.2823 64.1286 72.2823C60.3669 72.2823 56.7156 71.2101 53.5686 69.1816L52.6351 68.5798L51.6579 69.1076C43.1399 73.7076 37.8486 82.5733 37.8486 92.2451V94.1241H90.4091V92.2451C90.4091 82.5733 85.1176 73.7073 76.5994 69.1076ZM41.6846 90.3661C42.2839 83.1713 46.2986 76.6871 52.5189 72.9418C55.5001 74.6603 58.8166 75.6866 62.2499 75.9621V85.2321H66.0079V75.9621C69.4411 75.6866 72.7576 74.6606 75.7389 72.9418C81.9594 76.6873 85.9744 83.1713 86.5734 90.3661H41.6846Z" fill="black"/>
<path d="M81.1519 84.1021H76.0962V87.86H81.1519V84.1021Z" fill="black"/>
<path d="M74.2048 84.1021H70.7476V87.86H74.2048V84.1021Z" fill="black"/>
<defs>
<linearGradient id="paint0_linear_392_55" x1="15.0117" y1="15.4468" x2="113.246" y2="113.681" gradientUnits="userSpaceOnUse">
<stop stop-color="#C60000"/>
<stop offset="1" stop-color="#FF6D00"/>
</linearGradient>
</defs>
</svg>
