<svg width="150" height="151" viewBox="0 0 150 151" fill="none" xmlns="http://www.w3.org/2000/svg">
<g clip-path="url(#clip0_345_465)">
<path d="M150 75.7041C150 34.2827 116.421 0.704086 75 0.704086C33.5786 0.704086 0 34.2827 0 75.7041C0 113.139 27.4264 144.166 63.2812 149.793V97.3838H44.2383V75.7041H63.2812V59.1806C63.2812 40.3838 74.4782 30.001 91.6099 30.001C99.8155 30.001 108.398 31.4658 108.398 31.4658V49.9228H98.9411C89.6243 49.9228 86.7188 55.7041 86.7188 61.6353V75.7041H107.52L104.194 97.3838H86.7188V149.793C122.574 144.166 150 113.139 150 75.7041Z" fill="#1877F2"/>
<path d="M104.194 97.3838L107.52 75.7041H86.7188V61.6353C86.7188 55.7041 89.6243 49.9229 98.9411 49.9229H108.398V31.4658C108.398 31.4658 99.8155 30.001 91.6099 30.001C74.4782 30.001 63.2813 40.3838 63.2813 59.1807V75.7041H44.2383V97.3838H63.2813V149.793C67.0997 150.392 71.0133 150.704 75 150.704C78.9867 150.704 82.9003 150.392 86.7188 149.793V97.3838H104.194Z" fill="white"/>
</g>
<defs>
<clipPath id="clip0_345_465">
<rect width="150" height="150" fill="white" transform="translate(0 0.704102)"/>
</clipPath>
</defs>
</svg>
