<svg width="150" height="151" viewBox="0 0 150 151" fill="none" xmlns="http://www.w3.org/2000/svg">
<path d="M141 77.2666C141 72.3916 140.563 67.7041 139.75 63.2041H75V89.7979H112C110.406 98.3916 105.563 105.673 98.2813 110.548V127.798H120.5C133.5 115.829 141 98.2041 141 77.2666Z" fill="#4285F4"/>
<path d="M75 144.454C93.5625 144.454 109.125 138.298 120.5 127.798L98.2812 110.548C92.125 114.673 84.25 117.11 75 117.11C57.0938 117.11 41.9375 105.017 36.5312 88.7666H13.5625V106.579C24.875 129.048 48.125 144.454 75 144.454Z" fill="#34A853"/>
<path d="M36.5313 88.7666C35.1563 84.6416 34.375 80.2354 34.375 75.7041C34.375 71.1729 35.1563 66.7666 36.5313 62.6416V44.8291H13.5625C8.75 54.4095 6.24576 64.9829 6.25001 75.7041C6.25001 86.7979 8.90626 97.2979 13.5625 106.579L36.5313 88.7666Z" fill="#FBBC05"/>
<path d="M75 34.2979C85.0938 34.2979 94.1562 37.7666 101.281 44.5791L121 24.8604C109.094 13.7666 93.5312 6.9541 75 6.9541C48.125 6.9541 24.875 22.3604 13.5625 44.8291L36.5312 62.6416C41.9375 46.3916 57.0938 34.2979 75 34.2979Z" fill="#EA4335"/>
</svg>
