<svg width="128" height="129" viewBox="0 0 128 129" fill="none" xmlns="http://www.w3.org/2000/svg">
<path d="M115.21 33.564H92.657L82.2663 15.3265C81.8217 14.546 80.9923 14.064 80.0943 14.064H47.906C47.0077 14.064 46.1785 14.546 45.7337 15.3265L35.343 33.564H33.0272V28.3917C33.0272 25.73 30.8615 23.564 28.1995 23.564H15.1175C12.4555 23.564 10.2898 25.7297 10.2898 28.3917V33.811C4.4305 34.977 0 40.157 0 46.3537V115.774C0 122.826 5.7375 128.564 12.79 128.564H115.21C122.262 128.564 128 122.826 128 115.774V46.3537C128 39.3015 122.262 33.564 115.21 33.564ZM123 104.079H92.6998C97.8118 97.699 100.782 89.6417 100.782 81.064C100.782 72.5957 97.9037 64.788 93.0765 58.564H123V104.079ZM49.3587 19.064H78.641L86.9025 33.564H41.0975L49.3587 19.064ZM15.29 28.564H28.0273V33.564H15.29V28.564ZM12.79 38.564H115.21C119.506 38.564 123 42.0585 123 46.3537V53.564H88.3978C81.9003 47.7932 73.3532 44.282 64 44.282C54.6468 44.282 46.0995 47.793 39.6022 53.564H5V46.3537C5 42.0585 8.4945 38.564 12.79 38.564ZM5 58.564H34.9235C30.0963 64.788 27.218 72.5957 27.218 81.064C27.218 89.6405 30.189 97.6985 35.3013 104.079H5V58.564ZM115.21 123.564H12.79C8.4945 123.564 5 120.069 5 115.774V109.079H40.1522C43.6003 112.017 47.6255 114.347 52.0915 115.875C53.3975 116.322 54.8192 115.625 55.266 114.318C55.7127 113.012 55.016 111.591 53.7095 111.144C40.8548 106.747 32.218 94.6595 32.218 81.0642C32.218 63.5395 46.4753 49.2822 64 49.2822C81.5247 49.2822 95.782 63.5392 95.782 81.064C95.782 94.6675 87.138 106.758 74.2728 111.15C72.966 111.596 72.2682 113.017 72.7145 114.323C73.0693 115.362 74.0403 116.016 75.0803 116.016C75.348 116.016 75.6205 115.973 75.888 115.882C80.3625 114.354 84.3953 112.021 87.8485 109.079H123V115.774C123 120.069 119.506 123.564 115.21 123.564Z" fill="black"/>
<path d="M88.5958 81.064C88.5958 67.502 77.562 56.4683 64 56.4683C50.4378 56.4683 39.4043 67.502 39.4043 81.064C39.4043 94.626 50.4378 105.66 64 105.66C77.562 105.66 88.5958 94.626 88.5958 81.064ZM72.4338 67.2568C73.1513 66.539 74.1058 66.1438 75.1205 66.1438C76.1353 66.1438 77.0895 66.539 77.8073 67.2568C78.5248 67.9743 78.92 68.9285 78.92 69.9433C78.92 70.958 78.5248 71.9125 77.807 72.63V72.6303C77.0895 73.3478 76.1353 73.743 75.1205 73.743C74.1058 73.743 73.1513 73.3478 72.4338 72.63C71.716 71.9125 71.3208 70.958 71.3208 69.9433C71.3208 68.9285 71.716 67.9745 72.4338 67.2568ZM44.4043 81.064C44.4043 70.2588 53.195 61.4683 64 61.4683C66.2293 61.4683 68.3703 61.8478 70.3685 62.5365C69.8438 62.8748 69.3503 63.2693 68.8983 63.7213C67.2363 65.383 66.3205 67.5928 66.3205 69.9435C66.3205 72.2943 67.2358 74.5038 68.898 76.166C70.5603 77.8283 72.7698 78.7435 75.1205 78.7435C77.4713 78.7435 79.6808 77.828 81.3428 76.166C81.7948 75.714 82.1893 75.2205 82.5275 74.6958C83.2163 76.694 83.5958 78.835 83.5958 81.0643C83.5958 91.8695 74.8053 100.66 64 100.66C53.195 100.66 44.4043 91.8693 44.4043 81.064Z" fill="url(#paint0_linear_303_1122)"/>
<path d="M21.6587 13.5337C23.0394 13.5337 24.1587 12.4142 24.1587 11.0337V3.06396C24.1587 1.68346 23.0394 0.563965 21.6587 0.563965C20.2779 0.563965 19.1587 1.68346 19.1587 3.06396V11.0337C19.1587 12.4142 20.2779 13.5337 21.6587 13.5337Z" fill="black"/>
<path d="M30.4235 18.0557C30.8172 18.283 31.247 18.3912 31.6712 18.3912C32.5352 18.3912 33.3755 17.9427 33.8385 17.1407L37.8232 10.2387C38.5137 9.04297 38.104 7.51422 36.9082 6.82372C35.7122 6.13322 34.1835 6.54297 33.4932 7.73872L29.5085 14.6407C28.818 15.8365 29.228 17.3652 30.4235 18.0557Z" fill="black"/>
<path d="M9.47839 17.1405C9.94139 17.9425 10.7816 18.391 11.6456 18.391C12.0696 18.391 12.4996 18.2828 12.8934 18.0555C14.0891 17.3653 14.4989 15.8363 13.8084 14.6405L9.82364 7.73829C9.13339 6.54279 7.60414 6.13254 6.40864 6.82329C5.21289 7.51354 4.80314 9.04254 5.49364 10.2383L9.47839 17.1405Z" fill="black"/>
<path d="M109.963 48.5645C111.343 48.5645 112.463 47.4452 112.463 46.0645C112.463 44.6837 111.343 43.5645 109.963 43.5645C108.582 43.5645 107.463 44.6837 107.463 46.0645C107.463 47.4452 108.582 48.5645 109.963 48.5645Z" fill="black"/>
<path d="M64 117.846C65.3807 117.846 66.5 116.727 66.5 115.346C66.5 113.965 65.3807 112.846 64 112.846C62.6193 112.846 61.5 113.965 61.5 115.346C61.5 116.727 62.6193 117.846 64 117.846Z" fill="black"/>
<defs>
<linearGradient id="paint0_linear_303_1122" x1="39.4043" y1="56.4683" x2="88.5958" y2="105.66" gradientUnits="userSpaceOnUse">
<stop stop-color="#C60000"/>
<stop offset="1" stop-color="#FF6D00"/>
</linearGradient>
</defs>
</svg>
