<svg width="150" height="151" viewBox="0 0 150 151" fill="none" xmlns="http://www.w3.org/2000/svg">
<g clip-path="url(#clip0_345_470)">
<path d="M75.0245 0.704102C43.7127 0.704102 34.5551 0.736416 32.7751 0.884101C26.3494 1.41838 22.351 2.4304 17.9948 4.59976C14.6378 6.26726 11.9902 8.2001 9.37719 10.9096C4.6185 15.8507 1.73442 21.9297 0.690364 29.1557C0.182792 32.6637 0.0351055 33.3791 0.00511496 51.2976C-0.0063937 57.2704 0.00511496 65.1311 0.00511496 75.6746C0.00511496 106.97 0.0396975 116.12 0.189707 117.897C0.708844 124.152 1.6894 128.087 3.76595 132.391C7.73446 140.63 15.3137 146.815 24.2429 149.123C27.3346 149.919 30.7493 150.358 35.1331 150.566C36.9905 150.646 55.9215 150.704 74.8641 150.704C93.8067 150.704 112.749 150.681 114.56 150.589C119.636 150.35 122.584 149.954 125.843 149.112C134.83 146.792 142.271 140.699 146.32 132.345C148.356 128.144 149.389 124.059 149.856 118.132C149.957 116.839 150 96.2333 150 75.6551C150 55.0733 149.954 34.5054 149.852 33.213C149.379 27.1894 148.347 23.1391 146.245 18.8579C144.52 15.3534 142.605 12.7362 139.825 10.0603C134.863 5.31987 128.795 2.43499 121.564 1.39184C118.061 0.885236 117.363 0.735226 99.4353 0.704102H75.0245Z" fill="url(#paint0_radial_345_470)"/>
<path d="M75.0245 0.704102C43.7127 0.704102 34.5551 0.736416 32.7751 0.884101C26.3494 1.41838 22.351 2.4304 17.9948 4.59976C14.6378 6.26726 11.9902 8.2001 9.37719 10.9096C4.6185 15.8507 1.73442 21.9297 0.690364 29.1557C0.182792 32.6637 0.0351055 33.3791 0.00511496 51.2976C-0.0063937 57.2704 0.00511496 65.1311 0.00511496 75.6746C0.00511496 106.97 0.0396975 116.12 0.189707 117.897C0.708844 124.152 1.6894 128.087 3.76595 132.391C7.73446 140.63 15.3137 146.815 24.2429 149.123C27.3346 149.919 30.7493 150.358 35.1331 150.566C36.9905 150.646 55.9215 150.704 74.8641 150.704C93.8067 150.704 112.749 150.681 114.56 150.589C119.636 150.35 122.584 149.954 125.843 149.112C134.83 146.792 142.271 140.699 146.32 132.345C148.356 128.144 149.389 124.059 149.856 118.132C149.957 116.839 150 96.2333 150 75.6551C150 55.0733 149.954 34.5054 149.852 33.213C149.379 27.1894 148.347 23.1391 146.245 18.8579C144.52 15.3534 142.605 12.7362 139.825 10.0603C134.863 5.31987 128.795 2.43499 121.564 1.39184C118.061 0.885236 117.363 0.735226 99.4353 0.704102H75.0245Z" fill="url(#paint1_radial_345_470)"/>
<path d="M75.0245 0.704102C43.7127 0.704102 34.5551 0.736416 32.7751 0.884101C26.3494 1.41838 22.351 2.4304 17.9948 4.59976C14.6378 6.26726 11.9902 8.2001 9.37719 10.9096C4.6185 15.8507 1.73442 21.9297 0.690364 29.1557C0.182792 32.6637 0.0351055 33.3791 0.00511496 51.2976C-0.0063937 57.2704 0.00511496 65.1311 0.00511496 75.6746C0.00511496 106.97 0.0396975 116.12 0.189707 117.897C0.708844 124.152 1.6894 128.087 3.76595 132.391C7.73446 140.63 15.3137 146.815 24.2429 149.123C27.3346 149.919 30.7493 150.358 35.1331 150.566C36.9905 150.646 55.9215 150.704 74.8641 150.704C93.8067 150.704 112.749 150.681 114.56 150.589C119.636 150.35 122.584 149.954 125.843 149.112C134.83 146.792 142.271 140.699 146.32 132.345C148.356 128.144 149.389 124.059 149.856 118.132C149.957 116.839 150 96.2333 150 75.6551C150 55.0733 149.954 34.5054 149.852 33.213C149.379 27.1894 148.347 23.1391 146.245 18.8579C144.52 15.3534 142.605 12.7362 139.825 10.0603C134.863 5.31987 128.795 2.43499 121.564 1.39184C118.061 0.885236 117.363 0.735226 99.4353 0.704102H75.0245Z" fill="url(#paint2_radial_345_470)"/>
<path d="M75.0245 0.704102C43.7127 0.704102 34.5551 0.736416 32.7751 0.884101C26.3494 1.41838 22.351 2.4304 17.9948 4.59976C14.6378 6.26726 11.9902 8.2001 9.37719 10.9096C4.6185 15.8507 1.73442 21.9297 0.690364 29.1557C0.182792 32.6637 0.0351055 33.3791 0.00511496 51.2976C-0.0063937 57.2704 0.00511496 65.1311 0.00511496 75.6746C0.00511496 106.97 0.0396975 116.12 0.189707 117.897C0.708844 124.152 1.6894 128.087 3.76595 132.391C7.73446 140.63 15.3137 146.815 24.2429 149.123C27.3346 149.919 30.7493 150.358 35.1331 150.566C36.9905 150.646 55.9215 150.704 74.8641 150.704C93.8067 150.704 112.749 150.681 114.56 150.589C119.636 150.35 122.584 149.954 125.843 149.112C134.83 146.792 142.271 140.699 146.32 132.345C148.356 128.144 149.389 124.059 149.856 118.132C149.957 116.839 150 96.2333 150 75.6551C150 55.0733 149.954 34.5054 149.852 33.213C149.379 27.1894 148.347 23.1391 146.245 18.8579C144.52 15.3534 142.605 12.7362 139.825 10.0603C134.863 5.31987 128.795 2.43499 121.564 1.39184C118.061 0.885236 117.363 0.735226 99.4353 0.704102H75.0245Z" fill="url(#paint3_radial_345_470)"/>
<path d="M75.0304 19.9644C59.8839 19.9644 57.983 20.0305 52.0341 20.3011C46.0968 20.5727 42.0441 21.512 38.498 22.8902C34.8299 24.3136 31.7183 26.2177 28.6184 29.3165C25.5161 32.4142 23.6106 35.5234 22.1815 39.1876C20.7988 42.7323 19.8576 46.7831 19.5904 52.7137C19.3244 58.6582 19.2546 60.5588 19.2546 75.6941C19.2546 90.8294 19.322 92.723 19.5916 98.6674C19.8647 104.6 20.8046 108.65 22.1826 112.194C23.6083 115.859 25.5138 118.968 28.6149 122.066C31.7137 125.166 34.8252 127.075 38.491 128.498C42.0394 129.876 46.0934 130.815 52.0294 131.087C57.9784 131.358 59.8781 131.424 75.0234 131.424C90.1711 131.424 92.0662 131.358 98.0151 131.087C103.952 130.815 108.01 129.876 111.558 128.498C115.225 127.075 118.332 125.166 121.431 122.066C124.533 118.968 126.439 115.859 127.868 112.195C129.239 108.65 130.18 104.599 130.459 98.6686C130.726 92.7242 130.796 90.8293 130.796 75.6941C130.796 60.5588 130.726 58.6594 130.459 52.7148C130.18 46.7819 129.239 42.7323 127.868 39.1888C126.439 35.5234 124.533 32.4141 121.431 29.3165C118.329 26.2165 115.226 24.3124 111.555 22.8902C107.999 21.512 103.944 20.5727 98.007 20.3011C92.058 20.0305 90.1641 19.9644 75.013 19.9644H75.0304ZM70.0272 30.0073C71.5122 30.005 73.169 30.0073 75.0304 30.0073C89.9213 30.0073 91.6862 30.0607 97.5666 30.3278C103.004 30.5763 105.955 31.4841 107.921 32.2469C110.524 33.257 112.38 34.4645 114.33 36.4151C116.282 38.3656 117.491 40.2233 118.504 42.824C119.267 44.7861 120.177 47.7352 120.425 53.1688C120.692 59.0436 120.75 60.8084 120.75 75.6813C120.75 90.5541 120.692 92.319 120.425 98.1938C120.176 103.627 119.267 106.576 118.504 108.539C117.493 111.139 116.282 112.991 114.33 114.941C112.378 116.891 110.525 118.099 107.921 119.109C105.958 119.875 103.004 120.781 97.5666 121.029C91.6874 121.296 89.9213 121.354 75.0304 121.354C60.1383 121.354 58.3734 121.296 52.4942 121.029C47.0566 120.778 44.1054 119.87 42.1382 119.108C39.5356 118.097 37.6765 116.89 35.7246 114.939C33.7726 112.989 32.5642 111.136 31.551 108.534C30.7876 106.572 29.8779 103.623 29.6304 98.1891C29.3632 92.3143 29.3097 90.5495 29.3097 75.6674C29.3097 60.7852 29.3632 59.0297 29.6304 53.1549C29.8791 47.7212 30.7876 44.7722 31.551 42.8077C32.5618 40.207 33.7726 38.3494 35.7246 36.3988C37.6765 34.4483 39.5356 33.2408 42.1382 32.2284C44.1042 31.4621 47.0566 30.5565 52.4942 30.3068C57.6391 30.0746 59.6329 30.005 70.0273 29.9933L70.0272 30.0073ZM104.801 39.2608C101.106 39.2608 98.108 42.2528 98.108 45.946C98.108 49.6381 101.106 52.6336 104.801 52.6336C108.495 52.6336 111.493 49.6381 111.493 45.946C111.493 42.2539 108.495 39.2585 104.801 39.2585L104.801 39.2608ZM75.0304 47.0745C59.2135 47.0745 46.3896 59.8889 46.3896 75.6941C46.3896 91.4993 59.2135 104.308 75.0304 104.308C90.8473 104.308 103.667 91.4993 103.667 75.6941C103.667 59.8889 90.8462 47.0745 75.0293 47.0745H75.0304ZM75.0304 57.1175C85.2969 57.1175 93.6208 65.434 93.6208 75.6941C93.6208 85.953 85.2969 94.2706 75.0304 94.2706C64.7627 94.2706 56.44 85.953 56.44 75.6941C56.44 65.434 64.7627 57.1175 75.0304 57.1175Z" fill="white"/>
</g>
<defs>
<radialGradient id="paint0_radial_345_470" cx="0" cy="0" r="1" gradientUnits="userSpaceOnUse" gradientTransform="translate(145.157 71.011) rotate(164.25) scale(95.8415 69.0492)">
<stop stop-color="#FF005F"/>
<stop offset="1" stop-color="#FC01D8"/>
</radialGradient>
<radialGradient id="paint1_radial_345_470" cx="0" cy="0" r="1" gradientUnits="userSpaceOnUse" gradientTransform="translate(39.8426 162.257) rotate(-90) scale(119.733 127.034)">
<stop stop-color="#FFCC00"/>
<stop offset="0.1242" stop-color="#FFCC00"/>
<stop offset="0.5672" stop-color="#FE4A05"/>
<stop offset="0.6942" stop-color="#FF0F3F"/>
<stop offset="1" stop-color="#FE0657" stop-opacity="0"/>
</radialGradient>
<radialGradient id="paint2_radial_345_470" cx="0" cy="0" r="1" gradientUnits="userSpaceOnUse" gradientTransform="translate(78.7904 148.589) rotate(-59.8703) scale(49.5106 64.4572)">
<stop stop-color="#FFCC00"/>
<stop offset="1" stop-color="#FFCC00" stop-opacity="0"/>
</radialGradient>
<radialGradient id="paint3_radial_345_470" cx="0" cy="0" r="1" gradientUnits="userSpaceOnUse" gradientTransform="translate(20.3518 6.81206) rotate(164.274) scale(94.7784 32.2909)">
<stop stop-color="#780CFF"/>
<stop offset="1" stop-color="#820BFF" stop-opacity="0"/>
</radialGradient>
<clipPath id="clip0_345_470">
<rect width="150" height="150" fill="white" transform="translate(0 0.704102)"/>
</clipPath>
</defs>
</svg>
