<svg width="111" height="129" viewBox="0 0 111 129" fill="none" xmlns="http://www.w3.org/2000/svg">
<path d="M88.8267 9.93872V2.43872H2.57666V11.8137M2.57666 15.5637V119.189H10.0767" stroke="black" stroke-width="3.75003" stroke-miterlimit="22.9256"/>
<path d="M96.3264 107.901V126.689H86.9514M83.2017 126.689H10.0764V9.93872H96.3264V86.7697" stroke="black" stroke-width="3.75003" stroke-miterlimit="22.9256"/>
<path fill-rule="evenodd" clip-rule="evenodd" d="M53.2017 24.2512C69.7677 24.2512 83.2017 37.6852 83.2017 54.2512C83.2017 70.8172 69.7677 84.2512 53.2017 84.2512C36.6357 84.2512 23.2017 70.8172 23.2017 54.2512C23.2017 37.6852 36.6357 24.2512 53.2017 24.2512ZM53.2017 31.7512C65.6282 31.7512 75.7017 41.8247 75.7017 54.2512C75.7017 66.6777 65.6282 76.7512 53.2017 76.7512C40.7752 76.7512 30.7017 66.6777 30.7017 54.2512C30.7017 41.8247 40.7752 31.7512 53.2017 31.7512Z" stroke="black" stroke-width="3.75003" stroke-miterlimit="22.9256"/>
<path d="M88.8267 19.3137V15.5637M88.8267 26.814V23.064" stroke="black" stroke-width="3.75003" stroke-miterlimit="22.9256"/>
<path fill-rule="evenodd" clip-rule="evenodd" d="M77.0675 83.4207L82.3708 78.1175C83.829 76.6592 86.2155 76.659 87.674 78.1175L106.236 96.6792C109.153 99.596 109.153 104.369 106.236 107.286C103.319 110.202 98.5458 110.202 95.6293 107.286L77.0675 88.724C75.609 87.2655 75.609 84.879 77.0675 83.4207Z" stroke="black" stroke-width="3.75003" stroke-miterlimit="22.9256"/>
<path d="M71.5967 77.9497L77.0672 83.4202M82.3707 78.1172L76.8999 72.6467" stroke="black" stroke-width="3.75003" stroke-miterlimit="22.9256"/>
<path d="M41.9517 95.5012H64.4517M41.9517 103.001H64.4517" stroke="black" stroke-width="3.75003" stroke-miterlimit="22.9256"/>
<path d="M62.5767 60.8137H66.3267V64.5637H40.0767V60.8137H43.8267V55.1887H47.5767V60.8137H51.3267V51.4387H55.0767V60.8137H58.8267V45.8137H62.5767V60.8137Z" fill="url(#paint0_linear_303_1070)"/>
<defs>
<linearGradient id="paint0_linear_303_1070" x1="53.2017" y1="45.8137" x2="53.2017" y2="64.5637" gradientUnits="userSpaceOnUse">
<stop stop-color="#C60000"/>
<stop offset="1" stop-color="#FF6D00"/>
</linearGradient>
</defs>
</svg>
