<svg width="128" height="105" viewBox="0 0 128 105" fill="none" xmlns="http://www.w3.org/2000/svg">
<path d="M51.2196 27.1469V32.5933L46.8964 27.1469H45.2249V36.4203H47.3666V31.1174L51.6379 36.4203H53.3619V27.1469H51.2196Z" fill="black"/>
<path d="M57.2797 34.5393V32.5673H60.9369V30.8298H57.2797V29.0276H61.5379V27.1469H55.1379V36.4203H61.6552V34.5393H57.2797Z" fill="black"/>
<path d="M73.5936 27.1469L71.2686 33.9646L70.3284 31.4698L71.8826 27.1599H69.8974L68.9569 30.1246L68.0164 27.1599H66.0441L67.5724 31.4698L66.6581 33.9646L64.3201 27.1469H61.9951L65.6916 36.4203H67.4941L68.9569 32.7893L70.4329 36.4203H72.2221L75.9316 27.1469H73.5936Z" fill="black"/>
<path d="M83.0952 32.5929C82.96 32.2881 82.7687 32.0291 82.5205 31.8156C82.2722 31.6024 81.9697 31.4239 81.6127 31.2801C81.2557 31.1364 80.8552 31.0039 80.4107 30.8819C80.0887 30.7949 79.8055 30.7166 79.5617 30.6469C79.3177 30.5774 79.1155 30.5011 78.9545 30.4184C78.7932 30.3359 78.6715 30.2421 78.589 30.1376C78.5062 30.0331 78.4647 29.9026 78.4647 29.7459C78.4647 29.2324 78.848 28.9754 79.6142 28.9754C79.8927 28.9754 80.1715 29.0146 80.4502 29.0929C80.7287 29.1711 80.9857 29.2626 81.2207 29.3671C81.4555 29.4716 81.6515 29.5719 81.8085 29.6676C81.9652 29.7634 82.0565 29.8289 82.0827 29.8636L83.0232 28.0874C82.8142 27.9654 82.5857 27.8436 82.3375 27.7216C82.0892 27.5999 81.8215 27.4909 81.5342 27.3951C81.247 27.2994 80.9465 27.2211 80.6332 27.1601C80.3197 27.0994 80.0015 27.0686 79.6797 27.0686C79.218 27.0686 78.7805 27.1339 78.367 27.2646C77.9535 27.3951 77.5897 27.5891 77.2765 27.8459C76.963 28.1029 76.7152 28.4184 76.532 28.7929C76.3492 29.1674 76.2577 29.5981 76.2577 30.0859C76.2577 30.4341 76.3077 30.7389 76.4077 31.0001C76.508 31.2616 76.6605 31.4924 76.8652 31.6924C77.0697 31.8926 77.329 32.0691 77.6427 32.2214C77.9562 32.3736 78.326 32.5151 78.753 32.6459C79.0747 32.7416 79.3735 32.8286 79.6477 32.9071C79.922 32.9854 80.1592 33.0704 80.3595 33.1619C80.5597 33.2534 80.7165 33.3556 80.83 33.4689C80.943 33.5821 80.9995 33.7259 80.9995 33.8999C80.9995 34.3614 80.6207 34.5921 79.8632 34.5921C79.5062 34.5921 79.1532 34.5444 78.8052 34.4484C78.4567 34.3526 78.141 34.2439 77.8582 34.1219C77.575 34.0001 77.338 33.8781 77.1462 33.7561C76.9547 33.6341 76.8415 33.5516 76.8067 33.5079L75.8662 35.3756C76.1357 35.5584 76.4297 35.7196 76.7477 35.8589C77.0655 35.9981 77.3942 36.1179 77.7335 36.2181C78.073 36.3184 78.4212 36.3944 78.7785 36.4466C79.1352 36.4989 79.4837 36.5249 79.8235 36.5249C80.2675 36.5249 80.699 36.4746 81.1165 36.3746C81.5345 36.2746 81.9045 36.1134 82.2267 35.8914C82.5485 35.6694 82.808 35.3776 83.004 35.0164C83.2 34.6551 83.298 34.2131 83.298 33.6906C83.2975 33.2639 83.23 32.8981 83.0952 32.5929Z" fill="black"/>
<path d="M0 0.973267V104.157H128V0.973267H0ZM3.91825 4.89127H124.081V11.4258H3.91825V4.89127ZM3.91825 100.238V15.3443H124.081V100.238H3.91825Z" fill="black"/>
<path d="M16.3265 6.20215H12.4082V10.1204H16.3265V6.20215Z" fill="black"/>
<path d="M24.8157 6.20215H20.8975V10.1204H24.8157V6.20215Z" fill="black"/>
<path d="M33.4358 6.20215H29.5176V10.1204H33.4358V6.20215Z" fill="black"/>
<path d="M10.7102 44.8331V81.4046H59.0367V44.8331H10.7102ZM55.1182 77.4861H14.6285V48.7516H55.1182V77.4861Z" fill="black"/>
<path d="M117.29 44.8324H68.9626V48.7506H117.29V44.8324Z" fill="black"/>
<path d="M117.29 66.6022H68.9626V70.5204H117.29V66.6022Z" fill="black"/>
<path d="M117.29 77.4849H68.9626V81.4031H117.29V77.4849Z" fill="black"/>
<path d="M59.0377 88.3696H10.7102V92.2879H59.0377V88.3696Z" fill="black"/>
<path d="M33.9952 30.3871H10.7102V34.3053H33.9952V30.3871Z" fill="black"/>
<path d="M117.29 30.3871H94.0051V34.3053H117.29V30.3871Z" fill="black"/>
<path d="M100.178 88.3696H68.9626V92.2879H100.178V88.3696Z" fill="black"/>
<path d="M117.288 55.7172H77.5825V59.6354H117.288V55.7172Z" fill="black"/>
<path d="M72.8809 55.7172H68.9626V59.6354H72.8809V55.7172Z" fill="black"/>
<path d="M108.668 88.3696H104.75V92.2879H108.668V88.3696Z" fill="black"/>
<path d="M27.6897 53.4517V73.5827L43.7944 63.5174L27.6897 53.4517ZM31.6082 60.5219L36.4014 63.5177L31.6082 66.5134V60.5219Z" fill="url(#paint0_linear_392_52)"/>
<path d="M117.291 88.3696H113.373V92.2879H117.291V88.3696Z" fill="black"/>
<defs>
<linearGradient id="paint0_linear_392_52" x1="27.6897" y1="55.4648" x2="43.7944" y2="71.5695" gradientUnits="userSpaceOnUse">
<stop stop-color="#C60000"/>
<stop offset="1" stop-color="#FF6D00"/>
</linearGradient>
</defs>
</svg>
