<svg width="128" height="111" viewBox="0 0 128 111" fill="none" xmlns="http://www.w3.org/2000/svg">
<path d="M24.258 0.306641V6.00644H12.1291V11.7563H0V99.0564C0 105.543 5.27746 110.821 11.7642 110.821H90.6698V106.699H25.5525C27.3144 104.642 28.3797 101.971 28.3797 99.0564V4.42837H123.878V99.0564C123.878 103.27 120.45 106.699 116.236 106.699H94.5167V110.821H116.236C122.723 110.821 128 105.543 128 99.0564V0.306641H24.258ZM16.6158 106.699H16.2509V41.2244H12.1291V106.699H11.7642C7.55018 106.699 4.12173 103.27 4.12173 99.0564V15.878H12.1291V36.9194H16.2509V10.1282H24.2583V99.0564C24.258 103.27 20.8298 106.699 16.6158 106.699Z" fill="black"/>
<path d="M34.1562 40.9043H119.247V45.026H34.1562V40.9043Z" fill="black"/>
<path d="M96.5775 53.2866H59.499V90.3651H96.5775V53.2866ZM92.4558 86.2434H63.6208V57.4083H92.4558V86.2434Z" fill="url(#paint0_linear_303_783)"/>
<path d="M34.1562 53.2866H52.2004V57.4083H34.1562V53.2866Z" fill="black"/>
<path d="M34.1562 61.1514H52.2004V65.2731H34.1562V61.1514Z" fill="black"/>
<path d="M34.1562 69.739H52.2004V73.8607H34.1562V69.739Z" fill="black"/>
<path d="M34.1562 78.3267H45.0904V82.4484H34.1562V78.3267Z" fill="black"/>
<path d="M34.1562 86.2434H52.2004V90.3651H34.1562V86.2434Z" fill="black"/>
<path d="M101.203 53.2866H119.247V57.4083H101.203V53.2866Z" fill="black"/>
<path d="M101.203 61.1514H119.247V65.2731H101.203V61.1514Z" fill="black"/>
<path d="M101.203 69.739H119.247V73.8607H101.203V69.739Z" fill="black"/>
<path d="M101.203 78.3267H112.137V82.4484H101.203V78.3267Z" fill="black"/>
<path d="M101.203 86.2434H119.247V90.3651H101.203V86.2434Z" fill="black"/>
<path d="M90.6697 94.4695H119.247V98.5912H90.6697V94.4695Z" fill="black"/>
<path d="M34.1562 94.4695H65.5591V98.5912H34.1562V94.4695Z" fill="black"/>
<path d="M46.8985 24.9647L37.9253 12.0384L33.9824 12.0371V32.7056H38.1042V19.524L47.0777 32.4506H51.0203V12.0068H46.8985V24.9647Z" fill="black"/>
<path d="M67.6199 16.2045V12.0828H55.8516V32.6299H67.6199V28.5081H59.9733V24.4174H67.0561V20.2957H59.9733V16.2045H67.6199Z" fill="black"/>
<path d="M111.083 28.5838C109.161 28.5838 107.32 27.8908 106.157 26.7293L103.244 29.6456C105.191 31.5902 108.048 32.7056 111.083 32.7056C114.859 32.7056 118.086 30.3729 118.588 27.2795C119.155 23.7894 116.242 21.5057 113.326 20.5322C111.025 19.7642 108.888 18.9266 108.285 18.6876C107.917 18.4312 107.744 18.0822 107.796 17.6934C107.86 17.2178 108.307 16.6061 109.369 16.3165C112.177 15.5512 114.726 17.4016 114.752 17.4206L115.989 15.7721L117.237 14.132C117.069 14.0047 113.085 11.0294 108.285 12.3401C105.77 13.026 104.017 14.867 103.711 17.1452C103.432 19.2228 104.423 21.2005 106.298 22.3062L106.43 22.3845L106.573 22.4422C106.679 22.4848 109.191 23.4971 112.02 24.4418C113.69 24.999 114.648 25.833 114.52 26.6181C114.387 27.4421 113.117 28.5838 111.083 28.5838Z" fill="black"/>
<path d="M84.8151 19.9497L88.8717 32.6831L92.8151 32.6587L97.1938 12.7449L93.1682 11.8599L90.4712 24.1253L86.726 12.3693L82.9114 12.3652L79.1554 24.1198L76.47 11.8313L72.4434 12.7114L76.8083 32.6839L80.7541 32.6595L84.8151 19.9497Z" fill="black"/>
<defs>
<linearGradient id="paint0_linear_303_783" x1="78.0383" y1="53.2866" x2="78.0383" y2="90.3651" gradientUnits="userSpaceOnUse">
<stop stop-color="#C60000"/>
<stop offset="1" stop-color="#FF6D00"/>
</linearGradient>
</defs>
</svg>
