<svg width="129" height="129" viewBox="0 0 129 129" fill="none" xmlns="http://www.w3.org/2000/svg">
<mask id="mask0_303_1156" style="mask-type:luminance" maskUnits="userSpaceOnUse" x="0" y="0" width="129" height="129">
<path d="M0.853516 0.657478H128.854V128.657H0.853516V0.657478Z" fill="white"/>
</mask>
<g mask="url(#mask0_303_1156)">
<mask id="path-2-outside-1_303_1156" maskUnits="userSpaceOnUse" x="-0.181641" y="-0.308716" width="130" height="130" fill="black">
<rect fill="white" x="-0.181641" y="-0.308716" width="130" height="130"/>
<path d="M4.68652 60.8446C6.56506 30.7295 30.5579 6.60617 60.6172 4.51941L66.1309 10.0321L60.2568 15.9052C49.2907 16.9266 39.3713 21.5639 31.71 28.6122L34.249 31.3719C42.3028 23.9627 53.0484 19.4403 64.8535 19.4403V16.6132L70.1084 11.3573L71.4346 10.0311L70.1084 8.70593L64.8525 3.45007V0.621948C30.8466 0.62236 3.03306 27.1294 0.944336 60.6102L4.68652 60.8446ZM126.385 64.6561H128.888C128.887 30.6473 102.376 2.83184 68.8916 0.746948L68.6592 4.48914C98.88 6.37094 123.066 30.5224 125.01 60.7274L119.803 65.9344L113.567 59.6991C111.211 36.2688 92.3412 17.7119 68.7686 15.8456L68.4717 19.5839C91.7502 21.4267 110.068 40.9039 110.068 64.6571H113.223L118.478 69.912L119.804 71.2372L126.385 64.6561ZM39.8486 18.3905C41.0414 17.7887 42.0261 17.2446 43.1025 16.786L42.3672 15.0614L41.6328 13.3368C40.4079 13.8586 39.1977 14.5188 38.1592 15.0428L39.8486 18.3905ZM33.7773 22.2469C34.6586 21.6063 35.8865 20.7524 36.7549 20.2196L35.7744 18.6219L34.7939 17.0233C33.8018 17.632 32.4819 18.5525 31.5723 19.2137L33.7773 22.2469ZM19.7793 61.0487C20.6008 50.6361 24.9495 41.2152 31.6357 33.9794L28.8818 31.4344C21.6447 39.2666 16.931 49.4725 16.041 60.7538L19.7793 61.0487ZM71.8027 85.1874C72.7105 84.8727 73.5913 84.4995 74.4395 84.0712L77.9697 87.6014L79.2959 88.9266L80.6221 87.6014L89.123 79.1005L87.7969 77.7743L84.1592 74.1376C84.5503 73.3216 84.893 72.4767 85.1807 71.6063H92.2266V57.7089H85.0312C84.7416 56.8883 84.4026 56.0908 84.0195 55.3192L89.123 50.2157L79.2959 40.3885L74.1533 45.5311C73.3938 45.1612 72.6095 44.8345 71.8027 44.5546V37.285H57.9053V44.4833C57.0749 44.7628 56.2678 45.0916 55.4873 45.4657L51.7373 41.7147L50.4111 40.3885L41.9102 48.8895L40.585 50.2157L41.9102 51.5419L45.5547 55.1864C45.1445 55.9992 44.7835 56.8414 44.4775 57.7089H37.4805V71.6063H44.3291C44.6325 72.5241 44.996 73.4136 45.4141 74.2704L41.9102 77.7743L40.585 79.1005L41.9102 80.4266L49.085 87.6014L50.4111 88.9266L51.7373 87.6014L55.2012 84.1376C56.07 84.5699 56.9732 84.945 57.9053 85.2587V92.0311H71.8027V85.1874ZM61.6553 82.4139L60.2539 82.0487C58.6782 81.637 57.187 81.0105 55.8096 80.205L54.5605 79.4745L53.5381 80.4979L50.4111 83.6239L45.8877 79.1005L50.0586 74.9296L49.3457 73.6854C48.5589 72.313 47.9482 70.8317 47.5498 69.2684L47.1895 67.8563H41.2305V61.4589H47.2744L47.6572 60.0887C48.081 58.5708 48.6988 57.1347 49.4854 55.8114L50.2305 54.5585L49.1992 53.5272L45.8877 50.2167L50.4111 45.6923L53.8076 49.0878L54.8135 50.0946L56.0537 49.3954C57.3632 48.6573 58.7711 48.0798 60.2539 47.6923L61.6553 47.326V41.035H68.0527V47.3661L69.4346 47.743C70.8961 48.1414 72.2822 48.7227 73.5693 49.4608L74.8135 50.1747L79.2959 45.6923L83.8193 50.2157L79.3594 54.6757L80.0898 55.9247C80.8457 57.2172 81.441 58.6145 81.8525 60.0887L82.2354 61.4589H88.4766V67.8563H82.3203L81.96 69.2684C81.5722 70.7888 80.9846 72.2315 80.2295 73.5712L79.5303 74.8114L80.5371 75.8182L83.8184 79.1005L79.2949 83.6239L76.0977 80.4257L75.0664 79.3944L73.8135 80.1395C72.46 80.9444 70.9898 81.5729 69.4346 81.9969L68.0527 82.3739V88.2811H61.6553V82.4139ZM64.8535 74.1981C70.1227 74.1981 74.3945 69.9267 74.3945 64.6571C74.3943 59.3877 70.1226 55.1161 64.8535 55.1161C59.5846 55.1163 55.3127 59.3879 55.3125 64.6571C55.3125 69.9265 59.5845 74.1979 64.8535 74.1981ZM61.1982 124.832C30.9684 123.025 6.73933 98.938 4.70703 68.7684L10.0957 63.3788L16.1133 69.3973C18.374 92.9304 37.2919 111.596 60.9375 113.468L61.2344 109.729C37.9557 107.887 19.6377 88.4097 19.6377 64.6561H16.6777L11.4219 59.4012L10.0967 58.0751L8.77051 59.4012L3.51465 64.6561H0.818359C0.818359 98.7188 27.4138 126.569 60.9736 128.576L61.1982 124.832ZM64.8535 70.4481C61.6555 70.4479 59.0625 67.8554 59.0625 64.6571C59.0627 61.459 61.6556 58.8663 64.8535 58.8661C68.0516 58.8661 70.6443 61.4589 70.6445 64.6571C70.6445 67.8555 68.0518 70.4481 64.8535 70.4481ZM64.8535 128.691C80.4901 128.691 94.8224 123.084 105.941 113.773L104.737 112.336L103.534 110.898C94.0037 118.879 81.9719 123.967 68.7832 124.815L63.5752 119.607L69.8096 113.373C93.2405 111.017 111.798 92.1452 113.664 68.5721L111.795 68.4247L109.926 68.2762C108.083 91.5547 88.6059 109.873 64.8525 109.873V113.026L59.5977 118.281L58.2725 119.607L64.8535 126.188V128.691ZM113.946 105.773C122.495 95.577 127.927 82.6731 128.772 68.536L126.901 68.4247L125.029 68.3124C124.234 81.6188 119.123 93.7618 111.073 103.363L113.946 105.773ZM14.5039 85.4139L16.2295 84.6825C15.8295 83.7389 15.3068 82.3202 14.9736 81.3124L11.4131 82.4901C11.7713 83.5737 12.3298 85.0895 12.7773 86.1454L14.5039 85.4139ZM108.742 111.285C109.684 110.398 110.601 109.482 111.488 108.539L108.758 105.969C107.922 106.856 107.059 107.719 106.172 108.555L108.742 111.285Z"/>
</mask>
<path d="M4.68652 60.8446C6.56506 30.7295 30.5579 6.60617 60.6172 4.51941L66.1309 10.0321L60.2568 15.9052C49.2907 16.9266 39.3713 21.5639 31.71 28.6122L34.249 31.3719C42.3028 23.9627 53.0484 19.4403 64.8535 19.4403V16.6132L70.1084 11.3573L71.4346 10.0311L70.1084 8.70593L64.8525 3.45007V0.621948C30.8466 0.62236 3.03306 27.1294 0.944336 60.6102L4.68652 60.8446ZM126.385 64.6561H128.888C128.887 30.6473 102.376 2.83184 68.8916 0.746948L68.6592 4.48914C98.88 6.37094 123.066 30.5224 125.01 60.7274L119.803 65.9344L113.567 59.6991C111.211 36.2688 92.3412 17.7119 68.7686 15.8456L68.4717 19.5839C91.7502 21.4267 110.068 40.9039 110.068 64.6571H113.223L118.478 69.912L119.804 71.2372L126.385 64.6561ZM39.8486 18.3905C41.0414 17.7887 42.0261 17.2446 43.1025 16.786L42.3672 15.0614L41.6328 13.3368C40.4079 13.8586 39.1977 14.5188 38.1592 15.0428L39.8486 18.3905ZM33.7773 22.2469C34.6586 21.6063 35.8865 20.7524 36.7549 20.2196L35.7744 18.6219L34.7939 17.0233C33.8018 17.632 32.4819 18.5525 31.5723 19.2137L33.7773 22.2469ZM19.7793 61.0487C20.6008 50.6361 24.9495 41.2152 31.6357 33.9794L28.8818 31.4344C21.6447 39.2666 16.931 49.4725 16.041 60.7538L19.7793 61.0487ZM71.8027 85.1874C72.7105 84.8727 73.5913 84.4995 74.4395 84.0712L77.9697 87.6014L79.2959 88.9266L80.6221 87.6014L89.123 79.1005L87.7969 77.7743L84.1592 74.1376C84.5503 73.3216 84.893 72.4767 85.1807 71.6063H92.2266V57.7089H85.0312C84.7416 56.8883 84.4026 56.0908 84.0195 55.3192L89.123 50.2157L79.2959 40.3885L74.1533 45.5311C73.3938 45.1612 72.6095 44.8345 71.8027 44.5546V37.285H57.9053V44.4833C57.0749 44.7628 56.2678 45.0916 55.4873 45.4657L51.7373 41.7147L50.4111 40.3885L41.9102 48.8895L40.585 50.2157L41.9102 51.5419L45.5547 55.1864C45.1445 55.9992 44.7835 56.8414 44.4775 57.7089H37.4805V71.6063H44.3291C44.6325 72.5241 44.996 73.4136 45.4141 74.2704L41.9102 77.7743L40.585 79.1005L41.9102 80.4266L49.085 87.6014L50.4111 88.9266L51.7373 87.6014L55.2012 84.1376C56.07 84.5699 56.9732 84.945 57.9053 85.2587V92.0311H71.8027V85.1874ZM61.6553 82.4139L60.2539 82.0487C58.6782 81.637 57.187 81.0105 55.8096 80.205L54.5605 79.4745L53.5381 80.4979L50.4111 83.6239L45.8877 79.1005L50.0586 74.9296L49.3457 73.6854C48.5589 72.313 47.9482 70.8317 47.5498 69.2684L47.1895 67.8563H41.2305V61.4589H47.2744L47.6572 60.0887C48.081 58.5708 48.6988 57.1347 49.4854 55.8114L50.2305 54.5585L49.1992 53.5272L45.8877 50.2167L50.4111 45.6923L53.8076 49.0878L54.8135 50.0946L56.0537 49.3954C57.3632 48.6573 58.7711 48.0798 60.2539 47.6923L61.6553 47.326V41.035H68.0527V47.3661L69.4346 47.743C70.8961 48.1414 72.2822 48.7227 73.5693 49.4608L74.8135 50.1747L79.2959 45.6923L83.8193 50.2157L79.3594 54.6757L80.0898 55.9247C80.8457 57.2172 81.441 58.6145 81.8525 60.0887L82.2354 61.4589H88.4766V67.8563H82.3203L81.96 69.2684C81.5722 70.7888 80.9846 72.2315 80.2295 73.5712L79.5303 74.8114L80.5371 75.8182L83.8184 79.1005L79.2949 83.6239L76.0977 80.4257L75.0664 79.3944L73.8135 80.1395C72.46 80.9444 70.9898 81.5729 69.4346 81.9969L68.0527 82.3739V88.2811H61.6553V82.4139ZM64.8535 74.1981C70.1227 74.1981 74.3945 69.9267 74.3945 64.6571C74.3943 59.3877 70.1226 55.1161 64.8535 55.1161C59.5846 55.1163 55.3127 59.3879 55.3125 64.6571C55.3125 69.9265 59.5845 74.1979 64.8535 74.1981ZM61.1982 124.832C30.9684 123.025 6.73933 98.938 4.70703 68.7684L10.0957 63.3788L16.1133 69.3973C18.374 92.9304 37.2919 111.596 60.9375 113.468L61.2344 109.729C37.9557 107.887 19.6377 88.4097 19.6377 64.6561H16.6777L11.4219 59.4012L10.0967 58.0751L8.77051 59.4012L3.51465 64.6561H0.818359C0.818359 98.7188 27.4138 126.569 60.9736 128.576L61.1982 124.832ZM64.8535 70.4481C61.6555 70.4479 59.0625 67.8554 59.0625 64.6571C59.0627 61.459 61.6556 58.8663 64.8535 58.8661C68.0516 58.8661 70.6443 61.4589 70.6445 64.6571C70.6445 67.8555 68.0518 70.4481 64.8535 70.4481ZM64.8535 128.691C80.4901 128.691 94.8224 123.084 105.941 113.773L104.737 112.336L103.534 110.898C94.0037 118.879 81.9719 123.967 68.7832 124.815L63.5752 119.607L69.8096 113.373C93.2405 111.017 111.798 92.1452 113.664 68.5721L111.795 68.4247L109.926 68.2762C108.083 91.5547 88.6059 109.873 64.8525 109.873V113.026L59.5977 118.281L58.2725 119.607L64.8535 126.188V128.691ZM113.946 105.773C122.495 95.577 127.927 82.6731 128.772 68.536L126.901 68.4247L125.029 68.3124C124.234 81.6188 119.123 93.7618 111.073 103.363L113.946 105.773ZM14.5039 85.4139L16.2295 84.6825C15.8295 83.7389 15.3068 82.3202 14.9736 81.3124L11.4131 82.4901C11.7713 83.5737 12.3298 85.0895 12.7773 86.1454L14.5039 85.4139ZM108.742 111.285C109.684 110.398 110.601 109.482 111.488 108.539L108.758 105.969C107.922 106.856 107.059 107.719 106.172 108.555L108.742 111.285Z" fill="black"/>
<path d="M4.68652 60.8446L5.18555 60.8757C5.1773 61.0081 5.11678 61.1318 5.01733 61.2195C4.91788 61.3073 4.78764 61.3519 4.65527 61.3436L4.68652 60.8446ZM60.6172 4.51941L60.5826 4.02061C60.7269 4.01059 60.8684 4.06355 60.9707 4.16582L60.6172 4.51941ZM66.1309 10.0321L66.4844 9.67852C66.5782 9.77229 66.6309 9.89948 66.6309 10.0321C66.6309 10.1647 66.5782 10.2919 66.4844 10.3857L66.1309 10.0321ZM60.2568 15.9052L60.6104 16.2587C60.5279 16.3412 60.4193 16.3922 60.3032 16.403L60.2568 15.9052ZM31.71 28.6122L31.342 28.9507C31.2522 28.8531 31.2049 28.7239 31.2104 28.5914C31.2159 28.4589 31.2738 28.334 31.3714 28.2442L31.71 28.6122ZM34.249 31.3719L34.5875 31.7399C34.3843 31.9269 34.068 31.9137 33.8811 31.7105L34.249 31.3719ZM64.8535 19.4403H65.3535C65.3535 19.7165 65.1297 19.9403 64.8535 19.9403V19.4403ZM64.8535 16.6132H64.3535C64.3535 16.4806 64.4062 16.3534 64.4999 16.2596L64.8535 16.6132ZM70.1084 11.3573L69.7548 11.0038L69.7548 11.0037L70.1084 11.3573ZM71.4346 10.0311L71.788 9.67744C71.8818 9.7712 71.9345 9.8984 71.9346 10.031C71.9346 10.1637 71.8819 10.2909 71.7881 10.3847L71.4346 10.0311ZM70.1084 8.70593L69.755 9.05962L69.7548 9.05949L70.1084 8.70593ZM64.8525 3.45007L64.499 3.80363C64.4052 3.70986 64.3525 3.58268 64.3525 3.45007H64.8525ZM64.8525 0.621948L64.8525 0.121948C64.9851 0.121948 65.1123 0.174622 65.2061 0.268387C65.2999 0.362167 65.3525 0.489334 65.3525 0.621948H64.8525ZM0.944336 60.6102L0.913082 61.1093C0.637527 61.092 0.428115 60.8547 0.445306 60.5791L0.944336 60.6102ZM126.385 64.6561L126.031 64.3026C126.125 64.2088 126.252 64.1561 126.385 64.1561V64.6561ZM128.888 64.6561H129.388C129.388 64.7887 129.335 64.9159 129.241 65.0097C129.147 65.1035 129.02 65.1561 128.888 65.1561V64.6561ZM68.8916 0.746948L68.3926 0.71595C68.4008 0.583588 68.4613 0.459915 68.5607 0.372131C68.6601 0.284363 68.7903 0.23967 68.9227 0.24791L68.8916 0.746948ZM68.6592 4.48914L68.6281 4.98817C68.3525 4.97101 68.143 4.73372 68.1601 4.45814L68.6592 4.48914ZM125.01 60.7274L125.509 60.6953C125.518 60.8388 125.465 60.9793 125.363 61.081L125.01 60.7274ZM119.803 65.9344L120.156 66.288C119.961 66.4833 119.644 66.4833 119.449 66.288L119.803 65.9344ZM113.567 59.6991L113.214 60.0527C113.132 59.9711 113.081 59.8639 113.07 59.7491L113.567 59.6991ZM68.7686 15.8456L68.2701 15.806C68.292 15.5308 68.5328 15.3253 68.808 15.3471L68.7686 15.8456ZM68.4717 19.5839L68.4322 20.0823C68.3 20.0718 68.1774 20.0093 68.0913 19.9084C68.0052 19.8075 67.9627 19.6765 67.9733 19.5443L68.4717 19.5839ZM110.068 64.6571V65.1571C109.792 65.1571 109.568 64.9332 109.568 64.6571H110.068ZM113.223 64.6571V64.1571C113.355 64.1571 113.482 64.2098 113.576 64.3036L113.223 64.6571ZM118.478 69.912L118.124 70.2657L118.124 70.2655L118.478 69.912ZM119.804 71.2372L120.157 71.5907C119.962 71.7859 119.646 71.786 119.45 71.5909L119.804 71.2372ZM39.8486 18.3905L40.0739 18.8369C39.8274 18.9613 39.5267 18.8623 39.4023 18.6158L39.8486 18.3905ZM43.1025 16.786L43.5625 16.5899C43.6145 16.7119 43.6159 16.8496 43.5664 16.9726C43.5169 17.0957 43.4205 17.194 43.2985 17.246L43.1025 16.786ZM42.3672 15.0614L41.9073 15.2575L41.9072 15.2573L42.3672 15.0614ZM41.6328 13.3368L41.4368 12.8768C41.5589 12.8248 41.6965 12.8234 41.8195 12.873C41.9426 12.9225 42.0409 13.0189 42.0928 13.1409L41.6328 13.3368ZM38.1592 15.0428L37.7128 15.2681C37.6531 15.1497 37.6428 15.0125 37.6843 14.8865C37.7257 14.7605 37.8155 14.6562 37.9339 14.5965L38.1592 15.0428ZM33.7773 22.2469L34.0714 22.6514C33.848 22.8138 33.5353 22.7643 33.3729 22.541L33.7773 22.2469ZM36.7549 20.2196L37.181 19.9581C37.2504 20.0711 37.272 20.2071 37.2411 20.336C37.2103 20.465 37.1294 20.5764 37.0164 20.6458L36.7549 20.2196ZM35.7744 18.6219L35.3483 18.8835L35.3482 18.8834L35.7744 18.6219ZM34.7939 17.0233L34.5325 16.5971C34.6455 16.5278 34.7815 16.5062 34.9104 16.5371C35.0394 16.568 35.1508 16.6488 35.2202 16.7619L34.7939 17.0233ZM31.5723 19.2137L31.1678 19.5078C31.0899 19.4005 31.0577 19.2666 31.0784 19.1357C31.0991 19.0047 31.171 18.8873 31.2783 18.8093L31.5723 19.2137ZM19.7793 61.0487L20.2777 61.088C20.256 61.3633 20.0153 61.5689 19.74 61.5472L19.7793 61.0487ZM31.6357 33.9794L31.9751 33.6122C32.1779 33.7996 32.1904 34.1159 32.003 34.3187L31.6357 33.9794ZM28.8818 31.4344L28.5146 31.0951C28.6046 30.9977 28.7296 30.9401 28.8621 30.9348C28.9946 30.9296 29.1238 30.9772 29.2212 31.0672L28.8818 31.4344ZM16.041 60.7538L16.0017 61.2522C15.8695 61.2418 15.7469 61.1793 15.6608 61.0784C15.5746 60.9776 15.5321 60.8467 15.5426 60.7145L16.041 60.7538ZM71.8027 85.1874H71.3027C71.3027 84.9743 71.4377 84.7847 71.639 84.715L71.8027 85.1874ZM74.4395 84.0712L74.2141 83.6248C74.4068 83.5275 74.6403 83.5649 74.793 83.7176L74.4395 84.0712ZM77.9697 87.6014L77.6163 87.9551L77.6162 87.955L77.9697 87.6014ZM79.2959 88.9266L79.6493 89.2803C79.4541 89.4754 79.1377 89.4754 78.9425 89.2803L79.2959 88.9266ZM80.6221 87.6014L80.9756 87.955L80.9755 87.9551L80.6221 87.6014ZM89.123 79.1005L89.4766 78.7469C89.6719 78.9422 89.6719 79.2588 89.4766 79.454L89.123 79.1005ZM87.7969 77.7743L88.1504 77.4207L88.1504 77.4207L87.7969 77.7743ZM84.1592 74.1376L83.8057 74.4912C83.6556 74.3412 83.6166 74.1128 83.7083 73.9215L84.1592 74.1376ZM85.1807 71.6063L84.7059 71.4494C84.7736 71.2446 84.965 71.1063 85.1807 71.1063V71.6063ZM92.2266 71.6063H92.7266C92.7266 71.8825 92.5027 72.1063 92.2266 72.1063V71.6063ZM92.2266 57.7089V57.2089C92.5027 57.2089 92.7266 57.4327 92.7266 57.7089H92.2266ZM85.0312 57.7089V58.2089C84.8193 58.2089 84.6303 58.0752 84.5598 57.8753L85.0312 57.7089ZM84.0195 55.3192L83.5717 55.5415C83.4762 55.3493 83.5142 55.1175 83.666 54.9657L84.0195 55.3192ZM89.123 50.2157L89.4766 49.8621C89.6719 50.0574 89.6719 50.374 89.4766 50.5693L89.123 50.2157ZM79.2959 40.3885L78.9423 40.035C79.1376 39.8397 79.4542 39.8397 79.6495 40.035L79.2959 40.3885ZM74.1533 45.5311L74.5069 45.8847C74.356 46.0355 74.1262 46.074 73.9344 45.9807L74.1533 45.5311ZM71.8027 44.5546L71.6388 45.0269C71.4376 44.9571 71.3027 44.7675 71.3027 44.5546H71.8027ZM71.8027 37.285V36.785C72.0789 36.785 72.3027 37.0089 72.3027 37.285H71.8027ZM57.9053 37.285H57.4053C57.4053 37.0089 57.6291 36.785 57.9053 36.785V37.285ZM57.9053 44.4833H58.4053C58.4053 44.6979 58.2682 44.8887 58.0648 44.9571L57.9053 44.4833ZM55.4873 45.4657L55.7034 45.9166C55.5121 46.0083 55.2837 45.9692 55.1337 45.8192L55.4873 45.4657ZM51.7373 41.7147L52.0909 41.3612L52.0909 41.3612L51.7373 41.7147ZM50.4111 40.3885L50.0576 40.035C50.2528 39.8397 50.5694 39.8397 50.7647 40.035L50.4111 40.3885ZM41.9102 48.8895L41.5565 48.5361L41.5566 48.536L41.9102 48.8895ZM40.585 50.2157L40.2313 50.5691C40.0362 50.3739 40.0362 50.0575 40.2313 49.8623L40.585 50.2157ZM41.9102 51.5419L41.5566 51.8954L41.5565 51.8953L41.9102 51.5419ZM45.5547 55.1864L45.9082 54.8328C46.0609 54.9855 46.0983 55.2189 46.0011 55.4116L45.5547 55.1864ZM44.4775 57.7089L44.9491 57.8752C44.8785 58.0751 44.6896 58.2089 44.4775 58.2089V57.7089ZM37.4805 57.7089H36.9805C36.9805 57.4327 37.2043 57.2089 37.4805 57.2089V57.7089ZM37.4805 71.6063V72.1063C37.2043 72.1063 36.9805 71.8825 36.9805 71.6063H37.4805ZM44.3291 71.6063V71.1063C44.5448 71.1063 44.7361 71.2446 44.8038 71.4494L44.3291 71.6063ZM45.4141 74.2704L45.8634 74.0511C45.957 74.2429 45.9185 74.473 45.7676 74.6239L45.4141 74.2704ZM41.9102 77.7743L41.5565 77.4209L41.5566 77.4207L41.9102 77.7743ZM40.585 79.1005L40.2313 79.4539C40.0362 79.2587 40.0362 78.9423 40.2313 78.747L40.585 79.1005ZM41.9102 80.4266L41.5566 80.7802L41.5565 80.7801L41.9102 80.4266ZM49.085 87.6014L48.7315 87.9551L48.7314 87.955L49.085 87.6014ZM50.4111 88.9266L50.7646 89.2803C50.5693 89.4754 50.2529 89.4754 50.0577 89.2803L50.4111 88.9266ZM51.7373 87.6014L52.0909 87.955L52.0907 87.9551L51.7373 87.6014ZM55.2012 84.1376L54.8476 83.784C54.9995 83.6321 55.2316 83.5942 55.4239 83.6899L55.2012 84.1376ZM57.9053 85.2587L58.0648 84.7848C58.2682 84.8533 58.4053 85.044 58.4053 85.2587H57.9053ZM57.9053 92.0311V92.5311C57.6291 92.5311 57.4053 92.3073 57.4053 92.0311H57.9053ZM71.8027 92.0311H72.3027C72.3027 92.3073 72.0789 92.5311 71.8027 92.5311V92.0311ZM61.6553 82.4139L61.7814 81.9301C62.0016 81.9875 62.1553 82.1864 62.1553 82.4139H61.6553ZM60.2539 82.0487L60.1278 82.5325L60.1275 82.5325L60.2539 82.0487ZM55.8096 80.205L55.5572 80.6366L55.5572 80.6366L55.8096 80.205ZM54.5605 79.4745L54.2068 79.1211C54.3676 78.9602 54.6166 78.9281 54.813 79.0429L54.5605 79.4745ZM53.5381 80.4979L53.8918 80.8513L53.8916 80.8515L53.5381 80.4979ZM50.4111 83.6239L50.7646 83.9775C50.5694 84.1727 50.2528 84.1727 50.0576 83.9775L50.4111 83.6239ZM45.8877 79.1005L45.5341 79.454C45.3389 79.2588 45.3389 78.9422 45.5341 78.7469L45.8877 79.1005ZM50.0586 74.9296L50.4924 74.681C50.6046 74.8768 50.5717 75.1235 50.4121 75.2831L50.0586 74.9296ZM49.3457 73.6854L49.7795 73.4367L49.7795 73.4368L49.3457 73.6854ZM47.5498 69.2684L48.0343 69.1448L48.0343 69.145L47.5498 69.2684ZM47.1895 67.8563V67.3563C47.418 67.3563 47.6174 67.5113 47.6739 67.7327L47.1895 67.8563ZM41.2305 67.8563V68.3563C40.9543 68.3563 40.7305 68.1325 40.7305 67.8563H41.2305ZM41.2305 61.4589H40.7305C40.7305 61.1827 40.9543 60.9589 41.2305 60.9589V61.4589ZM47.2744 61.4589L47.756 61.5934C47.6956 61.8095 47.4987 61.9589 47.2744 61.9589V61.4589ZM47.6572 60.0887L48.1388 60.2232L48.1388 60.2233L47.6572 60.0887ZM49.4854 55.8114L49.0555 55.5559L49.0556 55.5558L49.4854 55.8114ZM50.2305 54.5585L50.584 54.2049C50.7457 54.3666 50.7771 54.6175 50.6602 54.814L50.2305 54.5585ZM49.1992 53.5272L49.5527 53.1736L49.5528 53.1737L49.1992 53.5272ZM45.8877 50.2167L45.5342 50.5703C45.4404 50.4765 45.3877 50.3493 45.3877 50.2167C45.3877 50.0841 45.4403 49.9569 45.5341 49.8632L45.8877 50.2167ZM50.4111 45.6923L50.0575 45.3387C50.2528 45.1435 50.5694 45.1434 50.7646 45.3387L50.4111 45.6923ZM53.8076 49.0878L54.1611 48.7342L54.1613 48.7344L53.8076 49.0878ZM54.8135 50.0946L55.059 50.5302C54.8635 50.6404 54.6184 50.6068 54.4598 50.448L54.8135 50.0946ZM56.0537 49.3954L55.8082 48.9598L55.8082 48.9598L56.0537 49.3954ZM60.2539 47.6923L60.1275 47.2085L60.1275 47.2085L60.2539 47.6923ZM61.6553 47.326H62.1553C62.1553 47.5535 62.0018 47.7523 61.7817 47.8098L61.6553 47.326ZM61.6553 41.035H61.1553C61.1553 40.7589 61.3791 40.535 61.6553 40.535V41.035ZM68.0527 41.035V40.535C68.3289 40.535 68.5527 40.7589 68.5527 41.035H68.0527ZM68.0527 47.3661L67.9212 47.8485C67.7036 47.7891 67.5527 47.5916 67.5527 47.3661H68.0527ZM69.4346 47.743L69.3031 48.2254L69.303 48.2254L69.4346 47.743ZM73.5693 49.4608L73.8181 49.0271L73.8182 49.0271L73.5693 49.4608ZM74.8135 50.1747L75.167 50.5282C75.0074 50.6879 74.7605 50.7207 74.5646 50.6084L74.8135 50.1747ZM79.2959 45.6923L78.9423 45.3387C79.1376 45.1434 79.4542 45.1434 79.6495 45.3387L79.2959 45.6923ZM83.8193 50.2157L84.1729 49.8621C84.3681 50.0574 84.3681 50.374 84.1729 50.5693L83.8193 50.2157ZM79.3594 54.6757L78.9278 54.9281C78.813 54.7318 78.8451 54.4829 79.0058 54.3221L79.3594 54.6757ZM80.0898 55.9247L80.5215 55.6723L80.5215 55.6723L80.0898 55.9247ZM81.8525 60.0887L81.371 60.2233L81.371 60.2232L81.8525 60.0887ZM82.2354 61.4589V61.9589C82.011 61.9589 81.8142 61.8095 81.7538 61.5934L82.2354 61.4589ZM88.4766 61.4589V60.9589C88.7527 60.9589 88.9766 61.1827 88.9766 61.4589H88.4766ZM88.4766 67.8563H88.9766C88.9766 68.1325 88.7527 68.3563 88.4766 68.3563V67.8563ZM82.3203 67.8563L81.8358 67.7327C81.8923 67.5113 82.0918 67.3563 82.3203 67.3563V67.8563ZM81.96 69.2684L81.4755 69.1449L81.4755 69.1448L81.96 69.2684ZM80.2295 73.5712L80.6651 73.8167L80.665 73.8167L80.2295 73.5712ZM79.5303 74.8114L79.1767 75.165C79.018 75.0063 78.9845 74.7613 79.0947 74.5658L79.5303 74.8114ZM80.5371 75.8182L80.8907 75.4647L80.8907 75.4647L80.5371 75.8182ZM83.8184 79.1005L84.172 78.747C84.3672 78.9422 84.3672 79.2588 84.1719 79.454L83.8184 79.1005ZM79.2949 83.6239L79.6485 83.9775C79.5547 84.0712 79.4275 84.1239 79.2949 84.1239C79.1623 84.1239 79.0351 84.0712 78.9413 83.9774L79.2949 83.6239ZM76.0977 80.4257L76.4512 80.0721L76.4513 80.0722L76.0977 80.4257ZM75.0664 79.3944L74.8108 78.9647C75.0074 78.8478 75.2582 78.8791 75.42 79.0409L75.0664 79.3944ZM73.8135 80.1395L73.5579 79.7098L73.8135 80.1395ZM69.4346 81.9969L69.303 81.5146L69.303 81.5146L69.4346 81.9969ZM68.0527 82.3739H67.5527C67.5527 82.1484 67.7036 81.9509 67.9212 81.8915L68.0527 82.3739ZM68.0527 88.2811H68.5527C68.5527 88.5573 68.3289 88.7811 68.0527 88.7811V88.2811ZM61.6553 88.2811V88.7811C61.3791 88.7811 61.1553 88.5573 61.1553 88.2811H61.6553ZM64.8535 74.1981V74.6981H64.8535L64.8535 74.1981ZM74.3945 64.6571L74.8945 64.6571V64.6571H74.3945ZM64.8535 55.1161L64.8535 54.6161H64.8535V55.1161ZM55.3125 64.6571H54.8125V64.6571L55.3125 64.6571ZM61.1982 124.832L61.2281 124.333C61.3605 124.341 61.4843 124.401 61.5723 124.5C61.6603 124.599 61.7053 124.729 61.6973 124.862L61.1982 124.832ZM4.70703 68.7684L4.20816 68.802C4.19846 68.6581 4.25143 68.5169 4.35345 68.4149L4.70703 68.7684ZM10.0957 63.3788L9.74212 63.0253C9.83589 62.9315 9.96308 62.8788 10.0957 62.8788C10.2283 62.8788 10.3555 62.9315 10.4493 63.0253L10.0957 63.3788ZM16.1133 69.3973L16.4669 69.0438C16.5489 69.1259 16.5999 69.234 16.611 69.3495L16.1133 69.3973ZM60.9375 113.468L61.4359 113.507C61.4141 113.782 61.1733 113.988 60.898 113.966L60.9375 113.468ZM61.2344 109.729L61.2738 109.231C61.406 109.241 61.5287 109.304 61.6148 109.405C61.7008 109.506 61.7433 109.637 61.7328 109.769L61.2344 109.729ZM19.6377 64.6561V64.1561C19.9138 64.1561 20.1377 64.38 20.1377 64.6561H19.6377ZM16.6777 64.6561V65.1561C16.5451 65.1561 16.418 65.1035 16.3242 65.0097L16.6777 64.6561ZM11.4219 59.4012L11.0684 59.7548L11.0682 59.7547L11.4219 59.4012ZM10.0967 58.0751L9.74313 57.7215C9.83692 57.6277 9.96413 57.5751 10.0968 57.5751C10.2294 57.5751 10.3566 57.6278 10.4504 57.7216L10.0967 58.0751ZM8.77051 59.4012L9.12406 59.7548L9.12403 59.7548L8.77051 59.4012ZM3.51465 64.6561L3.86817 65.0097C3.7744 65.1035 3.64724 65.1561 3.51465 65.1561V64.6561ZM0.818359 64.6561H0.318359C0.318359 64.38 0.542217 64.1561 0.818359 64.1561L0.818359 64.6561ZM60.9736 128.576L61.4727 128.606C61.4562 128.882 61.2194 129.092 60.9438 129.075L60.9736 128.576ZM64.8535 70.4481V70.9481H64.8535L64.8535 70.4481ZM59.0625 64.6571H58.5625V64.6571L59.0625 64.6571ZM64.8535 58.8661L64.8535 58.3661H64.8535V58.8661ZM70.6445 64.6571L71.1445 64.6571V64.6571H70.6445ZM64.8535 128.691V129.191C64.7209 129.191 64.5937 129.139 64.5 129.045C64.4062 128.951 64.3535 128.824 64.3535 128.691H64.8535ZM105.941 113.773L106.325 113.452C106.41 113.554 106.451 113.685 106.439 113.817C106.428 113.949 106.364 114.072 106.262 114.157L105.941 113.773ZM104.737 112.336L104.354 112.657L104.354 112.657L104.737 112.336ZM103.534 110.898L103.213 110.515C103.315 110.43 103.446 110.389 103.578 110.4C103.71 110.412 103.832 110.476 103.918 110.577L103.534 110.898ZM68.7832 124.815L68.8153 125.314C68.6718 125.324 68.5313 125.271 68.4296 125.169L68.7832 124.815ZM63.5752 119.607L63.2216 119.961C63.0264 119.766 63.0264 119.449 63.2216 119.254L63.5752 119.607ZM69.8096 113.373L69.456 113.019C69.5376 112.938 69.6448 112.887 69.7596 112.875L69.8096 113.373ZM113.664 68.5721L113.703 68.0737C113.836 68.0841 113.958 68.1467 114.044 68.2475C114.13 68.3484 114.173 68.4794 114.163 68.6116L113.664 68.5721ZM111.795 68.4247L111.756 68.9231L111.755 68.9231L111.795 68.4247ZM109.926 68.2762L109.427 68.2368C109.438 68.1046 109.5 67.9819 109.601 67.8959C109.702 67.8098 109.833 67.7673 109.965 67.7778L109.926 68.2762ZM64.8525 109.873H64.3525C64.3525 109.597 64.5764 109.373 64.8525 109.373V109.873ZM64.8525 113.026H65.3525C65.3525 113.159 65.2999 113.286 65.2061 113.38L64.8525 113.026ZM59.5977 118.281L59.244 117.928L59.2441 117.928L59.5977 118.281ZM58.2725 119.607L57.9189 119.961C57.7237 119.766 57.7236 119.449 57.9188 119.254L58.2725 119.607ZM64.8535 126.188L65.2071 125.835C65.3008 125.929 65.3535 126.056 65.3535 126.188H64.8535ZM113.946 105.773L114.329 106.095C114.244 106.196 114.122 106.26 113.99 106.271C113.858 106.283 113.727 106.242 113.625 106.156L113.946 105.773ZM128.772 68.536L128.802 68.0369C128.935 68.0448 129.058 68.1049 129.146 68.2041C129.234 68.3033 129.279 68.4335 129.272 68.5658L128.772 68.536ZM126.901 68.4247L126.872 68.9238L126.871 68.9238L126.901 68.4247ZM125.029 68.3124L124.53 68.2825C124.538 68.1502 124.598 68.0263 124.698 67.9383C124.797 67.8503 124.927 67.8053 125.059 67.8133L125.029 68.3124ZM111.073 103.363L110.752 103.746C110.54 103.569 110.513 103.254 110.69 103.042L111.073 103.363ZM14.5039 85.4139L14.699 85.8743L14.6989 85.8743L14.5039 85.4139ZM16.2295 84.6825L16.6898 84.4874C16.7976 84.7416 16.6789 85.0351 16.4246 85.1428L16.2295 84.6825ZM14.9736 81.3124L14.8166 80.8377C14.9425 80.796 15.0798 80.8061 15.1983 80.8657C15.3168 80.9253 15.4067 81.0295 15.4484 81.1554L14.9736 81.3124ZM11.4131 82.4901L10.9384 82.6471C10.8517 82.3849 10.9939 82.1021 11.2561 82.0154L11.4131 82.4901ZM12.7773 86.1454L12.9724 86.6058C12.7181 86.7135 12.4247 86.5947 12.317 86.3405L12.7773 86.1454ZM108.742 111.285L109.085 111.649C108.988 111.74 108.86 111.789 108.727 111.785C108.595 111.781 108.469 111.724 108.378 111.628L108.742 111.285ZM111.488 108.539L111.831 108.175C112.032 108.364 112.042 108.681 111.852 108.882L111.488 108.539ZM108.758 105.969L108.394 105.626C108.485 105.529 108.61 105.473 108.743 105.469C108.875 105.465 109.004 105.514 109.101 105.605L108.758 105.969ZM106.172 108.555L105.808 108.897C105.619 108.696 105.628 108.38 105.829 108.191L106.172 108.555ZM4.68652 60.8446L4.18749 60.8135C6.08165 30.4479 30.2733 6.12473 60.5826 4.02061L60.6172 4.51941L60.6518 5.01821C30.8425 7.08762 7.04846 31.0111 5.18555 60.8757L4.68652 60.8446ZM60.6172 4.51941L60.9707 4.16582L66.4844 9.67852L66.1309 10.0321L65.7773 10.3857L60.2637 4.87299L60.6172 4.51941ZM66.1309 10.0321L66.4844 10.3857L60.6104 16.2587L60.2568 15.9052L59.9033 15.5516L65.7773 9.67852L66.1309 10.0321ZM60.2568 15.9052L60.3032 16.403C49.4497 17.4139 39.6321 22.0034 32.0485 28.9802L31.71 28.6122L31.3714 28.2442C39.1106 21.1244 49.1317 16.4392 60.2105 15.4073L60.2568 15.9052ZM31.71 28.6122L32.0779 28.2737L34.617 31.0334L34.249 31.3719L33.8811 31.7105L31.342 28.9507L31.71 28.6122ZM34.249 31.3719L33.9105 31.004C42.0529 23.5132 52.9181 18.9403 64.8535 18.9403V19.4403V19.9403C53.1786 19.9403 42.5527 24.4122 34.5875 31.7399L34.249 31.3719ZM64.8535 19.4403H64.3535V16.6132H64.8535H65.3535V19.4403H64.8535ZM64.8535 16.6132L64.4999 16.2596L69.7548 11.0038L70.1084 11.3573L70.462 11.7108L65.2071 16.9667L64.8535 16.6132ZM70.1084 11.3573L69.7548 11.0037L71.081 9.67757L71.4346 10.0311L71.7881 10.3847L70.462 11.7109L70.1084 11.3573ZM71.4346 10.0311L71.0811 10.3848L69.755 9.05962L70.1084 8.70593L70.4618 8.35225L71.788 9.67744L71.4346 10.0311ZM70.1084 8.70593L69.7548 9.05949L64.499 3.80363L64.8525 3.45007L65.2061 3.09652L70.462 8.35238L70.1084 8.70593ZM64.8525 3.45007H64.3525V0.621948H64.8525H65.3525V3.45007H64.8525ZM64.8525 0.621948L64.8525 1.12195C31.1124 1.12235 3.51575 27.4224 1.44337 60.6414L0.944336 60.6102L0.445306 60.5791C2.55037 26.8364 30.5809 0.12236 64.8525 0.121948L64.8525 0.621948ZM0.944336 60.6102L0.97559 60.1112L4.71778 60.3456L4.68652 60.8446L4.65527 61.3436L0.913082 61.1093L0.944336 60.6102ZM126.385 64.6561V64.1561H128.888V64.6561V65.1561H126.385V64.6561ZM128.888 64.6561H128.388C128.387 30.9131 102.083 3.31457 68.8605 1.24598L68.8916 0.746948L68.9227 0.24791C102.669 2.34911 129.387 30.3816 129.388 64.6561H128.888ZM68.8916 0.746948L69.3906 0.777946L69.1582 4.52013L68.6592 4.48914L68.1601 4.45814L68.3926 0.71595L68.8916 0.746948ZM68.6592 4.48914L68.6903 3.9901C99.1624 5.88757 123.549 30.2391 125.509 60.6953L125.01 60.7274L124.511 60.7595C122.584 30.8056 98.5975 6.85432 68.6281 4.98817L68.6592 4.48914ZM125.01 60.7274L125.363 61.081L120.156 66.288L119.803 65.9344L119.449 65.5809L124.656 60.3739L125.01 60.7274ZM119.803 65.9344L119.449 66.288L113.214 60.0527L113.567 59.6991L113.921 59.3455L120.156 65.5809L119.803 65.9344ZM113.567 59.6991L113.07 59.7491C110.738 36.5588 92.0602 18.1912 68.7291 16.344L68.7686 15.8456L68.808 15.3471C92.6222 17.2326 111.685 35.9788 114.065 59.6491L113.567 59.6991ZM68.7686 15.8456L69.267 15.8852L68.9701 19.6234L68.4717 19.5839L67.9733 19.5443L68.2701 15.806L68.7686 15.8456ZM68.4717 19.5839L68.5111 19.0854C92.0477 20.9486 110.568 40.641 110.568 64.6571H110.068H109.568C109.568 41.1668 91.4528 21.9047 68.4322 20.0823L68.4717 19.5839ZM110.068 64.6571V64.1571H113.223V64.6571V65.1571H110.068V64.6571ZM113.223 64.6571L113.576 64.3036L118.831 69.5584L118.478 69.912L118.124 70.2655L112.869 65.0107L113.223 64.6571ZM118.478 69.912L118.831 69.5583L120.157 70.8835L119.804 71.2372L119.45 71.5909L118.124 70.2657L118.478 69.912ZM119.804 71.2372L119.45 70.8836L126.031 64.3026L126.385 64.6561L126.738 65.0097L120.157 71.5907L119.804 71.2372ZM39.8486 18.3905L39.6234 17.9441C40.7947 17.3531 41.8104 16.793 42.9066 16.326L43.1025 16.786L43.2985 17.246C42.2419 17.6962 41.288 18.2242 40.0739 18.8369L39.8486 18.3905ZM43.1025 16.786L42.6426 16.9821L41.9073 15.2575L42.3672 15.0614L42.8271 14.8653L43.5625 16.5899L43.1025 16.786ZM42.3672 15.0614L41.9072 15.2573L41.1728 13.5327L41.6328 13.3368L42.0928 13.1409L42.8272 14.8655L42.3672 15.0614ZM41.6328 13.3368L41.8288 13.7968C40.6237 14.3102 39.4428 14.9552 38.3844 15.4892L38.1592 15.0428L37.9339 14.5965C38.9527 14.0824 40.1922 13.4071 41.4368 12.8768L41.6328 13.3368ZM38.1592 15.0428L38.6056 14.8176L40.295 18.1652L39.8486 18.3905L39.4023 18.6158L37.7128 15.2681L38.1592 15.0428ZM33.7773 22.2469L33.4833 21.8425C34.3682 21.1992 35.6085 20.3364 36.4934 19.7934L36.7549 20.2196L37.0164 20.6458C36.1646 21.1684 34.949 22.0134 34.0714 22.6514L33.7773 22.2469ZM36.7549 20.2196L36.3287 20.4811L35.3483 18.8835L35.7744 18.6219L36.2006 18.3604L37.181 19.9581L36.7549 20.2196ZM35.7744 18.6219L35.3482 18.8834L34.3677 17.2847L34.7939 17.0233L35.2202 16.7619L36.2006 18.3605L35.7744 18.6219ZM34.7939 17.0233L35.0554 17.4495C34.0799 18.0481 32.7721 18.9596 31.8663 19.6182L31.5723 19.2137L31.2783 18.8093C32.1916 18.1454 33.5238 17.216 34.5325 16.5971L34.7939 17.0233ZM31.5723 19.2137L31.9767 18.9197L34.1818 21.9529L33.7773 22.2469L33.3729 22.541L31.1678 19.5078L31.5723 19.2137ZM19.7793 61.0487L19.2808 61.0094C20.1115 50.481 24.5088 40.9554 31.2685 33.64L31.6357 33.9794L32.003 34.3187C25.3902 41.475 21.0901 50.7912 20.2777 61.088L19.7793 61.0487ZM31.6357 33.9794L31.2964 34.3466L28.5425 31.8017L28.8818 31.4344L29.2212 31.0672L31.9751 33.6122L31.6357 33.9794ZM28.8818 31.4344L29.2491 31.7738C22.0854 39.5264 17.4203 49.6277 16.5395 60.7931L16.041 60.7538L15.5426 60.7145C16.4417 49.3174 21.204 39.0067 28.5146 31.0951L28.8818 31.4344ZM16.041 60.7538L16.0803 60.2553L19.8186 60.5503L19.7793 61.0487L19.74 61.5472L16.0017 61.2522L16.041 60.7538ZM71.8027 85.1874L71.639 84.715C72.5257 84.4076 73.3859 84.0431 74.2141 83.6248L74.4395 84.0712L74.6648 84.5175C73.7967 84.9559 72.8953 85.3379 71.9665 85.6598L71.8027 85.1874ZM74.4395 84.0712L74.793 83.7176L78.3233 87.2479L77.9697 87.6014L77.6162 87.955L74.0859 84.4247L74.4395 84.0712ZM77.9697 87.6014L78.3232 87.2478L79.6493 88.573L79.2959 88.9266L78.9425 89.2803L77.6163 87.9551L77.9697 87.6014ZM79.2959 88.9266L78.9425 88.573L80.2686 87.2478L80.6221 87.6014L80.9755 87.9551L79.6493 89.2803L79.2959 88.9266ZM80.6221 87.6014L80.2685 87.2479L88.7695 78.7469L89.123 79.1005L89.4766 79.454L80.9756 87.955L80.6221 87.6014ZM89.123 79.1005L88.7695 79.454L87.4433 78.1278L87.7969 77.7743L88.1504 77.4207L89.4766 78.7469L89.123 79.1005ZM87.7969 77.7743L87.4434 78.1279L83.8057 74.4912L84.1592 74.1376L84.5127 73.784L88.1504 77.4207L87.7969 77.7743ZM84.1592 74.1376L83.7083 73.9215C84.0905 73.1241 84.4251 72.299 84.7059 71.4494L85.1807 71.6063L85.6554 71.7632C85.3608 72.6544 85.0101 73.5191 84.6101 74.3537L84.1592 74.1376ZM85.1807 71.6063V71.1063H92.2266V71.6063V72.1063H85.1807V71.6063ZM92.2266 71.6063H91.7266V57.7089H92.2266H92.7266V71.6063H92.2266ZM92.2266 57.7089V58.2089H85.0312V57.7089V57.2089H92.2266V57.7089ZM85.0312 57.7089L84.5598 57.8753C84.277 57.0743 83.946 56.2954 83.5717 55.5415L84.0195 55.3192L84.4674 55.0969C84.8592 55.8861 85.2061 56.7023 85.5027 57.5424L85.0312 57.7089ZM84.0195 55.3192L83.666 54.9657L88.7695 49.8621L89.123 50.2157L89.4766 50.5693L84.3731 55.6728L84.0195 55.3192ZM89.123 50.2157L88.7695 50.5693L78.9423 40.7421L79.2959 40.3885L79.6495 40.035L89.4766 49.8621L89.123 50.2157ZM79.2959 40.3885L79.6495 40.7421L74.5069 45.8847L74.1533 45.5311L73.7998 45.1776L78.9423 40.035L79.2959 40.3885ZM74.1533 45.5311L73.9344 45.9807C73.1925 45.6193 72.4265 45.3003 71.6388 45.0269L71.8027 44.5546L71.9667 44.0822C72.7924 44.3688 73.5951 44.7031 74.3722 45.0816L74.1533 45.5311ZM71.8027 44.5546H71.3027V37.285H71.8027H72.3027V44.5546H71.8027ZM71.8027 37.285V37.785H57.9053V37.285V36.785H71.8027V37.285ZM57.9053 37.285H58.4053V44.4833H57.9053H57.4053V37.285H57.9053ZM57.9053 44.4833L58.0648 44.9571C57.254 45.2301 56.4658 45.5512 55.7034 45.9166L55.4873 45.4657L55.2712 45.0148C56.0699 44.632 56.8959 44.2955 57.7458 44.0094L57.9053 44.4833ZM55.4873 45.4657L55.1337 45.8192L51.3837 42.0682L51.7373 41.7147L52.0909 41.3612L55.8409 45.1122L55.4873 45.4657ZM51.7373 41.7147L51.3838 42.0683L50.0576 40.7421L50.4111 40.3885L50.7647 40.035L52.0909 41.3612L51.7373 41.7147ZM50.4111 40.3885L50.7647 40.7421L42.2637 49.2431L41.9102 48.8895L41.5566 48.536L50.0576 40.035L50.4111 40.3885ZM41.9102 48.8895L42.2638 49.243L40.9386 50.5691L40.585 50.2157L40.2313 49.8623L41.5565 48.5361L41.9102 48.8895ZM40.585 50.2157L40.9386 49.8623L42.2638 51.1884L41.9102 51.5419L41.5565 51.8953L40.2313 50.5691L40.585 50.2157ZM41.9102 51.5419L42.2637 51.1883L45.9082 54.8328L45.5547 55.1864L45.2011 55.54L41.5566 51.8954L41.9102 51.5419ZM45.5547 55.1864L46.0011 55.4116C45.6003 56.2058 45.2478 57.0283 44.9491 57.8752L44.4775 57.7089L44.006 57.5425C44.3193 56.6544 44.6887 55.7926 45.1083 54.9612L45.5547 55.1864ZM44.4775 57.7089V58.2089H37.4805V57.7089V57.2089H44.4775V57.7089ZM37.4805 57.7089H37.9805V71.6063H37.4805H36.9805V57.7089H37.4805ZM37.4805 71.6063V71.1063H44.3291V71.6063V72.1063H37.4805V71.6063ZM44.3291 71.6063L44.8038 71.4494C45.1001 72.3455 45.4551 73.2143 45.8634 74.0511L45.4141 74.2704L44.9647 74.4897C44.5369 73.6129 44.1649 72.7026 43.8544 71.7633L44.3291 71.6063ZM45.4141 74.2704L45.7676 74.6239L42.2637 78.1278L41.9102 77.7743L41.5566 77.4207L45.0605 73.9168L45.4141 74.2704ZM41.9102 77.7743L42.2638 78.1277L40.9386 79.4539L40.585 79.1005L40.2313 78.747L41.5565 77.4209L41.9102 77.7743ZM40.585 79.1005L40.9386 78.747L42.2638 80.0732L41.9102 80.4266L41.5565 80.7801L40.2313 79.4539L40.585 79.1005ZM41.9102 80.4266L42.2637 80.0731L49.4385 87.2479L49.085 87.6014L48.7314 87.955L41.5566 80.7802L41.9102 80.4266ZM49.085 87.6014L49.4384 87.2478L50.7646 88.573L50.4111 88.9266L50.0577 89.2803L48.7315 87.9551L49.085 87.6014ZM50.4111 88.9266L50.0577 88.573L51.3839 87.2478L51.7373 87.6014L52.0907 87.9551L50.7646 89.2803L50.4111 88.9266ZM51.7373 87.6014L51.3838 87.2479L54.8476 83.784L55.2012 84.1376L55.5547 84.4911L52.0909 87.955L51.7373 87.6014ZM55.2012 84.1376L55.4239 83.6899C56.2723 84.1121 57.1543 84.4784 58.0648 84.7848L57.9053 85.2587L57.7458 85.7326C56.792 85.4116 55.8677 85.0277 54.9784 84.5852L55.2012 84.1376ZM57.9053 85.2587H58.4053V92.0311H57.9053H57.4053V85.2587H57.9053ZM57.9053 92.0311V91.5311H71.8027V92.0311V92.5311H57.9053V92.0311ZM71.8027 92.0311H71.3027V85.1874H71.8027H72.3027V92.0311H71.8027ZM61.6553 82.4139L61.5292 82.8978L60.1278 82.5325L60.2539 82.0487L60.38 81.5649L61.7814 81.9301L61.6553 82.4139ZM60.2539 82.0487L60.1275 82.5325C58.5063 82.1089 56.9729 81.4645 55.5572 80.6366L55.8096 80.205L56.062 79.7733C57.4012 80.5565 58.8501 81.1651 60.3803 81.5649L60.2539 82.0487ZM55.8096 80.205L55.5572 80.6366L54.3081 79.9061L54.5605 79.4745L54.813 79.0429L56.062 79.7733L55.8096 80.205ZM54.5605 79.4745L54.9143 79.8279L53.8918 80.8513L53.5381 80.4979L53.1844 80.1445L54.2068 79.1211L54.5605 79.4745ZM53.5381 80.4979L53.8916 80.8515L50.7646 83.9775L50.4111 83.6239L50.0576 83.2703L53.1846 80.1443L53.5381 80.4979ZM50.4111 83.6239L50.0576 83.9775L45.5341 79.454L45.8877 79.1005L46.2412 78.7469L50.7647 83.2703L50.4111 83.6239ZM45.8877 79.1005L45.5341 78.7469L49.705 74.576L50.0586 74.9296L50.4121 75.2831L46.2412 79.454L45.8877 79.1005ZM50.0586 74.9296L49.6248 75.1781L48.9119 73.934L49.3457 73.6854L49.7795 73.4368L50.4924 74.681L50.0586 74.9296ZM49.3457 73.6854L48.9119 73.9341C48.1035 72.5239 47.4753 71.0005 47.0653 69.3919L47.5498 69.2684L48.0343 69.145C48.4212 70.6628 49.0144 72.1022 49.7795 73.4367L49.3457 73.6854ZM47.5498 69.2684L47.0653 69.3921L46.705 67.98L47.1895 67.8563L47.6739 67.7327L48.0343 69.1448L47.5498 69.2684ZM47.1895 67.8563V68.3563H41.2305V67.8563V67.3563H47.1895V67.8563ZM41.2305 67.8563H40.7305V61.4589H41.2305H41.7305V67.8563H41.2305ZM41.2305 61.4589V60.9589H47.2744V61.4589V61.9589H41.2305V61.4589ZM47.2744 61.4589L46.7929 61.3243L47.1757 59.9542L47.6572 60.0887L48.1388 60.2233L47.756 61.5934L47.2744 61.4589ZM47.6572 60.0887L47.1756 59.9543C47.6113 58.3937 48.2465 56.917 49.0555 55.5559L49.4854 55.8114L49.9152 56.0669C49.151 57.3524 48.5507 58.7478 48.1388 60.2232L47.6572 60.0887ZM49.4854 55.8114L49.0556 55.5558L49.8007 54.3029L50.2305 54.5585L50.6602 54.814L49.9151 56.067L49.4854 55.8114ZM50.2305 54.5585L49.8769 54.912L48.8457 53.8808L49.1992 53.5272L49.5528 53.1737L50.584 54.2049L50.2305 54.5585ZM49.1992 53.5272L48.8457 53.8808L45.5342 50.5703L45.8877 50.2167L46.2412 49.8631L49.5527 53.1736L49.1992 53.5272ZM45.8877 50.2167L45.5341 49.8632L50.0575 45.3387L50.4111 45.6923L50.7647 46.0458L46.2413 50.5702L45.8877 50.2167ZM50.4111 45.6923L50.7646 45.3387L54.1611 48.7342L53.8076 49.0878L53.4541 49.4414L50.0576 46.0459L50.4111 45.6923ZM53.8076 49.0878L54.1613 48.7344L55.1672 49.7412L54.8135 50.0946L54.4598 50.448L53.4539 49.4411L53.8076 49.0878ZM54.8135 50.0946L54.5679 49.6591L55.8082 48.9598L56.0537 49.3954L56.2993 49.8309L55.059 50.5302L54.8135 50.0946ZM56.0537 49.3954L55.8082 48.9598C57.1541 48.2012 58.6019 47.6072 60.1275 47.2085L60.2539 47.6923L60.3803 48.176C58.9403 48.5524 57.5723 49.1134 56.2992 49.831L56.0537 49.3954ZM60.2539 47.6923L60.1275 47.2085L61.5289 46.8423L61.6553 47.326L61.7817 47.8098L60.3803 48.176L60.2539 47.6923ZM61.6553 47.326H61.1553V41.035H61.6553H62.1553V47.326H61.6553ZM61.6553 41.035V40.535H68.0527V41.035V41.535H61.6553V41.035ZM68.0527 41.035H68.5527V47.3661H68.0527H67.5527V41.035H68.0527ZM68.0527 47.3661L68.1843 46.8837L69.5662 47.2607L69.4346 47.743L69.303 48.2254L67.9212 47.8485L68.0527 47.3661ZM69.4346 47.743L69.5661 47.2606C71.0694 47.6704 72.4948 48.2682 73.8181 49.0271L73.5693 49.4608L73.3206 49.8946C72.0696 49.1772 70.7229 48.6124 69.3031 48.2254L69.4346 47.743ZM73.5693 49.4608L73.8182 49.0271L75.0623 49.741L74.8135 50.1747L74.5646 50.6084L73.3205 49.8945L73.5693 49.4608ZM74.8135 50.1747L74.4599 49.8211L78.9423 45.3387L79.2959 45.6923L79.6495 46.0458L75.167 50.5282L74.8135 50.1747ZM79.2959 45.6923L79.6495 45.3387L84.1729 49.8621L83.8193 50.2157L83.4658 50.5693L78.9423 46.0458L79.2959 45.6923ZM83.8193 50.2157L84.1729 50.5693L79.7129 55.0292L79.3594 54.6757L79.0058 54.3221L83.4658 49.8621L83.8193 50.2157ZM79.3594 54.6757L79.791 54.4232L80.5215 55.6723L80.0898 55.9247L79.6582 56.1771L78.9278 54.9281L79.3594 54.6757ZM80.0898 55.9247L80.5215 55.6723C81.2988 57.0016 81.911 58.4386 82.3341 59.9543L81.8525 60.0887L81.371 60.2232C80.971 58.7905 80.3925 57.4328 79.6582 56.1771L80.0898 55.9247ZM81.8525 60.0887L82.3341 59.9542L82.7169 61.3243L82.2354 61.4589L81.7538 61.5934L81.371 60.2233L81.8525 60.0887ZM82.2354 61.4589V60.9589H88.4766V61.4589V61.9589H82.2354V61.4589ZM88.4766 61.4589H88.9766V67.8563H88.4766H87.9766V61.4589H88.4766ZM88.4766 67.8563V68.3563H82.3203V67.8563V67.3563H88.4766V67.8563ZM82.3203 67.8563L82.8048 67.98L82.4444 69.3921L81.96 69.2684L81.4755 69.1448L81.8358 67.7327L82.3203 67.8563ZM81.96 69.2684L82.4445 69.392C82.0455 70.9563 81.4411 72.4399 80.6651 73.8167L80.2295 73.5712L79.7939 73.3257C80.5281 72.0231 81.0989 70.6213 81.4755 69.1449L81.96 69.2684ZM80.2295 73.5712L80.665 73.8167L79.9658 75.057L79.5303 74.8114L79.0947 74.5658L79.7939 73.3256L80.2295 73.5712ZM79.5303 74.8114L79.8838 74.4578L80.8907 75.4647L80.5371 75.8182L80.1836 76.1718L79.1767 75.165L79.5303 74.8114ZM80.5371 75.8182L80.8907 75.4647L84.172 78.747L83.8184 79.1005L83.4648 79.454L80.1835 76.1717L80.5371 75.8182ZM83.8184 79.1005L84.1719 79.454L79.6485 83.9775L79.2949 83.6239L78.9414 83.2703L83.4648 78.7469L83.8184 79.1005ZM79.2949 83.6239L78.9413 83.9774L75.744 80.7792L76.0977 80.4257L76.4513 80.0722L79.6485 83.2704L79.2949 83.6239ZM76.0977 80.4257L75.7441 80.7792L74.7129 79.748L75.0664 79.3944L75.42 79.0409L76.4512 80.0721L76.0977 80.4257ZM75.0664 79.3944L75.322 79.8242L74.069 80.5693L73.8135 80.1395L73.5579 79.7098L74.8108 78.9647L75.0664 79.3944ZM73.8135 80.1395L74.069 80.5693C72.6771 81.3971 71.1652 82.0433 69.5661 82.4793L69.4346 81.9969L69.303 81.5146C70.8144 81.1025 72.2429 80.4918 73.5579 79.7098L73.8135 80.1395ZM69.4346 81.9969L69.5662 82.4793L68.1843 82.8563L68.0527 82.3739L67.9212 81.8915L69.303 81.5146L69.4346 81.9969ZM68.0527 82.3739H68.5527V88.2811H68.0527H67.5527V82.3739H68.0527ZM68.0527 88.2811V88.7811H61.6553V88.2811V87.7811H68.0527V88.2811ZM61.6553 88.2811H61.1553V82.4139H61.6553H62.1553V88.2811H61.6553ZM64.8535 74.1981V73.6981C69.8466 73.6981 73.8945 69.6505 73.8945 64.6571H74.3945H74.8945C74.8945 70.2028 70.3989 74.6981 64.8535 74.6981V74.1981ZM74.3945 64.6571L73.8945 64.6571C73.8943 59.6639 69.8465 55.6161 64.8535 55.6161V55.1161V54.6161C70.3988 54.6161 74.8943 59.1116 74.8945 64.6571L74.3945 64.6571ZM64.8535 55.1161L64.8535 55.6161C59.8608 55.6163 55.8127 59.664 55.8125 64.6571L55.3125 64.6571L54.8125 64.6571C54.8127 59.1117 59.3085 54.6164 64.8535 54.6161L64.8535 55.1161ZM55.3125 64.6571H55.8125C55.8125 69.6503 59.8606 73.6979 64.8535 73.6981L64.8535 74.1981L64.8535 74.6981C59.3084 74.6978 54.8125 70.2027 54.8125 64.6571H55.3125ZM61.1982 124.832L61.1684 125.331C30.6871 123.509 6.25736 99.2225 4.20816 68.802L4.70703 68.7684L5.2059 68.7348C7.2213 98.6535 31.2497 122.54 61.2281 124.333L61.1982 124.832ZM4.70703 68.7684L4.35345 68.4149L9.74212 63.0253L10.0957 63.3788L10.4493 63.7323L5.06062 69.122L4.70703 68.7684ZM10.0957 63.3788L10.4493 63.0253L16.4669 69.0438L16.1133 69.3973L15.7597 69.7509L9.74212 63.7323L10.0957 63.3788ZM16.1133 69.3973L16.611 69.3495C18.8486 92.6414 37.5736 111.116 60.977 112.969L60.9375 113.468L60.898 113.966C37.0102 112.075 17.8995 93.2193 15.6156 69.4452L16.1133 69.3973ZM60.9375 113.468L60.4391 113.428L60.7359 109.69L61.2344 109.729L61.7328 109.769L61.4359 113.507L60.9375 113.468ZM61.2344 109.729L61.1949 110.228C37.6583 108.365 19.1377 88.6726 19.1377 64.6561H19.6377H20.1377C20.1377 88.1468 38.2531 107.409 61.2738 109.231L61.2344 109.729ZM19.6377 64.6561V65.1561H16.6777V64.6561V64.1561H19.6377V64.6561ZM16.6777 64.6561L16.3242 65.0097L11.0684 59.7548L11.4219 59.4012L11.7754 59.0477L17.0313 64.3025L16.6777 64.6561ZM11.4219 59.4012L11.0682 59.7547L9.743 58.4285L10.0967 58.0751L10.4504 57.7216L11.7756 59.0478L11.4219 59.4012ZM10.0967 58.0751L10.4502 58.4286L9.12406 59.7548L8.77051 59.4012L8.41695 59.0477L9.74313 57.7215L10.0967 58.0751ZM8.77051 59.4012L9.12403 59.7548L3.86817 65.0097L3.51465 64.6561L3.16113 64.3025L8.41699 59.0477L8.77051 59.4012ZM3.51465 64.6561V65.1561H0.818359V64.6561V64.1561H3.51465V64.6561ZM0.818359 64.6561H1.31836C1.31836 98.4526 27.7061 126.086 61.0035 128.077L60.9736 128.576L60.9438 129.075C27.1215 127.053 0.318359 98.9849 0.318359 64.6561H0.818359ZM60.9736 128.576L60.4745 128.546L60.6991 124.802L61.1982 124.832L61.6973 124.862L61.4727 128.606L60.9736 128.576ZM64.8535 70.4481L64.8535 70.9481C61.3794 70.9478 58.5625 68.1316 58.5625 64.6571H59.0625H59.5625C59.5625 67.5792 61.9316 69.9479 64.8536 69.9481L64.8535 70.4481ZM59.0625 64.6571L58.5625 64.6571C58.5627 61.1829 61.3795 58.3664 64.8535 58.3661L64.8535 58.8661L64.8536 59.3661C61.9317 59.3663 59.5627 61.7352 59.5625 64.6571L59.0625 64.6571ZM64.8535 58.8661V58.3661C68.3278 58.3661 71.1443 61.1827 71.1445 64.6571L70.6445 64.6571L70.1445 64.6571C70.1443 61.735 67.7755 59.3661 64.8535 59.3661V58.8661ZM70.6445 64.6571H71.1445C71.1445 68.1317 68.3279 70.9481 64.8535 70.9481V70.4481V69.9481C67.7756 69.9481 70.1445 67.5794 70.1445 64.6571H70.6445ZM64.8535 128.691V128.191C80.3684 128.191 94.588 122.628 105.62 113.39L105.941 113.773L106.262 114.157C95.0568 123.54 80.6117 129.191 64.8535 129.191V128.691ZM105.941 113.773L105.558 114.094L104.354 112.657L104.737 112.336L105.121 112.015L106.325 113.452L105.941 113.773ZM104.737 112.336L104.354 112.657L103.151 111.219L103.534 110.898L103.918 110.577L105.121 112.015L104.737 112.336ZM103.534 110.898L103.855 111.282C94.246 119.328 82.1138 124.459 68.8153 125.314L68.7832 124.815L68.7511 124.316C81.8301 123.475 93.7614 118.43 103.213 110.515L103.534 110.898ZM68.7832 124.815L68.4296 125.169L63.2216 119.961L63.5752 119.607L63.9287 119.254L69.1368 124.462L68.7832 124.815ZM63.5752 119.607L63.2216 119.254L69.456 113.019L69.8096 113.373L70.1631 113.726L63.9287 119.961L63.5752 119.607ZM69.8096 113.373L69.7596 112.875C92.9504 110.544 111.318 91.8642 113.166 68.5327L113.664 68.5721L114.163 68.6116C112.277 92.4262 93.5305 111.491 69.8596 113.87L69.8096 113.373ZM113.664 68.5721L113.625 69.0706L111.756 68.9231L111.795 68.4247L111.834 67.9262L113.703 68.0737L113.664 68.5721ZM111.795 68.4247L111.755 68.9231L109.886 68.7747L109.926 68.2762L109.965 67.7778L111.835 67.9263L111.795 68.4247ZM109.926 68.2762L110.424 68.3157C108.561 91.8522 88.8688 110.373 64.8525 110.373V109.873V109.373C88.343 109.373 107.605 91.2573 109.427 68.2368L109.926 68.2762ZM64.8525 109.873H65.3525V113.026H64.8525H64.3525V109.873H64.8525ZM64.8525 113.026L65.2061 113.38L59.9512 118.635L59.5977 118.281L59.2441 117.928L64.499 112.673L64.8525 113.026ZM59.5977 118.281L59.9513 118.635L58.6261 119.961L58.2725 119.607L57.9188 119.254L59.244 117.928L59.5977 118.281ZM58.2725 119.607L58.626 119.254L65.2071 125.835L64.8535 126.188L64.5 126.542L57.9189 119.961L58.2725 119.607ZM64.8535 126.188H65.3535V128.691H64.8535H64.3535V126.188H64.8535ZM113.946 105.773L113.563 105.452C122.045 95.3351 127.435 82.5325 128.273 68.5062L128.772 68.536L129.272 68.5658C128.42 82.8136 122.944 95.8189 114.329 106.095L113.946 105.773ZM128.772 68.536L128.743 69.0351L126.872 68.9238L126.901 68.4247L126.931 67.9256L128.802 68.0369L128.772 68.536ZM126.901 68.4247L126.871 68.9238L124.999 68.8115L125.029 68.3124L125.059 67.8133L126.931 67.9256L126.901 68.4247ZM125.029 68.3124L125.528 68.3422C124.726 81.7594 119.572 94.0037 111.456 103.684L111.073 103.363L110.69 103.042C118.673 93.5199 123.741 81.4783 124.53 68.2825L125.029 68.3124ZM111.073 103.363L111.395 102.98L114.268 105.39L113.946 105.773L113.625 106.156L110.752 103.746L111.073 103.363ZM14.5039 85.4139L14.3088 84.9536L16.0344 84.2221L16.2295 84.6825L16.4246 85.1428L14.699 85.8743L14.5039 85.4139ZM16.2295 84.6825L15.7691 84.8776C15.3628 83.9189 14.8354 82.4871 14.4989 81.4693L14.9736 81.3124L15.4484 81.1554C15.7783 82.1534 16.2963 83.5589 16.6898 84.4874L16.2295 84.6825ZM14.9736 81.3124L15.1307 81.7871L11.5701 82.9648L11.4131 82.4901L11.2561 82.0154L14.8166 80.8377L14.9736 81.3124ZM11.4131 82.4901L11.8878 82.3332C12.2427 83.4066 12.7965 84.9093 13.2377 85.9503L12.7773 86.1454L12.317 86.3405C11.8631 85.2697 11.3 83.7408 10.9384 82.6471L11.4131 82.4901ZM12.7773 86.1454L12.5823 85.685L14.3089 84.9535L14.5039 85.4139L14.6989 85.8743L12.9724 86.6058L12.7773 86.1454ZM108.742 111.285L108.399 110.921C109.334 110.041 110.244 109.132 111.124 108.196L111.488 108.539L111.852 108.882C110.958 109.832 110.034 110.755 109.085 111.649L108.742 111.285ZM111.488 108.539L111.146 108.903L108.415 106.333L108.758 105.969L109.101 105.605L111.831 108.175L111.488 108.539ZM108.758 105.969L109.122 106.311C108.28 107.206 107.409 108.076 106.515 108.919L106.172 108.555L105.829 108.191C106.709 107.362 107.565 106.506 108.394 105.626L108.758 105.969ZM106.172 108.555L106.536 108.212L109.106 110.942L108.742 111.285L108.378 111.628L105.808 108.897L106.172 108.555Z" fill="black" mask="url(#path-2-outside-1_303_1156)"/>
</g>
</svg>
