<svg width="164" height="165" viewBox="0 0 164 165" fill="none" xmlns="http://www.w3.org/2000/svg">
<path d="M153.419 58.5911H105.806V26.8491H153.419V58.5911Z" fill="#F0BC5E"/>
<path d="M153.419 90.3328H105.806V66.5264H153.419V90.3328Z" fill="#F0BC5E"/>
<path d="M95.2252 58.5908H10.5801V90.3328H95.2252V58.5908Z" fill="#F0BC5E"/>
<path d="M47.6123 122.075H10.5801V95.623H47.6123V122.075Z" fill="#F0BC5E"/>
<path d="M89.9346 122.075H52.9023V95.623H89.9346V122.075Z" fill="#F0BC5E"/>
<path d="M150.773 0.397461H108.451C101.158 0.397461 95.2248 6.33056 95.2248 13.6233V48.0104H13.2248C5.93212 48.0104 -0.000976562 53.9435 -0.000976562 61.2362V135.301C-0.000976562 142.593 5.93212 148.527 13.2248 148.527H47.6119V159.107H37.0313V164.397H105.805V159.107H95.2248V148.527H129.612C136.905 148.527 142.838 142.593 142.838 135.301V122.075H150.773C158.066 122.075 163.999 116.142 163.999 108.849V13.6233C163.999 6.33056 158.066 0.397461 150.773 0.397461ZM108.451 5.68778H150.773C155.148 5.68778 158.709 9.24817 158.709 13.6233V16.2684H100.515V13.6233C100.515 9.24817 104.076 5.68778 108.451 5.68778ZM158.709 21.5588V95.6233H100.515V21.5588H158.709ZM89.9345 159.107H52.9023V148.527H89.9345V159.107ZM129.612 143.236H13.2248C8.84973 143.236 5.28935 139.676 5.28935 135.301V132.656H137.547V135.301C137.547 139.676 133.987 143.236 129.612 143.236ZM137.547 127.365H5.28935V61.2362C5.28935 56.8611 8.84973 53.3007 13.2248 53.3007H95.2248V108.849C95.2248 116.142 101.158 122.075 108.451 122.075H137.547V127.365ZM150.773 116.785H108.451C104.076 116.785 100.515 113.224 100.515 108.849V100.914H158.709V108.849C158.709 113.224 155.148 116.785 150.773 116.785Z" fill="black"/>
<path d="M137.548 106.204H121.677V111.494H137.548V106.204Z" fill="black"/>
<path d="M153.418 85.0425H148.128V90.3328H153.418V85.0425Z" fill="black"/>
<path d="M142.838 85.0425H105.806V90.3328H142.838V85.0425Z" fill="black"/>
<path d="M153.419 74.4619H105.806V79.7522H153.419V74.4619Z" fill="black"/>
<path d="M153.419 63.8813H105.806V69.1717H153.419V63.8813Z" fill="black"/>
<path d="M89.9346 95.623H52.9023V100.913H89.9346V95.623Z" fill="black"/>
<path d="M89.9346 106.204H52.9023V111.494H89.9346V106.204Z" fill="black"/>
<path d="M79.354 116.785H52.9023V122.075H79.354V116.785Z" fill="black"/>
<path d="M89.9349 116.785H84.6445V122.075H89.9349V116.785Z" fill="black"/>
</svg>
