<svg width="130" height="130" viewBox="0 0 130 130" fill="none" xmlns="http://www.w3.org/2000/svg">
<path d="M65.2847 0.109375C69.05 0.113625 72.6591 1.61698 75.3209 4.28809C77.9824 6.95915 79.4797 10.5801 79.4839 14.3564V32.7246H118.285C121.255 32.7281 124.101 33.9138 126.201 36.0205C128.3 38.1271 129.481 40.9829 129.484 43.9609V86.1113C129.48 89.0894 128.3 91.9452 126.201 94.0518C124.101 96.1584 121.255 97.3442 118.285 97.3477H79.4839V115.716C79.4796 119.492 77.9824 123.113 75.3209 125.784C72.6592 128.455 69.0499 129.959 65.2847 129.963H14.2828C10.5176 129.959 6.90835 128.455 4.24664 125.784C1.58507 123.113 0.0878651 119.492 0.0835571 115.716V14.3564C0.0877686 10.5801 1.58509 6.95915 4.24664 4.28809C6.90836 1.61698 10.5175 0.113619 14.2828 0.109375H65.2847ZM7.35504 127.336C7.44936 127.393 7.5446 127.448 7.6402 127.502H7.64117C7.5094 127.427 7.37897 127.35 7.24957 127.271C7.28484 127.292 7.31959 127.315 7.35504 127.336ZM7.07379 127.162C7.10774 127.184 7.14221 127.204 7.17633 127.226C7.04879 127.146 6.92238 127.065 6.79742 126.981L7.07379 127.162ZM13.7984 4.5332C11.3779 4.65643 9.08152 5.67568 7.35895 7.4043C5.52142 9.24842 4.48691 11.7494 4.48395 14.3584V115.714L4.49664 116.202C4.61957 118.633 5.63631 120.939 7.35895 122.668C9.19647 124.512 11.6873 125.549 14.2847 125.552H65.2828C67.8803 125.549 70.371 124.512 72.2086 122.668C74.0459 120.824 75.0803 118.324 75.0836 115.715V97.3477H41.9839V99.6582C41.9839 100.242 41.7526 100.803 41.3404 101.217C40.928 101.631 40.3679 101.863 39.7838 101.863C39.1996 101.863 38.6395 101.631 38.2271 101.217C37.8149 100.803 37.5837 100.242 37.5836 99.6582V30.4141C37.5836 29.8301 37.8149 29.2692 38.2271 28.8555C38.6395 28.4416 39.1995 28.209 39.7838 28.209C40.368 28.209 40.928 28.4416 41.3404 28.8555C41.7525 29.2692 41.9839 29.8301 41.9839 30.4141V32.7246H75.0836V14.3584L75.0709 13.8701C74.948 11.439 73.9312 9.1331 72.2086 7.4043C70.486 5.67569 68.1896 4.65644 65.7691 4.5332L65.2828 4.52051H60.9029L57.9341 10.0713C57.1091 11.6894 55.8629 13.0544 54.3277 14.0205C52.7884 14.9891 51.0157 15.5206 49.1988 15.5586L49.191 15.5596H30.3765L30.3697 15.5586C28.552 15.5212 26.778 14.9903 25.2379 14.0215C23.702 13.0553 22.4557 11.6899 21.6304 10.0713L18.6646 4.52051H14.2847L13.7984 4.5332ZM2.7027 122.667C2.75928 122.762 2.81759 122.856 2.87653 122.949L2.70367 122.667C2.64715 122.572 2.59182 122.477 2.53766 122.381L2.7027 122.667ZM50.7838 112.506C51.368 112.506 51.928 112.739 52.3404 113.153C52.7523 113.567 52.9838 114.127 52.9839 114.711C52.9839 115.295 52.7525 115.856 52.3404 116.27C51.928 116.683 51.368 116.917 50.7838 116.917H29.7838C29.1995 116.917 28.6395 116.683 28.2271 116.27C27.815 115.856 27.5836 115.295 27.5836 114.711C27.5837 114.127 27.8151 113.567 28.2271 113.153C28.6395 112.739 29.1995 112.506 29.7838 112.506H50.7838ZM39.6353 101.156L39.7838 101.164C39.8024 101.164 39.8209 101.162 39.8394 101.161C39.8209 101.162 39.8024 101.163 39.7838 101.163C39.685 101.163 39.5873 101.153 39.4918 101.134C39.5391 101.143 39.587 101.151 39.6353 101.156ZM40.0298 101.142C40.0457 101.139 40.0619 101.138 40.0777 101.135C40.0879 101.133 40.0978 101.129 40.108 101.127C40.0821 101.133 40.056 101.137 40.0298 101.142ZM41.9839 92.9375H118.283C120.085 92.9356 121.813 92.2158 123.088 90.9365C124.363 89.657 125.081 87.9209 125.084 86.1104V43.9629L125.075 43.624C124.99 41.9366 124.284 40.3355 123.088 39.1357C121.813 37.8563 120.085 37.1367 118.283 37.1348H41.9839V92.9375ZM55.0338 71.8623C56.0158 71.8623 56.9572 72.2541 57.6509 72.9502C58.3445 73.6463 58.7339 74.5899 58.7339 75.5732V81.5947C58.7339 82.5779 58.3445 83.5218 57.6509 84.2178C56.9573 84.9138 56.0157 85.3047 55.0338 85.3047H49.0338C48.0518 85.3047 47.1102 84.9138 46.4166 84.2178C45.723 83.5218 45.3337 82.5779 45.3336 81.5947V75.5732C45.3336 74.5899 45.723 73.6463 46.4166 72.9502C47.1103 72.2541 48.0517 71.8623 49.0338 71.8623H55.0338ZM76.0338 71.8623C77.0158 71.8623 77.9573 72.2541 78.6509 72.9502C79.3445 73.6463 79.7339 74.5899 79.7339 75.5732V81.5947C79.7338 82.5779 79.3445 83.5218 78.6509 84.2178C77.9573 84.9138 77.0157 85.3047 76.0338 85.3047H70.0338C69.0518 85.3047 68.1102 84.9138 67.4166 84.2178C66.723 83.5218 66.3337 82.5779 66.3336 81.5947V75.5732C66.3336 74.5899 66.723 73.6463 67.4166 72.9502C68.1103 72.2541 69.0517 71.8623 70.0338 71.8623H76.0338ZM97.0338 71.8623C98.0158 71.8623 98.9573 72.2541 99.6509 72.9502C100.345 73.6463 100.734 74.5899 100.734 75.5732V81.5947C100.734 82.5779 100.344 83.5218 99.6509 84.2178C98.9573 84.9138 98.0157 85.3047 97.0338 85.3047H91.0338C90.0518 85.3047 89.1102 84.9138 88.4166 84.2178C87.723 83.5218 87.3337 82.5779 87.3336 81.5947V75.5732C87.3336 74.5899 87.723 73.6463 88.4166 72.9502C89.1103 72.2541 90.0517 71.8623 91.0338 71.8623H97.0338ZM118.034 71.8623C119.016 71.8623 119.957 72.2541 120.651 72.9502C121.345 73.6463 121.734 74.5899 121.734 75.5732V81.5947C121.734 82.5779 121.344 83.5218 120.651 84.2178C119.957 84.9138 119.016 85.3047 118.034 85.3047H112.034C111.052 85.3047 110.11 84.9138 109.417 84.2178C108.723 83.5218 108.334 82.5779 108.334 81.5947V75.5732C108.334 74.5899 108.723 73.6463 109.417 72.9502C110.11 72.2541 111.052 71.8623 112.034 71.8623H118.034ZM57.1548 83.7236L57.3306 83.5312C57.3366 83.5241 57.3413 83.516 57.3472 83.5088C57.2865 83.5827 57.2229 83.6553 57.1548 83.7236ZM78.1548 83.7236L78.3306 83.5312C78.3366 83.5241 78.3413 83.516 78.3472 83.5088C78.2865 83.5827 78.2229 83.6553 78.1548 83.7236ZM99.1548 83.7236L99.3306 83.5312C99.3366 83.5241 99.3413 83.516 99.3472 83.5088C99.2865 83.5827 99.2229 83.6553 99.1548 83.7236ZM120.155 83.7236L120.331 83.5312C120.337 83.5241 120.341 83.516 120.347 83.5088C120.286 83.5827 120.223 83.6553 120.155 83.7236ZM46.0845 82.1484C46.0863 82.1579 46.0885 82.1673 46.0904 82.1768C46.0719 82.0827 46.0579 81.9875 46.0484 81.8916L46.0845 82.1484ZM67.0845 82.1484C67.0863 82.1579 67.0885 82.1673 67.0904 82.1768C67.0719 82.0827 67.0579 81.9875 67.0484 81.8916L67.0845 82.1484ZM88.0845 82.1484C88.0863 82.1579 88.0885 82.1673 88.0904 82.1768C88.0719 82.0827 88.0579 81.9875 88.0484 81.8916L88.0845 82.1484ZM109.085 82.1484C109.086 82.1579 109.089 82.1673 109.09 82.1768C109.072 82.0827 109.058 81.9875 109.048 81.8916L109.085 82.1484ZM49.7339 80.8945H54.3336V76.2734H49.7339V80.8945ZM70.7339 80.8945H75.3336V76.2734H70.7339V80.8945ZM91.7339 80.8945H96.3336V76.2734H91.7339V80.8945ZM112.734 80.8945H117.334V76.2734H112.734V80.8945ZM58.0338 75.5732L58.022 75.3125C58.0216 75.3076 58.0205 75.3027 58.0201 75.2979C58.0284 75.389 58.0338 75.4809 58.0338 75.5732ZM79.0338 75.5732L79.022 75.3125C79.0216 75.3076 79.0205 75.3027 79.0201 75.2979C79.0284 75.389 79.0338 75.4809 79.0338 75.5732ZM100.034 75.5732L100.022 75.3125C100.022 75.3076 100.021 75.3027 100.02 75.2979C100.028 75.389 100.034 75.4809 100.034 75.5732ZM121.034 75.5732L121.022 75.3125C121.022 75.3076 121.021 75.3027 121.02 75.2979C121.028 75.389 121.034 75.4809 121.034 75.5732ZM59.7847 44.7666C61.1639 44.7682 62.486 45.319 63.4605 46.2969C64.4348 47.2747 64.9824 48.6007 64.9839 49.9824V59.0156C64.9824 60.3972 64.4346 61.7224 63.4605 62.7002C62.486 63.6781 61.1639 64.2289 59.7847 64.2305H50.7828C49.4036 64.2289 48.0815 63.6781 47.107 62.7002C46.1329 61.7224 45.5852 60.3972 45.5836 59.0156V49.9824C45.5851 48.6007 46.1327 47.2747 47.107 46.2969C48.0815 45.319 49.4036 44.7682 50.7828 44.7666H59.7847ZM59.898 60.5146C59.8602 60.5181 59.8221 60.5195 59.7838 60.5195H50.7838C50.7451 60.5195 50.7067 60.5181 50.6685 60.5146C50.7067 60.5183 50.7451 60.5205 50.7838 60.5205H59.7838C59.8221 60.5205 59.8602 60.5183 59.898 60.5146ZM49.9517 60.2676C49.9729 60.2817 49.9954 60.2936 50.0172 60.3066C49.9902 60.2905 49.963 60.2747 49.9371 60.2568L49.9517 60.2676ZM60.5494 60.3066C60.5714 60.2935 60.5944 60.2819 60.6158 60.2676L60.6304 60.2568C60.6042 60.2748 60.5766 60.2904 60.5494 60.3066ZM50.7838 49.1777C50.5726 49.1777 50.3695 49.2616 50.2193 49.4121C50.0691 49.5628 49.9841 49.7682 49.9839 49.9824V59.0146C49.984 59.229 50.069 59.4341 50.2193 59.585C50.3695 59.7356 50.5725 59.8203 50.7838 59.8203H59.7838C59.995 59.8203 60.198 59.7356 60.3482 59.585C60.4985 59.4341 60.5835 59.229 60.5836 59.0146V49.9824C60.5834 49.7682 60.4984 49.5628 60.3482 49.4121C60.198 49.2616 59.9949 49.1777 59.7838 49.1777H50.7838ZM117.784 49.2822C118.766 49.2822 119.707 49.6741 120.401 50.3701C121.094 51.0661 121.484 52.01 121.484 52.9932V56.0039C121.484 56.987 121.094 57.931 120.401 58.627C119.707 59.323 118.766 59.7139 117.784 59.7139H91.7838C90.8017 59.7139 89.8602 59.323 89.1666 58.627C88.4731 57.931 88.0836 56.987 88.0836 56.0039V52.9932C88.0837 52.01 88.4731 51.0661 89.1666 50.3701C89.8602 49.6741 90.8018 49.2822 91.7838 49.2822H117.784ZM61.2398 59.3662C61.2444 59.3473 61.2506 59.3287 61.2545 59.3096L61.2574 59.291C61.2527 59.3164 61.2458 59.3412 61.2398 59.3662ZM92.4839 55.3037H117.084V53.6934H92.4839V55.3037ZM120.104 51.0859C120.163 51.1577 120.218 51.2321 120.269 51.3086C120.218 51.232 120.163 51.1569 120.104 51.085L119.905 50.8643L120.104 51.0859ZM47.7642 46.6367C47.7093 46.6866 47.6557 46.7382 47.6031 46.791L47.7652 46.6367C47.8201 46.5868 47.8761 46.5382 47.9332 46.4912L47.7642 46.6367ZM41.2838 36.4355H118.284V36.4346H41.2838V36.4355ZM30.067 14.8477L30.3834 14.8594H49.1841C49.2898 14.8572 49.3953 14.8525 49.5005 14.8467C49.5341 14.8448 49.5676 14.8411 49.6011 14.8389C49.4624 14.8479 49.3235 14.8555 49.1841 14.8584H30.3834C30.1723 14.8541 29.9619 14.8428 29.7525 14.8242C29.8571 14.8335 29.9619 14.8419 30.067 14.8477ZM49.7134 14.8311C49.8522 14.8203 49.9907 14.808 50.1285 14.791C49.9906 14.808 49.8522 14.8203 49.7134 14.8311ZM25.5123 7.98438L25.522 8.00391C25.9775 8.92236 26.6719 9.70037 27.5318 10.2539C28.3917 10.8074 29.3852 11.1161 30.4058 11.1484H49.1627C50.185 11.1178 51.1807 10.8095 52.0425 10.2559C52.9042 9.70224 53.6 8.92372 54.0562 8.00391L54.0611 7.99512L54.066 7.98535L55.9166 4.52051H23.6578L25.5123 7.98438ZM22.2476 9.74121C22.2956 9.83558 22.345 9.92903 22.3961 10.0215L22.2476 9.74023L19.0836 3.82031L22.2476 9.74121ZM72.7047 6.91016C72.8277 7.0336 72.9478 7.1593 73.064 7.28809C72.9478 7.15923 72.8277 7.03268 72.7047 6.90918C72.5818 6.78589 72.4559 6.6663 72.3277 6.5498C72.456 6.66639 72.5817 6.78677 72.7047 6.91016ZM71.5269 5.8916H71.5279C71.3995 5.79616 71.2686 5.7045 71.1363 5.61523C71.2683 5.70441 71.3987 5.79632 71.5269 5.8916ZM70.6275 5.29297C70.4948 5.2141 70.361 5.13729 70.2252 5.06445C70.361 5.13729 70.4948 5.21411 70.6275 5.29297ZM5.99078 3.67383C5.92407 3.726 5.85835 3.77952 5.79254 3.83301C5.94452 3.70946 6.0987 3.58914 6.25543 3.47266L5.99078 3.67383Z" fill="white"/>
</svg>
