<svg width="121" height="126" viewBox="0 0 121 126" fill="none" xmlns="http://www.w3.org/2000/svg">
<mask id="path-1-outside-1_312_19" maskUnits="userSpaceOnUse" x="0.0566406" y="-0.342896" width="121" height="126" fill="black">
<rect fill="white" x="0.0566406" y="-0.342896" width="121" height="126"/>
<path d="M89.3955 58.3397C100.88 58.3399 110.189 67.6505 110.189 79.1346C110.189 83.7679 109.011 86.4385 107.525 89.0663C105.624 92.4292 103.127 95.7064 102.615 104.445L102.612 107.384C102.612 109.456 101.352 111.243 99.5645 112.022V113.493C99.5644 115.596 98.2608 117.406 96.4277 118.166V119.602C96.4277 122.376 94.1524 124.657 91.3789 124.657H87.4111C84.6389 124.657 82.3565 122.375 82.3564 119.602V118.166C80.5228 117.406 79.2266 115.595 79.2266 113.493V112.024C77.4329 111.246 76.172 109.457 76.1719 107.384V104.388C75.6524 95.6918 73.1616 92.4218 71.2646 89.0663C69.7794 86.4385 68.6006 83.7679 68.6006 79.1346C68.6006 67.6504 77.911 58.3397 89.3955 58.3397ZM86.3564 119.602C86.3565 120.181 86.8327 120.657 87.4111 120.657H91.3789C91.9564 120.657 92.4277 120.18 92.4277 119.602V118.548H86.3564V119.602ZM81.6338 0.657104C82.1645 0.657133 82.6739 0.867817 83.0488 1.24304L95.8428 14.0477C96.2175 14.4227 96.4277 14.9318 96.4277 15.4618V45.8016C96.4277 46.9054 95.5315 47.8016 94.4277 47.8016C93.324 47.8016 92.4277 46.9054 92.4277 45.8016V17.4618H81.6338C80.5294 17.4618 79.634 16.5663 79.6338 15.4618V4.6571H17.4463V13.0468H69.2441C69.7745 13.0469 70.2833 13.2578 70.6582 13.6327L83.4521 26.4266C83.827 26.8015 84.038 27.3103 84.0381 27.8407V48.6512C84.0379 49.7549 83.1415 50.651 82.0381 50.6512C80.9345 50.6512 80.0383 49.7551 80.0381 48.6512V29.8407H69.2441C68.1396 29.8407 67.2441 28.9452 67.2441 27.8407V17.0468H5.05664V115.41H76.3301C77.4336 115.41 78.3301 116.306 78.3301 117.41C78.3298 118.513 77.4335 119.41 76.3301 119.41H3.05664C1.9523 119.41 1.05687 118.514 1.05664 117.41V15.0468C1.05683 13.9424 1.95228 13.0468 3.05664 13.0468H13.4463V2.6571C13.4463 1.55274 14.342 0.657319 15.4463 0.657104H81.6338ZM83.2266 113.493C83.2267 114.074 83.7006 114.548 84.2812 114.548H94.5098C95.0882 114.548 95.5643 114.074 95.5645 113.493V112.438H83.2266V113.493ZM80.1719 107.384C80.172 107.964 80.6459 108.438 81.2266 108.438H97.5645C98.1416 108.438 98.6121 107.963 98.6123 107.383L98.6133 106.329H80.1719V107.384ZM65.9287 99.829C67.0324 99.829 67.9287 100.725 67.9287 101.829C67.9286 102.933 67.0324 103.829 65.9287 103.829H19.1758C18.0723 103.829 17.1758 102.933 17.1758 101.829C17.1758 100.725 18.0722 99.8292 19.1758 99.829H65.9287ZM89.3955 62.3397C80.1203 62.3397 72.6006 69.8594 72.6006 79.1346C72.6006 83.8734 74.1618 86.0859 75.7783 88.8749C77.5163 91.8739 79.3669 95.4253 80.0244 102.329H82.0596L81.9355 82.0887C81.9333 81.7279 82.0293 81.373 82.2129 81.0624L87.8125 71.5917C88.1749 70.9785 88.8377 70.6055 89.5498 70.6132C90.262 70.6207 90.9166 71.0081 91.2656 71.6288L96.5928 81.0995C96.7605 81.3977 96.8486 81.7348 96.8486 82.077V102.329H98.7666C99.4241 95.4255 101.274 91.8738 103.012 88.8749C104.628 86.0859 106.189 83.8734 106.189 79.1346C106.189 69.8595 98.6706 62.3399 89.3955 62.3397ZM86.0459 102.329H92.8623V84.0702H85.9346L86.0459 102.329ZM65.9287 86.0507C67.0324 86.0507 67.9287 86.9469 67.9287 88.0507C67.9287 89.1544 67.0324 90.0506 65.9287 90.0507H19.1758C18.0722 90.0504 17.1758 89.1543 17.1758 88.0507C17.1758 86.947 18.0722 86.0509 19.1758 86.0507H65.9287ZM87.4229 80.0839H91.4473L89.4854 76.5946L87.4229 80.0839ZM64.3477 72.2723C65.4514 72.2723 66.3476 73.1686 66.3477 74.2723C66.3477 75.3763 65.4514 76.2723 64.3477 76.2723H19.1758C18.0722 76.2721 17.1758 75.3762 17.1758 74.2723C17.1758 73.1687 18.0722 72.2726 19.1758 72.2723H64.3477ZM59.2764 64.9452C59.8288 63.9895 61.0531 63.6617 62.0088 64.2137L65.8447 66.4315C66.8003 66.9841 67.1274 68.2083 66.5752 69.1639C66.0226 70.1194 64.7984 70.4466 63.8428 69.8944L60.0068 67.6776C59.0513 67.1251 58.7244 65.9008 59.2764 64.9452ZM116.774 64.2147C117.73 63.6621 118.954 63.9884 119.507 64.9432C120.06 65.8985 119.733 67.1236 118.778 67.6766L114.948 69.8934C113.993 70.4462 112.769 70.12 112.216 69.1649C111.663 68.2097 111.989 66.9846 112.944 66.4315L116.774 64.2147ZM65.9287 58.494C67.0323 58.494 67.9285 59.3902 67.9287 60.494C67.9287 61.5978 67.0324 62.494 65.9287 62.494H19.1758C18.0722 62.4938 17.1758 61.5976 17.1758 60.494C17.176 59.3903 18.0723 58.4942 19.1758 58.494H65.9287ZM72.0078 52.2147C72.964 51.6635 74.1879 51.9921 74.7393 52.9481L76.9502 56.7841C77.5014 57.7406 77.1721 58.9645 76.2158 59.5155C75.2594 60.0666 74.0353 59.7373 73.4844 58.7811L71.2744 54.9462C70.7232 53.9897 71.0515 52.766 72.0078 52.2147ZM104.052 52.9462C104.604 51.9904 105.829 51.6632 106.785 52.2157C107.741 52.7681 108.068 53.9928 107.516 54.9481L105.299 58.7841C104.746 59.7394 103.522 60.0667 102.566 59.5145C101.611 58.9623 101.283 57.7378 101.835 56.7821L104.052 52.9462ZM89.3955 47.5575C90.4991 47.5577 91.3955 48.4539 91.3955 49.5575V53.9852C91.3953 55.089 90.499 55.9851 89.3955 55.9852C88.2919 55.9852 87.3957 55.0891 87.3955 53.9852V49.5575C87.3955 48.4537 88.2918 47.5575 89.3955 47.5575ZM65.9287 44.7264C67.0324 44.7265 67.9286 45.6225 67.9287 46.7264C67.9287 47.8302 67.0324 48.7264 65.9287 48.7264H19.1758C18.0722 48.7262 17.1758 47.8301 17.1758 46.7264C17.1759 45.6227 18.0723 44.7267 19.1758 44.7264H65.9287ZM52.7305 30.9481C53.8341 30.9481 54.7303 31.8445 54.7305 32.9481C54.7305 34.0519 53.8342 34.9481 52.7305 34.9481H19.1758C18.0722 34.9479 17.1758 34.0517 17.1758 32.9481C17.1759 31.8446 18.0723 30.9483 19.1758 30.9481H52.7305ZM71.2441 25.8407H77.209L71.2441 19.8759V25.8407ZM83.6338 13.4618H89.6016C87.7896 11.6485 85.4465 9.30216 83.6338 7.48816V13.4618Z"/>
</mask>
<path d="M89.3955 58.3397C100.88 58.3399 110.189 67.6505 110.189 79.1346C110.189 83.7679 109.011 86.4385 107.525 89.0663C105.624 92.4292 103.127 95.7064 102.615 104.445L102.612 107.384C102.612 109.456 101.352 111.243 99.5645 112.022V113.493C99.5644 115.596 98.2608 117.406 96.4277 118.166V119.602C96.4277 122.376 94.1524 124.657 91.3789 124.657H87.4111C84.6389 124.657 82.3565 122.375 82.3564 119.602V118.166C80.5228 117.406 79.2266 115.595 79.2266 113.493V112.024C77.4329 111.246 76.172 109.457 76.1719 107.384V104.388C75.6524 95.6918 73.1616 92.4218 71.2646 89.0663C69.7794 86.4385 68.6006 83.7679 68.6006 79.1346C68.6006 67.6504 77.911 58.3397 89.3955 58.3397ZM86.3564 119.602C86.3565 120.181 86.8327 120.657 87.4111 120.657H91.3789C91.9564 120.657 92.4277 120.18 92.4277 119.602V118.548H86.3564V119.602ZM81.6338 0.657104C82.1645 0.657133 82.6739 0.867817 83.0488 1.24304L95.8428 14.0477C96.2175 14.4227 96.4277 14.9318 96.4277 15.4618V45.8016C96.4277 46.9054 95.5315 47.8016 94.4277 47.8016C93.324 47.8016 92.4277 46.9054 92.4277 45.8016V17.4618H81.6338C80.5294 17.4618 79.634 16.5663 79.6338 15.4618V4.6571H17.4463V13.0468H69.2441C69.7745 13.0469 70.2833 13.2578 70.6582 13.6327L83.4521 26.4266C83.827 26.8015 84.038 27.3103 84.0381 27.8407V48.6512C84.0379 49.7549 83.1415 50.651 82.0381 50.6512C80.9345 50.6512 80.0383 49.7551 80.0381 48.6512V29.8407H69.2441C68.1396 29.8407 67.2441 28.9452 67.2441 27.8407V17.0468H5.05664V115.41H76.3301C77.4336 115.41 78.3301 116.306 78.3301 117.41C78.3298 118.513 77.4335 119.41 76.3301 119.41H3.05664C1.9523 119.41 1.05687 118.514 1.05664 117.41V15.0468C1.05683 13.9424 1.95228 13.0468 3.05664 13.0468H13.4463V2.6571C13.4463 1.55274 14.342 0.657319 15.4463 0.657104H81.6338ZM83.2266 113.493C83.2267 114.074 83.7006 114.548 84.2812 114.548H94.5098C95.0882 114.548 95.5643 114.074 95.5645 113.493V112.438H83.2266V113.493ZM80.1719 107.384C80.172 107.964 80.6459 108.438 81.2266 108.438H97.5645C98.1416 108.438 98.6121 107.963 98.6123 107.383L98.6133 106.329H80.1719V107.384ZM65.9287 99.829C67.0324 99.829 67.9287 100.725 67.9287 101.829C67.9286 102.933 67.0324 103.829 65.9287 103.829H19.1758C18.0723 103.829 17.1758 102.933 17.1758 101.829C17.1758 100.725 18.0722 99.8292 19.1758 99.829H65.9287ZM89.3955 62.3397C80.1203 62.3397 72.6006 69.8594 72.6006 79.1346C72.6006 83.8734 74.1618 86.0859 75.7783 88.8749C77.5163 91.8739 79.3669 95.4253 80.0244 102.329H82.0596L81.9355 82.0887C81.9333 81.7279 82.0293 81.373 82.2129 81.0624L87.8125 71.5917C88.1749 70.9785 88.8377 70.6055 89.5498 70.6132C90.262 70.6207 90.9166 71.0081 91.2656 71.6288L96.5928 81.0995C96.7605 81.3977 96.8486 81.7348 96.8486 82.077V102.329H98.7666C99.4241 95.4255 101.274 91.8738 103.012 88.8749C104.628 86.0859 106.189 83.8734 106.189 79.1346C106.189 69.8595 98.6706 62.3399 89.3955 62.3397ZM86.0459 102.329H92.8623V84.0702H85.9346L86.0459 102.329ZM65.9287 86.0507C67.0324 86.0507 67.9287 86.9469 67.9287 88.0507C67.9287 89.1544 67.0324 90.0506 65.9287 90.0507H19.1758C18.0722 90.0504 17.1758 89.1543 17.1758 88.0507C17.1758 86.947 18.0722 86.0509 19.1758 86.0507H65.9287ZM87.4229 80.0839H91.4473L89.4854 76.5946L87.4229 80.0839ZM64.3477 72.2723C65.4514 72.2723 66.3476 73.1686 66.3477 74.2723C66.3477 75.3763 65.4514 76.2723 64.3477 76.2723H19.1758C18.0722 76.2721 17.1758 75.3762 17.1758 74.2723C17.1758 73.1687 18.0722 72.2726 19.1758 72.2723H64.3477ZM59.2764 64.9452C59.8288 63.9895 61.0531 63.6617 62.0088 64.2137L65.8447 66.4315C66.8003 66.9841 67.1274 68.2083 66.5752 69.1639C66.0226 70.1194 64.7984 70.4466 63.8428 69.8944L60.0068 67.6776C59.0513 67.1251 58.7244 65.9008 59.2764 64.9452ZM116.774 64.2147C117.73 63.6621 118.954 63.9884 119.507 64.9432C120.06 65.8985 119.733 67.1236 118.778 67.6766L114.948 69.8934C113.993 70.4462 112.769 70.12 112.216 69.1649C111.663 68.2097 111.989 66.9846 112.944 66.4315L116.774 64.2147ZM65.9287 58.494C67.0323 58.494 67.9285 59.3902 67.9287 60.494C67.9287 61.5978 67.0324 62.494 65.9287 62.494H19.1758C18.0722 62.4938 17.1758 61.5976 17.1758 60.494C17.176 59.3903 18.0723 58.4942 19.1758 58.494H65.9287ZM72.0078 52.2147C72.964 51.6635 74.1879 51.9921 74.7393 52.9481L76.9502 56.7841C77.5014 57.7406 77.1721 58.9645 76.2158 59.5155C75.2594 60.0666 74.0353 59.7373 73.4844 58.7811L71.2744 54.9462C70.7232 53.9897 71.0515 52.766 72.0078 52.2147ZM104.052 52.9462C104.604 51.9904 105.829 51.6632 106.785 52.2157C107.741 52.7681 108.068 53.9928 107.516 54.9481L105.299 58.7841C104.746 59.7394 103.522 60.0667 102.566 59.5145C101.611 58.9623 101.283 57.7378 101.835 56.7821L104.052 52.9462ZM89.3955 47.5575C90.4991 47.5577 91.3955 48.4539 91.3955 49.5575V53.9852C91.3953 55.089 90.499 55.9851 89.3955 55.9852C88.2919 55.9852 87.3957 55.0891 87.3955 53.9852V49.5575C87.3955 48.4537 88.2918 47.5575 89.3955 47.5575ZM65.9287 44.7264C67.0324 44.7265 67.9286 45.6225 67.9287 46.7264C67.9287 47.8302 67.0324 48.7264 65.9287 48.7264H19.1758C18.0722 48.7262 17.1758 47.8301 17.1758 46.7264C17.1759 45.6227 18.0723 44.7267 19.1758 44.7264H65.9287ZM52.7305 30.9481C53.8341 30.9481 54.7303 31.8445 54.7305 32.9481C54.7305 34.0519 53.8342 34.9481 52.7305 34.9481H19.1758C18.0722 34.9479 17.1758 34.0517 17.1758 32.9481C17.1759 31.8446 18.0723 30.9483 19.1758 30.9481H52.7305ZM71.2441 25.8407H77.209L71.2441 19.8759V25.8407ZM83.6338 13.4618H89.6016C87.7896 11.6485 85.4465 9.30216 83.6338 7.48816V13.4618Z" fill="black"/>
<path d="M89.3955 58.3397L89.3955 57.8397H89.3955V58.3397ZM110.189 79.1346H110.689H110.189ZM107.525 89.0663L107.961 89.3123L107.961 89.3123L107.525 89.0663ZM102.615 104.445L102.116 104.416L102.115 104.43L102.115 104.445L102.615 104.445ZM102.612 107.384L102.112 107.383V107.384L102.612 107.384ZM99.5645 112.022L99.3647 111.564L99.0645 111.695V112.022H99.5645ZM99.5645 113.493L100.064 113.493V113.493H99.5645ZM96.4277 118.166L96.2363 117.704L95.9277 117.832V118.166H96.4277ZM96.4277 119.602L96.9277 119.602V119.602H96.4277ZM87.4111 124.657L87.4111 125.157H87.4111V124.657ZM82.3564 119.602H81.8564V119.602L82.3564 119.602ZM82.3564 118.166H82.8564V117.832L82.5479 117.704L82.3564 118.166ZM79.2266 113.493H78.7266V113.493L79.2266 113.493ZM79.2266 112.024H79.7266V111.696L79.4255 111.566L79.2266 112.024ZM76.1719 107.384H75.6719V107.384L76.1719 107.384ZM76.1719 104.388H76.6719V104.373L76.671 104.358L76.1719 104.388ZM71.2646 89.0663L70.8294 89.3123L70.8294 89.3124L71.2646 89.0663ZM68.6006 79.1346H68.1006H68.6006ZM86.3564 119.602H85.8564V119.602L86.3564 119.602ZM87.4111 120.657L87.4111 121.157H87.4111V120.657ZM92.4277 119.602L92.9277 119.602V119.602H92.4277ZM92.4277 118.548H92.9277V118.048H92.4277V118.548ZM86.3564 118.548V118.048H85.8564V118.548H86.3564ZM81.6338 0.657104L81.6338 0.157104H81.6338V0.657104ZM83.0488 1.24304L83.4025 0.889637L83.4025 0.889606L83.0488 1.24304ZM95.8428 14.0477L95.4891 14.4011V14.4011L95.8428 14.0477ZM96.4277 45.8016L96.9277 45.8016V45.8016H96.4277ZM94.4277 47.8016V48.3016H94.4277L94.4277 47.8016ZM92.4277 45.8016H91.9277V45.8016L92.4277 45.8016ZM92.4277 17.4618H92.9277V16.9618H92.4277V17.4618ZM79.6338 15.4618H79.1338V15.4619L79.6338 15.4618ZM79.6338 4.6571H80.1338V4.1571H79.6338V4.6571ZM17.4463 4.6571V4.1571H16.9463V4.6571H17.4463ZM17.4463 13.0468H16.9463V13.5468H17.4463V13.0468ZM69.2441 13.0468L69.2443 12.5468H69.2441V13.0468ZM70.6582 13.6327L71.0118 13.2791L70.6582 13.6327ZM84.0381 27.8407H84.5381V27.8406L84.0381 27.8407ZM84.0381 48.6512L84.5381 48.6513V48.6512H84.0381ZM82.0381 50.6512V51.1512H82.0382L82.0381 50.6512ZM80.0381 48.6512H79.5381V48.6513L80.0381 48.6512ZM80.0381 29.8407H80.5381V29.3407H80.0381V29.8407ZM67.2441 17.0468H67.7441V16.5468H67.2441V17.0468ZM5.05664 17.0468V16.5468H4.55664V17.0468H5.05664ZM5.05664 115.41H4.55664V115.91H5.05664V115.41ZM76.3301 115.41L76.3302 114.91H76.3301V115.41ZM78.3301 117.41L78.8301 117.41V117.41H78.3301ZM76.3301 119.41V119.91H76.3302L76.3301 119.41ZM3.05664 119.41L3.05663 119.91H3.05664V119.41ZM1.05664 117.41H0.556641V117.41L1.05664 117.41ZM1.05664 15.0468L0.556641 15.0467V15.0468H1.05664ZM3.05664 13.0468V12.5468H3.05663L3.05664 13.0468ZM13.4463 13.0468V13.5468H13.9463V13.0468H13.4463ZM15.4463 0.657104V0.157104H15.4462L15.4463 0.657104ZM83.2266 113.493H82.7266V113.493L83.2266 113.493ZM94.5098 114.548V115.048H94.5098L94.5098 114.548ZM95.5645 113.493L96.0645 113.493V113.493H95.5645ZM95.5645 112.438H96.0645V111.938H95.5645V112.438ZM83.2266 112.438V111.938H82.7266V112.438H83.2266ZM80.1719 107.384H79.6719V107.384L80.1719 107.384ZM97.5645 108.438V108.938H97.5645L97.5645 108.438ZM98.6123 107.383L98.1123 107.382V107.383L98.6123 107.383ZM98.6133 106.329L99.1133 106.329L99.1137 105.829H98.6133V106.329ZM80.1719 106.329V105.829H79.6719V106.329H80.1719ZM65.9287 99.829L65.9287 99.329H65.9287V99.829ZM67.9287 101.829L68.4287 101.829V101.829H67.9287ZM65.9287 103.829V104.329H65.9287L65.9287 103.829ZM19.1758 103.829L19.1757 104.329H19.1758V103.829ZM17.1758 101.829H16.6758V101.829L17.1758 101.829ZM19.1758 99.829V99.329H19.1757L19.1758 99.829ZM89.3955 62.3397L89.3955 61.8397H89.3955V62.3397ZM72.6006 79.1346H72.1006H72.6006ZM75.7783 88.8749L76.2109 88.6242L76.2109 88.6241L75.7783 88.8749ZM80.0244 102.329L79.5267 102.376L79.5698 102.829H80.0244V102.329ZM82.0596 102.329V102.829H82.5626L82.5596 102.326L82.0596 102.329ZM81.9355 82.0887L82.4355 82.0857V82.0857L81.9355 82.0887ZM82.2129 81.0624L81.7825 80.8079L81.7825 80.808L82.2129 81.0624ZM87.8125 71.5917L88.2429 71.8462L88.2429 71.8461L87.8125 71.5917ZM89.5498 70.6132L89.5445 71.1131H89.5445L89.5498 70.6132ZM91.2656 71.6288L90.8298 71.8738L90.8298 71.8739L91.2656 71.6288ZM96.5928 81.0995L97.0286 80.8544L97.0286 80.8544L96.5928 81.0995ZM96.8486 102.329H96.3486V102.829H96.8486V102.329ZM98.7666 102.329V102.829H99.2212L99.2644 102.376L98.7666 102.329ZM103.012 88.8749L103.444 89.1256H103.444L103.012 88.8749ZM106.189 79.1346H106.689H106.189ZM86.0459 102.329L85.5459 102.332L85.5489 102.829H86.0459V102.329ZM92.8623 102.329V102.829H93.3623V102.329H92.8623ZM92.8623 84.0702H93.3623V83.5702H92.8623V84.0702ZM85.9346 84.0702V83.5702H85.4315L85.4346 84.0732L85.9346 84.0702ZM65.9287 86.0507L65.9287 85.5507H65.9287V86.0507ZM67.9287 88.0507L68.4287 88.0507V88.0507H67.9287ZM65.9287 90.0507V90.5507H65.9287L65.9287 90.0507ZM19.1758 90.0507L19.1757 90.5507H19.1758V90.0507ZM17.1758 88.0507H16.6758V88.0507L17.1758 88.0507ZM19.1758 86.0507V85.5507H19.1757L19.1758 86.0507ZM87.4229 80.0839L86.9924 79.8294L86.5465 80.5839H87.4229V80.0839ZM91.4473 80.0839V80.5839H92.302L91.8831 79.8388L91.4473 80.0839ZM89.4854 76.5946L89.9212 76.3495L89.4962 75.5937L89.0549 76.3402L89.4854 76.5946ZM66.3477 74.2723H66.8477H66.3477ZM19.1758 76.2723L19.1757 76.7723H19.1758V76.2723ZM17.1758 74.2723H16.6758H17.1758ZM19.1758 72.2723V71.7723H19.1757L19.1758 72.2723ZM59.2764 64.9452L58.8435 64.695L58.8434 64.6951L59.2764 64.9452ZM62.0088 64.2137L62.2591 63.7809L62.2589 63.7808L62.0088 64.2137ZM65.8447 66.4315L66.095 65.9987L66.095 65.9987L65.8447 66.4315ZM66.5752 69.1639L67.008 69.4143L67.0081 69.4141L66.5752 69.1639ZM63.8428 69.8944L63.5926 70.3273L63.5926 70.3273L63.8428 69.8944ZM60.0068 67.6776L59.7566 68.1105L59.7567 68.1105L60.0068 67.6776ZM116.774 64.2147L116.524 63.7819L116.524 63.782L116.774 64.2147ZM119.507 64.9432L119.94 64.6927L119.94 64.6927L119.507 64.9432ZM118.778 67.6766L119.029 68.1094L119.029 68.1093L118.778 67.6766ZM114.948 69.8934L115.199 70.3262L115.199 70.3262L114.948 69.8934ZM112.216 69.1649L111.783 69.4154L111.783 69.4155L112.216 69.1649ZM112.944 66.4315L112.694 65.9988L112.694 65.9988L112.944 66.4315ZM65.9287 58.494L65.9287 57.994H65.9287V58.494ZM67.9287 60.494H68.4287V60.4939L67.9287 60.494ZM65.9287 62.494V62.994H65.9287L65.9287 62.494ZM19.1758 62.494L19.1757 62.994H19.1758V62.494ZM17.1758 60.494L16.6758 60.4939V60.494H17.1758ZM19.1758 58.494V57.994H19.1757L19.1758 58.494ZM72.0078 52.2147L71.7581 51.7815L71.7581 51.7816L72.0078 52.2147ZM74.7393 52.9481L75.1725 52.6984L75.1724 52.6983L74.7393 52.9481ZM76.9502 56.7841L77.3834 56.5344L77.3834 56.5344L76.9502 56.7841ZM76.2158 59.5155L76.4654 59.9487L76.4654 59.9487L76.2158 59.5155ZM73.4844 58.7811L73.9176 58.5315L73.9176 58.5315L73.4844 58.7811ZM71.2744 54.9462L71.7076 54.6965L71.7076 54.6965L71.2744 54.9462ZM104.052 52.9462L103.619 52.6959L103.619 52.696L104.052 52.9462ZM106.785 52.2157L107.035 51.7828L107.035 51.7828L106.785 52.2157ZM107.516 54.9481L107.083 54.6979L107.083 54.6979L107.516 54.9481ZM105.299 58.7841L105.732 59.0343L105.732 59.0342L105.299 58.7841ZM102.566 59.5145L102.316 59.9475L102.316 59.9475L102.566 59.5145ZM101.835 56.7821L101.402 56.5319L101.402 56.532L101.835 56.7821ZM89.3955 47.5575L89.3956 47.0575H89.3955V47.5575ZM91.3955 53.9852L91.8955 53.9853V53.9852H91.3955ZM89.3955 55.9852V56.4852H89.3956L89.3955 55.9852ZM87.3955 53.9852H86.8955V53.9853L87.3955 53.9852ZM65.9287 44.7264L65.9287 44.2264H65.9287V44.7264ZM67.9287 46.7264H68.4287V46.7264L67.9287 46.7264ZM65.9287 48.7264V49.2264H65.9287L65.9287 48.7264ZM19.1758 48.7264L19.1757 49.2264H19.1758V48.7264ZM17.1758 46.7264L16.6758 46.7264V46.7264H17.1758ZM19.1758 44.7264V44.2264H19.1757L19.1758 44.7264ZM54.7305 32.9481H55.2305V32.9481L54.7305 32.9481ZM19.1758 34.9481L19.1757 35.4481H19.1758V34.9481ZM17.1758 32.9481L16.6758 32.9481V32.9481H17.1758ZM19.1758 30.9481V30.4481H19.1757L19.1758 30.9481ZM71.2441 25.8407H70.7441V26.3407H71.2441V25.8407ZM77.209 25.8407V26.3407H78.4161L77.5625 25.4871L77.209 25.8407ZM71.2441 19.8759L71.5977 19.5223L70.7441 18.6687V19.8759H71.2441ZM83.6338 13.4618H83.1338V13.9618H83.6338V13.4618ZM89.6016 13.4618V13.9618H90.8081L89.9552 13.1084L89.6016 13.4618ZM83.6338 7.48816L83.9875 7.13473L83.1338 6.28046V7.48816H83.6338ZM89.3955 58.3397L89.3955 58.8397C100.604 58.8399 109.689 67.9266 109.689 79.1346H110.189H110.689C110.689 67.3744 101.156 57.8399 89.3955 57.8397L89.3955 58.3397ZM110.189 79.1346H109.689C109.689 83.6569 108.547 86.2426 107.09 88.8203L107.525 89.0663L107.961 89.3123C109.474 86.6345 110.689 83.8788 110.689 79.1346H110.189ZM107.525 89.0663L107.09 88.8202C106.157 90.4702 105.027 92.1811 104.085 94.5552C103.137 96.9429 102.375 100 102.116 104.416L102.615 104.445L103.114 104.474C103.368 100.151 104.11 97.2007 105.014 94.9243C105.923 92.6344 106.992 91.0253 107.961 89.3123L107.525 89.0663ZM102.615 104.445L102.115 104.445L102.112 107.383L102.612 107.384L103.112 107.384L103.115 104.446L102.615 104.445ZM102.612 107.384L102.112 107.384C102.112 109.248 100.978 110.861 99.3647 111.564L99.5645 112.022L99.7642 112.481C101.727 111.626 103.112 109.663 103.112 107.384L102.612 107.384ZM99.5645 112.022H99.0645V113.493H99.5645H100.064V112.022H99.5645ZM99.5645 113.493L99.0645 113.493C99.0644 115.384 97.8912 117.018 96.2363 117.704L96.4277 118.166L96.6191 118.628C98.6304 117.794 100.064 115.807 100.064 113.493L99.5645 113.493ZM96.4277 118.166H95.9277V119.602H96.4277H96.9277V118.166H96.4277ZM96.4277 119.602L95.9277 119.602C95.9277 122.101 93.8755 124.157 91.3789 124.157V124.657V125.157C94.4293 125.157 96.9277 122.651 96.9277 119.602L96.4277 119.602ZM91.3789 124.657V124.157H87.4111V124.657V125.157H91.3789V124.657ZM87.4111 124.657L87.4111 124.157C84.9151 124.157 82.8565 122.098 82.8564 119.602L82.3564 119.602L81.8564 119.602C81.8565 122.651 84.3628 125.157 87.4111 125.157L87.4111 124.657ZM82.3564 119.602H82.8564V118.166H82.3564H81.8564V119.602H82.3564ZM82.3564 118.166L82.5479 117.704C80.8935 117.018 79.7266 115.385 79.7266 113.493L79.2266 113.493L78.7266 113.493C78.7266 115.805 80.152 117.793 82.165 118.628L82.3564 118.166ZM79.2266 113.493H79.7266V112.024H79.2266H78.7266V113.493H79.2266ZM79.2266 112.024L79.4255 111.566C77.8071 110.864 76.672 109.249 76.6719 107.384L76.1719 107.384L75.6719 107.384C75.672 109.664 77.0588 111.629 79.0276 112.483L79.2266 112.024ZM76.1719 107.384H76.6719V104.388H76.1719H75.6719V107.384H76.1719ZM76.1719 104.388L76.671 104.358C76.4085 99.9635 75.6462 96.9188 74.6994 94.5395C73.758 92.1737 72.6306 90.4665 71.6999 88.8202L71.2646 89.0663L70.8294 89.3124C71.7957 91.0216 72.8622 92.6272 73.7703 94.9092C74.6729 97.1777 75.4158 100.116 75.6728 104.417L76.1719 104.388ZM71.2646 89.0663L71.6999 88.8203C70.243 86.2426 69.1006 83.6569 69.1006 79.1346H68.6006H68.1006C68.1006 83.8788 69.3158 86.6345 70.8294 89.3123L71.2646 89.0663ZM68.6006 79.1346H69.1006C69.1006 67.9265 78.1872 58.8397 89.3955 58.8397V58.3397V57.8397C77.6349 57.8397 68.1006 67.3743 68.1006 79.1346H68.6006ZM86.3564 119.602L85.8564 119.602C85.8565 120.457 86.5565 121.157 87.4111 121.157L87.4111 120.657L87.4112 120.157C87.1088 120.157 86.8565 119.905 86.8564 119.602L86.3564 119.602ZM87.4111 120.657V121.157H91.3789V120.657V120.157H87.4111V120.657ZM91.3789 120.657V121.157C92.2362 121.157 92.9277 120.452 92.9277 119.602L92.4277 119.602L91.9277 119.602C91.9277 119.907 91.6765 120.157 91.3789 120.157V120.657ZM92.4277 119.602H92.9277V118.548H92.4277H91.9277V119.602H92.4277ZM92.4277 118.548V118.048H86.3564V118.548V119.048H92.4277V118.548ZM86.3564 118.548H85.8564V119.602H86.3564H86.8564V118.548H86.3564ZM81.6338 0.657104L81.6338 1.1571C82.0321 1.15713 82.4142 1.3153 82.6952 1.59648L83.0488 1.24304L83.4025 0.889606C82.9335 0.420339 82.2969 0.15714 81.6338 0.157104L81.6338 0.657104ZM83.0488 1.24304L82.6951 1.59645L95.4891 14.4011L95.8428 14.0477L96.1965 13.6943L83.4025 0.889637L83.0488 1.24304ZM95.8428 14.0477L95.4891 14.4011C95.7699 14.6822 95.9277 15.0641 95.9277 15.4618H96.4277H96.9277C96.9277 14.7996 96.665 14.1633 96.1965 13.6943L95.8428 14.0477ZM96.4277 15.4618H95.9277V45.8016H96.4277H96.9277V15.4618H96.4277ZM96.4277 45.8016L95.9277 45.8016C95.9277 46.6292 95.2553 47.3016 94.4277 47.3016L94.4277 47.8016L94.4277 48.3016C95.8076 48.3016 96.9277 47.1815 96.9277 45.8016L96.4277 45.8016ZM94.4277 47.8016V47.3016C93.6001 47.3016 92.9277 46.6292 92.9277 45.8016L92.4277 45.8016L91.9277 45.8016C91.9278 47.1815 93.0478 48.3016 94.4277 48.3016V47.8016ZM92.4277 45.8016H92.9277V17.4618H92.4277H91.9277V45.8016H92.4277ZM92.4277 17.4618V16.9618H81.6338V17.4618V17.9618H92.4277V17.4618ZM81.6338 17.4618V16.9618C80.8056 16.9618 80.134 16.2902 80.1338 15.4617L79.6338 15.4618L79.1338 15.4619C79.1341 16.8424 80.2532 17.9618 81.6338 17.9618V17.4618ZM79.6338 15.4618H80.1338V4.6571H79.6338H79.1338V15.4618H79.6338ZM79.6338 4.6571V4.1571H17.4463V4.6571V5.1571H79.6338V4.6571ZM17.4463 4.6571H16.9463V13.0468H17.4463H17.9463V4.6571H17.4463ZM17.4463 13.0468V13.5468H69.2441V13.0468V12.5468H17.4463V13.0468ZM69.2441 13.0468L69.244 13.5468C69.6418 13.5468 70.0235 13.7051 70.3046 13.9862L70.6582 13.6327L71.0118 13.2791C70.5432 12.8105 69.9072 12.5469 69.2443 12.5468L69.2441 13.0468ZM70.6582 13.6327L70.3046 13.9862L83.0986 26.7802L83.4521 26.4266L83.8057 26.0731L71.0118 13.2791L70.6582 13.6327ZM83.4521 26.4266L83.0986 26.7802C83.3798 27.0614 83.538 27.4431 83.5381 27.8408L84.0381 27.8407L84.5381 27.8406C84.5379 27.1776 84.2743 26.5417 83.8057 26.0731L83.4521 26.4266ZM84.0381 27.8407H83.5381V48.6512H84.0381H84.5381V27.8407H84.0381ZM84.0381 48.6512L83.5381 48.6511C83.5379 49.4787 82.8654 50.1511 82.038 50.1512L82.0381 50.6512L82.0382 51.1512C83.4176 51.151 84.5378 50.0311 84.5381 48.6513L84.0381 48.6512ZM82.0381 50.6512V50.1512C81.2107 50.1512 80.5382 49.479 80.5381 48.6511L80.0381 48.6512L79.5381 48.6513C79.5384 50.0312 80.6583 51.1512 82.0381 51.1512V50.6512ZM80.0381 48.6512H80.5381V29.8407H80.0381H79.5381V48.6512H80.0381ZM80.0381 29.8407V29.3407H69.2441V29.8407V30.3407H80.0381V29.8407ZM69.2441 29.8407V29.3407C68.4158 29.3407 67.7441 28.6691 67.7441 27.8407H67.2441H66.7441C66.7441 29.2213 67.8635 30.3407 69.2441 30.3407V29.8407ZM67.2441 27.8407H67.7441V17.0468H67.2441H66.7441V27.8407H67.2441ZM67.2441 17.0468V16.5468H5.05664V17.0468V17.5468H67.2441V17.0468ZM5.05664 17.0468H4.55664V115.41H5.05664H5.55664V17.0468H5.05664ZM5.05664 115.41V115.91H76.3301V115.41V114.91H5.05664V115.41ZM76.3301 115.41L76.33 115.91C77.1576 115.91 77.8301 116.582 77.8301 117.41H78.3301H78.8301C78.8301 116.03 77.7097 114.91 76.3302 114.91L76.3301 115.41ZM78.3301 117.41L77.8301 117.41C77.8299 118.237 77.1573 118.91 76.33 118.91L76.3301 119.41L76.3302 119.91C77.7097 119.91 78.8298 118.79 78.8301 117.41L78.3301 117.41ZM76.3301 119.41V118.91H3.05664V119.41V119.91H76.3301V119.41ZM3.05664 119.41L3.05665 118.91C2.22854 118.91 1.55681 118.238 1.55664 117.41L1.05664 117.41L0.556641 117.41C0.556929 118.79 1.67607 119.91 3.05663 119.91L3.05664 119.41ZM1.05664 117.41H1.55664V15.0468H1.05664H0.556641V117.41H1.05664ZM1.05664 15.0468L1.55664 15.0468C1.55678 14.2185 2.2285 13.5468 3.05665 13.5468L3.05664 13.0468L3.05663 12.5468C1.67606 12.5468 0.556878 13.6663 0.556641 15.0467L1.05664 15.0468ZM3.05664 13.0468V13.5468H13.4463V13.0468V12.5468H3.05664V13.0468ZM13.4463 13.0468H13.9463V2.6571H13.4463H12.9463V13.0468H13.4463ZM13.4463 2.6571H13.9463C13.9463 1.82898 14.618 1.15727 15.4464 1.1571L15.4463 0.657104L15.4462 0.157104C14.0659 0.157373 12.9463 1.2765 12.9463 2.6571H13.4463ZM15.4463 0.657104V1.1571H81.6338V0.657104V0.157104H15.4463V0.657104ZM83.2266 113.493L82.7266 113.493C82.7267 114.35 83.4243 115.048 84.2812 115.048V114.548V114.048C83.9768 114.048 83.7266 113.798 83.7266 113.493L83.2266 113.493ZM84.2812 114.548V115.048H94.5098V114.548V114.048H84.2812V114.548ZM94.5098 114.548L94.5098 115.048C95.3637 115.048 96.0643 114.35 96.0645 113.493L95.5645 113.493L95.0645 113.493C95.0644 113.797 94.8127 114.048 94.5097 114.048L94.5098 114.548ZM95.5645 113.493H96.0645V112.438H95.5645H95.0645V113.493H95.5645ZM95.5645 112.438V111.938H83.2266V112.438V112.938H95.5645V112.438ZM83.2266 112.438H82.7266V113.493H83.2266H83.7266V112.438H83.2266ZM80.1719 107.384L79.6719 107.384C79.6721 108.24 80.3696 108.938 81.2266 108.938V108.438V107.938C80.9222 107.938 80.672 107.688 80.6719 107.384L80.1719 107.384ZM81.2266 108.438V108.938H97.5645V108.438V107.938H81.2266V108.438ZM97.5645 108.438L97.5645 108.938C98.4217 108.938 99.112 108.235 99.1123 107.383L98.6123 107.383L98.1123 107.383C98.1122 107.691 97.8615 107.938 97.5644 107.938L97.5645 108.438ZM98.6123 107.383L99.1123 107.383L99.1133 106.329L98.6133 106.329L98.1133 106.329L98.1123 107.382L98.6123 107.383ZM98.6133 106.329V105.829H80.1719V106.329V106.829H98.6133V106.329ZM80.1719 106.329H79.6719V107.384H80.1719H80.6719V106.329H80.1719ZM65.9287 99.829L65.9287 100.329C66.7564 100.329 67.4287 101.001 67.4287 101.829H67.9287H68.4287C68.4287 100.449 67.3085 99.329 65.9287 99.329L65.9287 99.829ZM67.9287 101.829L67.4287 101.829C67.4287 102.657 66.7562 103.329 65.9287 103.329L65.9287 103.829L65.9287 104.329C67.3086 104.329 68.4286 103.209 68.4287 101.829L67.9287 101.829ZM65.9287 103.829V103.329H19.1758V103.829V104.329H65.9287V103.829ZM19.1758 103.829L19.1759 103.329C18.3484 103.329 17.6758 102.656 17.6758 101.829L17.1758 101.829L16.6758 101.829C16.6759 103.209 17.7962 104.329 19.1757 104.329L19.1758 103.829ZM17.1758 101.829H17.6758C17.6758 101.001 18.3482 100.329 19.1759 100.329L19.1758 99.829L19.1757 99.329C17.7962 99.3293 16.6758 100.449 16.6758 101.829H17.1758ZM19.1758 99.829V100.329H65.9287V99.829V99.329H19.1758V99.829ZM89.3955 62.3397V61.8397C79.8441 61.8397 72.1006 69.5833 72.1006 79.1346H72.6006H73.1006C73.1006 70.1355 80.3964 62.8397 89.3955 62.8397V62.3397ZM72.6006 79.1346H72.1006C72.1006 84.0236 73.7332 86.3435 75.3457 89.1256L75.7783 88.8749L76.2109 88.6241C74.5904 85.8283 73.1006 83.7231 73.1006 79.1346H72.6006ZM75.7783 88.8749L75.3457 89.1256C77.0602 92.084 78.878 95.5657 79.5267 102.376L80.0244 102.329L80.5222 102.282C79.8558 95.2848 77.9724 91.6637 76.2109 88.6242L75.7783 88.8749ZM80.0244 102.329V102.829H82.0596V102.329V101.829H80.0244V102.329ZM82.0596 102.329L82.5596 102.326L82.4355 82.0857L81.9355 82.0887L81.4356 82.0918L81.5596 102.332L82.0596 102.329ZM81.9355 82.0887L82.4355 82.0857C82.4339 81.8155 82.5057 81.5496 82.6433 81.3168L82.2129 81.0624L81.7825 80.808C81.5528 81.1965 81.4328 81.6404 81.4356 82.0918L81.9355 82.0887ZM82.2129 81.0624L82.6433 81.3169L88.2429 71.8462L87.8125 71.5917L87.3821 71.3372L81.7825 80.8079L82.2129 81.0624ZM87.8125 71.5917L88.2429 71.8461C88.5143 71.387 89.0108 71.1074 89.5445 71.1131L89.5498 70.6132L89.5552 70.1132C88.6646 70.1037 87.8356 70.5701 87.3821 71.3372L87.8125 71.5917ZM89.5498 70.6132L89.5445 71.1131C90.0781 71.1188 90.5685 71.409 90.8298 71.8738L91.2656 71.6288L91.7015 71.3837C91.2648 70.6071 90.446 70.1226 89.5551 70.1132L89.5498 70.6132ZM91.2656 71.6288L90.8298 71.8739L96.157 81.3446L96.5928 81.0995L97.0286 80.8544L91.7014 71.3837L91.2656 71.6288ZM96.5928 81.0995L96.157 81.3446C96.2825 81.5679 96.3486 81.8205 96.3486 82.077H96.8486H97.3486C97.3486 81.6491 97.2385 81.2276 97.0286 80.8544L96.5928 81.0995ZM96.8486 82.077H96.3486V102.329H96.8486H97.3486V82.077H96.8486ZM96.8486 102.329V102.829H98.7666V102.329V101.829H96.8486V102.329ZM98.7666 102.329L99.2644 102.376C99.913 95.5658 101.73 92.0839 103.444 89.1256L103.012 88.8749L102.579 88.6241C100.817 91.6637 98.9352 95.2851 98.2689 102.282L98.7666 102.329ZM103.012 88.8749L103.444 89.1256C105.057 86.3435 106.689 84.0236 106.689 79.1346H106.189H105.689C105.689 83.7231 104.2 85.8283 102.579 88.6241L103.012 88.8749ZM106.189 79.1346H106.689C106.689 69.5834 98.9468 61.8399 89.3955 61.8397L89.3955 62.3397L89.3955 62.8397C98.3944 62.8399 105.689 70.1356 105.689 79.1346H106.189ZM86.0459 102.329V102.829H92.8623V102.329V101.829H86.0459V102.329ZM92.8623 102.329H93.3623V84.0702H92.8623H92.3623V102.329H92.8623ZM92.8623 84.0702V83.5702H85.9346V84.0702V84.5702H92.8623V84.0702ZM85.9346 84.0702L85.4346 84.0732L85.5459 102.332L86.0459 102.329L86.5459 102.326L86.4346 84.0671L85.9346 84.0702ZM65.9287 86.0507L65.9287 86.5507C66.7563 86.5507 67.4287 87.2231 67.4287 88.0507H67.9287H68.4287C68.4287 86.6708 67.3086 85.5507 65.9287 85.5507L65.9287 86.0507ZM67.9287 88.0507L67.4287 88.0506C67.4287 88.8782 66.7563 89.5507 65.9287 89.5507L65.9287 90.0507L65.9287 90.5507C67.3086 90.5506 68.4287 89.4305 68.4287 88.0507L67.9287 88.0507ZM65.9287 90.0507V89.5507H19.1758V90.0507V90.5507H65.9287V90.0507ZM19.1758 90.0507L19.1759 89.5507C18.3483 89.5505 17.6758 88.878 17.6758 88.0506L17.1758 88.0507L16.6758 88.0507C16.6758 89.4305 17.7962 90.5504 19.1757 90.5507L19.1758 90.0507ZM17.1758 88.0507H17.6758C17.6758 87.2233 18.3483 86.5508 19.1759 86.5507L19.1758 86.0507L19.1757 85.5507C17.7962 85.5509 16.6758 86.6708 16.6758 88.0507H17.1758ZM19.1758 86.0507V86.5507H65.9287V86.0507V85.5507H19.1758V86.0507ZM87.4229 80.0839V80.5839H91.4473V80.0839V79.5839H87.4229V80.0839ZM91.4473 80.0839L91.8831 79.8388L89.9212 76.3495L89.4854 76.5946L89.0495 76.8397L91.0114 80.3289L91.4473 80.0839ZM89.4854 76.5946L89.0549 76.3402L86.9924 79.8294L87.4229 80.0839L87.8533 80.3383L89.9158 76.849L89.4854 76.5946ZM64.3477 72.2723V72.7723C65.1753 72.7723 65.8476 73.4447 65.8477 74.2723H66.3477H66.8477C66.8476 72.8925 65.7275 71.7723 64.3477 71.7723V72.2723ZM66.3477 74.2723H65.8477C65.8477 75.1002 65.1753 75.7723 64.3477 75.7723V76.2723V76.7723C65.7275 76.7723 66.8477 75.6525 66.8477 74.2723H66.3477ZM64.3477 76.2723V75.7723H19.1758V76.2723V76.7723H64.3477V76.2723ZM19.1758 76.2723L19.1759 75.7723C18.3482 75.7722 17.6758 75.0999 17.6758 74.2723H17.1758H16.6758C16.6758 75.6525 17.7962 76.7721 19.1757 76.7723L19.1758 76.2723ZM17.1758 74.2723H17.6758C17.6758 73.445 18.3483 72.7725 19.1759 72.7723L19.1758 72.2723L19.1757 71.7723C17.7962 71.7726 16.6758 72.8925 16.6758 74.2723H17.1758ZM19.1758 72.2723V72.7723H64.3477V72.2723V71.7723H19.1758V72.2723ZM59.2764 64.9452L59.7092 65.1954C60.1236 64.4786 61.0422 64.2328 61.7587 64.6467L62.0088 64.2137L62.2589 63.7808C61.064 63.0906 59.534 63.5004 58.8435 64.695L59.2764 64.9452ZM62.0088 64.2137L61.7585 64.6466L65.5945 66.8644L65.8447 66.4315L66.095 65.9987L62.2591 63.7809L62.0088 64.2137ZM65.8447 66.4315L65.5944 66.8644C66.3109 67.2787 66.5564 68.1971 66.1423 68.9138L66.5752 69.1639L67.0081 69.4141C67.6984 68.2195 67.2897 66.6895 66.095 65.9987L65.8447 66.4315ZM66.5752 69.1639L66.1424 68.9136C65.728 69.6301 64.8096 69.8756 64.0929 69.4615L63.8428 69.8944L63.5926 70.3273C64.7872 71.0176 66.3172 70.6088 67.008 69.4143L66.5752 69.1639ZM63.8428 69.8944L64.093 69.4615L60.257 67.2447L60.0068 67.6776L59.7567 68.1105L63.5926 70.3273L63.8428 69.8944ZM60.0068 67.6776L60.2571 67.2448C59.5408 66.8306 59.2953 65.9121 59.7093 65.1953L59.2764 64.9452L58.8434 64.6951C58.1535 65.8896 58.5618 67.4197 59.7566 68.1105L60.0068 67.6776ZM116.774 64.2147L117.025 64.6475C117.741 64.2331 118.66 64.478 119.074 65.1938L119.507 64.9432L119.94 64.6927C119.248 63.4988 117.718 63.0912 116.524 63.7819L116.774 64.2147ZM119.507 64.9432L119.074 65.1937C119.489 65.9101 119.244 66.8294 118.528 67.2439L118.778 67.6766L119.029 68.1093C120.223 67.4179 120.631 65.8868 119.94 64.6927L119.507 64.9432ZM118.778 67.6766L118.528 67.2439L114.698 69.4607L114.948 69.8934L115.199 70.3262L119.029 68.1094L118.778 67.6766ZM114.948 69.8934L114.698 69.4607C113.982 69.8752 113.063 69.6305 112.648 68.9143L112.216 69.1649L111.783 69.4155C112.475 70.6095 114.005 71.0172 115.199 70.3262L114.948 69.8934ZM112.216 69.1649L112.649 68.9144C112.234 68.198 112.479 67.2788 113.195 66.8643L112.944 66.4315L112.694 65.9988C111.499 66.6903 111.092 68.2215 111.783 69.4154L112.216 69.1649ZM112.944 66.4315L113.195 66.8643L117.025 64.6475L116.774 64.2147L116.524 63.782L112.694 65.9988L112.944 66.4315ZM65.9287 58.494L65.9287 58.994C66.7562 58.994 67.4286 59.6663 67.4287 60.4941L67.9287 60.494L68.4287 60.4939C68.4285 59.1141 67.3085 57.994 65.9287 57.994L65.9287 58.494ZM67.9287 60.494H67.4287C67.4287 61.3216 66.7563 61.994 65.9287 61.994L65.9287 62.494L65.9287 62.994C67.3086 62.994 68.4287 61.8739 68.4287 60.494H67.9287ZM65.9287 62.494V61.994H19.1758V62.494V62.994H65.9287V62.494ZM19.1758 62.494L19.1759 61.994C18.3483 61.9939 17.6758 61.3214 17.6758 60.494H17.1758H16.6758C16.6758 61.8739 17.7962 62.9937 19.1757 62.994L19.1758 62.494ZM17.1758 60.494L17.6758 60.4941C17.6759 59.6665 18.3484 58.9942 19.1759 58.994L19.1758 58.494L19.1757 57.994C17.7962 57.9943 16.676 59.1141 16.6758 60.4939L17.1758 60.494ZM19.1758 58.494V58.994H65.9287V58.494V57.994H19.1758V58.494ZM72.0078 52.2147L72.2575 52.6479C72.9746 52.2346 73.8928 52.4811 74.3061 53.1979L74.7393 52.9481L75.1724 52.6983C74.4831 51.503 72.9534 51.0925 71.7581 51.7815L72.0078 52.2147ZM74.7393 52.9481L74.3061 53.1978L76.517 57.0337L76.9502 56.7841L77.3834 56.5344L75.1725 52.6984L74.7393 52.9481ZM76.9502 56.7841L76.517 57.0337C76.9303 57.7509 76.6833 58.6691 75.9662 59.0823L76.2158 59.5155L76.4654 59.9487C77.6609 59.2599 78.0726 57.7302 77.3834 56.5344L76.9502 56.7841ZM76.2158 59.5155L75.9662 59.0823C75.249 59.4955 74.3307 59.2484 73.9176 58.5315L73.4844 58.7811L73.0511 59.0308C73.74 60.2262 75.2697 60.6377 76.4654 59.9487L76.2158 59.5155ZM73.4844 58.7811L73.9176 58.5315L71.7076 54.6965L71.2744 54.9462L70.8412 55.1958L73.0512 59.0308L73.4844 58.7811ZM71.2744 54.9462L71.7076 54.6965C71.2942 53.9791 71.5406 53.0612 72.2575 52.6479L72.0078 52.2147L71.7581 51.7816C70.5624 52.4709 70.1523 54.0004 70.8412 55.1958L71.2744 54.9462ZM104.052 52.9462L104.485 53.1964C104.899 52.4799 105.818 52.2342 106.535 52.6486L106.785 52.2157L107.035 51.7828C105.841 51.0922 104.31 51.501 103.619 52.6959L104.052 52.9462ZM106.785 52.2157L106.535 52.6486C107.251 53.0627 107.497 53.9815 107.083 54.6979L107.516 54.9481L107.949 55.1983C108.639 54.004 108.23 52.4734 107.035 51.7828L106.785 52.2157ZM107.516 54.9481L107.083 54.6979L104.866 58.5339L105.299 58.7841L105.732 59.0342L107.949 55.1983L107.516 54.9481ZM105.299 58.7841L104.866 58.5338C104.452 59.2501 103.533 59.4957 102.817 59.0816L102.566 59.5145L102.316 59.9475C103.511 60.6377 105.041 60.2288 105.732 59.0343L105.299 58.7841ZM102.566 59.5145L102.817 59.0816C102.1 58.6675 101.854 57.7488 102.268 57.0322L101.835 56.7821L101.402 56.532C100.712 57.7269 101.122 59.2571 102.316 59.9475L102.566 59.5145ZM101.835 56.7821L102.268 57.0323L104.485 53.1963L104.052 52.9462L103.619 52.696L101.402 56.5319L101.835 56.7821ZM89.3955 47.5575L89.3954 48.0575C90.223 48.0576 90.8955 48.7301 90.8955 49.5575H91.3955H91.8955C91.8955 48.1776 90.7752 47.0577 89.3956 47.0575L89.3955 47.5575ZM91.3955 49.5575H90.8955V53.9852H91.3955H91.8955V49.5575H91.3955ZM91.3955 53.9852L90.8955 53.9851C90.8954 54.8128 90.2229 55.4851 89.3954 55.4852L89.3955 55.9852L89.3956 56.4852C90.7751 56.485 91.8953 55.3651 91.8955 53.9853L91.3955 53.9852ZM89.3955 55.9852V55.4852C88.5681 55.4852 87.8957 54.8129 87.8955 53.9851L87.3955 53.9852L86.8955 53.9853C86.8958 55.3652 88.0157 56.4852 89.3955 56.4852V55.9852ZM87.3955 53.9852H87.8955V49.5575H87.3955H86.8955V53.9852H87.3955ZM87.3955 49.5575H87.8955C87.8955 48.7299 88.5679 48.0575 89.3955 48.0575V47.5575V47.0575C88.0156 47.0575 86.8955 48.1776 86.8955 49.5575H87.3955ZM65.9287 44.7264L65.9287 45.2264C66.7563 45.2264 67.4286 45.8987 67.4287 46.7265L67.9287 46.7264L68.4287 46.7264C68.4286 45.3464 67.3085 44.2265 65.9287 44.2264L65.9287 44.7264ZM67.9287 46.7264H67.4287C67.4287 47.554 66.7563 48.2264 65.9287 48.2264L65.9287 48.7264L65.9287 49.2264C67.3086 49.2264 68.4287 48.1063 68.4287 46.7264H67.9287ZM65.9287 48.7264V48.2264H19.1758V48.7264V49.2264H65.9287V48.7264ZM19.1758 48.7264L19.1759 48.2264C18.3483 48.2263 17.6758 47.5538 17.6758 46.7264H17.1758H16.6758C16.6758 48.1063 17.7962 49.2262 19.1757 49.2264L19.1758 48.7264ZM17.1758 46.7264L17.6758 46.7265C17.6758 45.8989 18.3483 45.2266 19.1759 45.2264L19.1758 44.7264L19.1757 44.2264C17.7962 44.2267 16.6759 45.3464 16.6758 46.7264L17.1758 46.7264ZM19.1758 44.7264V45.2264H65.9287V44.7264V44.2264H19.1758V44.7264ZM52.7305 30.9481V31.4481C53.5579 31.4481 54.2304 32.1206 54.2305 32.9482L54.7305 32.9481L55.2305 32.9481C55.2303 31.5684 54.1103 30.4481 52.7305 30.4481V30.9481ZM54.7305 32.9481H54.2305C54.2305 33.7757 53.5581 34.4481 52.7305 34.4481V34.9481V35.4481C54.1104 35.4481 55.2305 34.328 55.2305 32.9481H54.7305ZM52.7305 34.9481V34.4481H19.1758V34.9481V35.4481H52.7305V34.9481ZM19.1758 34.9481L19.1759 34.4481C18.3483 34.448 17.6758 33.7755 17.6758 32.9481H17.1758H16.6758C16.6758 34.328 17.7962 35.4478 19.1757 35.4481L19.1758 34.9481ZM17.1758 32.9481L17.6758 32.9482C17.6759 32.1208 18.3484 31.4483 19.1759 31.4481L19.1758 30.9481L19.1757 30.4481C17.7962 30.4484 16.6759 31.5684 16.6758 32.9481L17.1758 32.9481ZM19.1758 30.9481V31.4481H52.7305V30.9481V30.4481H19.1758V30.9481ZM71.2441 25.8407V26.3407H77.209V25.8407V25.3407H71.2441V25.8407ZM77.209 25.8407L77.5625 25.4871L71.5977 19.5223L71.2441 19.8759L70.8906 20.2294L76.8554 26.1943L77.209 25.8407ZM71.2441 19.8759H70.7441V25.8407H71.2441H71.7441V19.8759H71.2441ZM83.6338 13.4618V13.9618H89.6016V13.4618V12.9618H83.6338V13.4618ZM89.6016 13.4618L89.9552 13.1084C89.0493 12.2018 88.0106 11.1619 86.9717 10.1219C85.9329 9.08191 84.8939 8.04177 83.9875 7.13473L83.6338 7.48816L83.2801 7.84159C84.1864 8.74855 85.2253 9.7886 86.2642 10.8286C87.303 11.8686 88.3418 12.9086 89.2479 13.8152L89.6016 13.4618ZM83.6338 7.48816H83.1338V13.4618H83.6338H84.1338V7.48816H83.6338Z" fill="black" mask="url(#path-1-outside-1_312_19)"/>
</svg>
