<svg width="165" height="190" viewBox="0 0 165 190" fill="none" xmlns="http://www.w3.org/2000/svg">
<path d="M82.5246 177.075C40.659 177.075 6.59863 143.014 6.59863 101.149C6.59863 59.2831 40.659 25.2227 82.5246 25.2227C124.39 25.2227 158.451 59.2831 158.451 101.149C158.451 143.014 124.39 177.075 82.5246 177.075ZM82.5246 40.4079C49.0322 40.4079 21.7838 67.6562 21.7838 101.149C21.7838 134.641 49.0322 161.889 82.5246 161.889C116.017 161.889 143.265 134.641 143.265 101.149C143.265 67.6562 116.017 40.4079 82.5246 40.4079Z" fill="#F0BC5E"/>
<path d="M85.5617 89.4321V61.6675H79.4876V89.4321C74.2639 90.7897 70.3765 95.5062 70.3765 101.149C70.3765 103.396 71.0294 105.474 72.0985 107.281L59.1182 120.261L63.4125 124.555L76.3929 111.575C78.1999 112.644 80.2772 113.297 82.5246 113.297C89.2243 113.297 94.6728 107.849 94.6728 101.149C94.6728 95.5062 90.7854 90.7897 85.5617 89.4321ZM82.5246 107.223C79.1748 107.223 76.4506 104.499 76.4506 101.149C76.4506 97.7992 79.1748 95.0749 82.5246 95.0749C85.8745 95.0749 88.5987 97.7992 88.5987 101.149C88.5987 104.499 85.8745 107.223 82.5246 107.223Z" fill="black"/>
<path d="M43.0425 183.149C34.6694 183.149 27.8573 176.337 27.8573 167.964C27.8573 164.095 29.3242 160.475 31.9148 157.687C30.4084 156.335 28.9628 154.92 27.5657 153.453C23.8757 157.368 21.7832 162.491 21.7832 167.964C21.7832 179.687 31.3195 189.223 43.0425 189.223C52.4118 189.223 60.4204 183.231 63.2175 174.579C61.2465 174.059 59.3119 173.455 57.4077 172.787C55.382 178.913 49.6966 183.149 43.0425 183.149Z" fill="black"/>
<path d="M133.134 157.687C135.724 160.475 137.191 164.095 137.191 167.964C137.191 176.337 130.379 183.149 122.006 183.149C115.352 183.149 109.667 178.913 107.641 172.787C105.737 173.458 103.802 174.062 101.831 174.579C104.628 183.231 112.637 189.223 122.006 189.223C133.729 189.223 143.265 179.687 143.265 167.964C143.265 162.491 141.173 157.368 137.483 153.453C136.086 154.92 134.643 156.335 133.134 157.687Z" fill="black"/>
<path d="M157.381 20.2183C152.774 15.6111 146.651 13.0752 140.14 13.0752C133.625 13.0752 127.502 15.6111 122.895 20.2183L120.748 22.3655L129.768 31.3855L123.727 37.4262C125.452 38.5469 127.132 39.7313 128.76 40.9856L134.062 35.6829L141.916 43.5367L137.054 48.399C138.463 49.8568 139.83 51.3571 141.121 52.9212L146.211 47.8311L155.231 56.8511L157.378 54.7039C161.988 50.0967 164.524 43.974 164.524 37.4596C164.524 30.9482 161.988 24.8255 157.381 20.2183ZM155.057 48.0862L129.513 22.5416C132.593 20.3368 136.273 19.1493 140.14 19.1493C145.029 19.1493 149.63 21.0535 153.086 24.5127C156.546 27.9719 158.45 32.57 158.45 37.4596C158.45 41.3257 157.262 45.0066 155.057 48.0862Z" fill="black"/>
<path d="M64.3026 19.149H70.3767V26.2071C72.3751 25.8852 74.4038 25.6513 76.4508 25.4873V19.149H88.5989V25.4873C90.6459 25.6513 92.6746 25.8821 94.673 26.2071V19.149H100.747C104.097 19.149 106.821 16.4248 106.821 13.0749C106.821 6.37521 101.373 0.926758 94.673 0.926758H70.3767C63.677 0.926758 58.2285 6.37521 58.2285 13.0749C58.2285 16.4248 60.9527 19.149 64.3026 19.149ZM70.3767 7.00084H94.673C98.0229 7.00084 100.747 9.72506 100.75 13.0749H64.3026C64.3026 9.72506 67.0268 7.00084 70.3767 7.00084Z" fill="black"/>
<path d="M23.9279 52.9207C25.2186 51.3536 26.5853 49.8533 27.9944 48.3985L23.1321 43.5362L30.9859 35.6824L36.2886 40.9851C37.9134 39.7338 39.5929 38.5464 41.321 37.4257L35.2803 31.385L44.3003 22.365L42.1531 20.2178C37.5459 15.6106 31.4233 13.0747 24.9088 13.0747C18.3944 13.0747 12.2717 15.6106 7.66753 20.2178C3.06338 24.825 0.524414 30.9477 0.524414 37.4591C0.524414 43.9736 3.06034 50.0962 7.66753 54.7034L9.81472 56.8506L18.8347 47.8306L23.9279 52.9207ZM6.5985 37.4591C6.5985 32.5695 8.50272 27.9684 11.9619 24.5122C15.4211 21.053 20.0192 19.1488 24.9088 19.1488C28.7719 19.1488 32.4528 20.3363 35.5354 22.5412L9.99087 48.0857C7.78598 45.0062 6.5985 41.3253 6.5985 37.4591Z" fill="black"/>
<path d="M82.5239 37.3711C47.355 37.3711 18.7461 65.98 18.7461 101.149C18.7461 136.318 47.355 164.927 82.5239 164.927C117.693 164.927 146.302 136.318 146.302 101.149C146.302 65.98 117.693 37.3711 82.5239 37.3711ZM140.073 104.186C139.359 117.804 133.926 130.162 125.352 139.683L116.882 131.213L112.588 135.507L121.058 143.977C111.537 152.554 99.1791 157.984 85.561 158.698V146.705H79.4869V158.698C65.8688 157.984 53.5111 152.551 43.99 143.977L52.4603 135.507L48.1659 131.213L39.6956 139.683C31.119 130.162 25.6888 117.804 24.9751 104.186H36.9683V98.1119H24.9751C25.6888 84.4938 31.122 72.1361 39.6956 62.615L48.1659 71.0853L52.4603 66.7909L43.99 58.3206C53.5111 49.744 65.8688 44.3138 79.4869 43.6001V55.5933H85.561V43.6001C99.1791 44.3138 111.537 49.747 121.058 58.3206L112.588 66.7909L116.882 71.0853L125.352 62.615C133.929 72.1361 139.359 84.4938 140.073 98.1119H128.08V104.186H140.073Z" fill="black"/>
</svg>
