<svg width="217" height="217" viewBox="0 0 217 217" fill="none" xmlns="http://www.w3.org/2000/svg">
<path d="M127.07 0.827393C128.025 0.834672 128.94 1.20814 129.626 1.87134L172.214 44.6038C172.885 45.2846 173.261 46.2032 173.258 47.1594V69.2278H205.658C211.615 69.2459 216.44 74.0706 216.458 80.0276V206.028C216.44 211.985 211.615 216.809 205.658 216.827H4.05762C2.06983 216.827 0.458222 215.216 0.458008 213.228V4.427C0.458219 2.43921 2.06983 0.827604 4.05762 0.827393H127.07ZM7.6582 209.627H109.07C108.889 209.225 108.696 208.702 108.57 208.074C108.407 207.256 108.413 206.546 108.458 206.028V173.627H76.0576C74.0698 173.627 72.4581 172.015 72.458 170.028V119.627C72.4581 117.639 74.0698 116.028 76.0576 116.028H108.458V80.0276C108.476 74.0705 113.301 69.2459 119.258 69.2278H166.058V51.2278H148.058C134.147 51.2118 122.874 39.9382 122.858 26.0276V8.02759H7.6582V209.627ZM119.258 76.427C117.27 76.4271 115.658 78.0396 115.658 80.0276V116.028H122.858V87.2278C122.858 85.2397 124.47 83.6272 126.458 83.6272H144.458C145.412 83.6344 146.327 84.008 147.014 84.6711L153.134 90.8274H171.782L177.902 84.6711C178.589 84.008 179.504 83.6344 180.458 83.6272H198.458C200.446 83.6272 202.058 85.2397 202.058 87.2278V198.827C202.058 200.815 200.446 202.427 198.458 202.427H126.458C124.47 202.427 122.858 200.815 122.858 198.827V173.627H115.658V206.028C115.658 208.016 117.27 209.627 119.258 209.627H205.658C207.646 209.627 209.258 208.016 209.258 206.028V80.0276C209.258 78.0396 207.646 76.4271 205.658 76.427H119.258ZM130.058 116.028H166.058C168.046 116.028 169.658 117.639 169.658 119.627V180.827C169.673 182.746 168.156 184.327 166.238 184.392C165.949 184.404 165.523 184.387 165.034 184.247C164.523 184.101 164.141 183.876 163.898 183.707L150.47 173.627H130.058V195.228H194.858V90.8274H181.934L175.814 96.9836C175.128 97.6469 174.212 98.0204 173.258 98.0276H151.658C150.704 98.0204 149.788 97.6469 149.102 96.9836L142.982 90.8274H130.058V116.028ZM79.6582 166.427H151.658C152.438 166.423 153.197 166.677 153.818 167.148L162.458 173.627V123.228H79.6582V166.427ZM115.658 155.627H90.458V148.427H115.658V155.627ZM151.658 155.627H126.458V148.427H151.658V155.627ZM29.2578 29.6272C37.2107 29.6272 43.6582 36.0747 43.6582 44.0276V130.427C43.6546 130.99 43.5186 131.545 43.2617 132.047L32.4619 153.648C32.1181 154.319 31.5712 154.866 30.8994 155.21C29.1297 156.117 26.9604 155.417 26.0537 153.648L15.2539 132.047C14.997 131.545 14.862 130.99 14.8584 130.427V44.0276C14.8584 36.0748 21.3051 29.6273 29.2578 29.6272ZM29.2578 143.963L32.4258 137.627H26.0898L29.2578 143.963ZM101.258 141.228H90.458V134.028H101.258V141.228ZM151.658 141.228H108.458V134.028H151.658V141.228ZM29.2578 36.8274C25.2813 36.8275 22.0576 40.051 22.0576 44.0276V129.564L22.4902 130.427H36.0264L36.458 129.564V44.0276C36.458 40.0509 33.2345 36.8274 29.2578 36.8274ZM101.258 101.627H54.458V94.427H101.258V101.627ZM101.258 83.6272H54.458V76.427H101.258V83.6272ZM115.658 65.6272H54.458V58.427H115.658V65.6272ZM68.8584 47.6272H54.458V40.427H68.8584V47.6272ZM115.658 47.6272H76.0576V40.427H115.658V47.6272ZM130.058 26.0276C130.058 35.9683 138.117 44.0274 148.058 44.0276H161.45L130.058 12.5276V26.0276ZM94.0576 29.6272H54.458V22.427H94.0576V29.6272Z" fill="black"/>
</svg>
