<svg width="116" height="129" viewBox="0 0 116 129" fill="none" xmlns="http://www.w3.org/2000/svg">
<path d="M45.5521 76.8282L46.3196 57.9224C46.4586 54.4974 43.5131 51.6897 40.0869 51.6897H34.9616L31.5283 72.1537L25.5096 85.253H2.4021V124.207H15.5271V85.253M15.5271 120.457H26.8381L36.1873 126.69H51.4016M55.1516 126.69H60.7766C64.2036 126.69 67.0093 123.885 67.0093 120.457C67.0093 117.029 64.2046 114.224 60.7766 114.224M57.0266 114.224H63.8928C67.3208 114.224 70.1256 111.42 70.1256 107.992C70.1256 104.564 67.3198 101.759 63.8928 101.759M58.2678 101.759H65.4511C68.8791 101.759 71.6838 98.9545 71.6838 95.5265C71.6838 92.0985 68.8791 89.2937 65.4511 89.2937H58.5848M62.3346 89.2937C65.7621 89.2937 68.5673 86.489 68.5673 83.061C68.5673 79.633 65.7628 76.8282 62.3346 76.8282L40.8773 76.8279" stroke="black" stroke-width="3.75" stroke-miterlimit="22.9256"/>
<path d="M5.01904 11.8149V2.43994H113.598V43.6899H67.2633L59.3083 51.6447L51.3533 43.6899H5.01904V15.5649" stroke="black" stroke-width="3.75" stroke-miterlimit="22.9256"/>
<path fill-rule="evenodd" clip-rule="evenodd" d="M59.3084 12.8892L62.7856 19.3529L70.0076 20.6627L64.9349 25.9672L65.9209 33.2404L59.3084 30.0552L52.6956 33.2404L53.6819 25.9672L48.6089 20.6627L55.8311 19.3529L59.3084 12.8892Z" fill="url(#paint0_linear_303_1132)"/>
<path fill-rule="evenodd" clip-rule="evenodd" d="M93.0579 12.8892L96.5351 19.3529L103.757 20.6627L98.6844 25.9672L99.6704 33.2404L93.0579 30.0552L86.4454 33.2404L87.4314 25.9672L82.3586 20.6627L89.5806 19.3529L93.0579 12.8892Z" fill="url(#paint1_linear_303_1132)"/>
<path fill-rule="evenodd" clip-rule="evenodd" d="M25.5589 12.8892L29.0361 19.3529L36.2581 20.6627L31.1851 25.9672L32.1714 33.2404L25.5589 30.0552L18.9461 33.2404L19.9324 25.9672L14.8594 20.6627L22.0814 19.3529L25.5589 12.8892Z" fill="url(#paint2_linear_303_1132)"/>
<path d="M48.3777 84.3281H52.1277M40.8777 84.3281H44.6277" stroke="black" stroke-width="3.75" stroke-miterlimit="22.9256"/>
<defs>
<linearGradient id="paint0_linear_303_1132" x1="59.3083" y1="12.8892" x2="59.3083" y2="33.2404" gradientUnits="userSpaceOnUse">
<stop stop-color="#FF6D00"/>
<stop offset="1" stop-color="#C60000"/>
</linearGradient>
<linearGradient id="paint1_linear_303_1132" x1="93.058" y1="12.8892" x2="93.058" y2="33.2404" gradientUnits="userSpaceOnUse">
<stop stop-color="#FF6D00"/>
<stop offset="1" stop-color="#C60000"/>
</linearGradient>
<linearGradient id="paint2_linear_303_1132" x1="25.5588" y1="12.8892" x2="25.5588" y2="33.2404" gradientUnits="userSpaceOnUse">
<stop stop-color="#FF6D00"/>
<stop offset="1" stop-color="#C60000"/>
</linearGradient>
</defs>
</svg>
