<svg width="129" height="139" viewBox="0 0 129 139" fill="none" xmlns="http://www.w3.org/2000/svg">
<path d="M7.4362 51.8854C9.11058 49.8095 11.3061 48.5708 14.027 48.165C16.7478 47.7635 19.8489 48.0454 23.3258 49.0193C26.807 49.9931 30.5487 51.5437 34.5553 53.6708C37.7246 55.3537 40.9068 57.3015 44.0933 59.5183C47.2797 61.7352 50.4107 64.4561 53.4818 67.6938C56.5529 70.9272 59.0645 74.686 61.0165 78.9617C62.9685 83.2416 63.951 87.9273 63.9595 93.0231L49.424 85.309C49.4453 82.0456 48.2237 78.5687 45.7506 74.8868C43.2774 71.2049 39.4417 67.98 34.2349 65.2206C29.6261 62.7774 25.927 61.6668 23.1293 61.889C20.3315 62.1111 18.7938 63.8623 18.5205 67.1299C18.3752 68.8684 18.734 70.5385 19.6011 72.1488C20.4639 73.7591 21.6898 75.3353 23.2831 76.873C24.872 78.415 26.6062 79.8758 28.4899 81.2597C30.3736 82.6436 32.9706 84.459 36.2809 86.7015C40.8342 89.747 44.5802 92.3995 47.5147 94.6505C50.4491 96.9058 53.234 99.4815 55.8652 102.377C58.4964 105.273 60.5338 108.52 61.9861 112.112C63.4341 115.704 63.9851 119.57 63.6391 123.709C63.2675 128.117 62.0459 131.355 59.9658 133.422C57.8856 135.494 55.2758 136.617 52.1363 136.801C48.9968 136.984 45.6182 136.493 41.996 135.34C38.3739 134.187 34.6791 132.606 30.9118 130.607C25.2863 127.621 20.4639 124.435 16.436 121.043C12.4081 117.652 9.18747 114.179 6.76559 110.63C4.34371 107.08 2.63516 103.437 1.63565 99.695C0.636147 95.9576 0.268807 92.1347 0.533634 88.2306L15.0692 95.9447C14.8641 100.648 16.278 105.026 19.3107 109.075C22.3433 113.129 26.6745 116.644 32.2957 119.63C34.4485 120.774 36.4688 121.654 38.3525 122.269C40.2362 122.889 41.9618 123.175 43.5294 123.132C45.0928 123.089 46.3528 122.607 47.3054 121.684C48.2579 120.762 48.8132 119.365 48.9669 117.494C49.1207 115.623 48.7619 113.812 47.8777 112.052C46.9935 110.292 45.7292 108.597 44.089 106.956C42.4445 105.316 40.595 103.727 38.5405 102.181C36.4817 100.635 33.859 98.7724 30.6683 96.5897C26.3627 93.54 22.7705 90.9002 19.8958 88.6791C17.0212 86.458 14.326 83.9293 11.8144 81.0974C9.3028 78.2655 7.35931 75.1602 5.9882 71.7815C4.61708 68.4028 4.09597 64.7465 4.42487 60.804C4.7495 56.9341 5.749 53.957 7.42339 51.8811L7.4362 51.8854Z" fill="white"/>
<path d="M73.506 75.6726C75.2872 71.8113 77.5553 68.2916 80.3104 65.1137C83.0654 61.9358 86.1665 59.0954 89.622 56.5838C93.0733 54.0765 96.7638 51.9023 100.693 50.0614C103.803 48.6048 106.908 47.4174 110.009 46.499C113.11 45.5807 116.13 45.256 119.065 45.5166C121.999 45.7814 124.348 47.1568 126.112 49.6428C127.872 52.1287 128.641 56.0285 128.41 61.3336L114.161 68.0097C114.341 64.5798 113.273 62.1921 110.962 60.8552C108.651 59.5182 104.943 60.0393 99.8434 62.4313C95.3286 64.5456 91.6552 67.1384 88.8318 70.2052C86.0084 73.2764 84.381 76.655 83.9496 80.3455C83.7232 82.3061 84.0051 83.6857 84.7996 84.4888C85.5941 85.2918 86.7516 85.6933 88.2765 85.6933C89.8014 85.6933 91.4758 85.4584 93.3082 84.9928C95.1364 84.5272 97.6608 83.7925 100.886 82.7802C105.324 81.345 108.963 80.3156 111.808 79.6963C114.652 79.0769 117.331 78.9445 119.838 79.299C122.345 79.6578 124.246 80.9734 125.532 83.2586C126.817 85.5395 127.189 89.0164 126.646 93.6893C126.066 98.6612 124.682 103.283 122.495 107.546C120.303 111.813 117.63 115.631 114.464 119.002C111.299 122.372 107.925 125.289 104.337 127.749C100.749 130.214 97.1097 132.311 93.415 134.041C87.9006 136.625 83.2021 138.184 79.3109 138.723C75.4239 139.261 72.3442 138.906 70.0804 137.65C67.8166 136.399 66.266 134.327 65.4417 131.436C64.613 128.548 64.4251 124.93 64.8736 120.586L79.1229 113.91C78.6915 119.027 79.9089 122.162 82.7664 123.316C85.624 124.469 89.8099 123.756 95.3243 121.171C97.4344 120.181 99.4248 119.057 101.291 117.789C103.158 116.524 104.879 115.076 106.456 113.445C108.032 111.817 109.317 110.04 110.321 108.11C111.321 106.183 111.944 104.163 112.192 102.053C112.44 99.9427 112.158 98.4178 111.355 97.4781C110.548 96.5384 109.36 96.0471 107.784 96.0002C106.208 95.9532 104.422 96.1667 102.428 96.6366C100.433 97.1107 97.8829 97.824 94.7776 98.7766C90.5916 99.9555 87.1062 100.84 84.3212 101.429C81.5363 102.023 78.9478 102.113 76.5558 101.702C74.1638 101.292 72.357 100.02 71.1354 97.8838C69.9138 95.7481 69.5636 92.4592 70.0804 88.0127C70.5972 83.5661 71.7334 79.5297 73.5146 75.6641L73.506 75.6726Z" fill="white"/>
<path d="M64.6685 0.538818L74.2706 6.30092L37.7759 28.9649L109.992 25.8938L121.516 32.8092L64.2798 68.5351L52.3712 61.2353L93.8592 37.8024L19.7207 40.8736L7.04323 32.8049L64.6685 0.538818Z" fill="white"/>
</svg>
