<svg width="150" height="151" viewBox="0 0 150 151" fill="none" xmlns="http://www.w3.org/2000/svg">
<g clip-path="url(#clip0_345_460)">
<path d="M75.0584 150.821C116.512 150.821 150.117 117.216 150.117 75.7626C150.117 34.3089 116.512 0.704102 75.0584 0.704102C33.6048 0.704102 0 34.3089 0 75.7626C0 117.216 33.6048 150.821 75.0584 150.821Z" fill="url(#paint0_linear_345_460)"/>
<path fill-rule="evenodd" clip-rule="evenodd" d="M33.9049 74.944C55.7677 65.3571 70.3819 59.1607 77.7475 56.1209C98.5581 47.4693 102.884 45.9494 105.69 45.8325C106.274 45.8325 107.677 45.9494 108.613 46.6509C109.314 47.2355 109.548 48.0539 109.665 48.6384C109.782 49.223 109.899 50.5091 109.782 51.5613C108.613 63.3695 103.819 92.2472 101.247 105.458C100.195 111.07 98.0904 112.941 96.1029 113.175C91.7771 113.525 88.3866 110.252 84.1777 107.563C77.6306 103.237 73.8893 100.548 67.4591 96.3391C60.0935 91.4288 64.887 88.7398 69.0959 84.414C70.1481 83.2448 89.4388 65.8247 89.7896 64.1879C89.7896 63.9541 89.9065 63.2526 89.4388 62.9019C88.9712 62.5511 88.3866 62.6681 87.9189 62.785C87.2175 62.9019 76.6952 69.9167 56.2354 83.7125C53.1956 85.8169 50.5066 86.7522 48.0514 86.7522C45.3624 86.7522 40.2182 85.2324 36.3601 83.9463C31.6836 82.4264 27.9423 81.608 28.2931 79.0359C28.5269 77.7499 30.3975 76.3469 33.9049 74.944Z" fill="white"/>
</g>
<defs>
<linearGradient id="paint0_linear_345_460" x1="0" y1="75.7082" x2="150.008" y2="75.7082" gradientUnits="userSpaceOnUse">
<stop stop-color="#2AABEE"/>
<stop offset="1" stop-color="#229ED9"/>
</linearGradient>
<clipPath id="clip0_345_460">
<rect width="150" height="150" fill="white" transform="translate(0 0.704102)"/>
</clipPath>
</defs>
</svg>
