<svg width="150" height="151" viewBox="0 0 150 151" fill="none" xmlns="http://www.w3.org/2000/svg">
<g clip-path="url(#clip0_345_450)">
<path d="M58.4067 59.7682V53.9137C56.1329 53.639 53.8251 53.4697 51.4704 53.4697C23.091 53.4697 0 73.8738 0 98.9547C0 114.343 8.69905 127.96 21.9754 136.192C13.4084 128.065 8.15403 117.18 8.15403 105.223C8.15403 80.5034 30.5893 60.3438 58.4109 59.7682H58.4067Z" fill="#25F4EE"/>
<path d="M59.6201 125.996C72.2833 125.996 82.6132 117.094 83.0816 106.005L83.1284 6.97621H103.601C103.175 4.94069 102.941 2.84873 102.941 0.704102H74.9786L74.9318 99.7334C74.4634 110.821 64.1336 119.724 51.4704 119.724C47.536 119.724 43.8273 118.854 40.5657 117.338C44.8364 122.572 51.7769 125.996 59.6201 125.996Z" fill="#25F4EE"/>
<path d="M141.846 40.5867V35.0822C134.037 35.0822 126.76 33.0316 120.658 29.5137C126.091 35.0257 133.47 39.0027 141.846 40.5867Z" fill="#25F4EE"/>
<path d="M120.662 29.5139C114.71 23.475 111.095 15.5926 111.095 6.97266H103.605C105.576 16.3865 111.9 24.4646 120.662 29.5139Z" fill="#FE2C55"/>
<path d="M51.4704 78.1816C38.5092 78.1816 27.9622 87.5014 27.9622 98.9544C27.9622 106.931 33.0845 113.862 40.5658 117.338C37.7768 113.922 36.1162 109.745 36.1162 105.223C36.1162 93.7697 46.6632 84.45 59.6245 84.45C62.043 84.45 64.3636 84.8036 66.5607 85.4094V60.1818C64.287 59.9071 61.9791 59.7378 59.6245 59.7378C59.2157 59.7378 58.8155 59.7566 58.4109 59.7641V79.1373C56.2138 78.5315 53.8932 78.1779 51.4747 78.1779L51.4704 78.1816Z" fill="#FE2C55"/>
<path d="M141.846 40.5869V59.7908C127.348 59.7908 113.909 55.6934 102.941 48.7365V98.9547C102.941 124.036 79.8499 144.436 51.4705 144.436C40.5019 144.436 30.3339 141.381 21.9712 136.192C31.3728 145.113 44.7684 150.704 59.6202 150.704C88.0039 150.704 111.091 130.3 111.091 105.223V55.0086C122.059 61.9655 135.497 66.0629 149.996 66.0629V41.3507C147.198 41.3507 144.473 41.0836 141.846 40.5869Z" fill="#FE2C55"/>
<path d="M102.941 98.9548V48.7365C113.909 55.6934 127.347 59.7908 141.846 59.7908V40.5869C133.47 39.0029 126.091 35.0297 120.658 29.5139C111.895 24.4646 105.572 16.3902 103.601 6.97266H83.1284L83.0815 106.002C82.6132 117.09 72.2833 125.992 59.6201 125.992C51.7769 125.992 44.8364 122.568 40.5656 117.335C33.0844 113.854 27.962 106.924 27.962 98.951C27.962 87.4979 38.509 78.1782 51.4703 78.1782C53.8888 78.1782 56.2094 78.5318 58.4066 79.1376V59.7644C30.5849 60.3401 8.14966 80.4996 8.14966 105.219C8.14966 117.177 13.404 128.062 21.971 136.189C30.3295 141.373 40.5018 144.432 51.4703 144.432C79.8497 144.432 102.941 124.028 102.941 98.951V98.9548Z" fill="black"/>
</g>
<defs>
<clipPath id="clip0_345_450">
<rect width="150" height="150" fill="white" transform="translate(0 0.704102)"/>
</clipPath>
</defs>
</svg>
