<svg width="217" height="217" viewBox="0 0 217 217" fill="none" xmlns="http://www.w3.org/2000/svg">
<mask id="path-1-outside-1_312_89" maskUnits="userSpaceOnUse" x="-0.51416" y="0.185791" width="218" height="217" fill="black">
<rect fill="white" x="-0.51416" y="0.185791" width="218" height="217"/>
<path d="M189.867 1.18579C196.921 1.2046 203.68 4.01526 208.668 9.00317C213.656 13.9911 216.467 20.751 216.486 27.8049V149.896C216.467 156.95 213.656 163.71 208.668 168.698C203.68 173.685 196.921 176.496 189.867 176.515H132.966V191.44H182.571C190.204 191.44 193.8 209.274 193.8 213.594C193.802 213.993 193.719 214.388 193.559 214.753C193.399 215.119 193.164 215.447 192.87 215.717C192.575 215.986 192.228 216.191 191.85 216.319C191.472 216.446 191.071 216.494 190.673 216.457H26.0454C25.2862 216.457 24.5579 216.155 24.021 215.618C23.4841 215.081 23.1822 214.353 23.1821 213.594H23.1714C23.1714 209.271 26.7681 191.44 34.4009 191.44H81.5024V176.515H27.105C20.051 176.496 13.2912 173.685 8.30322 168.698C3.31531 163.71 0.504728 156.95 0.48584 149.896V27.8049C0.504831 20.751 3.31532 13.9911 8.30322 9.00317C13.2912 4.01529 20.051 1.20472 27.105 1.18579H189.867ZM84.3774 197.189L34.4009 197.191C33.8946 197.191 32.9677 198.914 31.9927 201.163C30.7106 204.238 29.7791 207.447 29.2163 210.731H187.755C187.193 207.447 186.261 204.237 184.979 201.161C184.004 198.911 183.077 197.189 182.571 197.189H84.3774ZM87.2515 176.515V191.44H127.217V176.515H87.2515ZM27.105 6.93481C21.5756 6.95301 16.2777 9.15782 12.3677 13.0676C8.45772 16.9775 6.25324 22.2755 6.23486 27.8049V149.896C6.25326 155.425 8.45774 160.723 12.3677 164.633C16.2777 168.543 21.5756 170.748 27.105 170.766H189.867C195.396 170.748 200.694 168.543 204.604 164.633C208.514 160.723 210.719 155.425 210.737 149.896V27.8049C210.718 22.2755 208.514 16.9775 204.604 13.0676C200.694 9.15782 195.396 6.95301 189.867 6.93481H27.105ZM43.3608 156.933C43.7413 156.928 44.1193 156.999 44.4722 157.141C44.8248 157.283 45.1459 157.494 45.4165 157.761C45.6873 158.028 45.9026 158.347 46.0493 158.698C46.196 159.05 46.272 159.426 46.272 159.807C46.272 160.187 46.196 160.564 46.0493 160.915C45.9026 161.266 45.6872 161.584 45.4165 161.852C45.1458 162.119 44.825 162.331 44.4722 162.473C44.1193 162.615 43.7413 162.686 43.3608 162.681H27.8071C27.051 162.671 26.3287 162.364 25.7974 161.826C25.2663 161.288 24.9683 160.563 24.9683 159.807C24.9683 159.051 25.2663 158.325 25.7974 157.787C26.3287 157.249 27.051 156.942 27.8071 156.933H43.3608ZM73.4585 156.933C73.839 156.928 74.2169 156.999 74.5698 157.141C74.9225 157.283 75.2435 157.494 75.5142 157.761C75.7849 158.028 76.0003 158.347 76.147 158.698C76.2937 159.05 76.3696 159.426 76.3696 159.807C76.3696 160.187 76.2937 160.564 76.147 160.915C76.0003 161.266 75.7849 161.584 75.5142 161.852C75.2434 162.119 74.9227 162.331 74.5698 162.473C74.2169 162.615 73.839 162.686 73.4585 162.681H58.7886C58.4081 162.686 58.0301 162.615 57.6772 162.473C57.3245 162.331 57.0036 162.119 56.7329 161.852C56.4622 161.584 56.2468 161.266 56.1001 160.915C55.9534 160.564 55.8784 160.187 55.8784 159.807C55.8784 159.426 55.9534 159.05 56.1001 158.698C56.2468 158.347 56.4622 158.028 56.7329 157.761C57.0035 157.494 57.3246 157.283 57.6772 157.141C58.0301 156.999 58.4081 156.928 58.7886 156.933H73.4585ZM103.254 156.933C103.635 156.928 104.012 156.999 104.365 157.141C104.718 157.283 105.039 157.494 105.31 157.761C105.581 158.028 105.796 158.347 105.943 158.698C106.09 159.05 106.165 159.426 106.165 159.807C106.165 160.187 106.09 160.564 105.943 160.915C105.796 161.266 105.581 161.584 105.31 161.852C105.039 162.119 104.718 162.331 104.365 162.473C104.012 162.615 103.635 162.686 103.254 162.681H88.3423C87.9618 162.686 87.5839 162.615 87.231 162.473C86.8781 162.331 86.5574 162.119 86.2866 161.852C86.0159 161.584 85.8005 161.266 85.6538 160.915C85.5071 160.564 85.4312 160.187 85.4312 159.807C85.4312 159.426 85.5071 159.05 85.6538 158.698C85.8005 158.347 86.0159 158.028 86.2866 157.761C86.5573 157.494 86.8783 157.283 87.231 157.141C87.5839 156.999 87.9618 156.928 88.3423 156.933H103.254ZM194.324 18.925C195.495 18.9308 196.617 19.3994 197.446 20.2278C198.274 21.0565 198.743 22.1789 198.749 23.3508V144.613C198.748 145.194 198.633 145.769 198.411 146.306C198.188 146.842 197.861 147.329 197.45 147.74L197.445 147.735C197.036 148.146 196.55 148.474 196.014 148.698C195.479 148.921 194.904 149.037 194.324 149.039H22.6499C21.4777 149.035 20.3548 148.567 19.5259 147.739C18.6969 146.909 18.2292 145.786 18.2251 144.614V23.3508C18.2274 22.1779 18.6945 21.0533 19.5239 20.2239C20.3533 19.3947 21.4772 18.9274 22.6499 18.925H194.324ZM23.9761 143.29H192.999V24.6731H23.9761V143.29ZM40.2192 55.2805C59.5634 35.9364 91.5798 38.7231 107.373 60.9436C123.149 38.7654 155.145 35.9053 174.52 55.2805C178.615 59.3755 181.863 64.2368 184.08 69.5872C186.296 74.9375 187.437 80.672 187.437 86.4631C187.437 92.2544 186.296 97.9896 184.08 103.34C181.863 108.69 178.615 113.552 174.52 117.647C155.145 137.021 123.149 134.163 107.373 111.984C91.5757 134.207 59.5602 136.987 40.2192 117.647C36.1243 113.552 32.8759 108.69 30.6597 103.34C28.4434 97.9896 27.3032 92.2544 27.3032 86.4631C27.3033 80.672 28.4435 74.9375 30.6597 69.5872C32.8758 64.2368 36.1243 59.3755 40.2192 55.2805ZM71.4028 48.1135C61.2315 48.1136 51.477 52.1539 44.2847 59.3459C38.9211 64.7095 35.2684 71.5432 33.7886 78.9827C32.3088 86.4221 33.0685 94.1331 35.9712 101.141C38.8739 108.149 43.7893 114.139 50.0962 118.353C56.403 122.567 63.8177 124.817 71.4028 124.817C78.9881 124.817 86.4035 122.567 92.7104 118.353C99.0173 114.139 103.933 108.149 106.835 101.141C109.738 94.1331 110.498 86.422 109.018 78.9827C107.538 71.5432 103.885 64.7095 98.522 59.3459C91.3295 52.1538 81.5743 48.1135 71.4028 48.1135ZM170.456 59.345C152.928 41.817 123.656 45.283 110.665 66.3606C113.846 72.5839 115.505 79.4736 115.505 86.4631C115.505 93.4529 113.846 100.343 110.665 106.567C123.657 127.644 152.928 131.11 170.456 113.582C177.647 106.39 181.688 96.6345 181.688 86.4631C181.688 76.2919 177.647 66.5375 170.456 59.345ZM162.854 67.5588C163.616 67.5589 164.347 67.8625 164.886 68.4016C165.425 68.9407 165.729 69.6715 165.729 70.4338V102.495C165.729 103.258 165.425 103.989 164.886 104.529C164.347 105.067 163.616 105.37 162.854 105.37C162.092 105.37 161.36 105.068 160.821 104.529C160.282 103.989 159.979 103.258 159.979 102.495V70.4338C159.979 69.6717 160.282 68.9407 160.821 68.4016C161.36 67.8625 162.092 67.5588 162.854 67.5588ZM147.56 68.0188C148.322 68.0188 149.054 68.3225 149.593 68.8616C150.132 69.4006 150.435 70.1316 150.435 70.8938V90.1653C150.446 92.1085 150.072 94.0349 149.335 95.8333C148.599 97.6315 147.515 99.267 146.145 100.645C144.775 102.023 143.145 103.115 141.351 103.862C139.557 104.608 137.633 104.992 135.69 104.992C133.747 104.992 131.823 104.608 130.029 103.862C128.235 103.115 126.605 102.023 125.235 100.645C123.865 99.2669 122.78 97.6316 122.043 95.8333C121.307 94.0349 120.934 92.1084 120.945 90.1653V70.8938C120.954 70.1377 121.261 69.4154 121.799 68.884C122.337 68.3528 123.064 68.0549 123.82 68.0549C124.576 68.0551 125.301 68.3529 125.839 68.884C126.377 69.4154 126.684 70.1377 126.694 70.8938V90.1653C126.694 98.0519 136.323 102.231 142.041 96.5168C142.878 95.6844 143.543 94.6946 143.997 93.6047C144.45 92.5148 144.685 91.3459 144.686 90.1653V70.8938C144.686 70.1315 144.989 69.4007 145.528 68.8616C146.067 68.3225 146.798 68.0188 147.56 68.0188ZM65.1323 67.9827C65.5128 67.9827 65.8897 68.0586 66.2407 68.2053C66.5916 68.352 66.91 68.5666 67.1772 68.8372C67.4446 69.1079 67.656 69.4296 67.7983 69.7825C67.9405 70.1352 68.011 70.5126 68.0063 70.8928V90.1653C67.9847 94.0617 66.4215 97.7907 63.6587 100.538C60.8958 103.286 57.1577 104.828 53.2612 104.828C49.3648 104.828 45.6266 103.286 42.8638 100.538C40.1012 97.7908 38.5387 94.0615 38.5171 90.1653V70.8938C38.5171 70.1315 38.8199 69.4007 39.3589 68.8616C39.8979 68.3225 40.6288 68.0188 41.3911 68.0188C42.1535 68.0188 42.8852 68.3225 43.4243 68.8616C43.9631 69.4006 44.2661 70.1316 44.2661 70.8938V90.1653C44.2661 98.0524 53.8958 102.231 59.6108 96.5159C60.4481 95.6836 61.113 94.6945 61.5669 93.6047C62.0208 92.5149 62.2553 91.3459 62.2563 90.1653V70.8938L62.2573 70.8928C62.2526 70.5125 62.3241 70.1352 62.4663 69.7825C62.6086 69.4296 62.8191 69.1079 63.0864 68.8372C63.3538 68.5664 63.6728 68.352 64.0239 68.2053C64.375 68.0586 64.7518 67.9827 65.1323 67.9827ZM101.229 68.719C101.983 68.6756 102.724 68.9316 103.292 69.4309C103.859 69.9303 104.207 70.633 104.259 71.387C104.312 72.1408 104.065 72.885 103.573 73.4583L92.1235 86.4631L103.573 99.468C103.827 99.7502 104.023 100.08 104.149 100.439C104.275 100.797 104.329 101.178 104.307 101.557C104.285 101.936 104.188 102.308 104.022 102.65C103.855 102.991 103.623 103.297 103.337 103.548C103.052 103.799 102.72 103.991 102.36 104.113C102 104.234 101.619 104.284 101.24 104.257C100.861 104.231 100.49 104.13 100.151 103.959C99.8113 103.789 99.5089 103.552 99.2612 103.264L88.2974 90.8088L77.3335 103.264C77.0859 103.552 76.7834 103.789 76.4438 103.959C76.1042 104.13 75.7332 104.231 75.354 104.257C74.975 104.283 74.5948 104.234 74.2349 104.113C73.8748 103.991 73.5417 103.799 73.2563 103.548C72.9711 103.297 72.7382 102.991 72.5718 102.65C72.4054 102.308 72.3085 101.936 72.2866 101.557C72.2648 101.178 72.3188 100.797 72.4448 100.439C72.5709 100.08 72.7665 99.7502 73.021 99.468L84.4702 86.4631L73.021 73.4583H73.02C72.5276 72.885 72.28 72.1408 72.3325 71.387C72.3851 70.6332 72.7332 69.9303 73.3003 69.4309C73.8676 68.9315 74.6092 68.6755 75.3638 68.719C76.1183 68.7625 76.8254 69.1021 77.3315 69.6633L88.2954 82.1184L99.2612 69.6633C99.7674 69.1021 100.474 68.7625 101.229 68.719Z"/>
</mask>
<path d="M189.867 1.18579C196.921 1.2046 203.68 4.01526 208.668 9.00317C213.656 13.9911 216.467 20.751 216.486 27.8049V149.896C216.467 156.95 213.656 163.71 208.668 168.698C203.68 173.685 196.921 176.496 189.867 176.515H132.966V191.44H182.571C190.204 191.44 193.8 209.274 193.8 213.594C193.802 213.993 193.719 214.388 193.559 214.753C193.399 215.119 193.164 215.447 192.87 215.717C192.575 215.986 192.228 216.191 191.85 216.319C191.472 216.446 191.071 216.494 190.673 216.457H26.0454C25.2862 216.457 24.5579 216.155 24.021 215.618C23.4841 215.081 23.1822 214.353 23.1821 213.594H23.1714C23.1714 209.271 26.7681 191.44 34.4009 191.44H81.5024V176.515H27.105C20.051 176.496 13.2912 173.685 8.30322 168.698C3.31531 163.71 0.504728 156.95 0.48584 149.896V27.8049C0.504831 20.751 3.31532 13.9911 8.30322 9.00317C13.2912 4.01529 20.051 1.20472 27.105 1.18579H189.867ZM84.3774 197.189L34.4009 197.191C33.8946 197.191 32.9677 198.914 31.9927 201.163C30.7106 204.238 29.7791 207.447 29.2163 210.731H187.755C187.193 207.447 186.261 204.237 184.979 201.161C184.004 198.911 183.077 197.189 182.571 197.189H84.3774ZM87.2515 176.515V191.44H127.217V176.515H87.2515ZM27.105 6.93481C21.5756 6.95301 16.2777 9.15782 12.3677 13.0676C8.45772 16.9775 6.25324 22.2755 6.23486 27.8049V149.896C6.25326 155.425 8.45774 160.723 12.3677 164.633C16.2777 168.543 21.5756 170.748 27.105 170.766H189.867C195.396 170.748 200.694 168.543 204.604 164.633C208.514 160.723 210.719 155.425 210.737 149.896V27.8049C210.718 22.2755 208.514 16.9775 204.604 13.0676C200.694 9.15782 195.396 6.95301 189.867 6.93481H27.105ZM43.3608 156.933C43.7413 156.928 44.1193 156.999 44.4722 157.141C44.8248 157.283 45.1459 157.494 45.4165 157.761C45.6873 158.028 45.9026 158.347 46.0493 158.698C46.196 159.05 46.272 159.426 46.272 159.807C46.272 160.187 46.196 160.564 46.0493 160.915C45.9026 161.266 45.6872 161.584 45.4165 161.852C45.1458 162.119 44.825 162.331 44.4722 162.473C44.1193 162.615 43.7413 162.686 43.3608 162.681H27.8071C27.051 162.671 26.3287 162.364 25.7974 161.826C25.2663 161.288 24.9683 160.563 24.9683 159.807C24.9683 159.051 25.2663 158.325 25.7974 157.787C26.3287 157.249 27.051 156.942 27.8071 156.933H43.3608ZM73.4585 156.933C73.839 156.928 74.2169 156.999 74.5698 157.141C74.9225 157.283 75.2435 157.494 75.5142 157.761C75.7849 158.028 76.0003 158.347 76.147 158.698C76.2937 159.05 76.3696 159.426 76.3696 159.807C76.3696 160.187 76.2937 160.564 76.147 160.915C76.0003 161.266 75.7849 161.584 75.5142 161.852C75.2434 162.119 74.9227 162.331 74.5698 162.473C74.2169 162.615 73.839 162.686 73.4585 162.681H58.7886C58.4081 162.686 58.0301 162.615 57.6772 162.473C57.3245 162.331 57.0036 162.119 56.7329 161.852C56.4622 161.584 56.2468 161.266 56.1001 160.915C55.9534 160.564 55.8784 160.187 55.8784 159.807C55.8784 159.426 55.9534 159.05 56.1001 158.698C56.2468 158.347 56.4622 158.028 56.7329 157.761C57.0035 157.494 57.3246 157.283 57.6772 157.141C58.0301 156.999 58.4081 156.928 58.7886 156.933H73.4585ZM103.254 156.933C103.635 156.928 104.012 156.999 104.365 157.141C104.718 157.283 105.039 157.494 105.31 157.761C105.581 158.028 105.796 158.347 105.943 158.698C106.09 159.05 106.165 159.426 106.165 159.807C106.165 160.187 106.09 160.564 105.943 160.915C105.796 161.266 105.581 161.584 105.31 161.852C105.039 162.119 104.718 162.331 104.365 162.473C104.012 162.615 103.635 162.686 103.254 162.681H88.3423C87.9618 162.686 87.5839 162.615 87.231 162.473C86.8781 162.331 86.5574 162.119 86.2866 161.852C86.0159 161.584 85.8005 161.266 85.6538 160.915C85.5071 160.564 85.4312 160.187 85.4312 159.807C85.4312 159.426 85.5071 159.05 85.6538 158.698C85.8005 158.347 86.0159 158.028 86.2866 157.761C86.5573 157.494 86.8783 157.283 87.231 157.141C87.5839 156.999 87.9618 156.928 88.3423 156.933H103.254ZM194.324 18.925C195.495 18.9308 196.617 19.3994 197.446 20.2278C198.274 21.0565 198.743 22.1789 198.749 23.3508V144.613C198.748 145.194 198.633 145.769 198.411 146.306C198.188 146.842 197.861 147.329 197.45 147.74L197.445 147.735C197.036 148.146 196.55 148.474 196.014 148.698C195.479 148.921 194.904 149.037 194.324 149.039H22.6499C21.4777 149.035 20.3548 148.567 19.5259 147.739C18.6969 146.909 18.2292 145.786 18.2251 144.614V23.3508C18.2274 22.1779 18.6945 21.0533 19.5239 20.2239C20.3533 19.3947 21.4772 18.9274 22.6499 18.925H194.324ZM23.9761 143.29H192.999V24.6731H23.9761V143.29ZM40.2192 55.2805C59.5634 35.9364 91.5798 38.7231 107.373 60.9436C123.149 38.7654 155.145 35.9053 174.52 55.2805C178.615 59.3755 181.863 64.2368 184.08 69.5872C186.296 74.9375 187.437 80.672 187.437 86.4631C187.437 92.2544 186.296 97.9896 184.08 103.34C181.863 108.69 178.615 113.552 174.52 117.647C155.145 137.021 123.149 134.163 107.373 111.984C91.5757 134.207 59.5602 136.987 40.2192 117.647C36.1243 113.552 32.8759 108.69 30.6597 103.34C28.4434 97.9896 27.3032 92.2544 27.3032 86.4631C27.3033 80.672 28.4435 74.9375 30.6597 69.5872C32.8758 64.2368 36.1243 59.3755 40.2192 55.2805ZM71.4028 48.1135C61.2315 48.1136 51.477 52.1539 44.2847 59.3459C38.9211 64.7095 35.2684 71.5432 33.7886 78.9827C32.3088 86.4221 33.0685 94.1331 35.9712 101.141C38.8739 108.149 43.7893 114.139 50.0962 118.353C56.403 122.567 63.8177 124.817 71.4028 124.817C78.9881 124.817 86.4035 122.567 92.7104 118.353C99.0173 114.139 103.933 108.149 106.835 101.141C109.738 94.1331 110.498 86.422 109.018 78.9827C107.538 71.5432 103.885 64.7095 98.522 59.3459C91.3295 52.1538 81.5743 48.1135 71.4028 48.1135ZM170.456 59.345C152.928 41.817 123.656 45.283 110.665 66.3606C113.846 72.5839 115.505 79.4736 115.505 86.4631C115.505 93.4529 113.846 100.343 110.665 106.567C123.657 127.644 152.928 131.11 170.456 113.582C177.647 106.39 181.688 96.6345 181.688 86.4631C181.688 76.2919 177.647 66.5375 170.456 59.345ZM162.854 67.5588C163.616 67.5589 164.347 67.8625 164.886 68.4016C165.425 68.9407 165.729 69.6715 165.729 70.4338V102.495C165.729 103.258 165.425 103.989 164.886 104.529C164.347 105.067 163.616 105.37 162.854 105.37C162.092 105.37 161.36 105.068 160.821 104.529C160.282 103.989 159.979 103.258 159.979 102.495V70.4338C159.979 69.6717 160.282 68.9407 160.821 68.4016C161.36 67.8625 162.092 67.5588 162.854 67.5588ZM147.56 68.0188C148.322 68.0188 149.054 68.3225 149.593 68.8616C150.132 69.4006 150.435 70.1316 150.435 70.8938V90.1653C150.446 92.1085 150.072 94.0349 149.335 95.8333C148.599 97.6315 147.515 99.267 146.145 100.645C144.775 102.023 143.145 103.115 141.351 103.862C139.557 104.608 137.633 104.992 135.69 104.992C133.747 104.992 131.823 104.608 130.029 103.862C128.235 103.115 126.605 102.023 125.235 100.645C123.865 99.2669 122.78 97.6316 122.043 95.8333C121.307 94.0349 120.934 92.1084 120.945 90.1653V70.8938C120.954 70.1377 121.261 69.4154 121.799 68.884C122.337 68.3528 123.064 68.0549 123.82 68.0549C124.576 68.0551 125.301 68.3529 125.839 68.884C126.377 69.4154 126.684 70.1377 126.694 70.8938V90.1653C126.694 98.0519 136.323 102.231 142.041 96.5168C142.878 95.6844 143.543 94.6946 143.997 93.6047C144.45 92.5148 144.685 91.3459 144.686 90.1653V70.8938C144.686 70.1315 144.989 69.4007 145.528 68.8616C146.067 68.3225 146.798 68.0188 147.56 68.0188ZM65.1323 67.9827C65.5128 67.9827 65.8897 68.0586 66.2407 68.2053C66.5916 68.352 66.91 68.5666 67.1772 68.8372C67.4446 69.1079 67.656 69.4296 67.7983 69.7825C67.9405 70.1352 68.011 70.5126 68.0063 70.8928V90.1653C67.9847 94.0617 66.4215 97.7907 63.6587 100.538C60.8958 103.286 57.1577 104.828 53.2612 104.828C49.3648 104.828 45.6266 103.286 42.8638 100.538C40.1012 97.7908 38.5387 94.0615 38.5171 90.1653V70.8938C38.5171 70.1315 38.8199 69.4007 39.3589 68.8616C39.8979 68.3225 40.6288 68.0188 41.3911 68.0188C42.1535 68.0188 42.8852 68.3225 43.4243 68.8616C43.9631 69.4006 44.2661 70.1316 44.2661 70.8938V90.1653C44.2661 98.0524 53.8958 102.231 59.6108 96.5159C60.4481 95.6836 61.113 94.6945 61.5669 93.6047C62.0208 92.5149 62.2553 91.3459 62.2563 90.1653V70.8938L62.2573 70.8928C62.2526 70.5125 62.3241 70.1352 62.4663 69.7825C62.6086 69.4296 62.8191 69.1079 63.0864 68.8372C63.3538 68.5664 63.6728 68.352 64.0239 68.2053C64.375 68.0586 64.7518 67.9827 65.1323 67.9827ZM101.229 68.719C101.983 68.6756 102.724 68.9316 103.292 69.4309C103.859 69.9303 104.207 70.633 104.259 71.387C104.312 72.1408 104.065 72.885 103.573 73.4583L92.1235 86.4631L103.573 99.468C103.827 99.7502 104.023 100.08 104.149 100.439C104.275 100.797 104.329 101.178 104.307 101.557C104.285 101.936 104.188 102.308 104.022 102.65C103.855 102.991 103.623 103.297 103.337 103.548C103.052 103.799 102.72 103.991 102.36 104.113C102 104.234 101.619 104.284 101.24 104.257C100.861 104.231 100.49 104.13 100.151 103.959C99.8113 103.789 99.5089 103.552 99.2612 103.264L88.2974 90.8088L77.3335 103.264C77.0859 103.552 76.7834 103.789 76.4438 103.959C76.1042 104.13 75.7332 104.231 75.354 104.257C74.975 104.283 74.5948 104.234 74.2349 104.113C73.8748 103.991 73.5417 103.799 73.2563 103.548C72.9711 103.297 72.7382 102.991 72.5718 102.65C72.4054 102.308 72.3085 101.936 72.2866 101.557C72.2648 101.178 72.3188 100.797 72.4448 100.439C72.5709 100.08 72.7665 99.7502 73.021 99.468L84.4702 86.4631L73.021 73.4583H73.02C72.5276 72.885 72.28 72.1408 72.3325 71.387C72.3851 70.6332 72.7332 69.9303 73.3003 69.4309C73.8676 68.9315 74.6092 68.6755 75.3638 68.719C76.1183 68.7625 76.8254 69.1021 77.3315 69.6633L88.2954 82.1184L99.2612 69.6633C99.7674 69.1021 100.474 68.7625 101.229 68.719Z" fill="black"/>
<path d="M189.867 1.18579L189.868 0.735791H189.867V1.18579ZM208.668 9.00317L208.987 8.68498V8.68497L208.668 9.00317ZM216.486 27.8049H216.936V27.8037L216.486 27.8049ZM216.486 149.896L216.936 149.897V149.896H216.486ZM208.668 168.698L208.987 169.016V169.016L208.668 168.698ZM189.867 176.515V176.965H189.868L189.867 176.515ZM132.966 176.515V176.065H132.516V176.515H132.966ZM132.966 191.44H132.516V191.89H132.966V191.44ZM182.571 191.44L182.571 190.99H182.571V191.44ZM193.8 213.594H193.35V213.595L193.8 213.594ZM193.559 214.753L193.971 214.934V214.934L193.559 214.753ZM192.87 215.717L193.173 216.049L193.174 216.049L192.87 215.717ZM191.85 216.319L191.994 216.745L191.994 216.745L191.85 216.319ZM190.673 216.457L190.714 216.009L190.694 216.007H190.673V216.457ZM26.0454 216.457L26.0453 216.907H26.0454V216.457ZM24.021 215.618L23.7028 215.937H23.7028L24.021 215.618ZM23.1821 213.594L23.6321 213.594L23.6321 213.144H23.1821V213.594ZM23.1714 213.594H22.7214V214.044H23.1714V213.594ZM34.4009 191.44V190.99H34.4009L34.4009 191.44ZM81.5024 191.44V191.89H81.9524V191.44H81.5024ZM81.5024 176.515H81.9524V176.065H81.5024V176.515ZM27.105 176.515L27.1038 176.965H27.105V176.515ZM8.30322 168.698L7.98502 169.016L7.98503 169.016L8.30322 168.698ZM0.48584 149.896H0.0358382L0.0358415 149.897L0.48584 149.896ZM0.48584 27.8049L0.0358399 27.8037V27.8049H0.48584ZM8.30322 9.00317L7.98503 8.68497L7.98502 8.68498L8.30322 9.00317ZM27.105 1.18579V0.735789L27.1038 0.735793L27.105 1.18579ZM84.3774 197.189V196.739H84.3774L84.3774 197.189ZM34.4009 197.191L34.4009 196.741H34.4007L34.4009 197.191ZM31.9927 201.163L31.5797 200.984L31.5773 200.99L31.9927 201.163ZM29.2163 210.731L28.7728 210.655L28.6826 211.181H29.2163V210.731ZM187.755 210.731V211.181H188.289L188.199 210.655L187.755 210.731ZM184.979 201.161L185.394 200.988L185.392 200.982L184.979 201.161ZM182.571 197.189L182.571 196.739H182.571V197.189ZM87.2515 176.515V176.065H86.8015V176.515H87.2515ZM87.2515 191.44H86.8015V191.89H87.2515V191.44ZM127.217 191.44V191.89H127.667V191.44H127.217ZM127.217 176.515H127.667V176.065H127.217V176.515ZM27.105 6.93481V6.48481L27.1035 6.48482L27.105 6.93481ZM12.3677 13.0676L12.0495 12.7494L12.0495 12.7494L12.3677 13.0676ZM6.23486 27.8049L5.78486 27.8034V27.8049H6.23486ZM6.23486 149.896H5.78486L5.78487 149.897L6.23486 149.896ZM12.3677 164.633L12.0495 164.951H12.0495L12.3677 164.633ZM27.105 170.766L27.1035 171.216H27.105V170.766ZM189.867 170.766V171.216H189.868L189.867 170.766ZM204.604 164.633L204.922 164.951L204.604 164.633ZM210.737 149.896L211.187 149.897V149.896H210.737ZM210.737 27.8049H211.187V27.8034L210.737 27.8049ZM204.604 13.0676L204.922 12.7494V12.7494L204.604 13.0676ZM189.867 6.93481L189.868 6.48481H189.867V6.93481ZM43.3608 156.933V157.383L43.3665 157.383L43.3608 156.933ZM44.4722 157.141L44.6405 156.724L44.6405 156.724L44.4722 157.141ZM45.4165 157.761L45.7327 157.441L45.7326 157.441L45.4165 157.761ZM46.0493 158.698L46.4645 158.525L46.4645 158.525L46.0493 158.698ZM46.272 159.807L46.722 159.807V159.807H46.272ZM46.0493 160.915L46.4645 161.089L46.4645 161.089L46.0493 160.915ZM45.4165 161.852L45.7327 162.172V162.172L45.4165 161.852ZM44.4722 162.473L44.6405 162.89H44.6405L44.4722 162.473ZM43.3608 162.681L43.3665 162.231H43.3608V162.681ZM27.8071 162.681L27.8015 163.131H27.8071V162.681ZM25.7974 161.826L25.4771 162.143L25.4772 162.143L25.7974 161.826ZM24.9683 159.807H24.5183V159.807L24.9683 159.807ZM25.7974 157.787L25.4772 157.471L25.4771 157.471L25.7974 157.787ZM27.8071 156.933V156.483L27.8015 156.483L27.8071 156.933ZM73.4585 156.933V157.383L73.4641 157.383L73.4585 156.933ZM74.5698 157.141L74.7381 156.724H74.7381L74.5698 157.141ZM75.5142 157.761L75.8304 157.441L75.8303 157.441L75.5142 157.761ZM76.147 158.698L76.5622 158.525V158.525L76.147 158.698ZM76.3696 159.807L76.8196 159.807V159.807H76.3696ZM76.147 160.915L76.5622 161.089L76.5622 161.089L76.147 160.915ZM75.5142 161.852L75.8304 162.172L75.8304 162.172L75.5142 161.852ZM74.5698 162.473L74.7381 162.89L74.5698 162.473ZM73.4585 162.681L73.4641 162.231H73.4585V162.681ZM58.7886 162.681V162.231L58.783 162.231L58.7886 162.681ZM57.6772 162.473L57.5089 162.89L57.5089 162.89L57.6772 162.473ZM56.7329 161.852L56.4167 162.172L56.4167 162.172L56.7329 161.852ZM56.1001 160.915L55.6849 161.089H55.6849L56.1001 160.915ZM55.8784 159.807H55.4284V159.807L55.8784 159.807ZM56.1001 158.698L55.6849 158.525L55.6849 158.525L56.1001 158.698ZM56.7329 157.761L56.4167 157.441L56.4167 157.441L56.7329 157.761ZM57.6772 157.141L57.5089 156.724L57.5089 156.724L57.6772 157.141ZM58.7886 156.933L58.783 157.383H58.7886V156.933ZM103.254 156.933V157.383L103.26 157.383L103.254 156.933ZM104.365 157.141L104.533 156.724L104.533 156.724L104.365 157.141ZM105.31 157.761L105.626 157.441L105.626 157.441L105.31 157.761ZM105.943 158.698L106.358 158.525L106.358 158.525L105.943 158.698ZM106.165 159.807L106.615 159.807V159.807H106.165ZM105.943 160.915L106.358 161.089L105.943 160.915ZM105.31 161.852L105.626 162.172L105.626 162.172L105.31 161.852ZM104.365 162.473L104.533 162.89L104.533 162.89L104.365 162.473ZM103.254 162.681L103.26 162.231H103.254V162.681ZM88.3423 162.681V162.231L88.3367 162.231L88.3423 162.681ZM87.231 162.473L87.0627 162.89L87.231 162.473ZM86.2866 161.852L85.9704 162.172L85.9704 162.172L86.2866 161.852ZM85.6538 160.915L85.2386 161.089L85.2386 161.089L85.6538 160.915ZM85.4312 159.807H84.9812V159.807L85.4312 159.807ZM85.6538 158.698L85.2386 158.525V158.525L85.6538 158.698ZM86.2866 157.761L85.9705 157.441L85.9704 157.441L86.2866 157.761ZM87.231 157.141L87.0627 156.724H87.0627L87.231 157.141ZM88.3423 156.933L88.3367 157.383H88.3423V156.933ZM194.324 18.925L194.326 18.475H194.324V18.925ZM197.446 20.2278L197.764 19.9096L197.764 19.9096L197.446 20.2278ZM198.749 23.3508H199.199L199.199 23.3486L198.749 23.3508ZM198.749 144.613L199.199 144.613V144.613H198.749ZM198.411 146.306L198.826 146.479L198.826 146.479L198.411 146.306ZM197.45 147.74L197.132 148.058L197.449 148.375L197.767 148.058L197.45 147.74ZM197.445 147.735L197.763 147.416L197.444 147.097L197.126 147.418L197.445 147.735ZM196.014 148.698L196.188 149.113L196.188 149.113L196.014 148.698ZM194.324 149.039V149.489H194.325L194.324 149.039ZM22.6499 149.039L22.6482 149.489H22.6499V149.039ZM19.5259 147.739L19.2077 148.057L19.2077 148.057L19.5259 147.739ZM18.2251 144.614H17.7751L17.7751 144.615L18.2251 144.614ZM18.2251 23.3508L17.7751 23.35V23.3508H18.2251ZM19.5239 20.2239L19.2058 19.9056L19.2057 19.9057L19.5239 20.2239ZM22.6499 18.925V18.475L22.649 18.475L22.6499 18.925ZM23.9761 143.29H23.5261V143.74H23.9761V143.29ZM192.999 143.29V143.74H193.449V143.29H192.999ZM192.999 24.6731H193.449V24.2231H192.999V24.6731ZM23.9761 24.6731V24.2231H23.5261V24.6731H23.9761ZM40.2192 55.2805L39.901 54.9623L39.901 54.9623L40.2192 55.2805ZM107.373 60.9436L107.006 61.2043L107.372 61.7202L107.739 61.2044L107.373 60.9436ZM174.52 55.2805L174.838 54.9623L174.838 54.9623L174.52 55.2805ZM184.08 69.5872L184.495 69.4149L184.08 69.5872ZM187.437 86.4631H187.887V86.4631L187.437 86.4631ZM184.08 103.34L184.495 103.512L184.08 103.34ZM174.52 117.647L174.838 117.965L174.52 117.647ZM107.373 111.984L107.739 111.723L107.372 111.207L107.006 111.723L107.373 111.984ZM40.2192 117.647L39.901 117.965H39.901L40.2192 117.647ZM30.6597 103.34L30.2439 103.512H30.2439L30.6597 103.34ZM27.3032 86.4631L26.8532 86.4631V86.4631H27.3032ZM30.6597 69.5872L30.2439 69.4149L30.6597 69.5872ZM71.4028 48.1135V47.6635V48.1135ZM44.2847 59.3459L43.9665 59.0277L43.9665 59.0277L44.2847 59.3459ZM33.7886 78.9827L33.3472 78.8949L33.7886 78.9827ZM35.9712 101.141L35.5554 101.313L35.9712 101.141ZM50.0962 118.353L49.8462 118.727L50.0962 118.353ZM71.4028 124.817V125.267V124.817ZM92.7104 118.353L92.9605 118.727L92.7104 118.353ZM106.835 101.141L107.251 101.313V101.313L106.835 101.141ZM109.018 78.9827L109.459 78.8949L109.018 78.9827ZM98.522 59.3459L98.8402 59.0278L98.8402 59.0277L98.522 59.3459ZM170.456 59.345L170.774 59.0268L170.774 59.0268L170.456 59.345ZM110.665 66.3606L110.281 66.1245L110.149 66.34L110.264 66.5654L110.665 66.3606ZM115.505 86.4631H115.955V86.4631L115.505 86.4631ZM110.665 106.567L110.264 106.362L110.149 106.587L110.281 106.803L110.665 106.567ZM170.456 113.582L170.774 113.9L170.774 113.9L170.456 113.582ZM181.688 86.4631H182.138H181.688ZM162.854 67.5588L162.854 67.1088H162.854V67.5588ZM164.886 68.4016L165.204 68.0834L165.204 68.0834L164.886 68.4016ZM165.729 70.4338H166.179H165.729ZM165.729 102.495H166.179H165.729ZM164.886 104.529L165.204 104.847L165.204 104.847L164.886 104.529ZM162.854 105.37V105.82H162.854L162.854 105.37ZM160.821 104.529L160.503 104.847L160.821 104.529ZM159.979 70.4338H159.529H159.979ZM160.821 68.4016L160.503 68.0834L160.503 68.0835L160.821 68.4016ZM147.56 68.0188V67.5688H147.56L147.56 68.0188ZM149.593 68.8616L149.912 68.5434L149.911 68.5434L149.593 68.8616ZM150.435 90.1653H149.985L149.985 90.1678L150.435 90.1653ZM149.335 95.8333L149.752 96.0037V96.0037L149.335 95.8333ZM146.145 100.645L146.464 100.962V100.962L146.145 100.645ZM141.351 103.862L141.524 104.277V104.277L141.351 103.862ZM135.69 104.992V105.442V104.992ZM130.029 103.862L129.856 104.277V104.277L130.029 103.862ZM125.235 100.645L124.916 100.962L124.916 100.962L125.235 100.645ZM122.043 95.8333L121.627 96.0037V96.0037L122.043 95.8333ZM120.945 90.1653L121.395 90.1678V90.1653H120.945ZM120.945 70.8938L120.495 70.8882V70.8938H120.945ZM121.799 68.884L121.483 68.5638L121.483 68.5639L121.799 68.884ZM123.82 68.0549L123.82 67.6049H123.82V68.0549ZM125.839 68.884L126.156 68.5639L126.156 68.5638L125.839 68.884ZM126.694 70.8938H127.144L127.144 70.8882L126.694 70.8938ZM142.041 96.5168L141.723 96.1978L141.722 96.1986L142.041 96.5168ZM143.997 93.6047L144.412 93.7777L143.997 93.6047ZM144.686 90.1653L145.136 90.1657V90.1653H144.686ZM145.528 68.8616L145.21 68.5434L145.21 68.5434L145.528 68.8616ZM65.1323 67.9827L65.1323 67.5327H65.1323V67.9827ZM66.2407 68.2053L66.4143 67.7901L66.4142 67.7901L66.2407 68.2053ZM67.1772 68.8372L67.4974 68.521L67.4974 68.5209L67.1772 68.8372ZM67.7983 69.7825L68.2157 69.6142L68.2157 69.6142L67.7983 69.7825ZM68.0063 70.8928L67.5564 70.8873V70.8928H68.0063ZM68.0063 90.1653L68.4563 90.1678V90.1653H68.0063ZM63.6587 100.538L63.976 100.857H63.976L63.6587 100.538ZM53.2612 104.828L53.2612 105.278H53.2612V104.828ZM42.8638 100.538L42.5464 100.857L42.5465 100.857L42.8638 100.538ZM38.5171 90.1653H38.0671L38.0671 90.1678L38.5171 90.1653ZM39.3589 68.8616L39.0407 68.5434L39.0407 68.5434L39.3589 68.8616ZM41.3911 68.0188V67.5688H41.3911L41.3911 68.0188ZM43.4243 68.8616L43.7426 68.5434L43.7425 68.5434L43.4243 68.8616ZM59.6108 96.5159L59.2936 96.1967L59.2926 96.1977L59.6108 96.5159ZM61.5669 93.6047L61.9823 93.7778L61.5669 93.6047ZM62.2563 90.1653L62.7063 90.1657V90.1653H62.2563ZM62.2563 70.8938L61.9381 70.5756L61.8063 70.7074V70.8938H62.2563ZM62.2573 70.8928L62.5755 71.211L62.7096 71.0769L62.7073 70.8873L62.2573 70.8928ZM62.4663 69.7825L62.049 69.6142L62.049 69.6142L62.4663 69.7825ZM63.0864 68.8372L62.7662 68.521L62.7662 68.521L63.0864 68.8372ZM64.0239 68.2053L63.8504 67.7901L64.0239 68.2053ZM101.229 68.719L101.203 68.2697H101.203L101.229 68.719ZM103.292 69.4309L103.589 69.0931L103.589 69.0931L103.292 69.4309ZM104.259 71.387L104.708 71.3557L104.708 71.3556L104.259 71.387ZM103.573 73.4583L103.911 73.7556L103.914 73.7515L103.573 73.4583ZM92.1235 86.4631L91.7858 86.1658L91.524 86.4631L91.7858 86.7605L92.1235 86.4631ZM103.573 99.468L103.235 99.7654L103.239 99.7694L103.573 99.468ZM104.149 100.439L104.573 100.289L104.573 100.289L104.149 100.439ZM104.307 101.557L104.756 101.583V101.583L104.307 101.557ZM104.022 102.65L104.427 102.847L104.427 102.847L104.022 102.65ZM103.337 103.548L103.635 103.886L103.635 103.886L103.337 103.548ZM102.36 104.113L102.504 104.539L102.504 104.539L102.36 104.113ZM101.24 104.257L101.208 104.706L101.24 104.257ZM100.151 103.959L99.9489 104.361L99.949 104.361L100.151 103.959ZM99.2612 103.264L99.6026 102.971L99.599 102.967L99.2612 103.264ZM88.2974 90.8088L88.6351 90.5115L88.2974 90.1278L87.9596 90.5115L88.2974 90.8088ZM77.3335 103.264L76.9957 102.967L76.9922 102.971L77.3335 103.264ZM76.4438 103.959L76.6458 104.361L76.6458 104.361L76.4438 103.959ZM75.354 104.257L75.3853 104.706L75.3853 104.706L75.354 104.257ZM74.2349 104.113L74.0907 104.539L74.0908 104.539L74.2349 104.113ZM73.2563 103.548L72.959 103.886L72.959 103.886L73.2563 103.548ZM72.5718 102.65L72.1672 102.847L72.1672 102.847L72.5718 102.65ZM72.2866 101.557L71.8374 101.583V101.583L72.2866 101.557ZM72.4448 100.439L72.0203 100.289L72.0203 100.289L72.4448 100.439ZM73.021 99.468L73.3552 99.7694L73.3588 99.7654L73.021 99.468ZM84.4702 86.4631L84.808 86.7605L85.0698 86.4631L84.808 86.1658L84.4702 86.4631ZM73.021 73.4583L73.3588 73.1609L73.2244 73.0083H73.021V73.4583ZM73.02 73.4583L72.6787 73.7515L72.8133 73.9082H73.02V73.4583ZM72.3325 71.387L71.8836 71.3556L71.8836 71.3557L72.3325 71.387ZM73.3003 69.4309L73.003 69.0931L73.0029 69.0932L73.3003 69.4309ZM75.3638 68.719L75.3897 68.2697H75.3897L75.3638 68.719ZM77.3315 69.6633L77.6693 69.366L77.6657 69.362L77.3315 69.6633ZM88.2954 82.1184L87.9576 82.4157L88.2954 82.7994L88.6332 82.4158L88.2954 82.1184ZM99.2612 69.6633L98.927 69.3619L98.9235 69.366L99.2612 69.6633ZM189.867 1.18579L189.865 1.63579C196.801 1.65428 203.446 4.41755 208.35 9.32137L208.668 9.00317L208.987 8.68497C203.915 3.61297 197.041 0.754918 189.868 0.735793L189.867 1.18579ZM208.668 9.00317L208.35 9.32137C213.254 14.2252 216.017 20.8711 216.036 27.8061L216.486 27.8049L216.936 27.8037C216.917 20.6308 214.059 13.757 208.987 8.68498L208.668 9.00317ZM216.486 27.8049H216.036V149.896H216.486H216.936V27.8049H216.486ZM216.486 149.896L216.036 149.895C216.017 156.83 213.254 163.475 208.35 168.379L208.668 168.698L208.987 169.016C214.059 163.944 216.917 157.07 216.936 149.897L216.486 149.896ZM208.668 168.698L208.35 168.379C203.446 173.283 196.801 176.047 189.866 176.065L189.867 176.515L189.868 176.965C197.041 176.946 203.915 174.088 208.987 169.016L208.668 168.698ZM189.867 176.515V176.065H132.966V176.515V176.965H189.867V176.515ZM132.966 176.515H132.516V191.44H132.966H133.416V176.515H132.966ZM132.966 191.44V191.89H182.571V191.44V190.99H132.966V191.44ZM182.571 191.44L182.571 191.89C184.287 191.89 185.827 192.89 187.196 194.577C188.563 196.263 189.707 198.576 190.626 201.053C192.465 206.014 193.35 211.499 193.35 213.594H193.8H194.25C194.25 211.369 193.337 205.777 191.47 200.74C190.535 198.22 189.349 195.804 187.895 194.01C186.443 192.219 184.671 190.99 182.571 190.99L182.571 191.44ZM193.8 213.594L193.35 213.595C193.351 213.932 193.282 214.264 193.147 214.573L193.559 214.753L193.971 214.934C194.156 214.511 194.252 214.054 194.25 213.593L193.8 213.594ZM193.559 214.753L193.147 214.573C193.012 214.881 192.814 215.158 192.566 215.385L192.87 215.717L193.174 216.049C193.514 215.737 193.786 215.357 193.971 214.934L193.559 214.753ZM192.87 215.717L192.566 215.385C192.318 215.612 192.025 215.785 191.706 215.892L191.85 216.319L191.994 216.745C192.431 216.598 192.833 216.361 193.173 216.049L192.87 215.717ZM191.85 216.319L191.706 215.892C191.387 216 191.049 216.04 190.714 216.009L190.673 216.457L190.632 216.905C191.093 216.947 191.557 216.892 191.994 216.745L191.85 216.319ZM190.673 216.457V216.007H26.0454V216.457V216.907H190.673V216.457ZM26.0454 216.457L26.0455 216.007C25.4056 216.007 24.7917 215.753 24.3392 215.3L24.021 215.618L23.7028 215.937C24.324 216.558 25.1667 216.907 26.0453 216.907L26.0454 216.457ZM24.021 215.618L24.3392 215.3C23.8866 214.848 23.6322 214.234 23.6321 213.594L23.1821 213.594L22.7321 213.594C22.7322 214.473 23.0816 215.315 23.7028 215.937L24.021 215.618ZM23.1821 213.594V213.144H23.1714V213.594V214.044H23.1821V213.594ZM23.1714 213.594H23.6214C23.6214 211.498 24.5066 206.013 26.3458 201.052C27.2644 198.575 28.409 196.262 29.7757 194.577C31.1443 192.889 32.6849 191.89 34.4009 191.89L34.4009 191.44L34.4009 190.99C32.3005 190.99 30.5292 192.219 29.0767 194.01C27.6223 195.803 26.4366 198.219 25.5019 200.739C23.6346 205.776 22.7214 211.368 22.7214 213.594H23.1714ZM34.4009 191.44V191.89H81.5024V191.44V190.99H34.4009V191.44ZM81.5024 191.44H81.9524V176.515H81.5024H81.0524V191.44H81.5024ZM81.5024 176.515V176.065H27.105V176.515V176.965H81.5024V176.515ZM27.105 176.515L27.1062 176.065C20.1711 176.046 13.5253 173.283 8.62142 168.379L8.30322 168.698L7.98503 169.016C13.0571 174.088 19.9309 176.946 27.1038 176.965L27.105 176.515ZM8.30322 168.698L8.62142 168.379C3.7176 163.475 0.954408 156.83 0.935838 149.895L0.48584 149.896L0.0358415 149.897C0.0550479 157.07 2.91301 163.944 7.98502 169.016L8.30322 168.698ZM0.48584 149.896H0.93584V27.8049H0.48584H0.0358399V149.896H0.48584ZM0.48584 27.8049L0.935838 27.8061C0.954509 20.8711 3.71762 14.2252 8.62142 9.32137L8.30322 9.00317L7.98502 8.68498C2.91302 13.757 0.0551525 20.6309 0.0358415 27.8037L0.48584 27.8049ZM8.30322 9.00317L8.62142 9.32137C13.5253 4.41758 20.1712 1.6544 27.1062 1.63579L27.105 1.18579L27.1038 0.735793C19.9309 0.755038 13.0571 3.61299 7.98503 8.68497L8.30322 9.00317ZM27.105 1.18579V1.63579H189.867V1.18579V0.735791H27.105V1.18579ZM84.3774 197.189L84.3774 196.739L34.4009 196.741L34.4009 197.191L34.4009 197.641L84.3775 197.639L84.3774 197.189ZM34.4009 197.191L34.4007 196.741C34.2118 196.741 34.0533 196.819 33.9389 196.897C33.8207 196.978 33.711 197.084 33.6105 197.198C33.4092 197.426 33.1984 197.74 32.9843 198.106C32.5537 198.841 32.0697 199.854 31.5798 200.984L31.9927 201.163L32.4056 201.342C32.8907 200.223 33.3577 199.249 33.7609 198.561C33.9636 198.215 34.1404 197.958 34.2857 197.793C34.3585 197.71 34.412 197.664 34.4452 197.641C34.4821 197.616 34.4633 197.641 34.4011 197.641L34.4009 197.191ZM31.9927 201.163L31.5773 200.99C30.2823 204.096 29.3412 207.338 28.7728 210.655L29.2163 210.731L29.6598 210.807C30.2169 207.557 31.139 204.38 32.408 201.337L31.9927 201.163ZM29.2163 210.731V211.181H187.755V210.731V210.281H29.2163V210.731ZM187.755 210.731L188.199 210.655C187.631 207.337 186.69 204.095 185.394 200.988L184.979 201.161L184.564 201.335C185.833 204.379 186.755 207.556 187.312 210.807L187.755 210.731ZM184.979 201.161L185.392 200.982C184.902 199.852 184.418 198.839 183.987 198.104C183.773 197.738 183.562 197.424 183.361 197.196C183.261 197.082 183.151 196.976 183.033 196.895C182.918 196.817 182.76 196.739 182.571 196.739L182.571 197.189L182.571 197.639C182.508 197.639 182.49 197.614 182.526 197.639C182.56 197.662 182.613 197.708 182.686 197.791C182.831 197.956 183.008 198.213 183.211 198.559C183.614 199.247 184.081 200.221 184.566 201.34L184.979 201.161ZM182.571 197.189V196.739H84.3774V197.189V197.639H182.571V197.189ZM87.2515 176.515H86.8015V191.44H87.2515H87.7015V176.515H87.2515ZM87.2515 191.44V191.89H127.217V191.44V190.99H87.2515V191.44ZM127.217 191.44H127.667V176.515H127.217H126.767V191.44H127.217ZM127.217 176.515V176.065H87.2515V176.515V176.965H127.217V176.515ZM27.105 6.93481L27.1035 6.48482C21.4553 6.5034 16.0435 8.7556 12.0495 12.7494L12.3677 13.0676L12.6859 13.3858C16.5118 9.56004 21.6959 7.40261 27.1065 7.38481L27.105 6.93481ZM12.3677 13.0676L12.0495 12.7494C8.05549 16.7433 5.80364 22.1552 5.78487 27.8034L6.23486 27.8049L6.68486 27.8064C6.70284 22.3958 8.85996 17.2117 12.6859 13.3858L12.3677 13.0676ZM6.23486 27.8049H5.78486V149.896H6.23486H6.68486V27.8049H6.23486ZM6.23486 149.896L5.78487 149.897C5.80365 155.545 8.0555 160.957 12.0495 164.951L12.3677 164.633L12.6859 164.315C8.85998 160.489 6.70286 155.305 6.68486 149.894L6.23486 149.896ZM12.3677 164.633L12.0495 164.951C16.0435 168.945 21.4553 171.197 27.1035 171.216L27.105 170.766L27.1065 170.316C21.6959 170.298 16.5118 168.141 12.6859 164.315L12.3677 164.633ZM27.105 170.766V171.216H189.867V170.766V170.316H27.105V170.766ZM189.867 170.766L189.868 171.216C195.516 171.197 200.928 168.945 204.922 164.951L204.604 164.633L204.286 164.315C200.46 168.141 195.276 170.298 189.865 170.316L189.867 170.766ZM204.604 164.633L204.922 164.951C208.916 160.957 211.168 155.545 211.187 149.897L210.737 149.896L210.287 149.894C210.269 155.305 208.112 160.489 204.286 164.315L204.604 164.633ZM210.737 149.896H211.187V27.8049H210.737H210.287V149.896H210.737ZM210.737 27.8049L211.187 27.8034C211.168 22.1552 208.916 16.7433 204.922 12.7494L204.604 13.0676L204.286 13.3858C208.112 17.2117 210.269 22.3958 210.287 27.8064L210.737 27.8049ZM204.604 13.0676L204.922 12.7494C200.928 8.75559 195.516 6.5034 189.868 6.48482L189.867 6.93481L189.865 7.38481C195.276 7.40261 200.46 9.56004 204.286 13.3858L204.604 13.0676ZM189.867 6.93481V6.48481H27.105V6.93481V7.38481H189.867V6.93481ZM43.3608 156.933L43.3665 157.383C43.6877 157.379 44.0065 157.438 44.3039 157.558L44.4722 157.141L44.6405 156.724C44.232 156.559 43.7949 156.477 43.3552 156.483L43.3608 156.933ZM44.4722 157.141L44.3038 157.558C44.6014 157.678 44.8722 157.856 45.1004 158.081L45.4165 157.761L45.7326 157.441C45.4196 157.132 45.0483 156.888 44.6405 156.724L44.4722 157.141ZM45.4165 157.761L45.1003 158.081C45.3287 158.307 45.5104 158.576 45.6341 158.872L46.0493 158.698L46.4645 158.525C46.2948 158.119 46.0458 157.75 45.7327 157.441L45.4165 157.761ZM46.0493 158.698L45.6341 158.872C45.758 159.168 45.822 159.486 45.822 159.807H46.272H46.722C46.722 159.367 46.6341 158.931 46.4645 158.525L46.0493 158.698ZM46.272 159.807L45.822 159.807C45.822 160.128 45.758 160.445 45.6341 160.742L46.0493 160.915L46.4645 161.089C46.6341 160.683 46.722 160.247 46.722 159.807L46.272 159.807ZM46.0493 160.915L45.6341 160.742C45.5105 161.037 45.329 161.306 45.1003 161.532L45.4165 161.852L45.7327 162.172C46.0455 161.863 46.2947 161.495 46.4645 161.089L46.0493 160.915ZM45.4165 161.852L45.1003 161.532C44.8716 161.757 44.601 161.936 44.3039 162.056L44.4722 162.473L44.6405 162.89C45.049 162.725 45.4199 162.481 45.7327 162.172L45.4165 161.852ZM44.4722 162.473L44.3039 162.056C44.0065 162.175 43.6877 162.235 43.3665 162.231L43.3608 162.681L43.3552 163.131C43.7949 163.136 44.232 163.055 44.6405 162.89L44.4722 162.473ZM43.3608 162.681V162.231H27.8071V162.681V163.131H43.3608V162.681ZM27.8071 162.681L27.8128 162.231C27.175 162.223 26.5657 161.964 26.1175 161.51L25.7974 161.826L25.4772 162.143C26.0917 162.765 26.9271 163.12 27.8015 163.131L27.8071 162.681ZM25.7974 161.826L26.1176 161.51C25.6696 161.056 25.4183 160.444 25.4183 159.807L24.9683 159.807L24.5183 159.807C24.5183 160.681 24.8629 161.52 25.4771 162.143L25.7974 161.826ZM24.9683 159.807H25.4183C25.4183 159.169 25.6696 158.557 26.1176 158.103L25.7974 157.787L25.4771 157.471C24.863 158.093 24.5183 158.932 24.5183 159.807H24.9683ZM25.7974 157.787L26.1175 158.104C26.5657 157.65 27.175 157.391 27.8128 157.383L27.8071 156.933L27.8015 156.483C26.9271 156.494 26.0917 156.849 25.4772 157.471L25.7974 157.787ZM27.8071 156.933V157.383H43.3608V156.933V156.483H27.8071V156.933ZM73.4585 156.933L73.4641 157.383C73.7854 157.379 74.1042 157.438 74.4015 157.558L74.5698 157.141L74.7381 156.724C74.3297 156.559 73.8926 156.477 73.4529 156.483L73.4585 156.933ZM74.5698 157.141L74.4015 157.558C74.6991 157.678 74.9698 157.856 75.198 158.081L75.5142 157.761L75.8303 157.441C75.5172 157.132 75.146 156.888 74.7381 156.724L74.5698 157.141ZM75.5142 157.761L75.198 158.081C75.4263 158.307 75.608 158.576 75.7318 158.872L76.147 158.698L76.5622 158.525C76.3925 158.119 76.1435 157.75 75.8304 157.441L75.5142 157.761ZM76.147 158.698L75.7318 158.872C75.8556 159.168 75.9196 159.486 75.9196 159.807H76.3696H76.8196C76.8196 159.367 76.7317 158.931 76.5622 158.525L76.147 158.698ZM76.3696 159.807L75.9196 159.807C75.9196 160.128 75.8556 160.445 75.7318 160.742L76.147 160.915L76.5622 161.089C76.7317 160.683 76.8196 160.247 76.8196 159.807L76.3696 159.807ZM76.147 160.915L75.7318 160.742C75.6082 161.037 75.4266 161.306 75.198 161.532L75.5142 161.852L75.8304 162.172C76.1432 161.863 76.3923 161.495 76.5622 161.089L76.147 160.915ZM75.5142 161.852L75.198 161.532C74.9693 161.757 74.6987 161.936 74.4015 162.056L74.5698 162.473L74.7381 162.89C75.1467 162.725 75.5176 162.481 75.8304 162.172L75.5142 161.852ZM74.5698 162.473L74.4015 162.056C74.1042 162.175 73.7854 162.235 73.4641 162.231L73.4585 162.681L73.4529 163.131C73.8926 163.136 74.3297 163.055 74.7381 162.89L74.5698 162.473ZM73.4585 162.681V162.231H58.7886V162.681V163.131H73.4585V162.681ZM58.7886 162.681L58.783 162.231C58.4617 162.235 58.1428 162.175 57.8455 162.056L57.6772 162.473L57.5089 162.89C57.9174 163.055 58.3545 163.136 58.7942 163.131L58.7886 162.681ZM57.6772 162.473L57.8456 162.056C57.5484 161.936 57.2777 161.757 57.0491 161.532L56.7329 161.852L56.4167 162.172C56.7294 162.481 57.1005 162.725 57.5089 162.89L57.6772 162.473ZM56.7329 161.852L57.0491 161.532C56.8205 161.306 56.6389 161.037 56.5153 160.742L56.1001 160.915L55.6849 161.089C55.8547 161.495 56.104 161.863 56.4167 162.172L56.7329 161.852ZM56.1001 160.915L56.5153 160.742C56.3918 160.446 56.3284 160.128 56.3284 159.807L55.8784 159.807L55.4284 159.807C55.4284 160.246 55.515 160.682 55.6849 161.089L56.1001 160.915ZM55.8784 159.807H56.3284C56.3284 159.486 56.3918 159.168 56.5153 158.872L56.1001 158.698L55.6849 158.525C55.5151 158.931 55.4284 159.367 55.4284 159.807H55.8784ZM56.1001 158.698L56.5153 158.872C56.639 158.576 56.8207 158.307 57.0491 158.081L56.7329 157.761L56.4167 157.441C56.1036 157.75 55.8546 158.119 55.6849 158.525L56.1001 158.698ZM56.7329 157.761L57.0491 158.081C57.2772 157.856 57.548 157.678 57.8456 157.558L57.6772 157.141L57.5089 156.724C57.1012 156.888 56.7298 157.132 56.4167 157.441L56.7329 157.761ZM57.6772 157.141L57.8455 157.558C58.1428 157.438 58.4617 157.379 58.783 157.383L58.7886 156.933L58.7942 156.483C58.3545 156.477 57.9174 156.559 57.5089 156.724L57.6772 157.141ZM58.7886 156.933V157.383H73.4585V156.933V156.483H58.7886V156.933ZM103.254 156.933L103.26 157.383C103.581 157.379 103.899 157.438 104.197 157.558L104.365 157.141L104.533 156.724C104.125 156.559 103.688 156.477 103.249 156.483L103.254 156.933ZM104.365 157.141L104.196 157.558C104.495 157.678 104.766 157.856 104.994 158.081L105.31 157.761L105.626 157.441C105.313 157.131 104.941 156.888 104.533 156.724L104.365 157.141ZM105.31 157.761L104.994 158.081C105.222 158.307 105.404 158.576 105.528 158.872L105.943 158.698L106.358 158.525C106.188 158.119 105.939 157.75 105.626 157.441L105.31 157.761ZM105.943 158.698L105.528 158.872C105.651 159.168 105.715 159.486 105.715 159.807H106.165H106.615C106.615 159.367 106.528 158.931 106.358 158.525L105.943 158.698ZM106.165 159.807L105.715 159.807C105.715 160.128 105.651 160.446 105.528 160.742L105.943 160.915L106.358 161.089C106.528 160.682 106.615 160.246 106.615 159.807L106.165 159.807ZM105.943 160.915L105.528 160.742C105.404 161.037 105.222 161.306 104.994 161.532L105.31 161.852L105.626 162.172C105.939 161.863 106.188 161.495 106.358 161.089L105.943 160.915ZM105.31 161.852L104.994 161.532C104.765 161.757 104.494 161.936 104.196 162.056L104.365 162.473L104.533 162.89C104.941 162.726 105.313 162.481 105.626 162.172L105.31 161.852ZM104.365 162.473L104.197 162.056C103.899 162.175 103.581 162.235 103.26 162.231L103.254 162.681L103.249 163.131C103.688 163.136 104.125 163.055 104.533 162.89L104.365 162.473ZM103.254 162.681V162.231H88.3423V162.681V163.131H103.254V162.681ZM88.3423 162.681L88.3367 162.231C88.0154 162.235 87.6966 162.175 87.3993 162.056L87.231 162.473L87.0627 162.89C87.4711 163.055 87.9082 163.136 88.3479 163.131L88.3423 162.681ZM87.231 162.473L87.3993 162.056C87.1021 161.936 86.8315 161.757 86.6028 161.532L86.2866 161.852L85.9704 162.172C86.2832 162.481 86.6541 162.725 87.0627 162.89L87.231 162.473ZM86.2866 161.852L86.6028 161.532C86.3742 161.306 86.1926 161.037 86.069 160.742L85.6538 160.915L85.2386 161.089C85.4085 161.495 85.6576 161.863 85.9704 162.172L86.2866 161.852ZM85.6538 160.915L86.069 160.742C85.9452 160.445 85.8812 160.128 85.8811 159.807L85.4312 159.807L84.9812 159.807C84.9812 160.247 85.069 160.683 85.2386 161.089L85.6538 160.915ZM85.4312 159.807H85.8811C85.8811 159.486 85.9452 159.168 86.069 158.872L85.6538 158.698L85.2386 158.525C85.069 158.931 84.9812 159.367 84.9812 159.807H85.4312ZM85.6538 158.698L86.069 158.872C86.1928 158.576 86.3745 158.307 86.6028 158.081L86.2866 157.761L85.9704 157.441C85.6573 157.75 85.4083 158.119 85.2386 158.525L85.6538 158.698ZM86.2866 157.761L86.6028 158.081C86.831 157.856 87.1017 157.678 87.3993 157.558L87.231 157.141L87.0627 156.724C86.6548 156.888 86.2835 157.132 85.9705 157.441L86.2866 157.761ZM87.231 157.141L87.3993 157.558C87.6966 157.438 88.0154 157.379 88.3367 157.383L88.3423 156.933L88.3479 156.483C87.9082 156.477 87.4711 156.559 87.0627 156.724L87.231 157.141ZM88.3423 156.933V157.383H103.254V156.933V156.483H88.3423V156.933ZM194.324 18.925L194.322 19.375C195.374 19.3802 196.383 19.8013 197.128 20.546L197.446 20.2278L197.764 19.9096C196.852 18.9974 195.616 18.4814 194.326 18.4751L194.324 18.925ZM197.446 20.2278L197.128 20.546C197.872 21.2908 198.293 22.2998 198.299 23.353L198.749 23.3508L199.199 23.3486C199.192 22.0581 198.676 20.8221 197.764 19.9096L197.446 20.2278ZM198.749 23.3508H198.299V144.613H198.749H199.199V23.3508H198.749ZM198.749 144.613L198.299 144.612C198.298 145.134 198.195 145.651 197.995 146.133L198.411 146.306L198.826 146.479C199.072 145.887 199.198 145.253 199.199 144.613L198.749 144.613ZM198.411 146.306L197.995 146.133C197.795 146.615 197.502 147.052 197.132 147.421L197.45 147.74L197.767 148.058C198.221 147.606 198.581 147.07 198.826 146.479L198.411 146.306ZM197.45 147.74L197.768 147.421L197.763 147.416L197.445 147.735L197.127 148.053L197.132 148.058L197.45 147.74ZM197.445 147.735L197.126 147.418C196.758 147.787 196.322 148.081 195.841 148.282L196.014 148.698L196.188 149.113C196.778 148.866 197.313 148.506 197.764 148.052L197.445 147.735ZM196.014 148.698L195.841 148.282C195.36 148.483 194.844 148.588 194.322 148.589L194.324 149.039L194.325 149.489C194.965 149.487 195.598 149.359 196.188 149.113L196.014 148.698ZM194.324 149.039V148.589H22.6499V149.039V149.489H194.324V149.039ZM22.6499 149.039L22.6516 148.589C21.5981 148.585 20.589 148.165 19.8441 147.42L19.5259 147.739L19.2077 148.057C20.1206 148.97 21.3572 149.485 22.6482 149.489L22.6499 149.039ZM19.5259 147.739L19.8441 147.42C19.0991 146.675 18.6788 145.666 18.6751 144.612L18.2251 144.614L17.7751 144.615C17.7797 145.906 18.2947 147.144 19.2077 148.057L19.5259 147.739ZM18.2251 144.614H18.6751V23.3508H18.2251H17.7751V144.614H18.2251ZM18.2251 23.3508L18.6751 23.3517C18.6771 22.2978 19.0969 21.2873 19.8421 20.5421L19.5239 20.2239L19.2057 19.9057C18.2921 20.8193 17.7776 22.0579 17.7751 23.35L18.2251 23.3508ZM19.5239 20.2239L19.8421 20.5421C20.5874 19.797 21.5972 19.3771 22.6508 19.375L22.6499 18.925L22.649 18.475C21.3571 18.4776 20.1192 18.9925 19.2058 19.9056L19.5239 20.2239ZM22.6499 18.925V19.375H194.324V18.925V18.475H22.6499V18.925ZM23.9761 143.29V143.74H192.999V143.29V142.84H23.9761V143.29ZM192.999 143.29H193.449V24.6731H192.999H192.549V143.29H192.999ZM192.999 24.6731V24.2231H23.9761V24.6731V25.1231H192.999V24.6731ZM23.9761 24.6731H23.5261V143.29H23.9761H24.4261V24.6731H23.9761ZM40.2192 55.2805L40.5374 55.5987C59.6838 36.4523 91.3737 39.2098 107.006 61.2043L107.373 60.9436L107.739 60.6829C91.7859 38.2363 59.4429 35.4204 39.901 54.9623L40.2192 55.2805ZM107.373 60.9436L107.739 61.2044C123.355 39.2514 155.025 36.4218 174.202 55.5987L174.52 55.2805L174.838 54.9623C155.265 35.3888 122.942 38.2793 107.006 60.6828L107.373 60.9436ZM174.52 55.2805L174.202 55.5987C178.255 59.6519 181.47 64.4636 183.664 69.7594L184.08 69.5872L184.495 69.4149C182.257 64.01 178.975 59.0991 174.838 54.9623L174.52 55.2805ZM184.08 69.5872L183.664 69.7594C185.857 75.0551 186.987 80.7311 186.987 86.4631L187.437 86.4631L187.887 86.4631C187.887 80.6128 186.734 74.8199 184.495 69.4149L184.08 69.5872ZM187.437 86.4631H186.987C186.987 92.1953 185.857 97.872 183.664 103.168L184.08 103.34L184.495 103.512C186.734 98.1073 187.887 92.3135 187.887 86.4631H187.437ZM184.08 103.34L183.664 103.168C181.47 108.464 178.255 113.275 174.202 117.329L174.52 117.647L174.838 117.965C178.975 113.828 182.256 108.917 184.495 103.512L184.08 103.34ZM174.52 117.647L174.202 117.329C155.025 136.505 123.356 133.677 107.739 111.723L107.373 111.984L107.006 112.244C122.943 134.649 155.265 137.538 174.838 117.965L174.52 117.647ZM107.373 111.984L107.006 111.723C91.3696 133.72 59.6807 136.471 40.5374 117.329L40.2192 117.647L39.901 117.965C59.4397 137.503 91.7818 134.694 107.739 112.244L107.373 111.984ZM40.2192 117.647L40.5374 117.329C36.4843 113.275 33.269 108.464 31.0754 103.168L30.6597 103.34L30.2439 103.512C32.4827 108.917 35.7643 113.828 39.901 117.965L40.2192 117.647ZM30.6597 103.34L31.0754 103.168C28.8818 97.872 27.7532 92.1954 27.7532 86.4631H27.3032H26.8532C26.8532 92.3135 28.0051 98.1072 30.2439 103.512L30.6597 103.34ZM27.3032 86.4631L27.7532 86.4631C27.7533 80.731 28.8819 75.0551 31.0754 69.7594L30.6597 69.5872L30.2439 69.4149C28.0051 74.8199 26.8533 80.6129 26.8532 86.4631L27.3032 86.4631ZM30.6597 69.5872L31.0754 69.7594C33.269 64.4637 36.4843 59.6519 40.5374 55.5987L40.2192 55.2805L39.901 54.9623C35.7644 59.0991 32.4827 64.01 30.2439 69.4149L30.6597 69.5872ZM71.4028 48.1135V47.6635C61.1122 47.6636 51.2432 51.7513 43.9665 59.0277L44.2847 59.3459L44.6029 59.6642C51.7108 52.5565 61.3509 48.5636 71.4028 48.5635V48.1135ZM44.2847 59.3459L43.9665 59.0277C38.54 64.4543 34.8444 71.3681 33.3472 78.8949L33.7886 78.9827L34.2299 79.0705C35.6924 71.7183 39.3022 64.9648 44.6029 59.6641L44.2847 59.3459ZM33.7886 78.9827L33.3472 78.8949C31.8501 86.4216 32.6187 94.2231 35.5554 101.313L35.9712 101.141L36.3869 100.969C33.5183 94.0431 32.7675 86.4226 34.2299 79.0705L33.7886 78.9827ZM35.9712 101.141L35.5554 101.313C38.4923 108.403 43.4653 114.463 49.8462 118.727L50.0962 118.353L50.3462 117.979C44.1133 113.814 39.2556 107.894 36.3869 100.969L35.9712 101.141ZM50.0962 118.353L49.8462 118.727C56.227 122.99 63.7287 125.267 71.4028 125.267V124.817V124.367C63.9067 124.367 56.579 122.143 50.3462 117.979L50.0962 118.353ZM71.4028 124.817V125.267C79.0771 125.267 86.5796 122.991 92.9605 118.727L92.7104 118.353L92.4604 117.979C86.2275 122.143 78.8991 124.367 71.4028 124.367V124.817ZM92.7104 118.353L92.9605 118.727C99.3413 114.463 104.314 108.403 107.251 101.313L106.835 101.141L106.42 100.969C103.551 107.894 98.6932 113.814 92.4604 117.979L92.7104 118.353ZM106.835 101.141L107.251 101.313C110.188 94.2231 110.957 86.4216 109.459 78.8949L109.018 78.9827L108.577 79.0705C110.039 86.4225 109.288 94.0431 106.42 100.969L106.835 101.141ZM109.018 78.9827L109.459 78.8949C107.962 71.3681 104.267 64.4543 98.8402 59.0278L98.522 59.3459L98.2038 59.6641C103.504 64.9648 107.114 71.7183 108.577 79.0705L109.018 78.9827ZM98.522 59.3459L98.8402 59.0277C91.5633 51.7512 81.6936 47.6635 71.4028 47.6635V48.1135V48.5635C81.455 48.5635 91.0957 52.5564 98.2038 59.6642L98.522 59.3459ZM170.456 59.345L170.774 59.0268C153.04 41.2929 123.425 44.8001 110.281 66.1245L110.665 66.3606L111.048 66.5967C123.887 45.766 152.815 42.3411 170.137 59.6632L170.456 59.345ZM110.665 66.3606L110.264 66.5654C113.413 72.7254 115.055 79.5448 115.055 86.4631L115.505 86.4631L115.955 86.4631C115.955 79.4023 114.28 72.4425 111.065 66.1557L110.665 66.3606ZM115.505 86.4631H115.055C115.055 93.3816 113.413 100.202 110.264 106.362L110.665 106.567L111.065 106.772C114.28 100.485 115.955 93.5241 115.955 86.4631H115.505ZM110.665 106.567L110.281 106.803C123.426 128.127 153.04 131.634 170.774 113.9L170.456 113.582L170.137 113.264C152.815 130.586 123.888 127.161 111.048 106.331L110.665 106.567ZM170.456 113.582L170.774 113.9C178.05 106.623 182.138 96.7539 182.138 86.4631H181.688H181.238C181.238 96.5152 177.245 106.156 170.137 113.264L170.456 113.582ZM181.688 86.4631H182.138C182.138 76.1725 178.05 66.3037 170.774 59.0268L170.456 59.345L170.137 59.6632C177.245 66.7713 181.238 76.4112 181.238 86.4631H181.688ZM162.854 67.5588L162.854 68.0088C163.497 68.0089 164.113 68.2648 164.568 68.7198L164.886 68.4016L165.204 68.0834C164.581 67.4602 163.736 67.1089 162.854 67.1088L162.854 67.5588ZM164.886 68.4016L164.568 68.7198C165.023 69.1748 165.279 69.7912 165.279 70.4338H165.729H166.179C166.179 69.5517 165.828 68.7066 165.204 68.0834L164.886 68.4016ZM165.729 70.4338H165.279V102.495H165.729H166.179V70.4338H165.729ZM165.729 102.495H165.279C165.279 103.138 165.023 103.756 164.568 104.21L164.886 104.529L165.204 104.847C165.828 104.223 166.179 103.377 166.179 102.495H165.729ZM164.886 104.529L164.568 104.21C164.113 104.665 163.497 104.92 162.854 104.92L162.854 105.37L162.854 105.82C163.736 105.82 164.581 105.47 165.204 104.847L164.886 104.529ZM162.854 105.37V104.92C162.211 104.92 161.594 104.665 161.139 104.21L160.821 104.529L160.503 104.847C161.126 105.47 161.972 105.82 162.854 105.82V105.37ZM160.821 104.529L161.139 104.21C160.684 103.756 160.429 103.139 160.429 102.495H159.979H159.529C159.529 103.377 159.879 104.223 160.503 104.847L160.821 104.529ZM159.979 102.495H160.429V70.4338H159.979H159.529V102.495H159.979ZM159.979 70.4338H160.429C160.429 69.7911 160.685 69.1745 161.139 68.7197L160.821 68.4016L160.503 68.0835C159.879 68.7068 159.529 69.5522 159.529 70.4338H159.979ZM160.821 68.4016L161.139 68.7198C161.594 68.2649 162.211 68.0088 162.854 68.0088V67.5588V67.1088C161.972 67.1088 161.126 67.4601 160.503 68.0834L160.821 68.4016ZM147.56 68.0188V68.4688C148.203 68.4688 148.82 68.7249 149.275 69.1798L149.593 68.8616L149.911 68.5434C149.288 67.9201 148.442 67.5688 147.56 67.5688V68.0188ZM149.593 68.8616L149.275 69.1797C149.73 69.6344 149.985 70.251 149.985 70.8938H150.435H150.885C150.885 70.0122 150.535 69.1668 149.912 68.5434L149.593 68.8616ZM150.435 70.8938H149.985V90.1653H150.435H150.885V70.8938H150.435ZM150.435 90.1653L149.985 90.1678C149.995 92.0516 149.633 93.9192 148.919 95.6628L149.335 95.8333L149.752 96.0037C150.511 94.1506 150.896 92.1654 150.885 90.1628L150.435 90.1653ZM149.335 95.8333L148.919 95.6628C148.205 97.4062 147.154 98.9918 145.826 100.327L146.145 100.645L146.464 100.962C147.876 99.5422 148.993 97.8568 149.752 96.0037L149.335 95.8333ZM146.145 100.645L145.826 100.327C144.498 101.663 142.918 102.723 141.178 103.446L141.351 103.862L141.524 104.277C143.373 103.508 145.052 102.382 146.464 100.962L146.145 100.645ZM141.351 103.862L141.178 103.446C139.439 104.169 137.574 104.542 135.69 104.542V104.992V105.442C137.692 105.442 139.675 105.046 141.524 104.277L141.351 103.862ZM135.69 104.992V104.542C133.806 104.542 131.941 104.169 130.202 103.446L130.029 103.862L129.856 104.277C131.705 105.046 133.687 105.442 135.69 105.442V104.992ZM130.029 103.862L130.202 103.446C128.462 102.723 126.882 101.663 125.554 100.327L125.235 100.645L124.916 100.962C126.328 102.382 128.007 103.508 129.856 104.277L130.029 103.862ZM125.235 100.645L125.554 100.327C124.225 98.9916 123.174 97.4062 122.46 95.6628L122.043 95.8333L121.627 96.0037C122.386 97.857 123.504 99.5422 124.916 100.962L125.235 100.645ZM122.043 95.8333L122.46 95.6628C121.746 93.9194 121.384 92.0517 121.395 90.1678L120.945 90.1653L120.495 90.1628C120.484 92.1652 120.868 94.1505 121.627 96.0037L122.043 95.8333ZM120.945 90.1653H121.395V70.8938H120.945H120.495V90.1653H120.945ZM120.945 70.8938L121.395 70.8994C121.403 70.2616 121.662 69.6523 122.116 69.2042L121.799 68.884L121.483 68.5639C120.861 69.1784 120.506 70.0138 120.495 70.8882L120.945 70.8938ZM121.799 68.884L122.116 69.2042C122.569 68.7562 123.182 68.5049 123.82 68.5049V68.0549V67.6049C122.945 67.6049 122.105 67.9493 121.483 68.5638L121.799 68.884ZM123.82 68.0549L123.82 68.5049C124.457 68.505 125.07 68.7563 125.523 69.2042L125.839 68.884L126.156 68.5638C125.533 67.9495 124.694 67.6051 123.82 67.6049L123.82 68.0549ZM125.839 68.884L125.523 69.2042C125.977 69.6523 126.236 70.2616 126.244 70.8994L126.694 70.8938L127.144 70.8882C127.133 70.0138 126.778 69.1784 126.156 68.5639L125.839 68.884ZM126.694 70.8938H126.244V90.1653H126.694H127.144V70.8938H126.694ZM126.694 90.1653H126.244C126.244 98.443 136.351 102.84 142.359 96.8351L142.041 96.5168L141.722 96.1986C136.296 101.623 127.144 97.6607 127.144 90.1653H126.694ZM142.041 96.5168L142.358 96.8359C143.237 95.9617 143.935 94.9224 144.412 93.7777L143.997 93.6047L143.581 93.4318C143.15 94.4669 142.518 95.407 141.723 96.1978L142.041 96.5168ZM143.997 93.6047L144.412 93.7777C144.889 92.6332 145.135 91.4056 145.136 90.1657L144.686 90.1653L144.236 90.1649C144.235 91.2862 144.012 92.3965 143.581 93.4318L143.997 93.6047ZM144.686 90.1653H145.136V70.8938H144.686H144.236V90.1653H144.686ZM144.686 70.8938H145.136C145.136 70.2508 145.391 69.6345 145.846 69.1797L145.528 68.8616L145.21 68.5434C144.586 69.1668 144.236 70.0121 144.236 70.8938H144.686ZM145.528 68.8616L145.846 69.1798C146.301 68.7248 146.917 68.4688 147.56 68.4688L147.56 68.0188L147.56 67.5688C146.678 67.5689 145.833 67.9202 145.21 68.5434L145.528 68.8616ZM65.1323 67.9827L65.1323 68.4327C65.4529 68.4327 65.7709 68.4967 66.0672 68.6205L66.2407 68.2053L66.4142 67.7901C66.0085 67.6206 65.5727 67.5327 65.1323 67.5327L65.1323 67.9827ZM66.2407 68.2053L66.0672 68.6205C66.3633 68.7443 66.6318 68.9253 66.8571 69.1534L67.1772 68.8372L67.4974 68.5209C67.1882 68.2079 66.8199 67.9597 66.4143 67.7901L66.2407 68.2053ZM67.1772 68.8372L66.8571 69.1534C67.0826 69.3818 67.261 69.6532 67.381 69.9508L67.7983 69.7825L68.2157 69.6142C68.0511 69.206 67.8066 68.834 67.4974 68.521L67.1772 68.8372ZM67.7983 69.7825L67.381 69.9507C67.5008 70.248 67.5603 70.5663 67.5564 70.8873L68.0063 70.8928L68.4563 70.8984C68.4617 70.4588 68.3802 70.0223 68.2157 69.6142L67.7983 69.7825ZM68.0063 70.8928H67.5564V90.1653H68.0063H68.4563V70.8928H68.0063ZM68.0063 90.1653L67.5564 90.1628C67.5354 93.9402 66.0199 97.5555 63.3414 100.219L63.6587 100.538L63.976 100.857C66.8231 98.026 68.4341 94.1831 68.4563 90.1678L68.0063 90.1653ZM63.6587 100.538L63.3414 100.219C60.6628 102.883 57.0388 104.378 53.2612 104.378V104.828V105.278C57.2767 105.278 61.1288 103.689 63.976 100.857L63.6587 100.538ZM53.2612 104.828L53.2612 104.378C49.4837 104.378 45.8596 102.883 43.1811 100.219L42.8638 100.538L42.5465 100.857C45.3936 103.689 49.2459 105.278 53.2612 105.278L53.2612 104.828ZM42.8638 100.538L43.1811 100.219C40.5028 97.5556 38.988 93.9401 38.9671 90.1628L38.5171 90.1653L38.0671 90.1678C38.0894 94.1829 39.6995 98.026 42.5464 100.857L42.8638 100.538ZM38.5171 90.1653H38.9671V70.8938H38.5171H38.0671V90.1653H38.5171ZM38.5171 70.8938H38.9671C38.9671 70.2508 39.2224 69.6345 39.6771 69.1797L39.3589 68.8616L39.0407 68.5434C38.4173 69.1668 38.0671 70.0121 38.0671 70.8938H38.5171ZM39.3589 68.8616L39.6771 69.1798C40.132 68.7248 40.7485 68.4688 41.3911 68.4688L41.3911 68.0188L41.3911 67.5688C40.509 67.5689 39.6639 67.9202 39.0407 68.5434L39.3589 68.8616ZM41.3911 68.0188V68.4688C42.0339 68.4688 42.6512 68.7249 43.1061 69.1798L43.4243 68.8616L43.7425 68.5434C43.1192 67.9201 42.2731 67.5688 41.3911 67.5688V68.0188ZM43.4243 68.8616L43.1061 69.1797C43.5606 69.6344 43.8161 70.251 43.8161 70.8938H44.2661H44.7161C44.7161 70.0122 44.3657 69.1668 43.7426 68.5434L43.4243 68.8616ZM44.2661 70.8938H43.8161V90.1653H44.2661H44.7161V70.8938H44.2661ZM44.2661 90.1653H43.8161C43.8161 98.4435 53.9236 102.84 59.929 96.8341L59.6108 96.5159L59.2926 96.1977C53.8681 101.622 44.7161 97.6614 44.7161 90.1653H44.2661ZM59.6108 96.5159L59.9281 96.835C60.8073 95.9611 61.5056 94.9223 61.9823 93.7778L61.5669 93.6047L61.1515 93.4317C60.7204 94.4667 60.0889 95.4062 59.2936 96.1967L59.6108 96.5159ZM61.5669 93.6047L61.9823 93.7778C62.459 92.6333 62.7052 91.4056 62.7063 90.1657L62.2563 90.1653L61.8063 90.1649C61.8054 91.2862 61.5826 92.3965 61.1515 93.4317L61.5669 93.6047ZM62.2563 90.1653H62.7063V70.8938H62.2563H61.8063V90.1653H62.2563ZM62.2563 70.8938L62.5745 71.212L62.5755 71.211L62.2573 70.8928L61.9391 70.5746L61.9381 70.5756L62.2563 70.8938ZM62.2573 70.8928L62.7073 70.8873C62.7033 70.567 62.7635 70.2487 62.8837 69.9507L62.4663 69.7825L62.049 69.6142C61.8847 70.0216 61.8019 70.458 61.8074 70.8984L62.2573 70.8928ZM62.4663 69.7825L62.8837 69.9508C63.0039 69.6526 63.1815 69.3813 63.4066 69.1534L63.0864 68.8372L62.7662 68.521C62.4566 68.8345 62.2133 69.2066 62.049 69.6142L62.4663 69.7825ZM63.0864 68.8372L63.4066 69.1534C63.6317 68.9255 63.9007 68.7445 64.1974 68.6205L64.0239 68.2053L63.8504 67.7901C63.445 67.9596 63.0759 68.2074 62.7662 68.521L63.0864 68.8372ZM64.0239 68.2053L64.1974 68.6205C64.4939 68.4967 64.8117 68.4327 65.1323 68.4327V67.9827V67.5327C64.6919 67.5327 64.2562 67.6205 63.8504 67.7901L64.0239 68.2053ZM101.229 68.719L101.255 69.1683C101.891 69.1317 102.516 69.3475 102.994 69.7687L103.292 69.4309L103.589 69.0931C102.933 68.5158 102.076 68.2195 101.203 68.2697L101.229 68.719ZM103.292 69.4309L102.994 69.7687C103.473 70.1899 103.766 70.7826 103.81 71.4183L104.259 71.387L104.708 71.3556C104.647 70.4835 104.245 69.6706 103.589 69.0931L103.292 69.4309ZM104.259 71.387L103.81 71.4182C103.855 72.054 103.647 72.6816 103.231 73.165L103.573 73.4583L103.914 73.7515C104.484 73.0884 104.769 72.2276 104.708 71.3557L104.259 71.387ZM103.573 73.4583L103.235 73.1609L91.7858 86.1658L92.1235 86.4631L92.4613 86.7605L103.911 73.7556L103.573 73.4583ZM92.1235 86.4631L91.7858 86.7605L103.235 99.7654L103.573 99.468L103.911 99.1707L92.4613 86.1658L92.1235 86.4631ZM103.573 99.468L103.239 99.7694C103.453 100.007 103.618 100.285 103.724 100.588L104.149 100.439L104.573 100.289C104.428 99.8752 104.201 99.4933 103.907 99.1666L103.573 99.468ZM104.149 100.439L103.724 100.588C103.831 100.89 103.876 101.211 103.858 101.531L104.307 101.557L104.756 101.583C104.782 101.144 104.719 100.704 104.573 100.289L104.149 100.439ZM104.307 101.557L103.858 101.531C103.839 101.851 103.758 102.165 103.617 102.453L104.022 102.65L104.427 102.847C104.619 102.451 104.731 102.021 104.756 101.583L104.307 101.557ZM104.022 102.65L103.617 102.453C103.477 102.741 103.281 102.999 103.04 103.21L103.337 103.548L103.635 103.886C103.965 103.595 104.234 103.242 104.427 102.847L104.022 102.65ZM103.337 103.548L103.04 103.21C102.8 103.422 102.52 103.584 102.216 103.686L102.36 104.113L102.504 104.539C102.92 104.398 103.305 104.176 103.635 103.886L103.337 103.548ZM102.36 104.113L102.216 103.686C101.912 103.789 101.591 103.83 101.271 103.808L101.24 104.257L101.208 104.706C101.647 104.737 102.088 104.68 102.504 104.539L102.36 104.113ZM101.24 104.257L101.271 103.808C100.951 103.786 100.639 103.701 100.353 103.557L100.151 103.959L99.949 104.361C100.342 104.559 100.77 104.675 101.208 104.706L101.24 104.257ZM100.151 103.959L100.353 103.557C100.067 103.413 99.8115 103.214 99.6025 102.971L99.2612 103.264L98.9199 103.557C99.2062 103.89 99.556 104.164 99.9489 104.361L100.151 103.959ZM99.2612 103.264L99.599 102.967L88.6351 90.5115L88.2974 90.8088L87.9596 91.1062L98.9235 103.561L99.2612 103.264ZM88.2974 90.8088L87.9596 90.5115L76.9957 102.967L77.3335 103.264L77.6713 103.561L88.6351 91.1062L88.2974 90.8088ZM77.3335 103.264L76.9922 102.971C76.7832 103.214 76.5282 103.413 76.2419 103.557L76.4438 103.959L76.6458 104.361C77.0387 104.164 77.3885 103.89 77.6748 103.557L77.3335 103.264ZM76.4438 103.959L76.2419 103.557C75.956 103.701 75.6431 103.786 75.3227 103.808L75.354 104.257L75.3853 104.706C75.8233 104.675 76.2523 104.559 76.6458 104.361L76.4438 103.959ZM75.354 104.257L75.3227 103.808C75.0033 103.83 74.6827 103.789 74.379 103.686L74.2349 104.113L74.0908 104.539C74.5068 104.679 74.9467 104.737 75.3853 104.706L75.354 104.257ZM74.2349 104.113L74.379 103.686C74.0747 103.583 73.7938 103.422 73.5537 103.21L73.2563 103.548L72.959 103.886C73.2895 104.177 73.6748 104.398 74.0907 104.539L74.2349 104.113ZM73.2563 103.548L73.5537 103.21C73.3131 102.999 73.1167 102.741 72.9763 102.453L72.5718 102.65L72.1672 102.847C72.3597 103.242 72.629 103.595 72.959 103.886L73.2563 103.548ZM72.5718 102.65L72.9763 102.453C72.8361 102.165 72.7543 101.851 72.7359 101.531L72.2866 101.557L71.8374 101.583C71.8627 102.021 71.9747 102.451 72.1672 102.847L72.5718 102.65ZM72.2866 101.557L72.7359 101.531C72.7175 101.211 72.763 100.89 72.8693 100.588L72.4448 100.439L72.0203 100.289C71.8746 100.704 71.8121 101.144 71.8374 101.583L72.2866 101.557ZM72.4448 100.439L72.8693 100.588C72.9758 100.285 73.1408 100.007 73.3552 99.7694L73.021 99.468L72.6868 99.1666C72.3923 99.4933 72.1661 99.8751 72.0203 100.289L72.4448 100.439ZM73.021 99.468L73.3588 99.7654L84.808 86.7605L84.4702 86.4631L84.1325 86.1658L72.6832 99.1707L73.021 99.468ZM84.4702 86.4631L84.808 86.1658L73.3588 73.1609L73.021 73.4583L72.6832 73.7556L84.1325 86.7605L84.4702 86.4631ZM73.021 73.4583V73.0083H73.02V73.4583V73.9082H73.021V73.4583ZM73.02 73.4583L73.3614 73.165C72.9458 72.6813 72.7372 72.0536 72.7814 71.4182L72.3325 71.387L71.8836 71.3557C71.8228 72.228 72.1094 73.0887 72.6787 73.7515L73.02 73.4583ZM72.3325 71.387L72.7814 71.4183C72.8258 70.7827 73.1193 70.1899 73.5977 69.7686L73.3003 69.4309L73.0029 69.0932C72.3471 69.6706 71.9445 70.4836 71.8836 71.3556L72.3325 71.387ZM73.3003 69.4309L73.5976 69.7687C74.0762 69.3475 74.7017 69.1316 75.3379 69.1683L75.3638 68.719L75.3897 68.2697C74.5168 68.2194 73.6591 68.5156 73.003 69.0931L73.3003 69.4309ZM75.3638 68.719L75.3379 69.1683C75.974 69.2049 76.5704 69.4913 76.9974 69.9647L77.3315 69.6633L77.6657 69.362C77.0804 68.7129 76.2626 68.3201 75.3897 68.2697L75.3638 68.719ZM77.3315 69.6633L76.9938 69.9607L87.9576 82.4157L88.2954 82.1184L88.6332 81.8211L77.6693 69.366L77.3315 69.6633ZM88.2954 82.1184L88.6332 82.4158L99.599 69.9607L99.2612 69.6633L98.9235 69.366L87.9577 81.821L88.2954 82.1184ZM99.2612 69.6633L99.5954 69.9647C100.022 69.4913 100.619 69.2049 101.255 69.1683L101.229 68.719L101.203 68.2697C100.33 68.3201 99.5124 68.7129 98.927 69.362L99.2612 69.6633Z" fill="black" mask="url(#path-1-outside-1_312_89)"/>
</svg>
