<svg width="165" height="165" viewBox="0 0 165 165" fill="none" xmlns="http://www.w3.org/2000/svg">
<path d="M87.7914 25.7539L77.9857 35.5596L94.6316 52.2055C97.0262 54.6001 98.372 57.851 98.372 61.2363C98.372 64.6241 97.0262 67.8724 94.6316 70.267L70.3705 94.5281C67.9759 96.9227 64.7276 98.2685 61.3398 98.2685C57.9545 98.2685 54.7036 96.9227 52.309 94.5281L35.6631 77.8822L25.8574 87.6879L77.2107 139.041L139.145 77.1072L87.7914 25.7539Z" fill="#F0BC5E"/>
<path d="M140.697 48.0104C140.697 49.4712 139.512 50.6556 138.051 50.6556C136.591 50.6556 135.406 49.4712 135.406 48.0104C135.406 46.5496 136.591 45.3652 138.051 45.3652C139.512 45.3652 140.697 46.5496 140.697 48.0104Z" fill="black"/>
<path d="M119.534 26.8493C119.534 28.31 118.35 29.4944 116.889 29.4944C115.429 29.4944 114.244 28.31 114.244 26.8493C114.244 25.3885 115.429 24.2041 116.889 24.2041C118.35 24.2041 119.534 25.3885 119.534 26.8493Z" fill="black"/>
<path d="M159.987 72.1371C162.899 69.2272 164.502 65.355 164.502 61.2362C164.502 57.1173 162.899 53.2452 159.987 50.3352L114.564 4.91283C111.654 2.00032 107.782 0.397461 103.663 0.397461C99.5444 0.397461 95.6722 2.00032 92.7623 4.91283L71.9213 25.7538L51.0803 4.91283C48.1704 2.00032 44.2982 0.397461 40.1794 0.397461C36.0605 0.397461 32.1884 2.00032 29.2784 4.91283L5.01733 29.1739C2.10481 32.0839 0.501953 35.956 0.501953 40.0749C0.501953 44.1937 2.10481 48.0659 5.01733 50.9758L25.8583 71.8168L5.01733 92.6578C2.10481 95.5677 0.501953 99.4399 0.501953 103.559C0.501953 107.678 2.10481 111.55 5.01733 114.46L50.4397 159.882C53.3496 162.795 57.2218 164.397 61.3407 164.397C65.4595 164.397 69.3317 162.795 72.2416 159.882L114.244 117.88L122.179 125.815L139.146 108.849L131.21 100.914L135.405 96.7185L143.341 104.654L160.307 87.6878L152.371 79.7523L159.987 72.1371ZM110.824 8.65326L156.246 54.0756C158.159 55.9885 159.212 58.5329 159.212 61.2362C159.212 63.9395 158.159 66.4839 156.246 68.3967L153.921 70.7216L139.146 55.9459H133.855L108.954 31.0441V25.7538L94.1779 10.9781L96.5027 8.65326C100.327 4.82759 106.999 4.82759 110.824 8.65326ZM47.3399 8.65326L92.7623 54.0756C94.6454 55.9588 95.7278 58.5703 95.7278 61.2362C95.7278 62.4658 95.4824 63.6514 95.0665 64.7699L36.6456 6.34907C37.7641 5.93318 38.9498 5.68778 40.1794 5.68778C42.8827 5.68778 45.4271 6.74042 47.3399 8.65326ZM32.2439 9.42821L91.9873 69.1717L87.7923 73.3667L28.0488 13.6233L32.2439 9.42821ZM5.79228 40.0749C5.79228 37.3716 6.84492 34.8272 8.75775 32.9143L24.3084 17.3637L84.0519 77.1071L68.5012 92.6578C66.5884 94.5706 64.0439 95.6233 61.3407 95.6233C58.6748 95.6233 56.0633 94.5409 54.1801 92.6578L8.75775 47.2354C6.84492 45.3226 5.79228 42.7782 5.79228 40.0749ZM50.4397 96.3982C53.3096 99.2681 57.2825 100.914 61.3407 100.914C65.4595 100.914 69.3317 99.3107 72.2416 96.3982L96.5027 72.1371C99.4152 69.2272 101.018 65.355 101.018 61.2362C101.018 57.178 99.3726 53.2051 96.5027 50.3352L75.6617 29.4942L90.4374 14.7185L103.663 27.9443V33.2347L131.665 61.2362H136.955L150.181 74.462L77.2116 147.431L17.4682 87.6878L29.5987 75.5572L50.4397 96.3982ZM68.5012 156.142C64.6768 159.967 58.0045 159.967 54.1801 156.142L8.75775 110.719C6.84492 108.806 5.79228 106.262 5.79228 103.559C5.79228 100.855 6.84492 98.3111 8.75775 96.3982L13.7278 91.4282L73.4712 151.172L68.5012 156.142ZM131.665 108.849L122.179 118.334L117.984 114.139L127.47 104.654L131.665 108.849ZM152.826 87.6878L143.341 97.1732L139.146 92.9781L148.631 83.4927L152.826 87.6878Z" fill="black"/>
<path d="M25.082 118.654L28.8225 114.913L44.6921 130.783L40.9517 134.524L25.082 118.654Z" fill="black"/>
<path d="M80.6309 112.268L109.726 83.1724L113.468 86.9141L84.3713 116.01L80.6309 112.268Z" fill="black"/>
<path d="M112.373 80.5271L117.663 75.2368L121.404 78.9785L116.113 84.2676L112.373 80.5271Z" fill="black"/>
<path d="M120.311 34.0109L124.051 30.2705L134.632 40.8512L130.891 44.5916L120.311 34.0109Z" fill="black"/>
<path d="M9.98633 40.0748L26.9526 57.0411L38.6285 45.3652L21.6622 28.3989L9.98633 40.0748ZM21.6622 35.8798L24.5347 38.7523L20.3397 42.9473L17.4672 40.0748L21.6622 35.8798ZM26.9526 49.5602L24.0801 46.6877L28.2751 42.4927L31.1476 45.3652L26.9526 49.5602Z" fill="black"/>
<path d="M46.2422 76.3308L49.9839 72.5903L63.2084 85.8161L59.468 89.5566L46.2422 76.3308Z" fill="black"/>
<path d="M48.8887 65.7512L52.6291 62.0107L71.1439 80.5256L67.4035 84.266L48.8887 65.7512Z" fill="black"/>
</svg>
