<svg width="51" height="51" viewBox="0 0 51 51" fill="none" xmlns="http://www.w3.org/2000/svg">
<circle cx="25.7773" cy="25.25" r="24.5" fill="black" stroke="white"/>
<path d="M18.2224 25.2769C17.6366 24.6911 17.6366 23.7406 18.2224 23.1548L24.6677 16.7095L24.7214 16.6616C24.7361 16.6456 24.7498 16.6284 24.7653 16.6128C25.3511 16.027 26.3006 16.027 26.8864 16.6128L33.3327 23.0581L33.4352 23.1714C33.9157 23.7605 33.8817 24.63 33.3327 25.1792C32.7836 25.7283 31.9141 25.7622 31.3249 25.2817L31.2106 25.1792L27.2282 21.1968L27.2282 32.8267C27.2282 33.6551 26.5566 34.3267 25.7282 34.3267C24.9 34.3264 24.2282 33.6549 24.2282 32.8267L24.2282 21.3921L20.3435 25.2769C19.7577 25.8622 18.808 25.8624 18.2224 25.2769Z" fill="white"/>
</svg>
