<svg width="130" height="130" viewBox="0 0 130 130" fill="none" xmlns="http://www.w3.org/2000/svg">
<path d="M22.1782 0.496425C24.9814 0.524742 27.7512 1.11565 30.3247 2.23471C32.8758 3.34408 35.1829 4.95095 37.1147 6.96127C45.8045 2.71302 55.3396 0.505249 65.0005 0.505214C74.6609 0.505288 84.1949 2.71336 92.8843 6.96127C94.836 4.92859 97.1725 3.30939 99.7563 2.20053C102.362 1.0822 105.167 0.506458 108 0.506191H108C112.206 0.501748 116.316 1.76317 119.803 4.12924C123.29 6.49544 125.994 9.85786 127.568 13.7835C129.141 17.7092 129.513 22.0189 128.634 26.1585C127.76 30.2746 125.688 34.0344 122.686 36.9622C126.906 45.7108 129.1 55.3102 129.1 65.0365C129.1 74.762 126.906 84.3598 122.686 93.1077C124.684 95.053 126.28 97.3766 127.382 99.9456C128.494 102.536 129.081 105.324 129.109 108.146C129.137 110.968 128.606 113.768 127.546 116.38C126.487 118.993 124.919 121.366 122.937 123.362C120.955 125.357 118.597 126.935 116.001 128.002C113.406 129.069 110.625 129.604 107.822 129.576C105.019 129.547 102.249 128.956 99.6753 127.837C97.1238 126.728 94.8162 125.12 92.8843 123.11C84.1948 127.358 74.661 129.567 65.0005 129.567C55.3395 129.567 45.8046 127.358 37.1147 123.11C35.1829 125.12 32.876 126.728 30.3247 127.837C27.7512 128.956 24.9814 129.547 22.1782 129.576C19.375 129.604 16.5938 129.069 13.9985 128.002C11.4032 126.935 9.04523 125.357 7.06298 123.362C5.08079 121.366 3.51335 118.993 2.4536 116.38C1.39385 113.768 0.863035 110.968 0.891104 108.146C0.919244 105.324 1.50622 102.536 2.61767 99.9456C3.71976 97.3769 5.3155 95.0528 7.31298 93.1077C3.09332 84.3599 0.899983 74.7618 0.899893 65.0365C0.899893 55.3107 3.09303 45.7115 7.31298 36.9632C5.31569 35.0182 3.71969 32.6948 2.61767 30.1263C1.50619 27.5357 0.919252 24.7479 0.891104 21.9261C0.863014 19.1042 1.39388 16.3044 2.4536 13.6917C3.51333 11.0792 5.08084 8.70584 7.06298 6.71029C9.0452 4.71473 11.4032 3.13665 13.9985 2.06967C16.5938 1.00277 19.375 0.468174 22.1782 0.496425ZM64.0942 129.46L65.0005 129.467L65.9067 129.46C65.6048 129.465 65.3027 129.466 65.0005 129.466C64.3968 129.466 63.7934 129.458 63.1909 129.441C63.4919 129.449 63.793 129.456 64.0942 129.46ZM74.0063 128.823L74.8979 128.689C75.0078 128.671 75.1172 128.651 75.227 128.633C74.8207 128.7 74.414 128.764 74.0063 128.823ZM75.5249 128.583C75.833 128.531 76.1405 128.477 76.4477 128.42C76.1405 128.477 75.833 128.531 75.5249 128.583ZM76.8247 128.351C77.1586 128.287 77.4919 128.221 77.8247 128.152C77.4918 128.22 77.1586 128.287 76.8247 128.351ZM78.061 128.104C78.4815 128.015 78.9013 127.924 79.3198 127.826C78.9013 127.924 78.4815 128.015 78.061 128.104ZM81.0688 127.394L81.939 127.16C82.0561 127.127 82.1726 127.092 82.2895 127.059C81.8836 127.174 81.4769 127.287 81.0688 127.394ZM82.4634 127.009C82.5775 126.976 82.6921 126.945 82.8061 126.911C83.0944 126.827 83.3823 126.741 83.6694 126.653V126.652C83.2687 126.775 82.8663 126.893 82.4634 127.009ZM88.4595 116.295C81.1105 119.732 73.1047 121.515 65.0005 121.515C56.8958 121.515 48.8889 119.733 41.5395 116.295C40.9304 117.798 40.1532 119.226 39.2212 120.551C47.2815 124.38 56.0861 126.359 64.9995 126.346H65.0005C73.9136 126.359 82.7178 124.38 90.7778 120.551C89.8459 119.226 89.0685 117.798 88.4595 116.295ZM22.0005 112.34C19.2573 112.34 16.5741 113.153 14.2866 114.677C12.0176 116.189 10.237 118.336 9.16259 120.852C10.8183 122.581 12.8015 123.959 14.9956 124.903C17.2095 125.855 19.5921 126.345 21.9995 126.345C24.4071 126.345 26.7903 125.855 29.0044 124.903C31.1983 123.959 33.1808 122.581 34.8364 120.852C33.7619 118.336 31.9824 116.189 29.7134 114.677C27.426 113.153 24.7435 112.34 22.0005 112.34ZM108 112.34C105.257 112.34 102.574 113.153 100.287 114.677C98.0176 116.189 96.237 118.336 95.1626 120.852C96.8183 122.581 98.8015 123.959 100.996 124.903C103.21 125.855 105.592 126.345 108 126.345C110.407 126.345 112.79 125.855 115.004 124.903C117.198 123.959 119.181 122.581 120.836 120.852C119.762 118.336 117.982 116.189 115.713 114.677C113.426 113.153 110.743 112.34 108 112.34ZM9.08837 125.029C9.2256 125.136 9.3646 125.241 9.50439 125.345C9.22501 125.137 8.95018 124.923 8.68114 124.701L9.08837 125.029ZM7.13329 123.291C7.25666 123.416 7.38203 123.538 7.50829 123.659C7.38219 123.538 7.25748 123.415 7.13427 123.291C7.01077 123.167 6.88829 123.042 6.76806 122.914C6.88816 123.042 7.00993 123.167 7.13329 123.291ZM122.867 123.291L123.209 122.938C123.211 122.936 123.212 122.933 123.214 122.931C123.1 123.052 122.984 123.173 122.867 123.291ZM10.3608 122.126C10.4757 122.225 10.5922 122.322 10.7095 122.417C10.5924 122.322 10.4765 122.225 10.3618 122.126H10.3608ZM96.3608 122.126C96.4757 122.225 96.5922 122.322 96.7095 122.417C96.5924 122.322 96.4765 122.225 96.3618 122.126H96.3608ZM41.3706 121.63C41.6281 121.74 41.8862 121.848 42.145 121.954V121.953C41.8862 121.847 41.6281 121.739 41.3706 121.629V121.63ZM34.3989 121.432C34.4581 121.375 34.5173 121.318 34.5757 121.26C34.5173 121.318 34.4581 121.375 34.3989 121.432ZM120.399 121.432C120.458 121.375 120.517 121.318 120.576 121.26C120.517 121.318 120.458 121.375 120.399 121.432ZM71.8188 120.992C71.3175 121.054 70.8152 121.11 70.312 121.159L71.0669 121.08C71.3178 121.053 71.5684 121.023 71.8188 120.992ZM65.0005 11.7777C57.2232 11.7777 49.5426 13.5168 42.5151 16.8695C43.3547 20.3785 43.2902 24.0458 42.3247 27.5228C41.352 31.0257 39.4986 34.2173 36.9438 36.7894C34.3889 39.3615 31.2178 41.228 27.7378 42.2074C24.284 43.1793 20.6413 43.2439 17.1558 42.3988C13.8254 49.4738 12.0981 57.2065 12.0981 65.0365C12.0982 72.866 13.8257 80.5975 17.1558 87.6722C20.6413 86.8272 24.2841 86.8927 27.7378 87.8646C31.2178 88.844 34.3888 90.7104 36.9438 93.2826C39.4986 95.8547 41.352 99.0462 42.3247 102.549C43.2901 106.026 43.3544 109.693 42.5151 113.201C49.5428 116.554 57.223 118.294 65.0005 118.294C72.7774 118.294 80.4566 116.554 87.4839 113.201C86.6446 109.693 86.7099 106.026 87.6753 102.549C88.648 99.0463 90.5014 95.8546 93.0561 93.2826C95.6111 90.7104 98.7822 88.844 102.262 87.8646C105.716 86.8927 109.358 86.8274 112.843 87.6722C116.173 80.5974 117.902 72.8661 117.902 65.0365C117.902 57.2063 116.174 49.4739 112.843 42.3988C111.257 42.7829 109.632 42.9816 108 42.9876C104.808 42.9995 101.654 42.2792 98.7788 40.8812C95.9037 39.4831 93.3823 37.4443 91.4067 34.9193C89.4313 32.3943 88.0529 29.449 87.3765 26.3079C86.7058 23.1935 86.7429 19.967 87.4839 16.8695C80.4567 13.5171 72.7773 11.7777 65.0005 11.7777ZM25.1245 90.5833C22.3799 90.0943 19.5591 90.2574 16.8882 91.0599C14.2173 91.8625 11.7692 93.2827 9.73974 95.2064C7.71031 97.1301 6.15527 99.505 5.19872 102.141C4.2422 104.777 3.91013 107.602 4.22997 110.39C4.54347 113.122 5.47533 115.744 6.95067 118.057C8.97564 114.367 12.2717 111.55 16.2173 110.137C14.912 108.984 13.9746 107.466 13.5278 105.774C13.0664 104.026 13.1497 102.178 13.7661 100.48C14.3826 98.7816 15.5031 97.3149 16.9751 96.2786C18.4471 95.2425 20.2003 94.687 21.9966 94.6869C23.7931 94.6869 25.5469 95.2424 27.019 96.2786C28.4911 97.3149 29.6115 98.7816 30.228 100.48C30.8445 102.178 30.9277 104.026 30.4663 105.774C30.0194 107.466 29.0814 108.984 27.7759 110.137C31.7224 111.55 35.0184 114.368 37.0434 118.059C38.9072 115.16 39.9016 111.781 39.8999 108.326C39.9003 105.519 39.2498 102.751 37.9995 100.243C36.7492 97.7341 34.9339 95.5543 32.6987 93.8773C30.4635 92.2003 27.8693 91.0725 25.1245 90.5833ZM111.125 90.5785C108.38 90.0892 105.559 90.2533 102.888 91.056C100.217 91.8588 97.7684 93.2784 95.7388 95.2025C93.7091 97.1267 92.154 99.5024 91.1977 102.139C90.2415 104.776 89.9104 107.601 90.2309 110.389C90.5451 113.121 91.4773 115.744 92.9536 118.057C94.9786 114.367 98.2747 111.55 102.22 110.137C100.915 108.984 99.9775 107.466 99.5308 105.774C99.0694 104.026 99.1526 102.178 99.769 100.48C100.386 98.7816 101.506 97.3149 102.978 96.2786C104.45 95.2424 106.204 94.6869 108 94.6869C109.797 94.687 111.55 95.2425 113.022 96.2786C114.494 97.3149 115.614 98.7816 116.231 100.48C116.847 102.178 116.931 104.026 116.469 105.774C116.022 107.466 115.084 108.984 113.779 110.137C117.725 111.55 121.02 114.367 123.045 118.057C124.908 115.159 125.902 111.78 125.9 108.326C125.901 105.519 125.251 102.75 124 100.241C122.75 97.7317 120.935 95.5518 118.7 93.8744C116.464 92.197 113.871 91.0678 111.125 90.5785ZM7.30224 117.64C7.26665 117.7 7.23166 117.761 7.19677 117.822C7.23161 117.761 7.2667 117.7 7.30224 117.64ZM7.56298 117.211C7.54329 117.243 7.52487 117.275 7.50536 117.306C7.52485 117.275 7.54329 117.243 7.56298 117.211ZM94.48 115.901C94.4002 116.004 94.3221 116.109 94.2446 116.215C94.3226 116.109 94.4017 116.003 94.4819 115.899L94.48 115.901ZM1.71239 113.855C1.7403 113.959 1.77079 114.063 1.80028 114.166C1.7617 114.031 1.7242 113.895 1.68798 113.758L1.71239 113.855ZM42.3999 113.258L42.5415 112.638C42.5427 112.632 42.5432 112.626 42.5444 112.62C42.4995 112.834 42.4515 113.046 42.3999 113.258ZM15.812 109.613C16.0021 109.808 16.2008 109.996 16.4097 110.173H16.4116C16.2024 109.995 16.0025 109.808 15.812 109.613ZM101.815 109.613C102.005 109.808 102.204 109.996 102.413 110.173H102.415C102.205 109.995 102.005 109.808 101.815 109.613ZM15.2895 109.025C15.3485 109.097 15.4089 109.169 15.4702 109.24C15.4089 109.169 15.3485 109.097 15.2895 109.025ZM101.292 109.025C101.351 109.097 101.412 109.169 101.473 109.24C101.412 109.169 101.351 109.097 101.292 109.025ZM23.0854 98.0247C22.0066 97.8087 20.8879 97.9194 19.8716 98.3431C18.8552 98.767 17.9858 99.4855 17.3745 100.407C16.7635 101.327 16.4371 102.41 16.437 103.518C16.4389 105.003 17.0259 106.427 18.0688 107.477C19.1117 108.527 20.5259 109.118 22.0005 109.119C23.1003 109.119 24.1757 108.79 25.0903 108.175C26.005 107.56 26.718 106.685 27.1392 105.661C27.5602 104.638 27.6712 103.512 27.4565 102.425C27.2418 101.339 26.7111 100.34 25.9331 99.557C25.1552 98.774 24.1641 98.2408 23.0854 98.0247ZM109.085 98.0247C108.007 97.8087 106.888 97.9194 105.872 98.3431C104.855 98.767 103.986 99.4855 103.375 100.407C102.763 101.327 102.437 102.41 102.437 103.518C102.439 105.003 103.026 106.427 104.069 107.477C105.112 108.527 106.526 109.118 108 109.119C109.1 109.119 110.176 108.79 111.09 108.175C112.005 107.56 112.718 106.685 113.139 105.661C113.56 104.638 113.671 103.512 113.457 102.425C113.242 101.339 112.711 100.34 111.933 99.557C111.155 98.774 110.164 98.2408 109.085 98.0247ZM15.0542 108.72C15.104 108.787 15.1538 108.854 15.2056 108.92C15.1538 108.854 15.104 108.787 15.0542 108.72ZM101.057 108.72C101.107 108.787 101.157 108.854 101.208 108.92C101.157 108.854 101.107 108.787 101.057 108.72ZM14.8091 108.373C14.8561 108.444 14.9045 108.513 14.9536 108.582C14.9045 108.513 14.8561 108.444 14.8091 108.373ZM100.812 108.373C100.859 108.444 100.907 108.513 100.957 108.582C100.907 108.513 100.859 108.444 100.812 108.373ZM14.5845 108.018C14.639 108.109 14.6947 108.199 14.7524 108.287C14.6947 108.199 14.639 108.109 14.5845 108.018ZM100.587 108.018C100.642 108.109 100.698 108.199 100.755 108.287C100.698 108.199 100.642 108.109 100.587 108.018ZM25.5298 107.975C25.5557 107.954 25.5813 107.933 25.6069 107.911C25.5814 107.933 25.5557 107.954 25.5298 107.975ZM111.53 107.975C111.556 107.954 111.581 107.933 111.607 107.911C111.581 107.933 111.556 107.954 111.53 107.975ZM14.5093 107.894C14.5167 107.907 14.5252 107.919 14.5327 107.932C14.4694 107.824 14.4077 107.715 14.3491 107.604L14.5093 107.894ZM100.512 107.894C100.52 107.907 100.528 107.919 100.536 107.932C100.472 107.824 100.411 107.715 100.352 107.604L100.512 107.894ZM26.5063 106.97C26.3804 107.137 26.2454 107.296 26.102 107.448L26.103 107.449C26.2941 107.246 26.4697 107.03 26.6294 106.802V106.801C26.5894 106.858 26.5483 106.914 26.5063 106.97ZM112.506 106.97C112.38 107.137 112.245 107.296 112.102 107.448L112.103 107.449C112.294 107.246 112.47 107.03 112.629 106.802V106.801C112.589 106.858 112.548 106.914 112.506 106.97ZM71.7974 25.2533C75.5898 24.207 79.8544 26.7179 83.7241 31.5921C87.6003 36.4746 91.1104 43.7623 93.3989 52.3607C95.6874 60.959 96.2645 69.0275 95.3315 75.2025C94.4291 81.1745 92.1057 85.416 88.5083 86.6058L88.1558 86.7113C87.1325 86.9788 86.0625 87.0144 85.0239 86.8158C82.1428 86.8679 76.4479 86.985 70.1352 87.1937C70.4798 88.7023 70.2476 90.2879 69.479 91.6322C68.7128 92.972 67.4733 93.9682 66.0102 94.4281C66.0211 94.4438 66.0334 94.4611 66.0464 94.4798C66.1186 94.5842 66.2234 94.7348 66.3511 94.9193C66.6066 95.2883 66.957 95.7931 67.3345 96.3363C67.7121 96.8796 68.1171 97.4615 68.4829 97.9837L69.395 99.2757L69.397 99.2777C69.7413 99.791 69.9603 100.38 70.0356 100.994C70.1109 101.609 70.0407 102.234 69.8306 102.816C69.6204 103.398 69.2763 103.921 68.8267 104.344C68.3768 104.767 67.8333 105.076 67.2417 105.247L67.2388 105.248C65.6748 105.647 62.5627 106.508 61.0024 106.931L61.0015 106.932C60.2392 107.133 59.4335 107.096 58.6929 106.826C58.0448 106.588 57.4729 106.182 57.0347 105.651L56.855 105.415C55.3915 103.312 52.4578 99.1089 49.8901 95.432C48.6063 93.5935 47.4139 91.8854 46.5425 90.638C46.1068 90.0144 45.7509 89.5055 45.5044 89.1527C45.3812 88.9764 45.2844 88.8387 45.2192 88.7454C45.1899 88.7035 45.1664 88.6704 45.1499 88.6468C45.0666 88.6496 44.9718 88.6546 44.8911 88.6546H44.8892C40.3918 88.5562 36.043 87.0116 32.48 84.2474C28.9173 81.4832 26.3257 77.6438 25.0854 73.2913C23.8453 68.9389 24.0211 64.3009 25.5864 60.056C27.1519 55.811 30.0254 52.1811 33.7866 49.6976L33.7886 49.6956C39.6165 46.0486 51.2401 38.5548 68.3345 27.4251C69.2632 26.3891 70.4631 25.6367 71.7964 25.2533H71.7974ZM64.0933 105.985C62.9242 106.303 61.7556 106.624 60.9761 106.835L65.7983 105.524L64.0933 105.985ZM30.3696 105.748L30.4448 105.444C30.4554 105.397 30.4634 105.349 30.4731 105.302C30.4421 105.451 30.4087 105.6 30.3696 105.748ZM116.373 105.748L116.448 105.444C116.458 105.397 116.466 105.349 116.476 105.302C116.445 105.451 116.412 105.6 116.373 105.748ZM30.4878 105.231C30.5174 105.081 30.5449 104.932 30.5669 104.782C30.5448 104.932 30.5176 105.081 30.4878 105.231ZM116.491 105.231C116.52 105.081 116.548 104.932 116.57 104.782C116.548 104.932 116.52 105.081 116.491 105.231ZM67.2143 105.152L67.4018 105.092C67.4042 105.091 67.4063 105.09 67.4087 105.089C67.3445 105.112 67.2798 105.133 67.2143 105.152ZM59.8608 103.929C59.8795 103.933 59.8986 103.934 59.9175 103.936C59.8986 103.934 59.8795 103.932 59.8608 103.928L59.7505 103.898L59.8608 103.929ZM57.4243 87.7357C54.2468 87.911 51.2926 88.1159 48.855 88.3519L59.4741 103.565C59.5511 103.674 59.6596 103.757 59.7847 103.803C59.9097 103.849 60.0457 103.855 60.1743 103.821L66.4116 102.143L66.4155 102.142C66.5183 102.118 66.6138 102.069 66.6929 101.998C66.7719 101.928 66.8326 101.839 66.8686 101.739C66.9045 101.639 66.9148 101.531 66.8989 101.426C66.883 101.321 66.8407 101.222 66.7768 101.137L66.7749 101.134C65.6018 99.4518 63.2566 96.09 61.2046 93.1497C60.1788 91.68 59.2262 90.315 58.5298 89.3177C58.1816 88.8191 57.8969 88.4114 57.6997 88.1292C57.6013 87.9884 57.5243 87.8786 57.4722 87.804C57.4528 87.7764 57.4367 87.7534 57.4243 87.7357ZM66.7593 102.074L66.8237 102.008C66.8296 102.001 66.8338 101.994 66.8393 101.987C66.8145 102.017 66.7889 102.047 66.7593 102.074ZM66.9487 101.236C66.9722 101.292 66.9884 101.351 66.9976 101.411L66.979 101.322C66.9708 101.292 66.9605 101.264 66.9487 101.236ZM19.4526 98.4261C19.4056 98.45 19.3593 98.4752 19.313 98.5003C19.4204 98.442 19.5297 98.3867 19.6411 98.3353L19.4526 98.4261ZM105.453 98.4261C105.406 98.45 105.359 98.4752 105.313 98.5003C105.42 98.442 105.53 98.3867 105.641 98.3353L105.453 98.4261ZM23.5308 98.0296C23.726 98.0848 23.9176 98.1504 24.105 98.2259V98.2249C23.9177 98.1495 23.7259 98.0848 23.5308 98.0296ZM109.531 98.0296C109.726 98.0848 109.918 98.1504 110.105 98.2259V98.2249C109.918 98.1495 109.726 98.0848 109.531 98.0296ZM23.4673 98.013C23.4176 97.9996 23.368 97.986 23.3179 97.974C23.3679 97.9861 23.4176 97.9996 23.4673 98.013ZM109.467 98.013C109.418 97.9996 109.368 97.986 109.318 97.974C109.368 97.9861 109.418 97.9996 109.467 98.013ZM94.9272 95.8763C94.8895 95.9165 94.8532 95.9579 94.8159 95.9984C94.8605 95.9499 94.9045 95.9008 94.9497 95.8529L94.9272 95.8763ZM8.92821 95.8802C8.90235 95.9078 8.87773 95.9365 8.85204 95.9642C8.8854 95.9282 8.91799 95.8915 8.95165 95.8558L8.92821 95.8802ZM22.8774 94.8324C22.8387 94.8284 22.8 94.8251 22.7612 94.8216C22.8 94.8251 22.8387 94.8284 22.8774 94.8324ZM108.88 94.8324C108.842 94.8284 108.803 94.8251 108.764 94.8216C108.803 94.8251 108.842 94.8284 108.88 94.8324ZM66.8589 87.3148C64.975 87.3852 63.0726 87.4622 61.2017 87.5492L64.0571 91.637L64.8726 91.4173V91.4134L64.9468 91.3929C65.6874 91.1916 66.3189 90.7028 66.7026 90.0335C67.0862 89.3644 67.191 88.5693 66.9936 87.8226L66.8589 87.3148ZM114.174 91.3001C114.028 91.2464 113.881 91.1948 113.733 91.1449C113.881 91.1946 114.028 91.2464 114.174 91.3001ZM113.596 91.0999C113.47 91.0584 113.343 91.0176 113.215 90.9788C113.343 91.0176 113.47 91.0585 113.596 91.0999ZM9.85595 39.0833C6.05288 47.1979 4.08681 56.062 4.10009 65.0355V65.0365C4.08682 74.0096 6.05309 82.8733 9.85595 90.9876C11.1713 90.0499 12.5891 89.2667 14.0815 88.6536C10.6673 81.2552 8.89803 73.1951 8.89794 65.0365C8.89794 56.8773 10.667 48.8161 14.0815 41.4173C12.589 40.8042 11.1714 40.0212 9.85595 39.0833ZM120.143 39.0833C118.828 40.0211 117.41 40.8043 115.917 41.4173C119.332 48.8163 121.102 56.8771 121.102 65.0365C121.102 73.1953 119.332 81.2551 115.917 88.6536C117.41 89.2666 118.828 90.0499 120.143 90.9876C123.946 82.8732 125.913 74.0098 125.9 65.0365V65.0355C125.913 56.0618 123.946 47.198 120.143 39.0833ZM27.1811 90.973L26.6782 90.8285C26.6296 90.8153 26.5805 90.8041 26.5317 90.7913C26.7493 90.8483 26.9661 90.908 27.1811 90.973ZM111.143 90.4808C111.315 90.5115 111.487 90.5439 111.659 90.5794C111.487 90.5436 111.315 90.5106 111.143 90.4798C110.971 90.4491 110.798 90.4214 110.625 90.3958C110.798 90.4215 110.97 90.45 111.143 90.4808ZM25.1421 90.4847C25.3533 90.5223 25.5636 90.5646 25.7729 90.6097C25.5639 90.5646 25.354 90.5223 25.1431 90.4847C24.9706 90.454 24.7975 90.4254 24.6245 90.3997C24.7973 90.4253 24.9698 90.454 25.1421 90.4847ZM28.9946 88.3675C29.1941 88.4379 29.3924 88.511 29.5893 88.5872C29.1837 88.4302 28.7727 88.2853 28.3569 88.1536L28.9946 88.3675ZM101.174 88.3099C101.098 88.336 101.022 88.3621 100.947 88.389C101.022 88.3621 101.098 88.3359 101.174 88.3099ZM101.643 88.1536C101.597 88.1684 101.551 88.1845 101.504 88.1995C101.578 88.1758 101.651 88.1522 101.725 88.1292L101.643 88.1536ZM88.1304 86.6146L88.4712 86.513C88.4725 86.5126 88.4737 86.5115 88.4751 86.5111C88.3614 86.5486 88.2466 86.5833 88.1304 86.6146ZM35.48 52.4359L35.479 52.4349C32.1676 54.6376 29.6807 57.8902 28.4106 61.6761C27.1402 65.4631 27.1603 69.5691 28.4683 73.3431C29.7762 77.1171 32.2979 80.3438 35.6323 82.513C38.9658 84.6815 42.922 85.6697 46.8755 85.3206L47.9077 85.2093C43.9154 79.7312 40.9965 73.5365 39.311 66.9564L39.0581 65.9827C37.8523 61.1653 37.289 56.2063 37.3813 51.2367C36.6949 51.6713 36.0529 52.0763 35.48 52.4359ZM65.3413 33.2044C54.6579 40.1518 46.4041 45.4844 40.6831 49.1341C40.3422 54.4933 40.8304 59.8716 42.1304 65.0755L42.4028 66.1165V66.1185C44.1345 72.9754 47.3192 79.3742 51.7378 84.8753C60.0398 84.2513 71.7347 83.894 79.3325 83.7152C74.2318 79.1963 69.406 70.3105 66.5552 59.6019C63.8367 49.3815 63.4736 39.7048 65.3413 33.2044ZM85.1059 83.6331C85.2264 83.6674 85.3448 83.6986 85.4624 83.723C85.5051 83.7326 85.5484 83.7392 85.5913 83.7474C85.5484 83.7392 85.5051 83.7316 85.4624 83.722C85.3449 83.6976 85.2263 83.6674 85.1059 83.6331ZM76.8022 29.3773C75.2553 28.3884 73.83 28.0358 72.6401 28.3617C71.825 28.6058 71.0996 29.0878 70.5571 29.7474L70.5552 29.7503C69.3701 31.0926 68.4345 33.4117 67.9009 36.5023C67.3717 39.5675 67.2402 43.3815 67.647 47.7288C70.2481 47.5505 72.8322 48.2802 74.9614 49.7982C77.1175 51.3356 78.6718 53.5845 79.355 56.1537C80.038 58.7227 79.8073 61.4516 78.7026 63.8675C77.6115 66.2538 75.7345 68.1845 73.3921 69.3382C75.316 73.5726 77.4696 76.9595 79.5747 79.3802C81.6966 81.8202 83.7598 83.2669 85.4819 83.6244L85.4839 83.6253C86.0133 83.7446 86.5608 83.7529 87.0923 83.6517L87.3198 83.6009C88.5151 83.2739 89.5761 82.2456 90.4263 80.6087C91.2759 78.9725 91.9077 76.7407 92.2515 74.0365C92.9388 68.6281 92.4705 61.3456 90.3032 53.1947C88.1358 45.0438 84.9225 38.4934 81.6421 34.1517C80.0018 31.9808 78.3476 30.3653 76.8022 29.3773ZM81.4712 81.4486C82.7434 82.5676 83.9655 83.3019 85.0718 83.6244C84.1908 83.3676 83.2365 82.8491 82.2417 82.0833C82.1147 81.9855 81.9872 81.8835 81.8589 81.7777C81.6021 81.5659 81.3425 81.3387 81.0815 81.0951L81.4712 81.4486ZM36.2134 82.9925C36.2948 83.0408 36.3773 83.0872 36.4595 83.1341C36.2695 83.0256 36.0805 82.914 35.894 82.7982L36.2134 82.9925ZM73.2622 69.2933L73.6724 69.0853C73.6771 69.0827 73.6813 69.0791 73.686 69.0765C73.5464 69.1513 73.4054 69.2243 73.2622 69.2933ZM1.05614 67.7288C1.06871 68.0275 1.08349 68.326 1.10009 68.6244C1.0674 68.0369 1.0425 67.4486 1.02587 66.8597L1.05614 67.7288ZM128.974 66.8597C128.957 67.4486 128.933 68.0369 128.9 68.6244C128.916 68.326 128.931 68.0275 128.944 67.7288L128.974 66.8597ZM120.959 67.2357C120.972 66.9176 120.98 66.5992 120.987 66.2806C120.98 66.5992 120.972 66.9176 120.959 67.2357ZM68.0249 50.929C68.8156 56.2155 70.192 61.3964 72.1284 66.3744C73.76 65.5283 75.0613 64.1527 75.8169 62.4662C76.5875 60.7458 76.7447 58.8098 76.2602 56.9867C75.7758 55.1638 74.6801 53.5653 73.1597 52.4622C71.6687 51.3808 69.8582 50.8419 68.0249 50.929ZM120.983 63.5277C120.996 64.0298 121.002 64.5325 121.002 65.0355C121.002 65.339 120.999 65.6424 120.994 65.9456C120.994 65.8978 120.996 65.85 120.997 65.8021L121.002 65.0365C121.002 64.7809 121.001 64.5252 120.998 64.2699C120.994 64.0224 120.99 63.7749 120.983 63.5277ZM9.01806 63.5199C9.00428 64.0249 8.99755 64.5305 8.99755 65.0365L8.99853 65.0355C8.99853 64.5299 9.00452 64.0246 9.01806 63.5199ZM128.966 63.0091C128.978 63.3803 128.988 63.7517 128.994 64.1234L128.995 64.1244C128.99 63.8205 128.984 63.5168 128.975 63.2132C128.973 63.1452 128.968 63.0772 128.966 63.0091ZM4.01415 63.7113C4.01155 63.8401 4.0091 63.9691 4.00732 64.098C4.00913 63.9691 4.01148 63.8401 4.01415 63.7113ZM4.05712 62.3451C4.0448 62.6343 4.03506 62.9237 4.02685 63.2132C4.03505 62.9237 4.04481 62.6343 4.05712 62.3451ZM4.10692 61.3753C4.08981 61.6678 4.07297 61.9604 4.06005 62.2533C4.07296 61.9604 4.08982 61.6678 4.10692 61.3753ZM128.924 61.9251C128.922 61.8854 128.92 61.8457 128.918 61.806C128.92 61.8457 128.922 61.8854 128.924 61.9251ZM28.5698 60.9369C28.4805 61.1706 28.3958 61.4068 28.3159 61.6449L28.4399 61.2894C28.4822 61.1717 28.5253 61.0544 28.5698 60.9378V60.9369ZM120.748 59.6888C120.796 60.1955 120.838 60.703 120.873 61.2113L120.816 60.4496C120.774 59.9419 120.726 59.435 120.67 58.929L120.748 59.6888ZM4.27782 59.1341C4.3775 58.09 4.50365 57.0493 4.65673 56.013C4.50359 57.0492 4.37759 58.09 4.27782 59.1341ZM128.844 60.557C128.84 60.4899 128.834 60.4229 128.83 60.3558C128.834 60.4229 128.84 60.4899 128.844 60.557ZM91.2944 56.9281C91.5526 58.1571 91.7713 59.3612 91.9526 60.5365H91.9536C91.7723 59.3612 91.5535 58.1571 91.2954 56.9281H91.2944ZM9.41747 58.1712C9.35546 58.6761 9.30077 59.182 9.25243 59.6888L9.33056 58.929C9.38573 58.4232 9.4473 57.9182 9.5161 57.4144L9.41747 58.1712ZM128.738 59.2288C128.727 59.1119 128.716 58.9951 128.705 58.8783C128.716 58.9951 128.727 59.1119 128.738 59.2288ZM120.128 55.1546C120.307 56.1554 120.458 57.1612 120.583 58.1712L120.485 57.4144C120.416 56.9106 120.34 56.408 120.257 55.9066C120.216 55.6557 120.174 55.4049 120.129 55.1546H120.128ZM32.3013 54.9886C32.2165 55.0785 32.1331 55.1695 32.0503 55.2611L32.3022 54.9886C32.387 54.8987 32.4724 54.8092 32.5591 54.721L32.3013 54.9886ZM5.19384 52.929C5.10797 53.3571 5.02737 53.7862 4.95067 54.2162C4.95567 54.1882 4.96029 54.1601 4.96532 54.1322C5.03756 53.7303 5.11359 53.3293 5.19384 52.929ZM34.812 52.7787C34.7115 52.8517 34.6121 52.9263 34.5132 53.0013C34.7113 52.8509 34.9128 52.7043 35.1177 52.5619L34.812 52.7787ZM5.41649 51.8734C5.35121 52.1714 5.28786 52.4699 5.22704 52.7689C5.28783 52.4699 5.35124 52.1714 5.41649 51.8734ZM5.67821 50.7357C5.62836 50.9441 5.57938 51.1527 5.53173 51.3617C5.57936 51.1527 5.62838 50.9441 5.67821 50.7357ZM6.062 49.2083C5.96642 49.5668 5.87466 49.9263 5.78564 50.2865C5.87463 49.9263 5.96643 49.5668 6.062 49.2083ZM7.77294 43.8158C7.73871 43.9085 7.70418 44.0012 7.6704 44.0941C7.70416 44.0012 7.73872 43.9085 7.77294 43.8158ZM21.9995 25.7611C19.2563 25.7602 16.5732 26.5725 14.2856 28.097C12.0163 29.6095 10.2361 31.7568 9.16259 34.2738C10.8181 36.0029 12.8015 37.3809 14.9956 38.3246C17.2096 39.2767 19.5929 39.7679 22.0005 39.7679C24.4079 39.7678 26.7905 39.2766 29.0044 38.3246C31.1982 37.381 33.181 36.0026 34.8364 34.2738C33.7628 31.7569 31.9837 29.6095 29.7143 28.097C27.4268 26.5724 24.7438 25.7601 22.0005 25.7611H21.9995ZM108 25.7611C105.256 25.7602 102.573 26.5725 100.286 28.097C98.0163 29.6095 96.2361 31.7568 95.1626 34.2738C96.8181 36.0029 98.8015 37.3809 100.996 38.3246C103.21 39.2767 105.593 39.7679 108 39.7679C110.408 39.7678 112.79 39.2766 115.004 38.3246C117.198 37.381 119.181 36.0026 120.836 34.2738C119.763 31.7569 117.984 29.6095 115.714 28.097C113.427 26.5724 110.744 25.7601 108 25.7611H108ZM68.5747 27.3128C68.5153 27.3748 68.4572 27.4381 68.3999 27.5023C65.1937 29.5898 62.1801 31.5498 59.3608 33.3802L68.3999 27.5033C68.4573 27.4389 68.5152 27.375 68.5747 27.3128ZM32.2075 36.6566C32.0835 36.743 31.9586 36.8282 31.8325 36.9115C32.0844 36.7452 32.3324 36.5728 32.5757 36.3939L32.2075 36.6566ZM118.208 36.6566C118.084 36.743 117.959 36.8282 117.833 36.9115C118.084 36.7452 118.332 36.5728 118.576 36.3939L118.208 36.6566ZM34.9556 34.2953C34.851 34.4053 34.7454 34.5142 34.6382 34.6214L34.9565 34.2953C34.8891 34.1352 34.8186 33.9767 34.7456 33.8197C34.8185 33.9766 34.8882 34.1353 34.9556 34.2953ZM120.956 34.2953C120.851 34.4053 120.745 34.5142 120.638 34.6214L120.957 34.2953C120.889 34.1352 120.819 33.9767 120.746 33.8197C120.819 33.9766 120.888 34.1353 120.956 34.2953ZM25.1255 4.00033C22.3804 3.51107 19.5595 3.67417 16.8882 4.47689C14.2168 5.27968 11.7684 6.70013 9.73876 8.62436C7.70926 10.5485 6.15403 12.9235 5.19774 15.5599C4.24148 18.1966 3.9104 21.0225 4.23095 23.8109C4.54512 26.5431 5.47745 29.1653 6.9536 31.4779C8.97859 27.788 12.2747 24.971 16.2202 23.5579C14.915 22.4048 13.9775 20.8865 13.5308 19.1947C13.0695 17.4474 13.1526 15.5989 13.769 13.9007C14.3856 12.2026 15.506 10.7358 16.978 9.69955C18.4501 8.66328 20.204 8.1078 22.0005 8.10775C23.7968 8.10785 25.5499 8.66337 27.022 9.69955C28.4941 10.7358 29.6144 12.2025 30.2309 13.9007C30.8474 15.5989 30.9305 17.4473 30.4692 19.1947C30.0224 20.8867 29.0843 22.4047 27.7788 23.5579C31.7246 24.9708 35.0202 27.7878 37.0454 31.4779C38.9081 28.5797 39.9016 25.2009 39.8999 21.7464C39.901 18.9396 39.2505 16.1714 38.0005 13.6624C36.7504 11.1534 34.935 8.97274 32.6997 7.29525C30.4645 5.61794 27.8706 4.48966 25.1255 4.00033ZM108 3.6976C104.771 3.69764 101.6 4.578 98.8267 6.24447C96.053 7.91115 93.7779 10.303 92.2446 13.1654C90.7116 16.0276 89.9762 19.2544 90.1167 22.5033C90.2549 25.6961 91.2356 28.793 92.9536 31.4779C94.9786 27.788 98.2747 24.971 102.22 23.5579C100.915 22.4048 99.9775 20.8865 99.5308 19.1947C99.0695 17.4474 99.1526 15.5989 99.769 13.9007C100.386 12.2026 101.506 10.7358 102.978 9.69955C104.45 8.66328 106.204 8.1078 108 8.10775C109.797 8.10785 111.55 8.66337 113.022 9.69955C114.494 10.7358 115.614 12.2025 116.231 13.9007C116.847 15.5989 116.931 17.4473 116.469 19.1947C116.022 20.8867 115.084 22.4047 113.779 23.5579C117.725 24.9708 121.02 27.7878 123.045 31.4779C124.764 28.7929 125.745 25.6963 125.883 22.5033C126.024 19.2544 125.288 16.0276 123.755 13.1654C122.222 10.3029 119.947 7.91115 117.173 6.24447C114.4 4.57809 111.23 3.69768 108 3.6976ZM92.6343 31.1576L92.6743 31.222C92.5899 31.0831 92.5082 30.9428 92.4272 30.8021C92.4956 30.9209 92.5631 31.0402 92.6343 31.1576ZM71.8237 25.349C71.6588 25.3964 71.4959 25.4494 71.3354 25.5081C71.0213 25.6231 70.7164 25.7598 70.4224 25.9163C70.8669 25.6802 71.3369 25.4902 71.8247 25.3499C71.8524 25.3423 71.88 25.3347 71.9077 25.3275C71.8798 25.3348 71.8516 25.3413 71.8237 25.349ZM128.663 25.4915L128.678 25.4115C128.683 25.3858 128.686 25.36 128.691 25.3343C128.682 25.3868 128.672 25.4391 128.663 25.4915ZM72.5288 25.1966C72.5174 25.1984 72.506 25.2006 72.4946 25.2025C72.5362 25.1957 72.578 25.1909 72.6196 25.1849C72.5894 25.1892 72.559 25.1919 72.5288 25.1966ZM72.8852 25.1507C72.8496 25.1543 72.8143 25.1602 72.7788 25.1644C72.8425 25.1569 72.9062 25.1495 72.9702 25.1439C72.9419 25.1463 72.9135 25.1479 72.8852 25.1507ZM90.1108 23.7279C90.1273 23.8761 90.1475 24.0237 90.1675 24.1712C90.1457 24.011 90.1244 23.8507 90.1069 23.6898L90.1108 23.7279ZM23.0854 11.4456C22.0065 11.2296 20.8879 11.3412 19.8716 11.765C18.8552 12.1888 17.9858 12.9064 17.3745 13.8275C16.7633 14.7485 16.437 15.832 16.437 16.9398C16.439 18.4248 17.026 19.8489 18.0688 20.8988C19.1117 21.9485 20.5261 22.5385 22.0005 22.5404C23.1003 22.5403 24.1757 22.2122 25.0903 21.597C26.005 20.9817 26.718 20.1067 27.1392 19.0833C27.5602 18.0599 27.6711 16.9335 27.4565 15.847C27.2418 14.7604 26.7111 13.7621 25.9331 12.9788C25.1551 12.1957 24.1643 11.6617 23.0854 11.4456ZM109.085 11.4456C108.007 11.2296 106.888 11.3412 105.872 11.765C104.855 12.1888 103.986 12.9064 103.375 13.8275C102.763 14.7485 102.437 15.832 102.437 16.9398C102.439 18.4248 103.026 19.8489 104.069 20.8988C105.112 21.9485 106.526 22.5385 108 22.5404C109.1 22.5403 110.176 22.2122 111.09 21.597C112.005 20.9817 112.718 20.1067 113.139 19.0833C113.56 18.0599 113.671 16.9335 113.457 15.847C113.242 14.7604 112.711 13.7621 111.933 12.9788C111.155 12.1957 110.164 11.6617 109.085 11.4456ZM13.6274 19.1693C13.6403 19.2181 13.6557 19.2662 13.6694 19.3148C13.6557 19.2663 13.6413 19.218 13.6284 19.1693C13.6012 19.0664 13.5756 18.9632 13.5522 18.8597C13.5756 18.9631 13.6003 19.0665 13.6274 19.1693ZM99.6274 19.1693C99.6403 19.2181 99.6557 19.2662 99.6694 19.3148C99.6557 19.2663 99.6413 19.218 99.6284 19.1693C99.6012 19.0664 99.5756 18.9632 99.5522 18.8597C99.5756 18.9631 99.6003 19.0665 99.6274 19.1693ZM17.0718 14.1312C17.0529 14.1647 17.0352 14.1988 17.0171 14.2328C17.0681 14.137 17.1214 14.0424 17.1782 13.9496L17.0718 14.1312ZM103.072 14.1312C103.053 14.1647 103.035 14.1988 103.017 14.2328C103.068 14.137 103.121 14.0424 103.178 13.9496L103.072 14.1312ZM88.5122 13.9105L87.8423 13.6009L87.8198 13.5912L88.5122 13.9105ZM64.9995 3.72592C56.086 3.71258 47.2806 5.69094 39.2202 9.51986C40.1524 10.8447 40.9303 12.2725 41.5395 13.7757C48.8888 10.3384 56.8959 8.557 65.0005 8.55697C73.1046 8.55704 81.1105 10.3387 88.4595 13.7757C89.0686 12.2726 89.8467 10.8446 90.7788 9.51986C82.7186 5.6912 73.9137 3.71254 65.0005 3.72592H64.9995ZM65.7329 11.6829C66.1946 11.6894 66.6559 11.7015 67.1167 11.7201L66.4253 11.6966C66.1946 11.6903 65.9638 11.6852 65.7329 11.682V11.6829ZM36.727 6.70736L36.3989 6.38705C36.3928 6.38117 36.3865 6.37535 36.3804 6.36947C36.4972 6.48068 36.6127 6.59337 36.727 6.70736ZM104.881 3.8724C104.786 3.8895 104.69 3.90844 104.595 3.92709C104.69 3.90836 104.786 3.88943 104.881 3.8724ZM105.581 3.76205C105.404 3.78621 105.227 3.81341 105.051 3.84311C105.228 3.81365 105.404 3.78625 105.582 3.76205H105.581ZM23.2212 0.633144C23.3773 0.642557 23.5332 0.653434 23.689 0.666347C23.3601 0.639062 23.0301 0.619382 22.6997 0.607753L23.2212 0.633144ZM15.5444 109.326C15.6275 109.419 15.7131 109.51 15.8003 109.6C15.7131 109.51 15.6275 109.419 15.5444 109.326ZM101.547 109.326C101.63 109.419 101.716 109.51 101.803 109.6C101.716 109.51 101.63 109.419 101.547 109.326ZM4.81786 54.9886C4.77667 55.238 4.7378 55.4877 4.6997 55.7376C4.73778 55.4877 4.77668 55.238 4.81786 54.9886ZM4.17626 60.3294C4.15474 60.6134 4.13424 60.8976 4.11669 61.182C4.13423 60.8976 4.15476 60.6134 4.17626 60.3294ZM4.17626 60.3294C4.17998 60.2803 4.18316 60.2311 4.187 60.182C4.18316 60.2311 4.17998 60.2803 4.17626 60.3294Z" fill="white"/>
</svg>
