<svg width="121" height="124" viewBox="0 0 121 124" fill="none" xmlns="http://www.w3.org/2000/svg">
<path d="M114.55 0.4375C116.141 0.437608 117.667 1.08625 118.792 2.24121C119.917 3.39641 120.55 4.96395 120.55 6.59766V92.8359C120.549 94.4696 119.917 96.0363 118.792 97.1914C117.667 98.3465 116.141 98.995 114.55 98.9951H76.4373L80.0369 111.315H80.5496C83.2006 111.319 85.7424 112.402 87.6169 114.326C89.4915 116.251 90.5464 118.86 90.5496 121.582C90.5495 122.127 90.3387 122.649 89.9636 123.034C89.5887 123.419 89.0798 123.635 88.5496 123.635H32.5496C32.0191 123.635 31.5096 123.419 31.1345 123.034C30.7595 122.649 30.5496 122.127 30.5496 121.582C30.5527 118.86 31.6067 116.251 33.4812 114.326C35.3559 112.402 37.8984 111.319 40.5496 111.315H41.0613L44.6609 98.9951H6.54956C4.95826 98.9951 3.43161 98.3466 2.3064 97.1914C1.18127 96.0363 0.549619 94.4695 0.549561 92.8359V6.59766C0.549561 4.96395 1.18118 3.39641 2.3064 2.24121C3.4316 1.0861 4.95833 0.4375 6.54956 0.4375H114.55ZM40.5496 115.422C39.309 115.423 38.0987 115.819 37.0857 116.555C36.073 117.29 35.3065 118.328 34.8914 119.528H86.2068C85.7916 118.328 85.0252 117.29 84.0125 116.555C82.9996 115.82 81.79 115.424 80.5496 115.422H40.5496ZM45.2371 111.315H75.8572L72.2576 98.9951H48.8376L45.2371 111.315ZM4.54956 92.8359C4.54962 93.3804 4.7595 93.9031 5.13452 94.2881C5.50959 94.6731 6.01914 94.8887 6.54956 94.8887H114.55C115.08 94.8886 115.589 94.673 115.964 94.2881C116.339 93.9031 116.549 93.3804 116.55 92.8359V82.5693H4.54956V92.8359ZM60.5496 86.6758C61.654 86.6759 62.5496 87.5956 62.5496 88.7295C62.5494 89.8633 61.6539 90.7821 60.5496 90.7822C59.4451 90.7822 58.5497 89.8634 58.5496 88.7295C58.5496 87.5955 59.445 86.6758 60.5496 86.6758ZM6.54956 4.54395C6.01913 4.54395 5.50959 4.76044 5.13452 5.14551C4.75961 5.53055 4.54956 6.05321 4.54956 6.59766V78.4629H116.55V6.59766C116.55 6.05317 116.339 5.53056 115.964 5.14551C115.589 4.76054 115.08 4.54405 114.55 4.54395H6.54956ZM9.76147 58.8711C10.2662 58.704 10.8149 58.749 11.2869 58.9971C17.1922 62.0087 23.3917 64.3708 29.781 66.0439L28.7576 62.6396C28.6017 62.1188 28.6537 61.5557 28.9021 61.0742C29.1505 60.593 29.5747 60.2324 30.0818 60.0723C30.5891 59.9122 31.1381 59.9656 31.6072 60.2207C32.0762 60.4758 32.4268 60.9118 32.5828 61.4326L34.7029 68.4961C34.8092 68.8525 34.8199 69.232 34.7322 69.5938C34.6444 69.9554 34.4615 70.2852 34.2048 70.5488L29.9636 74.9062C29.5864 75.2803 29.0808 75.4871 28.5564 75.4824C28.0322 75.4777 27.5307 75.2623 27.1599 74.8818C26.7891 74.5011 26.5785 73.9856 26.574 73.4473C26.5694 72.9089 26.7712 72.3902 27.1355 72.0029L29.0056 70.083C22.253 68.3262 15.7018 65.8353 9.46362 62.6523C8.99154 62.404 8.63422 61.9734 8.47144 61.4551C8.30866 60.9368 8.35358 60.3733 8.59546 59.8887C8.83731 59.4041 9.25669 59.0382 9.76147 58.8711ZM109.647 58.9834C110.121 58.7383 110.671 58.6964 111.175 58.8672C111.678 59.038 112.096 59.407 112.335 59.8936C112.573 60.3801 112.613 60.9446 112.447 61.4619C112.281 61.9791 111.921 62.4073 111.447 62.6523C105.26 65.758 98.7809 68.2115 92.1111 69.9746L94.0857 72.001C94.4499 72.3882 94.6508 72.9071 94.6462 73.4453C94.6417 73.9835 94.4318 74.4983 94.0613 74.8789C93.6905 75.2596 93.1882 75.4758 92.6638 75.4805C92.1396 75.4851 91.6347 75.2782 91.2576 74.9043L87.0134 70.5469C86.7568 70.2834 86.5748 69.9533 86.4871 69.5918C86.3993 69.2301 86.4091 68.8505 86.5154 68.4941L88.6375 61.4326C88.7146 61.1749 88.8402 60.9353 89.0076 60.7275C89.175 60.5198 89.3809 60.3479 89.613 60.2217C89.8452 60.0955 90.0996 60.0176 90.3611 59.9922C90.6225 59.9668 90.8864 59.994 91.1375 60.0732C91.3885 60.1525 91.6216 60.2822 91.824 60.4541C92.0264 60.626 92.1942 60.8369 92.3171 61.0752C92.44 61.3135 92.516 61.5743 92.5408 61.8428C92.5655 62.1111 92.5388 62.382 92.4617 62.6396L91.4832 65.8945C97.7471 64.2178 103.833 61.9052 109.651 58.9912L109.647 58.9834ZM42.5496 10.7041C43.0798 10.7043 43.5887 10.9206 43.9636 11.3057L50.7849 18.3008L59.5496 13.1143C59.8535 12.9342 60.1986 12.8398 60.5496 12.8398C60.9005 12.8399 61.2456 12.9341 61.5496 13.1143L84.0291 26.4424C84.3277 26.6288 84.576 26.8895 84.7507 27.2002C84.9255 27.511 85.0211 27.862 85.0291 28.2207V45.6104H100.55C101.08 45.6104 101.589 45.826 101.964 46.2109C102.339 46.596 102.55 47.1186 102.55 47.6631C102.55 48.2076 102.339 48.7302 101.964 49.1152C101.589 49.5002 101.08 49.7167 100.55 49.7168H85.0291V54.8701C85.029 55.2304 84.9368 55.5845 84.7615 55.8965C84.5859 56.2086 84.3331 56.4682 84.0291 56.6484L61.5496 69.9746C61.2429 70.1464 60.8989 70.2363 60.5496 70.2363C60.2003 70.2363 59.8562 70.1463 59.5496 69.9746L37.0691 56.6484C36.7651 56.4682 36.5132 56.2086 36.3376 55.8965C36.1622 55.5844 36.0691 55.2305 36.0691 54.8701V28.2207C36.077 27.862 36.1727 27.5109 36.3474 27.2002C36.5222 26.8895 36.7705 26.6288 37.0691 26.4424L47.2117 20.4365L41.7312 14.8105H14.7312C14.2008 14.8105 13.6922 14.594 13.3171 14.209C12.9421 13.8239 12.7312 13.3014 12.7312 12.7568C12.7313 12.2125 12.9422 11.6906 13.3171 11.3057C13.6922 10.9206 14.2008 10.7041 14.7312 10.7041H42.5496ZM40.0691 53.6855L58.5496 64.6396V42.7354L40.0691 31.7773V53.6855ZM62.5496 42.7354V64.6396L81.0291 53.6855V49.7168H78.5496C78.0193 49.7167 77.5105 49.5002 77.1355 49.1152L73.1355 45.0088C72.7713 44.6216 72.5695 44.1027 72.574 43.5645C72.5785 43.0261 72.7891 42.5106 73.1599 42.1299C73.5307 41.7493 74.0321 41.533 74.5564 41.5283C75.0808 41.5236 75.5864 41.7314 75.9636 42.1055L79.3777 45.6104H81.0291V31.7812L62.5496 42.7354ZM100.55 37.3965C101.08 37.3966 101.589 37.6131 101.964 37.998C102.339 38.3831 102.55 38.9057 102.55 39.4502C102.55 39.9947 102.339 40.5173 101.964 40.9023C101.589 41.2873 101.08 41.5028 100.55 41.5029H90.5496C90.0191 41.5029 89.5096 41.2874 89.1345 40.9023C88.7595 40.5173 88.5496 39.9947 88.5496 39.4502C88.5496 38.9057 88.7596 38.3831 89.1345 37.998C89.5096 37.613 90.0191 37.3965 90.5496 37.3965H100.55ZM53.7097 21.3027L55.9568 23.6113C56.3211 23.9986 56.5229 24.5173 56.5183 25.0557C56.5137 25.5938 56.3039 26.1087 55.9333 26.4893C55.5625 26.87 55.0603 27.0861 54.5359 27.0908C54.0117 27.0955 53.5068 26.8884 53.1296 26.5146L50.1296 23.4346L42.0691 28.2246L60.5496 39.1787L79.0291 28.2305L60.5496 17.2744L53.7097 21.3027ZM110.55 31.2373C111.654 31.2375 112.549 32.1562 112.55 33.29C112.55 34.4239 111.654 35.3436 110.55 35.3438C109.445 35.3438 108.55 34.424 108.55 33.29C108.55 32.1561 109.445 31.2373 110.55 31.2373ZM110.55 8.65039C111.08 8.65048 111.589 8.86697 111.964 9.25195C112.339 9.63702 112.55 10.1596 112.55 10.7041V25.0771C112.55 25.6217 112.339 26.1443 111.964 26.5293C111.589 26.9142 111.08 27.1298 110.55 27.1299C110.019 27.1299 109.511 26.9141 109.135 26.5293C108.76 26.1443 108.55 25.6217 108.55 25.0771V10.7041C108.55 10.1595 108.76 9.63702 109.135 9.25195C109.511 8.86706 110.019 8.65039 110.55 8.65039ZM20.5496 18.917C21.0799 18.9171 21.5886 19.1336 21.9636 19.5186C22.3386 19.9036 22.5496 20.4262 22.5496 20.9707C22.5495 21.5152 22.3386 22.0378 21.9636 22.4229C21.5886 22.8077 21.0798 23.0233 20.5496 23.0234H14.5496C14.0194 23.0234 13.5105 22.8076 13.1355 22.4229C12.7605 22.0378 12.5496 21.5152 12.5496 20.9707C12.5496 20.4261 12.7604 19.9036 13.1355 19.5186C13.5105 19.1336 14.0192 18.917 14.5496 18.917H20.5496ZM28.5496 18.917C29.654 18.9172 30.5496 19.8368 30.5496 20.9707C30.5494 22.1045 29.6539 23.0233 28.5496 23.0234C27.4451 23.0234 26.5497 22.1046 26.5496 20.9707C26.5496 19.8367 27.445 18.917 28.5496 18.917Z" fill="white"/>
</svg>
