<svg width="150" height="107" viewBox="0 0 150 107" fill="none" xmlns="http://www.w3.org/2000/svg">
<g clip-path="url(#clip0_345_486)">
<path d="M146.865 17.1502C145.14 10.6765 140.058 5.5787 133.604 3.84858C121.907 0.704292 75 0.704292 75 0.704292C75 0.704292 28.0937 0.704292 16.3959 3.84858C9.94227 5.5787 4.85928 10.6765 3.13443 17.1502C0 28.8834 0 53.3639 0 53.3639C0 53.3639 0 77.844 3.13443 89.5783C4.85928 96.0512 9.94227 101.149 16.3959 102.88C28.0937 106.023 75 106.023 75 106.023C75 106.023 121.907 106.023 133.604 102.88C140.058 101.149 145.14 96.0512 146.865 89.5783C150 77.844 150 53.3639 150 53.3639C150 53.3639 150 28.8834 146.865 17.1502Z" fill="#ED1D24"/>
<path d="M59.6592 75.5903L98.8637 53.365L59.6592 31.1376V75.5903Z" fill="white"/>
</g>
<defs>
<clipPath id="clip0_345_486">
<rect width="150" height="105.319" fill="white" transform="translate(0 0.704102)"/>
</clipPath>
</defs>
</svg>
