<?xml version="1.0" encoding="UTF-8"?>
<svg id="_레이어_2" data-name="레이어 2" xmlns="http://www.w3.org/2000/svg" viewBox="0 0 170.44 183.1">
  <defs>
    <style>
      .cls-1 {
        fill: #ad1e24;
      }

      .cls-2 {
        fill: #eabd38;
        stroke: #eabd38;
        stroke-width: .25px;
      }

      .cls-2, .cls-3 {
        stroke-miterlimit: 10;
      }

      .cls-3 {
        fill: #df6e33;
        stroke: #df6e33;
        stroke-width: 4px;
      }
    </style>
  </defs>
  <g id="_레이어_1-2" data-name="레이어 1">
    <g>
      <path class="cls-1" d="M133.32,106.16c-7.58-8.27-20.87-16.55-39.86-24.83-17.24-7.74-28.45-13.85-33.61-18.33-5.17-4.48-7.75-10.29-7.75-17.42,0-8.05,3.73-14.33,11.18-18.85,7.45-4.52,17.1-6.78,28.92-6.78,10.38,0,19.71,1.26,28,3.76.46-1.3,1.67-2.19,3.32-1.5,4.35,1.84,9.02,3.2,12.91,5.88V8.85c-.45.11-.97.09-1.54-.1-3.12-1.04-6.34-1.56-9.59-2.04-1.41-.21-2.24-1.8-2.15-3.13-12.71-.24-25.48-.22-38.13.47-8.49.46-16.23,2.29-24.15,5.29-4.42,1.67-9.1,2.87-13.67,4.26-1.89,2.68-4.75,4.55-6.77,7.33-1.36,1.87-3.81,1.49-4.99.2-6.38,7.3-9.59,16.08-9.59,26.38,0,9.72,3.08,18.35,9.25,25.91,6.16,7.55,18.95,15.73,38.36,24.54,13.99,6.3,23.53,10.97,28.61,14.01,5.08,3.04,9.08,6.53,11.99,10.48,2.91,3.95,4.37,8.39,4.37,13.32,0,17.61-13.58,26.42-40.73,26.42-8.91,0-18.33-1.52-28.24-4.56-9.91-3.03-17.83-6.91-23.74-11.61v11.3c7.09,5.57,15.4,9.66,23.23,14.44,1.25.24,2.48.47,3.7.69,14.25,2.64,28.62,4.65,42.86,7.31.73.14,1.36.35,1.92.61,11.46-1.94,21.04-5.5,28.75-10.67,12.33-8.27,18.49-20.16,18.49-35.64,0-10.32-3.79-19.62-11.37-27.9Z"/>
      <path class="cls-3" d="M140.86,170.95c-13.76,6.77-30.89,10.15-51.39,10.15-26.47,0-47.67-7.93-63.59-23.81-15.92-15.87-23.88-36.7-23.88-62.48,0-27.71,8.96-50.11,26.86-67.19C46.77,10.54,69.49,2,97,2c17.65,0,32.27,2.38,43.86,7.13v21.63c-13.32-6.93-28.03-10.39-44.12-10.39-21.37,0-38.7,6.65-51.98,19.94-13.28,13.29-19.92,31.06-19.92,53.3s6.21,37.93,18.62,50.46c12.41,12.53,28.7,18.79,48.86,18.79,18.69,0,34.87-3.87,48.54-11.6v19.7Z"/>
      <path class="cls-2" d="M142.09,7.51s17.69,6.88,28.22,12.27v141.59s-14.74,6.4-28.22,11.03V7.51Z"/>
    </g>
  </g>
</svg>