<svg width="132" height="132" viewBox="0 0 132 132" fill="none" xmlns="http://www.w3.org/2000/svg">
<path d="M66.3606 131.6C102.535 131.6 131.861 102.274 131.861 66.0996C131.861 29.925 102.535 0.599609 66.3606 0.599609C30.1859 0.599609 0.860596 29.925 0.860596 66.0996C0.860596 102.274 30.1859 131.6 66.3606 131.6Z" fill="#C4353B"/>
<path d="M101.486 66.0995L48.7981 96.9246V35.2744L101.486 66.0995Z" fill="#DE6F35"/>
<path d="M53.3938 72.3223L55.5305 69.3936H58.7942C60.6901 69.3936 61.8175 70.5698 61.8176 72.3936V81.754C61.8176 83.5779 60.6901 84.7539 58.7942 84.754H53.3938V89.4102H49.0745V69.3936H53.3938V72.3223ZM94.1838 79.5215H95.4553L97.8313 69.3936H102.344L96.8713 89.4102H92.4553L94.303 83.4102H92.9836C91.3757 83.4102 90.6796 82.7619 90.3196 81.25L87.4153 69.3936H92.0471L94.1838 79.5215ZM44.7268 42.917C48.4641 42.9171 50.3987 44.8078 50.3987 48.2813V61.7793C50.3987 65.2529 48.3762 67.6719 44.6389 67.6719H37.5051V88.417H31.1292V52.9864L35.1751 48.3252H28.5794L33.3723 42.917H44.7268ZM69.0813 64.3594H69.0774V80.8663H70.9973V84.754H67.7336C65.8377 84.7539 64.7102 83.5779 64.7102 81.754V64.2579H64.7131V49H69.0813V64.3594ZM85.6282 84.754H81.3088V81.8497L79.1721 84.754H75.884C73.9883 84.7538 72.8606 83.5778 72.8606 81.754V72.3936C72.8607 70.5698 73.9883 69.3937 75.884 69.3936H85.6282V84.754ZM53.3938 80.8663H57.4983V73.2823H53.3938V80.8663ZM77.1799 80.8663H81.3088V73.2823H77.1799V80.8663ZM60.9719 52.8877H57.7083V64.3594H53.3401V52C53.3401 50.176 54.4685 49 56.3645 49H63.8518L60.9719 52.8877ZM90.1594 64.3594H86.1038V52.8877H83.2473V64.3594H79.1917V52.8877H76.3352V64.3594H72.2073V52C72.2073 50.176 73.3357 49 75.2317 49H90.1594V64.3594ZM102.524 49C104.636 49.0002 105.692 50.2 105.692 52.2159V56.0323C105.692 57.8559 104.972 58.792 103.076 58.792H97.2434V60.5918H105.908L103.412 64.3594H95.9475C94.0515 64.3594 92.9231 63.1834 92.9231 61.3594V52C92.9231 50.176 94.0515 49 95.9475 49H102.524ZM37.5051 62.2637H44.0237V48.3252H37.5051V62.2637ZM97.2434 55.336H101.42V52.7676H97.2434V55.336ZM69.0813 47.7042H64.7131V43.8643H69.0813V47.7042Z" fill="white"/>
<g style="mix-blend-mode:multiply" opacity="0.5">
<path d="M53.3938 72.3218L55.5305 69.3931H58.7942C60.6899 69.3932 61.8174 70.5695 61.8176 72.3931V81.7535C61.8176 83.5774 60.6901 84.7535 58.7942 84.7535H53.3938V89.4097H49.0745V69.3931H53.3938V72.3218ZM69.0813 64.359H69.0774V80.8658H70.9973V83.9361L69.6008 84.7535H67.7336C65.8377 84.7535 64.7102 83.5774 64.7102 81.7535V64.2574H64.7131V48.9996H69.0813V64.359ZM85.6282 75.3765L81.3088 77.9029V73.2818H77.1799V80.3189L72.9954 82.7672C72.9077 82.458 72.8606 82.1188 72.8606 81.7535V72.3931C72.8609 70.5696 73.9884 69.3933 75.884 69.3931H85.6282V75.3765ZM53.3938 80.8658H57.4983V73.2818H53.3938V80.8658ZM92.4651 71.3756L88.4729 73.7115L87.4153 69.3931H92.0471L92.4651 71.3756ZM48.7981 44.147C49.8584 45.0531 50.3986 46.446 50.3987 48.2808V61.7789C50.3987 63.5861 49.8498 65.1068 48.7981 66.1509V44.147ZM60.9719 52.8873H57.7083V64.359H53.3401V51.9996C53.3402 50.1758 54.4686 48.9996 56.3645 48.9996H63.8518L60.9719 52.8873ZM78.9036 52.8873H76.3352V64.359H72.2073V51.9996C72.2074 50.9459 72.5842 50.1088 73.2678 49.5894L78.9036 52.8873ZM83.2473 55.4283V64.359H79.1917V53.0552L83.2473 55.4283ZM90.1594 59.4722V64.359H86.1038V57.0992L90.1594 59.4722ZM98.511 64.359H95.9475C94.0515 64.359 92.9231 63.183 92.9231 61.359V61.0894L98.511 64.359ZM69.0813 47.1402V47.7037H64.7131V44.5845L69.0813 47.1402Z" fill="#DE6F35" fill-opacity="0.22"/>
</g>
</svg>
