<svg width="69" height="42" viewBox="0 0 69 42" fill="none" xmlns="http://www.w3.org/2000/svg">
<path d="M21.8977 26.4305L23.7815 23.8485H26.6604C28.3321 23.8486 29.3264 24.8857 29.3265 26.494V34.7479C29.3265 36.3563 28.3322 37.3942 26.6604 37.3944H21.8977V41.4998H18.0882V23.8485H21.8977V26.4305ZM57.8684 32.7801H58.9905L61.0852 23.8485H65.0647L60.2386 41.4998H56.344L57.9739 36.2088H56.8099C55.392 36.2088 54.7787 35.6368 54.4612 34.3036L51.8997 23.8485H55.9847L57.8684 32.7801ZM14.2542 0.499847C17.55 0.499847 19.2561 2.16714 19.2561 5.23032V17.1336C19.2561 20.1968 17.4729 22.3299 14.177 22.3299H7.88602V40.6248H2.26395V9.37875L5.83134 5.26938H0.0149307L4.24149 0.499847H14.2542ZM35.7317 19.409H35.7288V33.9657H37.4222V37.3944H34.5433C32.8714 37.3943 31.8772 36.3563 31.8772 34.7479V19.3192H31.8792V5.86411H35.7317V19.409ZM50.3235 37.3944H46.514V34.8329L44.6311 37.3944H41.7308C40.059 37.3942 39.0647 36.3563 39.0647 34.7479V26.494C39.0648 24.8857 40.0591 23.8487 41.7308 23.8485H50.3235V37.3944ZM21.8977 33.9657H25.5169V27.2772H21.8977V33.9657ZM42.8743 33.9657H46.514V27.2772H42.8743V33.9657ZM28.5804 9.29282H25.7024V19.409H21.8509V8.50961C21.8509 6.90118 22.845 5.8642 24.5169 5.86411H31.1204L28.5804 9.29282ZM54.3196 19.409H50.7425V9.29282H48.2239V19.409H44.6477V9.29282H42.1292V19.409H38.4886V8.50961C38.4886 6.90111 39.4836 5.86411 41.1556 5.86411H54.3196V19.409ZM65.2229 5.86411C67.0854 5.86414 68.0169 6.92225 68.0169 8.70004V12.0653C68.0169 13.6737 67.3812 14.4989 65.7093 14.4989H60.5667V16.0868H68.2073L66.0061 19.409H59.4241C57.7521 19.409 56.7571 18.372 56.7571 16.7635V8.50961C56.7571 6.90111 57.7521 5.86411 59.4241 5.86411H65.2229ZM7.88602 17.5604H13.6341V5.26938H7.88602V17.5604ZM60.5667 11.451H64.2493V9.18637H60.5667V11.451ZM35.7317 4.72153H31.8792V1.33481H35.7317V4.72153Z" fill="white"/>
<g style="mix-blend-mode:multiply" opacity="0.5">
<path d="M21.8977 26.4308L23.7815 23.8488H26.6604C28.3321 23.8489 29.3264 24.886 29.3264 26.4943V34.7482C29.3263 36.3564 28.3321 37.3945 26.6604 37.3947H21.8977V41.5001H18.0881V23.8488H21.8977V26.4308ZM35.7317 19.4093H35.7288V33.966H37.4221V36.672L36.1878 37.3947H34.5432C32.8715 37.3945 31.8773 36.3564 31.8772 34.7482V19.3195H31.8792V5.8644H35.7317V19.4093ZM50.3235 29.1242L46.5139 31.3537V27.2775H42.8743V33.4826L39.1838 35.6417C39.1066 35.3691 39.0647 35.0704 39.0647 34.7482V26.4943C39.0648 24.886 40.0591 23.849 41.7307 23.8488H50.3235V29.1242ZM21.8977 33.966H25.5169V27.2775H21.8977V33.966ZM56.3528 25.5968L52.8323 27.6564L51.8997 23.8488H55.9846L56.3528 25.5968ZM17.845 1.5851C18.7798 2.38418 19.2561 3.61264 19.2561 5.23061V17.1339C19.256 18.7274 18.7721 20.0677 17.845 20.9884V1.5851ZM28.5803 9.29311H25.7024V19.4093H21.8508V8.5099C21.8508 6.90148 22.845 5.86451 24.5169 5.8644H31.1204L28.5803 9.29311ZM44.3948 9.29311H42.1292V19.4093H38.4885V8.5099C38.4885 7.58041 38.8219 6.8429 39.4251 6.3849L44.3948 9.29311ZM48.2239 11.5333V19.4093H44.6477V9.44057L48.2239 11.5333ZM54.3196 15.0997V19.4093H50.7424V13.006L54.3196 15.0997ZM61.6858 19.4093H59.4241C57.7522 19.4093 56.7572 18.3721 56.7571 16.7638V16.5255L61.6858 19.4093ZM35.7317 4.22377V4.72182H31.8792V1.96986L35.7317 4.22377Z" fill="#DE6F35" fill-opacity="0.22"/>
</g>
</svg>
