<svg width="115" height="115" viewBox="0 0 115 115" fill="none" xmlns="http://www.w3.org/2000/svg">
<path d="M41.9544 68.9234C41.9544 73.6404 43.2847 77.3132 45.9485 79.9448C48.6123 82.6311 52.4296 83.9742 57.4069 83.9742C61.7801 83.9742 65.1701 82.8785 67.5833 80.6839C70.0446 78.6017 71.2785 75.7226 71.2785 72.0467C71.2785 68.3707 70.247 65.4402 68.1873 63.5733C66.4265 61.9828 63.1361 60.5304 58.3131 59.213L53.1108 57.8152C47.6837 56.2793 43.8631 54.3899 41.6524 52.1406C39.1396 49.6729 37.8833 46.0805 37.8833 41.3634C37.8833 36.6464 39.4899 32.5624 42.7063 29.5998C46.0224 26.6371 50.5209 25.1591 56.1987 25.1591C61.8765 25.1591 66.5743 26.7785 69.8422 30.0111C73.1068 33.1922 74.7906 37.6875 74.8934 43.5002H69.5401C69.4887 39.2234 68.2837 35.9041 65.922 33.5488C63.5089 31.2449 60.1928 30.0946 55.9706 30.0946C51.7484 30.0946 48.683 31.0811 46.4723 33.0572C44.3097 35.0301 43.2301 37.8578 43.2301 41.5305C43.2301 44.326 43.9595 46.5496 45.4151 48.1948C46.8225 49.7853 49.1842 51.0192 52.5003 51.8964L59.0585 53.6252C65.1894 55.2703 69.5626 57.4104 72.175 60.042C74.9898 62.7861 76.3972 66.597 76.3972 71.4747C76.3972 76.7926 74.6877 81.0148 71.2721 84.1413C67.8532 87.3224 63.2325 88.913 57.4005 88.913C50.6655 88.913 45.5147 87.2132 41.948 83.8136C38.4295 80.4139 36.6719 75.5877 36.6719 69.3379V68.9266H41.948L41.9544 68.9234Z" fill="#37AFE4"/>
<path d="M56.1963 30.0432V57.0344V84.0257" stroke="#2F87A5" stroke-width="5.78383" stroke-miterlimit="10"/>
<path d="M58.123 55.9837C58.1712 55.9708 71.94 54.1425 72.1006 44.6635" stroke="#3186A3" stroke-width="5.46251" stroke-miterlimit="10"/>
<path d="M55.5947 57.1244C55.5947 57.1244 73.6499 55.521 73.8652 71.1727" stroke="#3186A3" stroke-width="5.46251" stroke-miterlimit="10"/>
<path d="M57.4805 114.195C26.1482 114.195 0.654297 88.7007 0.654297 57.3684C0.654297 26.0361 26.1482 0.539062 57.4805 0.539062C88.8128 0.539062 114.307 26.0329 114.307 57.3684C114.307 88.704 88.8128 114.198 57.4805 114.198V114.195ZM57.4805 8.57216C30.576 8.57216 8.6874 30.4608 8.6874 57.3684C8.6874 84.2761 30.576 106.165 57.4805 106.165C84.3849 106.165 106.274 84.2761 106.274 57.3684C106.274 30.4608 84.3881 8.57216 57.4805 8.57216Z" fill="#37AFE4"/>
</svg>
